<?xml version="1.0" encoding="UTF-8"?><svg id="b" xmlns="http://www.w3.org/2000/svg" viewBox="0 0 675.14 720"><g id="c"><path d="M292.53,707.57c1.12,1.94,6.34,5.15,15.45,7.93,3.6,1.09,6.38,1.69,8.61,2.18,5.26.84,6.68,1.07,11.15,1.69-3.11-.69-5.18-1.7-9.81-4.4-5.76-3.35-7.97-4.54-12.56-6.54-4.2-1.68-7.21-2.48-9.26-2.74-3.47-.43-4.26.71-3.58,1.89M333.79,713.28c.04.26.11.59.19.86,3.14,10.64,22.92,4.78,26.46-1.76,1.84-3.41-.38-5.62-1.44-6.69-2.32-1.68-5-2.61-7.73-2.94-8.96-1.1-18.47,4.22-17.47,10.53M227.55,678.02c.71,3.21,7.43,9.66,20.86,16.94,14.97,8.11,33.41,14.22,36.13,13.79.03-.14.05-.3.07-.43-.41-.55-21.06-18.13-39.88-28.03-6.48-3.14-10.53-4.42-13.08-4.73-4.57-.56-4.2,2.02-4.1,2.46M387.4,711.52c-11.05,6.93-9.94,7.31-9.06,7.59,4.64,1.51,51.48-6.56,53.44-18.87-.37-1.54-2-2.51-4.63-2.83-7.3-.9-22.32,3.18-39.76,14.12M283.71,683.62c.72,2.28,2.09,4.68,4.07,7.14,12.06,14.94,37.37,23,38.93,5.05.36-4.21-.82-12.43-12.83-20.33-5.19-2.87-10.13-4.45-14.45-4.98-11.27-1.38-18.46,4.35-15.71,13.11M502.77,687.08c-8.72,1.15-22.21,6.91-49.09,18.38-7.52,3.22-15.88,4.53-22.58,9.65,2.22,2.18,58.67-10.79,74.75-25.27.64-.77,2.12-2.56-.33-2.86-.63-.08-1.52-.06-2.75.11M364.64,686.25c-3.85,17.39,14.97,22.13,35.96,9.07,2.28-1.44,21.92-14.21,11.47-26.67-3.19-2.71-7.19-4.24-11.48-4.77-14.58-1.79-32.76,7.97-35.95,22.37M152.8,634.95c1.39,4.4,9.22,13.63,23.58,24.37,18.58,13.89,42.27,25.55,41.27,21.37-.67-2.82-26.04-28.42-48.12-42.93-7.16-4.37-11.36-6.04-13.79-6.34-3.93-.48-3.25,2.59-2.95,3.53M208.86,636.99c.69,3.19,2.72,8.42,8.43,15.26,15.52,18.6,46.01,33.95,47.53,15.76.57-6.77-3.89-23.33-24.8-37.42-6.96-4.08-12.81-6.15-17.5-6.73-10.69-1.31-15.41,5.11-13.66,13.13M457.14,678.22c-2.76,2.92-15.88,17.55-3.33,17.72,16.52.25,62.24-22.68,60.29-39.13-1.09-2.53-3.5-3.92-6.8-4.32-11.77-1.45-34.91,9.54-50.16,25.73M305.44,646.06c6.38,25.72,44.34,36.06,58.75,9.55,2.93-5.41,8.02-19.39-8.23-32.4-6.04-3.89-12.2-6.04-18.05-6.76-20.22-2.48-36.84,11.99-32.47,29.61M83.91,577.68c.58,4.43,9.53,17.69,24.97,33.55,16.26,16.74,34.4,30.55,36.58,29.04.31-3.75-32.32-41.5-49.17-56.89-5.55-4.81-9.26-7.33-11.09-7.55-1.04-.13-1.48.49-1.29,1.85M589.28,635.35c-9.78,3.93-26.47,14.79-44.69,29.04-23.69,18.54-20.36,19.02-19.13,19.19,6.99,1.01,59.08-26.07,71.49-45.8,1.11-2.49.8-3.85-.93-4.06-1.37-.17-3.62.37-6.74,1.63M127.61,578.63c1.05,6.2,4.93,14.27,10.65,22.09,15.94,21.86,46.57,42.55,48.65,24.44,1.01-8.72-7.08-32.85-31.05-51.81-7.41-5.18-13.21-7.63-17.58-8.17-8.94-1.1-11.95,5.75-10.66,13.44M423.11,637.52c-6.3,21.04,11.53,33.97,39.09,18.91,16.34-8.95,34.84-29.46,22.7-45.12-3.91-3.6-8.64-5.56-13.74-6.19-18.72-2.3-42.37,13.41-48.05,32.4M220.56,585.7c.4,2.04,1.22,4.7,1.98,6.66,11.63,29.68,52.73,45.67,65.48,18.41,1.17-2.51,10.63-25.08-17.4-46.13-7.65-4.83-14.98-7.46-21.57-8.27-19.26-2.37-32.22,10.75-28.49,29.33M539.84,623.21c-9.82,15.01-11.49,29.04,4.8,25.45,21.63-4.77,59.09-36.87,55.07-56.29-1.53-3.34-4.27-5.07-7.79-5.51-13.56-1.67-38.77,16-52.09,36.35M354.67,583.71c.83,30.92,42.09,46.64,67.66,17.33,8.36-9.56,17.42-30.32-1.55-47.4-6.22-4.41-12.88-6.85-19.48-7.66-23.95-2.94-47.22,15.45-46.63,37.73M56.3,507.11c.15,7.96,4.22,19.85,10.89,31.81,14.07,25.24,37.27,46.28,40.27,32.45,1.99-9.22-8.09-41.68-29.89-64.95-6.51-6.23-11.03-8.69-14.17-9.08-7.2-.89-7.11,9.16-7.1,9.77M671.62,560.06c-6.94,3.12-23.96,20.37-40.47,41.01-5.31,6.64-22.12,28.17-15.71,26.71,8.14-1.86,47.54-40.38,58.34-63.37.6-1.63,1.71-4.66-.04-4.88-.48-.06-1.17.09-2.12.52M132.51,516.13c.45,3.31,1.69,8.09,3,11.6,11.71,31.37,48.21,52.17,60.84,27.58,5.91-11.48,5.94-37.86-19.12-59.77-7.54-5.61-14.6-8.54-20.8-9.31-16.22-1.99-26.51,10.93-23.92,29.89M497.72,570.09c-7.48,28.28,14.79,41.93,41.83,25.62,19.87-11.99,38.92-40.57,24.74-59.86-4.21-4.15-9.22-6.38-14.6-7.04-20.29-2.49-45.66,17.48-51.97,41.28M261.44,517.91c6.22,39.07,59.51,53.49,80.3,21.73,7.17-10.95,12.73-34.83-11.89-54.87-8.31-5.53-16.67-8.56-24.56-9.53-26.65-3.27-47.96,16.86-43.85,42.66M11.17,425.72c-1.43,6.36,2.33,24.95,8.93,44.19,8.91,25.92,20.21,45.61,22.81,39.74,2.78-6.26-8.08-50-21.97-76.84-1.49-2.63-5.22-9.23-7.73-9.54-.88-.11-1.62.56-2.05,2.45M621.74,548.89c-10.17,23.82-5.52,37.94,10.16,30.84,19.2-8.69,48.03-47.45,42.57-70.25-1.67-3.85-4.29-5.8-7.51-6.19-12.64-1.55-34.57,20.68-45.21,45.6M423.08,505.65c-1.5,35.97,39.61,51.74,67.67,25.98,14.71-13.49,25.81-41.89,4.42-62.78-6.45-4.96-13.4-7.65-20.32-8.5-25.42-3.12-50.66,18.66-51.78,45.3M58.03,437.95c.09,5.43.91,11.19,2.43,17.07,8.79,34.24,35.35,54.24,47.36,35.68,8.53-13.2,7.56-46.9-13.41-71.77-6.16-6.22-11.92-9.33-16.96-9.95-11.88-1.46-19.73,10.92-19.42,28.98M166.89,443.09c5.65,39.56,49.08,58.63,71.48,31.4,10.63-12.91,17.43-42.7-9.5-67.7-7.73-5.95-15.51-9.1-22.8-10-24.11-2.97-43.11,18.79-39.18,46.3M574.58,486.23c-5.3,32.26,16.01,48.82,40.71,31.64,19.25-13.39,37.17-49.37,20.3-73.12-4.32-4.56-9.21-6.95-14.3-7.58-19.6-2.41-42.16,21.43-46.71,49.05M326.2,431.16c1.88,40.79,51.21,59.65,79.98,30.59,14.35-14.52,22.71-45.57-3.69-69.13-7.84-5.67-16.01-8.75-23.96-9.73-28.19-3.46-53.64,19.57-52.33,48.27M14.88,342.64c-1.23,4.43-3.93,16.66-2.53,34.67,2.55,32.8,16.1,54.62,25.9,41.69,8.71-11.52,11.69-52.42-1.08-81.09-3.73-6.94-7.16-9.84-10.19-10.21-5.85-.72-10.17,7.99-12.1,14.94M89.25,357.74c-.06,1.39-.07,3.26-.04,4.65.96,37.55,31.05,59.93,52.77,39.27,16.66-15.88,20.99-53.32,1.64-77.83-6.17-6.35-12.57-9.62-18.74-10.38-18.32-2.25-34.49,17.64-35.62,44.29M496.66,413.98c-.52,39.54,37.84,57.94,65.14,31.22,18.47-18.05,23.76-52.06,2.18-73.86-6.19-4.98-12.69-7.65-19.09-8.44-24.58-3.02-47.85,21.8-48.22,51.07M226.27,349.16c.11,43.2,49.39,64.32,78.69,33.7,14.48-15.13,22.76-47.39-4.16-71.74-8.06-5.95-16.33-9.18-24.3-10.15-26.93-3.31-50.31,19.12-50.24,48.19M1.15,314.63c.03-.26.07-.51.1-.77-.11,1.21-.23,2.42-.34,3.62l.24-2.86ZM8.05,270.04c-.86,4.92-1.84,10.44-2.8,16.12.89-5.7,1.84-11.22,2.8-16.12-1.87,8.7-3.51,18.13-4.89,27.96-.58,4.12-1.08,8.11-1.51,12.04-.19,1.58-.35,3.1-.5,4.59l-.24,2.86c-.13,1.41-.24,2.8-.35,4.21-1.4,19.96.2,21.7.88,22.44,5.95-2.43,15.06-60.8,15.59-86.02-.06-5.82-.27-8.11-1.36-9.28-1.18.45-3.17,1.19-7.63,21.21M400.27,334.83c1.26,40.79,46.98,61.58,75.25,34.21,16.18-15.64,23.95-50-3.52-73.82-7.35-5.17-14.87-7.99-22.14-8.89-26.91-3.31-50.46,19.87-49.58,48.5M44.1,271.53c-.71,2.66-1.49,6.26-1.93,8.97-5.49,33.58,8.98,56.53,27.16,43.07,15.81-11.7,30.34-52.1,18.41-79.82-3.53-6.23-7.68-9.23-12.01-9.76-12.29-1.51-26.06,16.79-31.63,37.54M148.19,267.54c-5.29,37.32,26.92,59.68,55.57,38.63,21.27-15.64,30.54-50.55,11.07-73.84-6.28-5.99-12.93-9.07-19.52-9.88-22.22-2.73-43.64,20.44-47.12,45.1M301.28,255.87c-1.6,38.36,45.67,59.92,75.5,34.44,19.26-16.48,23.43-48.41-1.11-69.71-7.15-5.05-14.63-7.82-22-8.72-26.47-3.25-51.28,17.65-52.38,43.99M56.67,167.47c-7.48,7.44-16.37,22.18-22.65,37.57-10.41,25.48-11.35,45.7-2,42.45,12.12-4.21,35.61-49.15,37.19-76.53-.14-5.97-1.66-8.34-3.81-8.6-2.46-.3-5.77,2.17-8.74,5.12M103.12,191.92c-11.38,30.08,3.45,51.44,27.37,39.42,22.13-11.13,41.08-47.65,30.9-71.21-3.28-5.42-7.62-8.11-12.47-8.71-15.99-1.97-37.59,18.86-45.79,40.5M224.28,181.59c-8.15,33.13,24.98,53.96,55.4,34.83,21.91-13.79,32.19-44.87,13.15-65.83-5.54-4.84-11.61-7.39-17.77-8.15-22.09-2.71-45.51,17.67-50.78,39.15M93.66,101.87c-22.66,27.51-26.15,31.74-34.83,45.77-4.92,8.34-11.74,19.31-16.3,27.84-.09.2-.21.47-.31.66q1.34-1.1,47.79-68.12c2.84-4.12,3.61-5.29,4.35-6.58-.21.13-.49.3-.71.41M110.74,108.45c-4.97,4.88-10.28,11.13-14.21,16.69-15.33,21.68-16.96,39.72-3.37,37.16,18.32-3.47,49.87-42.33,52.74-64.95,0-4.86-1.83-7.02-4.72-7.37-7.59-.93-22.46,10.61-30.44,18.47M182.8,115.54c-13.83,23.96-2,42.77,22.19,35.31,26.51-8.17,47.73-41.56,39.15-61.59-2.69-4.27-6.61-6.45-11.21-7.02-15.84-1.95-39.81,15.37-50.14,33.31M127.75,69.48c-19.37,17.06-29.69,31.2-24.53,30.82,8.42-.65,52.09-40,64.82-53.94,2.62-3.08,3.25-4.09,3.19-5.18-.14-.11-.33-.18-.56-.2-4.26-.52-24.08,11.92-42.91,28.51M186.2,55c-1.95,1.56-4.47,3.71-6.3,5.4-18.57,17.17-19.5,30.42-7.91,30.37,19.55-.11,57.14-33.27,62.43-51.3.45-3.5-1.14-5.2-4.06-5.56-9.12-1.12-31.15,10.74-44.16,21.09M212.76,18.24c-20.52,10.8-32,21.45-27.01,22.62,10.15,2.34,74.85-37.06,75.47-37.46,2.57-1.79,2.92-2.08,3.41-2.98-.2-.19-.55-.31-1.02-.37-5.75-.71-30.94,7.74-50.84,18.2"/></g></svg>