<?xml version="1.0" encoding="UTF-8"?><svg id="b" xmlns="http://www.w3.org/2000/svg" xmlns:xlink="http://www.w3.org/1999/xlink" viewBox="0 0 623.32 189.35"><defs><style>.f{fill:none;}.g{fill:url(#e);}.h{clip-path:url(#d);}.i{fill:#002e6e;}</style><clipPath id="d"><path class="f" d="M80.52,175.97c.27.46,1.52,1.23,3.7,1.9.86.26,1.53.41,2.06.52,1.26.2,1.6.26,2.67.4-.74-.16-1.24-.41-2.35-1.05-1.38-.8-1.91-1.09-3.01-1.57-1.01-.4-1.73-.6-2.22-.66-.83-.1-1.02.17-.86.45M90.4,177.34c0,.06.03.14.05.21.75,2.55,5.49,1.14,6.34-.42.44-.82-.09-1.35-.34-1.6-.56-.4-1.2-.62-1.85-.71-2.15-.26-4.42,1.01-4.19,2.52M64.95,168.89c.17.77,1.78,2.32,5,4.06,3.59,1.94,8,3.41,8.65,3.3,0-.03.01-.07.02-.1-.1-.13-5.04-4.34-9.55-6.71-1.55-.75-2.52-1.06-3.13-1.13-1.1-.13-1.01.48-.98.59M103.24,176.92c-2.65,1.66-2.38,1.75-2.17,1.82,1.11.36,12.33-1.57,12.8-4.52-.09-.37-.48-.6-1.11-.68-1.75-.22-5.35.76-9.52,3.38M78.4,170.24c.17.55.5,1.12.97,1.71,2.89,3.58,8.95,5.51,9.32,1.21.09-1.01-.2-2.98-3.07-4.87-1.24-.69-2.43-1.07-3.46-1.19-2.7-.33-4.42,1.04-3.76,3.14M130.88,171.07c-2.09.28-5.32,1.66-11.76,4.4-1.8.77-3.8,1.08-5.41,2.31.53.52,14.05-2.58,17.91-6.05.15-.18.51-.61-.08-.69-.15-.02-.36-.01-.66.03M97.79,170.87c-.92,4.17,3.59,5.3,8.61,2.17.55-.34,5.25-3.4,2.75-6.39-.76-.65-1.72-1.02-2.75-1.14-3.49-.43-7.85,1.91-8.61,5.36M47.05,158.58c.33,1.05,2.21,3.26,5.65,5.84,4.45,3.33,10.13,6.12,9.89,5.12-.16-.68-6.24-6.81-11.53-10.28-1.71-1.05-2.72-1.45-3.3-1.52-.94-.12-.78.62-.71.85M60.48,159.07c.17.76.65,2.02,2.02,3.65,3.72,4.46,11.02,8.13,11.39,3.77.14-1.62-.93-5.59-5.94-8.96-1.67-.98-3.07-1.47-4.19-1.61-2.56-.31-3.69,1.22-3.27,3.15M119.95,168.94c-.66.7-3.8,4.2-.8,4.24,3.96.06,14.91-5.43,14.44-9.37-.26-.61-.84-.94-1.63-1.04-2.82-.35-8.36,2.29-12.01,6.16M83.61,161.24c1.53,6.16,10.62,8.64,14.07,2.29.7-1.3,1.92-4.64-1.97-7.76-1.45-.93-2.92-1.45-4.32-1.62-4.84-.59-8.82,2.87-7.78,7.09M30.54,144.86c.14,1.06,2.28,4.24,5.98,8.04,3.89,4.01,8.24,7.32,8.76,6.96.08-.9-7.74-9.94-11.78-13.63-1.33-1.15-2.22-1.76-2.66-1.81-.25-.03-.35.12-.31.44M151.6,158.68c-2.34.94-6.34,3.54-10.7,6.96-5.67,4.44-4.88,4.56-4.58,4.6,1.68.24,14.15-6.24,17.12-10.97.27-.6.19-.92-.22-.97-.33-.04-.87.09-1.61.39M41.01,145.09c.25,1.49,1.18,3.42,2.55,5.29,3.82,5.24,11.16,10.19,11.65,5.85.24-2.09-1.7-7.87-7.44-12.41-1.78-1.24-3.16-1.83-4.21-1.96-2.14-.26-2.86,1.38-2.55,3.22M111.8,159.19c-1.51,5.04,2.76,8.14,9.36,4.53,3.91-2.14,8.34-7.06,5.44-10.81-.94-.86-2.07-1.33-3.29-1.48-4.49-.55-10.15,3.21-11.51,7.76M63.28,146.78c.1.49.29,1.13.47,1.59,2.79,7.11,12.63,10.94,15.68,4.41.28-.6,2.55-6.01-4.17-11.05-1.83-1.16-3.59-1.79-5.17-1.98-4.61-.57-7.72,2.57-6.82,7.03M139.76,155.77c-2.35,3.6-2.75,6.96,1.15,6.1,5.18-1.14,14.15-8.83,13.19-13.48-.37-.8-1.02-1.22-1.87-1.32-3.25-.4-9.29,3.83-12.48,8.71M95.4,146.3c.2,7.41,10.08,11.17,16.21,4.15,2-2.29,4.17-7.26-.37-11.35-1.49-1.06-3.08-1.64-4.67-1.84-5.74-.7-11.31,3.7-11.17,9.04M23.93,127.96c.04,1.91,1.01,4.76,2.61,7.62,3.37,6.05,8.93,11.08,9.65,7.77.48-2.21-1.94-9.98-7.16-15.56-1.56-1.49-2.64-2.08-3.39-2.17-1.72-.21-1.7,2.19-1.7,2.34M171.32,140.64c-1.66.75-5.74,4.88-9.69,9.82-1.27,1.59-5.3,6.75-3.76,6.4,1.95-.44,11.39-9.67,13.97-15.18.14-.39.41-1.12,0-1.17-.11-.01-.28.02-.51.13M42.19,130.12c.11.79.4,1.94.72,2.78,2.8,7.52,11.55,12.5,14.57,6.61,1.42-2.75,1.42-9.07-4.58-14.32-1.81-1.34-3.5-2.05-4.98-2.23-3.89-.48-6.35,2.62-5.73,7.16M129.67,143.04c-1.79,6.77,3.54,10.04,10.02,6.14,4.76-2.87,9.32-9.72,5.93-14.34-1.01-.99-2.21-1.53-3.5-1.69-4.86-.6-10.94,4.19-12.45,9.89M73.07,130.54c1.49,9.36,14.26,12.81,19.24,5.21,1.72-2.62,3.05-8.34-2.85-13.14-1.99-1.33-3.99-2.05-5.88-2.28-6.38-.78-11.49,4.04-10.5,10.22M13.12,108.46c-.34,1.52.56,5.98,2.14,10.58,2.13,6.21,4.84,10.93,5.46,9.52.67-1.5-1.94-11.98-5.26-18.41-.36-.63-1.25-2.21-1.85-2.29-.21-.03-.39.13-.49.59M159.38,137.96c-2.44,5.71-1.32,9.09,2.43,7.39,4.6-2.08,11.5-11.37,10.2-16.83-.4-.92-1.03-1.39-1.8-1.48-3.03-.37-8.28,4.95-10.83,10.92M111.79,127.61c-.36,8.62,9.49,12.39,16.21,6.22,3.52-3.23,6.18-10.03,1.06-15.04-1.55-1.19-3.21-1.83-4.87-2.04-6.09-.75-12.14,4.47-12.4,10.85M24.34,111.39c.02,1.3.22,2.68.58,4.09,2.11,8.2,8.47,12.99,11.34,8.55,2.04-3.16,1.81-11.23-3.21-17.19-1.47-1.49-2.85-2.23-4.06-2.38-2.84-.35-4.73,2.62-4.65,6.94M50.42,112.62c1.35,9.48,11.76,14.04,17.12,7.52,2.55-3.09,4.18-10.23-2.28-16.22-1.85-1.42-3.72-2.18-5.46-2.4-5.77-.71-10.33,4.5-9.38,11.09M148.08,122.95c-1.27,7.73,3.84,11.69,9.75,7.58,4.61-3.21,8.9-11.83,4.86-17.51-1.03-1.09-2.21-1.66-3.43-1.81-4.69-.58-10.1,5.13-11.19,11.75M88.58,109.76c.45,9.77,12.27,14.29,19.16,7.33,3.44-3.48,5.44-10.92-.88-16.56-1.88-1.36-3.83-2.1-5.74-2.33-6.75-.83-12.85,4.69-12.54,11.56M14.01,88.56c-.3,1.06-.94,3.99-.61,8.3.61,7.86,3.86,13.08,6.2,9.99,2.09-2.76,2.8-12.56-.26-19.42-.89-1.66-1.71-2.36-2.44-2.45-1.4-.17-2.44,1.91-2.9,3.58M31.82,92.18c-.01.33-.02.78,0,1.11.23,9,7.44,14.36,12.64,9.41,3.99-3.8,5.03-12.77.39-18.64-1.48-1.52-3.01-2.3-4.49-2.49-4.39-.54-8.26,4.23-8.53,10.61M129.41,105.65c-.12,9.47,9.06,13.88,15.6,7.48,4.42-4.32,5.69-12.47.52-17.69-1.48-1.19-3.04-1.83-4.57-2.02-5.89-.72-11.46,5.22-11.55,12.23M64.65,90.12c.03,10.35,11.83,15.41,18.85,8.07,3.47-3.63,5.45-11.35-1-17.19-1.93-1.43-3.91-2.2-5.82-2.43-6.45-.79-12.05,4.58-12.03,11.54M10.72,81.85c0-.06.02-.12.02-.18-.03.29-.05.58-.08.87l.06-.68ZM12.37,71.17c-.21,1.18-.44,2.5-.67,3.86.21-1.36.44-2.69.67-3.86-.45,2.09-.84,4.34-1.17,6.7-.14.99-.26,1.94-.36,2.88-.04.38-.08.74-.12,1.1l-.06.68c-.03.34-.06.67-.08,1.01-.34,4.78.05,5.2.21,5.37,1.43-.58,3.61-14.56,3.74-20.6-.01-1.39-.06-1.94-.32-2.22-.28.11-.76.29-1.83,5.08M106.32,86.69c.3,9.77,11.25,14.75,18.03,8.19,3.88-3.75,5.74-11.98-.84-17.68-1.76-1.24-3.56-1.91-5.3-2.13-6.45-.79-12.09,4.76-11.88,11.62M21.01,71.52c-.17.64-.36,1.5-.46,2.15-1.31,8.04,2.15,13.54,6.51,10.32,3.79-2.8,7.27-12.48,4.41-19.12-.85-1.49-1.84-2.21-2.88-2.34-2.94-.36-6.24,4.02-7.58,8.99M45.94,70.57c-1.27,8.94,6.45,14.3,13.31,9.25,5.1-3.75,7.32-12.11,2.65-17.69-1.5-1.44-3.1-2.17-4.68-2.37-5.32-.65-10.45,4.9-11.29,10.8M82.61,67.77c-.38,9.19,10.94,14.35,18.08,8.25,4.61-3.95,5.61-11.6-.27-16.7-1.71-1.21-3.5-1.87-5.27-2.09-6.34-.78-12.28,4.23-12.55,10.54M24.02,46.6c-1.79,1.78-3.92,5.31-5.43,9-2.49,6.1-2.72,10.95-.48,10.17,2.9-1.01,8.53-11.77,8.91-18.33-.03-1.43-.4-2-.91-2.06-.59-.07-1.38.52-2.09,1.23M35.15,52.46c-2.73,7.21.83,12.32,6.56,9.44,5.3-2.67,9.84-11.41,7.4-17.06-.79-1.3-1.83-1.94-2.99-2.09-3.83-.47-9,4.52-10.97,9.7M64.17,49.98c-1.95,7.94,5.98,12.93,13.27,8.34,5.25-3.3,7.71-10.75,3.15-15.77-1.33-1.16-2.78-1.77-4.26-1.95-5.29-.65-10.9,4.23-12.16,9.38M32.88,30.88c-5.43,6.59-6.26,7.6-8.34,10.96-1.18,2-2.81,4.62-3.9,6.67-.02.05-.05.11-.07.16q.32-.26,11.45-16.32c.68-.99.86-1.27,1.04-1.58-.05.03-.12.07-.17.1M36.97,32.46c-1.19,1.17-2.46,2.67-3.4,4-3.67,5.19-4.06,9.51-.81,8.9,4.39-.83,11.94-10.14,12.63-15.56,0-1.16-.44-1.68-1.13-1.77-1.82-.22-5.38,2.54-7.29,4.42M54.23,34.16c-3.31,5.74-.48,10.24,5.32,8.46,6.35-1.96,11.43-9.95,9.38-14.75-.64-1.02-1.58-1.55-2.69-1.68-3.79-.47-9.54,3.68-12.01,7.98M41.05,23.13c-4.64,4.09-7.11,7.47-5.88,7.38,2.02-.15,12.48-9.58,15.53-12.92.63-.74.78-.98.76-1.24-.03-.03-.08-.04-.13-.05-1.02-.13-5.77,2.85-10.28,6.83M55.05,19.66c-.47.37-1.07.89-1.51,1.29-4.45,4.11-4.67,7.29-1.89,7.27,4.68-.03,13.69-7.97,14.95-12.29.11-.84-.27-1.25-.97-1.33-2.18-.27-7.46,2.57-10.58,5.05M61.41,10.85c-4.91,2.59-7.67,5.14-6.47,5.42,2.43.56,17.93-8.88,18.08-8.97.62-.43.7-.5.82-.71-.05-.05-.13-.08-.24-.09-1.38-.17-7.41,1.85-12.18,4.36"/></clipPath><radialGradient id="e" cx="-2253.7" cy="495.85" fx="-2253.7" fy="495.85" r="1.4" gradientTransform="translate(-29637.93 135231.17) rotate(90) scale(59.96 -59.96)" gradientUnits="userSpaceOnUse"><stop offset="0" stop-color="#46c6ea"/><stop offset="1" stop-color="#30266f"/></radialGradient></defs><g id="c"><path class="i" d="M185.84,53.65v28.98c0,24.54,25.19,23.22,25.19,23.22h115.6v-22.9s-108.52,0-108.52,0c-7.25,0-7.41-6.76-7.41-6.76v-8.39h115.43v-14.16,4.5-14.16h-115.43v-8.41s.16-6.75,7.41-6.75h108.52V5.96h-115.6s-25.19-1.32-25.19,23.22v28.98-4.5Z"/><path class="i" d="M358.71,85.32v-17.5h115.43v-14.16,4.5-14.16h-115.43v-8.4s.17-6.75,7.41-6.75h108.53V5.96h-115.61s-25.19-1.32-25.19,23.22v28.98-4.5,52.26l24.86-.06v-20.53"/><path class="i" d="M623.27,66.98l.06,16.73c0,23.17-26.55,22.13-26.55,22.13h-114.22v-23.35h111.19c5.77,0,5.21-4.03,5.21-4.03v-6.65c0-4.82-5.3-4.41-5.3-4.41h-85.92s-28.87,1.85-28.87-21.6l-.02-15.16c0-25.63,25.1-24.68,25.1-24.68h115.82v22.88s-110.91,0-110.91,0c-6.2,0-5.24,5.32-5.24,5.32v5.07s-.95,4.93,5.66,4.93h89.2s24.55-.85,24.79,22.82"/><g class="h"><rect class="g" x="8.55" y="10.79" width="170.16" height="167.76" transform="translate(-11.75 176.06) rotate(-83)"/></g><path class="i" d="M253.22,131.61v11.02h-52.3c-1.82,0-2.72.57-2.72,1.72v3.67c0,1.15.91,1.72,2.72,1.72h39.57c9.48,0,14.22,3.77,14.22,11.31v6.46c0,7.66-4.76,11.49-14.28,11.49h-52.3v-11.02h52.3c1.78,0,2.67-.55,2.67-1.66v-3.85c0-1.14-.89-1.72-2.67-1.72h-39.57c-9.52,0-14.28-3.38-14.28-10.13v-7.46c0-7.7,4.78-11.55,14.33-11.55h52.3Z"/><path class="i" d="M294.51,179c-11.89,0-17.83-5.01-17.83-15.04v-17.24c0-10.07,5.94-15.1,17.83-15.1h36.61c11.89,0,17.83,5.03,17.83,15.1v17.24c0,10.03-5.94,15.04-17.83,15.04h-36.61ZM294.51,142.63c-4.15,0-6.22,1.36-6.22,4.09v17.24c0,2.69,2.07,4.03,6.22,4.03h36.61c4.15,0,6.22-1.34,6.22-4.03v-17.24c0-2.72-2.07-4.09-6.22-4.09h-36.61Z"/><path class="i" d="M385.37,179c-9.52,0-14.28-3.83-14.28-11.49v-35.9h11.61v34.12c0,1.5.89,2.25,2.67,2.25h51.65v11.02h-51.65Z"/><path class="i" d="M512.07,169.7h-38.44l-5.21,9.3h-13.39l24.82-43.36c.35-.67.72-1.25,1.1-1.75.38-.49.82-.91,1.33-1.24.51-.33,1.13-.59,1.84-.77s1.6-.27,2.67-.27h11.97c3.28,0,5.69,1.32,7.23,3.97l24.76,43.42h-13.33l-5.33-9.3ZM479.26,159.28h27.13l-8.23-14.45c-.43-.79-.92-1.35-1.45-1.69-.53-.33-1.08-.5-1.63-.5h-4.56c-1.26,0-2.31.75-3.14,2.25l-8.12,14.39Z"/><path class="i" d="M549.92,131.61h57.04c9.12,0,13.68,3.85,13.68,11.55v4.27c0,8.02-4.56,12.03-13.68,12.03h-3.97l19.61,19.54h-15.99l-18.4-18.96h-26.68v18.96h-11.61v-47.39ZM561.53,142.63v7.58h45.79c1.54,0,2.31-.64,2.31-1.91v-3.82c0-1.23-.89-1.85-2.66-1.85h-45.44Z"/></g></svg>