<?xml version="1.0" encoding="UTF-8"?><svg id="b" xmlns="http://www.w3.org/2000/svg" viewBox="0 0 437.49 580.66"><g id="c"><path d="M0,455.31v28.98c0,24.54,25.19,23.22,25.19,23.22h115.6v-22.9s-108.52,0-108.52,0c-7.25,0-7.41-6.76-7.41-6.76v-8.39h115.43v-14.16,4.5-14.16H24.86v-8.41s.16-6.75,7.41-6.75h108.52v-22.89H25.19s-25.19-1.32-25.19,23.22v28.98-4.5Z"/><path d="M172.87,507.51v-38.04h115.43v-14.16,4.5-14.16h-115.43v-8.4s.17-6.75,7.41-6.75h108.53v-22.88h-115.61s-25.19-1.32-25.19,23.22v28.98-4.5,52.26l24.86-.06Z"/><path d="M437.43,468.64l.06,16.73c0,23.17-26.55,22.13-26.55,22.13h-114.22v-23.35h111.19c5.77,0,5.21-4.03,5.21-4.03v-6.65c0-4.82-5.3-4.41-5.3-4.41h-85.92s-28.87,1.85-28.87-21.6l-.02-15.16c0-25.63,25.1-24.68,25.1-24.68h115.82v22.88s-110.91,0-110.91,0c-6.2,0-5.24,5.32-5.24,5.32v5.07s-.95,4.93,5.66,4.93h89.2s24.55-.85,24.79,22.82"/><path d="M192.5,365.8c.58,1,3.28,2.66,7.99,4.1,1.86.56,3.3.88,4.45,1.13,2.72.43,3.46.55,5.76.87-1.61-.36-2.68-.88-5.07-2.28-2.98-1.73-4.12-2.35-6.49-3.38-2.17-.87-3.73-1.28-4.79-1.42-1.79-.22-2.2.37-1.85.97M213.83,368.75c.02.13.06.31.1.45,1.62,5.5,11.85,2.47,13.68-.91.95-1.77-.2-2.91-.74-3.46-1.2-.87-2.58-1.35-4-1.52-4.63-.57-9.55,2.18-9.03,5.44M158.91,350.52c.37,1.66,3.84,5,10.79,8.76,7.74,4.19,17.27,7.35,18.68,7.13.01-.07.03-.16.04-.22-.21-.28-10.89-9.37-20.62-14.49-3.35-1.63-5.45-2.29-6.76-2.45-2.37-.29-2.17,1.04-2.12,1.27M241.55,367.84c-5.72,3.58-5.14,3.78-4.68,3.92,2.4.78,26.62-3.39,27.63-9.76-.19-.8-1.03-1.3-2.39-1.47-3.77-.47-11.54,1.65-20.55,7.3M187.94,353.42c.37,1.18,1.08,2.42,2.1,3.69,6.23,7.72,19.32,11.89,20.12,2.61.19-2.18-.42-6.43-6.63-10.51-2.69-1.48-5.24-2.3-7.47-2.57-5.83-.72-9.54,2.25-8.12,6.78M301.19,355.21c-4.51.6-11.48,3.57-25.38,9.5-3.89,1.66-8.21,2.34-11.67,4.99,1.15,1.13,30.33-5.58,38.65-13.06.33-.4,1.1-1.32-.17-1.48-.33-.04-.79-.03-1.42.05M229.78,354.78c-1.99,8.99,7.74,11.44,18.59,4.69,1.18-.74,11.33-7.35,5.93-13.79-1.65-1.4-3.71-2.19-5.94-2.47-7.54-.93-16.93,4.12-18.58,11.56M120.27,328.25c.72,2.28,4.77,7.04,12.19,12.6,9.6,7.18,21.85,13.21,21.34,11.05-.35-1.46-13.46-14.69-24.88-22.19-3.7-2.26-5.87-3.12-7.13-3.28-2.03-.25-1.68,1.34-1.53,1.83M149.25,329.31c.36,1.65,1.41,4.35,4.36,7.89,8.03,9.62,23.79,17.55,24.57,8.15.29-3.5-2.01-12.06-12.82-19.35-3.6-2.11-6.62-3.18-9.05-3.48-5.53-.68-7.97,2.64-7.06,6.79M277.6,350.62c-1.43,1.51-8.21,9.07-1.72,9.16,8.54.13,32.18-11.72,31.17-20.23-.56-1.31-1.81-2.03-3.52-2.24-6.09-.75-18.05,4.93-25.93,13.3M199.18,334c3.3,13.3,22.92,18.64,30.37,4.94,1.52-2.8,4.14-10.02-4.25-16.75-3.12-2.01-6.31-3.12-9.33-3.49-10.45-1.28-19.04,6.2-16.79,15.31M84.65,298.65c.3,2.29,4.93,9.14,12.91,17.35,8.41,8.65,17.78,15.79,18.91,15.01.16-1.94-16.71-21.45-25.42-29.41-2.87-2.49-4.79-3.79-5.73-3.9-.54-.07-.76.25-.67.96M345.91,328.46c-5.05,2.03-13.69,7.65-23.1,15.01-12.25,9.58-10.52,9.83-9.89,9.92,3.62.52,30.54-13.48,36.96-23.68.58-1.29.41-1.99-.48-2.1-.71-.09-1.87.19-3.48.84M107.24,299.14c.54,3.21,2.55,7.38,5.5,11.42,8.24,11.3,24.08,22,25.15,12.64.52-4.51-3.66-16.98-16.05-26.78-3.83-2.68-6.83-3.94-9.09-4.22-4.62-.57-6.18,2.97-5.51,6.95M260.01,329.58c-3.26,10.88,5.96,17.56,20.21,9.77,8.45-4.62,18.01-15.23,11.74-23.32-2.02-1.86-4.47-2.88-7.11-3.2-9.68-1.19-21.9,6.93-24.84,16.75M155.3,302.8c.21,1.06.63,2.43,1.02,3.44,6.01,15.35,27.26,23.61,33.85,9.52.6-1.3,5.5-12.96-9-23.85-3.96-2.5-7.74-3.86-11.15-4.27-9.96-1.22-16.66,5.56-14.73,15.16M320.36,322.19c-5.07,7.76-5.94,15.02,2.48,13.16,11.18-2.47,30.55-19.06,28.47-29.1-.79-1.73-2.21-2.62-4.03-2.85-7.01-.86-20.04,8.27-26.93,18.79M224.63,301.76c.43,15.98,21.76,24.11,34.98,8.96,4.32-4.94,9-15.68-.8-24.5-3.22-2.28-6.66-3.54-10.07-3.96-12.38-1.52-24.41,7.99-24.11,19.51M70.38,262.17c.08,4.12,2.18,10.26,5.63,16.45,7.27,13.05,19.27,23.92,20.82,16.77,1.03-4.77-4.18-21.55-15.45-33.58-3.37-3.22-5.7-4.49-7.32-4.69-3.72-.46-3.68,4.73-3.67,5.05M388.48,289.54c-3.59,1.61-12.39,10.53-20.92,21.2-2.75,3.43-11.44,14.56-8.12,13.81,4.21-.96,24.58-20.87,30.16-32.76.31-.84.88-2.41-.02-2.52-.25-.03-.6.05-1.1.27M109.78,266.83c.23,1.71.87,4.18,1.55,6,6.05,16.22,24.92,26.97,31.46,14.26,3.06-5.94,3.07-19.57-9.89-30.9-3.9-2.9-7.55-4.42-10.75-4.81-8.38-1.03-13.71,5.65-12.37,15.45M298.58,294.73c-3.87,14.62,7.65,21.68,21.63,13.24,10.27-6.2,20.12-20.98,12.79-30.95-2.18-2.15-4.77-3.3-7.55-3.64-10.49-1.29-23.6,9.04-26.87,21.34M176.43,267.75c3.22,20.2,30.77,27.65,41.52,11.24,3.71-5.66,6.58-18-6.15-28.37-4.29-2.86-8.62-4.42-12.7-4.92-13.78-1.69-24.79,8.72-22.67,22.06M47.05,220.09c-.74,3.29,1.21,12.9,4.62,22.84,4.6,13.4,10.45,23.58,11.79,20.55,1.44-3.24-4.18-25.85-11.36-39.72-.77-1.36-2.7-4.77-3.99-4.93-.46-.06-.84.29-1.06,1.27M362.7,283.76c-5.26,12.32-2.85,19.61,5.25,15.94,9.92-4.49,24.83-24.53,22.01-36.32-.87-1.99-2.22-3-3.88-3.2-6.54-.8-17.87,10.69-23.37,23.58M259.99,261.41c-.77,18.59,20.48,26.75,34.99,13.43,7.61-6.98,13.34-21.66,2.29-32.46-3.34-2.56-6.93-3.96-10.5-4.4-13.14-1.61-26.19,9.65-26.77,23.42M71.27,226.41c.05,2.81.47,5.78,1.26,8.82,4.55,17.7,18.28,28.04,24.48,18.44,4.41-6.83,3.91-24.25-6.93-37.11-3.18-3.22-6.16-4.82-8.77-5.14-6.14-.75-10.2,5.64-10.04,14.98M127.55,229.07c2.92,20.45,25.37,30.31,36.95,16.23,5.49-6.67,9.01-22.08-4.91-35-4-3.07-8.02-4.71-11.79-5.17-12.46-1.54-22.29,9.71-20.25,23.94M338.32,251.37c-2.74,16.68,8.28,25.24,21.04,16.36,9.95-6.92,19.22-25.53,10.5-37.8-2.23-2.36-4.76-3.59-7.39-3.92-10.13-1.24-21.8,11.08-24.15,25.36M209.91,222.9c.97,21.09,26.47,30.84,41.35,15.81,7.42-7.51,11.74-23.56-1.91-35.74-4.05-2.93-8.28-4.52-12.38-5.03-14.57-1.79-27.73,10.12-27.05,24.95M48.97,177.14c-.64,2.29-2.03,8.61-1.31,17.92,1.32,16.96,8.32,28.24,13.39,21.55,4.51-5.95,6.04-27.1-.56-41.92-1.93-3.59-3.7-5.09-5.27-5.28-3.03-.37-5.26,4.13-6.26,7.72M87.41,184.94c-.03.72-.04,1.69-.02,2.4.5,19.41,16.05,30.98,27.28,20.3,8.61-8.21,10.85-27.56.85-40.24-3.19-3.28-6.5-4.97-9.69-5.36-9.47-1.16-17.83,9.12-18.42,22.9M298.03,214.02c-.27,20.44,19.56,29.95,33.67,16.14,9.55-9.33,12.28-26.91,1.13-38.18-3.2-2.57-6.56-3.96-9.87-4.36-12.71-1.56-24.74,11.27-24.93,26.4M158.25,180.51c.06,22.34,25.53,33.25,40.68,17.42,7.48-7.82,11.77-24.5-2.15-37.09-4.17-3.08-8.44-4.74-12.56-5.25-13.92-1.71-26.01,9.88-25.97,24.92M41.87,162.66c.02-.13.04-.26.05-.4-.06.62-.12,1.25-.18,1.87l.13-1.48ZM45.43,139.61c-.45,2.54-.95,5.4-1.45,8.33.46-2.95.95-5.8,1.45-8.33-.96,4.5-1.81,9.37-2.53,14.46-.3,2.13-.56,4.19-.78,6.22-.1.81-.18,1.6-.26,2.37l-.13,1.48c-.06.73-.13,1.45-.18,2.17-.72,10.32.1,11.22.46,11.6,3.08-1.25,7.78-31.43,8.06-44.47-.03-3.01-.14-4.19-.7-4.8-.61.23-1.64.62-3.94,10.96M248.2,173.1c.65,21.09,24.29,31.84,38.9,17.68,8.36-8.09,12.38-25.85-1.82-38.16-3.8-2.67-7.69-4.13-11.45-4.59-13.91-1.71-26.09,10.27-25.63,25.07M64.07,140.37c-.37,1.37-.77,3.23-1,4.64-2.84,17.36,4.64,29.22,14.04,22.27,8.17-6.05,15.68-26.94,9.52-41.27-1.83-3.22-3.97-4.77-6.21-5.05-6.35-.78-13.47,8.68-16.35,19.41M117.88,138.31c-2.73,19.3,13.92,30.85,28.73,19.97,11-8.09,15.79-26.13,5.72-38.18-3.25-3.1-6.68-4.69-10.09-5.11-11.49-1.41-22.56,10.57-24.36,23.31M197.02,132.28c-.83,19.83,23.61,30.98,39.03,17.81,9.96-8.52,12.11-25.03-.58-36.04-3.69-2.61-7.56-4.04-11.37-4.51-13.68-1.68-26.51,9.13-27.08,22.74M70.57,86.58c-3.86,3.85-8.46,11.46-11.71,19.42-5.38,13.17-5.87,23.63-1.03,21.94,6.26-2.17,18.41-25.41,19.23-39.57-.07-3.09-.86-4.31-1.97-4.45-1.27-.16-2.98,1.12-4.52,2.65M94.58,99.22c-5.89,15.55,1.78,26.6,14.15,20.38,11.44-5.75,21.24-24.63,15.97-36.82-1.7-2.8-3.94-4.19-6.45-4.5-8.27-1.02-19.43,9.75-23.67,20.94M157.22,93.88c-4.21,17.13,12.92,27.9,28.64,18.01,11.33-7.13,16.64-23.2,6.8-34.03-2.87-2.5-6-3.82-9.19-4.21-11.42-1.4-23.53,9.14-26.25,20.24M89.69,52.66c-11.71,14.22-13.52,16.41-18.01,23.66-2.55,4.31-6.07,9.98-8.42,14.39-.05.1-.11.24-.16.34q.7-.57,24.71-35.21c1.47-2.13,1.86-2.74,2.25-3.4-.11.07-.25.15-.36.21M98.52,56.07c-2.57,2.52-5.32,5.75-7.35,8.63-7.92,11.21-8.77,20.53-1.74,19.21,9.47-1.8,25.78-21.88,27.26-33.58,0-2.51-.95-3.63-2.44-3.81-3.92-.48-11.61,5.49-15.74,9.55M135.78,59.73c-7.15,12.39-1.03,22.11,11.47,18.25,13.71-4.23,24.68-21.48,20.24-31.84-1.39-2.21-3.42-3.34-5.8-3.63-8.19-1.01-20.58,7.95-25.92,17.22M107.32,35.92c-10.02,8.82-15.35,16.13-12.68,15.93,4.35-.33,26.93-20.68,33.51-27.89,1.35-1.59,1.68-2.12,1.65-2.68-.07-.05-.17-.09-.29-.11-2.2-.27-12.45,6.16-22.18,14.74M137.53,28.43c-1.01.81-2.31,1.92-3.26,2.79-9.6,8.88-10.08,15.73-4.09,15.7,10.1-.06,29.54-17.2,32.27-26.52.23-1.81-.59-2.69-2.1-2.87-4.72-.58-16.1,5.55-22.83,10.9M151.26,9.43c-10.61,5.58-16.55,11.09-13.97,11.7,5.25,1.21,38.7-19.16,39.02-19.37,1.33-.93,1.51-1.08,1.76-1.54-.1-.1-.28-.16-.53-.19-2.97-.37-15.99,4-26.28,9.41"/><path d="M67.38,533.27v11.02H15.08c-1.82,0-2.72.57-2.72,1.72v3.67c0,1.15.91,1.72,2.72,1.72h39.57c9.48,0,14.22,3.77,14.22,11.31v6.46c0,7.66-4.76,11.49-14.28,11.49H2.29v-11.02h52.3c1.78,0,2.67-.55,2.67-1.66v-3.85c0-1.14-.89-1.72-2.67-1.72H15.02c-9.52,0-14.28-3.38-14.28-10.13v-7.46c0-7.7,4.78-11.55,14.33-11.55h52.3Z"/><path d="M108.67,580.66c-11.89,0-17.83-5.01-17.83-15.04v-17.24c0-10.07,5.94-15.1,17.83-15.1h36.61c11.89,0,17.83,5.03,17.83,15.1v17.24c0,10.03-5.94,15.04-17.83,15.04h-36.61ZM108.67,544.29c-4.15,0-6.22,1.36-6.22,4.09v17.24c0,2.69,2.07,4.03,6.22,4.03h36.61c4.15,0,6.22-1.34,6.22-4.03v-17.24c0-2.72-2.07-4.09-6.22-4.09h-36.61Z"/><path d="M199.53,580.66c-9.52,0-14.28-3.83-14.28-11.49v-35.9h11.61v34.12c0,1.5.89,2.25,2.67,2.25h51.65v11.02h-51.65Z"/><path d="M326.24,571.36h-38.44l-5.21,9.3h-13.39l24.82-43.36c.35-.67.72-1.25,1.1-1.75.38-.49.82-.91,1.33-1.24.51-.33,1.13-.59,1.84-.77s1.6-.27,2.67-.27h11.97c3.28,0,5.69,1.32,7.23,3.97l24.76,43.42h-13.33l-5.33-9.3ZM293.42,560.93h27.13l-8.23-14.45c-.43-.79-.92-1.35-1.45-1.69-.53-.33-1.08-.5-1.63-.5h-4.56c-1.26,0-2.31.75-3.14,2.25l-8.12,14.39Z"/><path d="M364.08,533.27h57.04c9.12,0,13.68,3.85,13.68,11.55v4.27c0,8.02-4.56,12.03-13.68,12.03h-3.97l19.61,19.54h-15.99l-18.4-18.96h-26.68v18.96h-11.61v-47.39ZM375.69,544.29v7.58h45.79c1.54,0,2.31-.64,2.31-1.91v-3.82c0-1.23-.89-1.85-2.66-1.85h-45.44Z"/></g></svg>