<?xml version="1.0" encoding="UTF-8"?>
<svg id="Layer_1" xmlns="http://www.w3.org/2000/svg" version="1.1" viewBox="0 0 50.3 50.3">
  <!-- Generator: Adobe Illustrator 30.3.0, SVG Export Plug-In . SVG Version: 2.1.3 Build 182)  -->
  <defs>
    <style>
      .st0 {
        fill: #231f20;
      }

      .st1 {
        fill: #fff;
      }
    </style>
  </defs>
  <g id="Layer_2">
    <g id="Layer_1-2">
      <path class="st0" d="M25.1,50.3c13.9,0,25.1-11.3,25.1-25.1S39,0,25.1,0,0,11.3,0,25.1c0,13.9,11.3,25.1,25.1,25.1h0"/>
      <path class="st1" d="M27.1,37.7c-2.3,0-4.2-1.8-4.2-4.1,0-1.2.5-2.3,1.4-3.1.2-.2.3-.4.3-.6v-14.7c0-1.4,1.1-2.5,2.5-2.5s2.5,1.1,2.5,2.5v14.7c0,.2,0,.5.3.6,1.7,1.5,1.9,4.2.3,5.9-.8.9-1.9,1.4-3.1,1.4M31.2,15.1c.1-2.3-1.7-4.3-4-4.4-2.3-.1-4.3,1.7-4.4,4,0,.1,0,.3,0,.4v14.4c-2.3,2.3-2.2,6,0,8.3,2.3,2.3,6,2.2,8.3,0,2.2-2.3,2.2-5.9,0-8.2v-14.4Z"/>
      <path class="st1" d="M27.1,34.4c-.5,0-.8-.4-.8-.8,0-.5.4-.8.8-.8.5,0,.8.4.8.8h0c0,.5-.4.8-.8.8M27.9,31.2v-9.4c0-.5-.4-.8-.8-.8-.5,0-.8.4-.8.8v9.4c-1.3.5-2,1.9-1.5,3.2.5,1.3,1.9,2,3.2,1.5s2-1.9,1.5-3.2c-.3-.7-.8-1.3-1.5-1.5"/>
      <path class="st1" d="M33.7,15.9h1.7c.5,0,.8-.4.8-.8h0c0-.5-.4-.8-.8-.8h-1.7c-.5,0-.8.4-.8.8,0,.5.4.8.8.8h0"/>
      <path class="st1" d="M33.7,19.2h.8c.5,0,.8-.4.8-.8,0-.5-.4-.8-.8-.8h-.8c-.5,0-.8.4-.8.8,0,.5.4.8.8.8"/>
      <path class="st1" d="M35.4,20.9h-1.7c-.5,0-.8.4-.8.8h0c0,.5.4.8.8.8h1.7c.5,0,.8-.4.8-.8,0-.5-.4-.8-.8-.8h0"/>
      <path class="st1" d="M33.7,25.9h.8c.5,0,.8-.4.8-.8h0c0-.5-.4-.8-.8-.8h-.8c-.5,0-.8.4-.8.8,0,.5.4.8.8.8h0"/>
      <path class="st1" d="M35.4,27.6h-1.7c-.5,0-.8.4-.8.8,0,.5.4.8.8.8h1.7c.5,0,.8-.4.8-.8,0-.5-.4-.8-.8-.8"/>
      <path class="st1" d="M18.7,28.9l-.8.8v-8c0-.5-.4-.8-.8-.8-.5,0-.8.4-.8.8v8l-.8-.8c-.3-.3-.9-.3-1.2,0-.3.3-.3.9,0,1.2l2.2,2.2c.3.3.8.3,1.1,0,0,0,0,0,0,0l2.2-2.2c.3-.3.3-.9,0-1.2s-.9-.3-1.2,0h0"/>
    </g>
  </g>
</svg>