<?xml version="1.0" encoding="UTF-8"?> <svg xmlns="http://www.w3.org/2000/svg" id="Layer_2" data-name="Layer 2" viewBox="0 0 296 34.27"><defs><style> .cls-1, .cls-2 { fill: #00bb82; } .cls-3 { fill: #ff6c00; } .cls-2 { fill-rule: evenodd; } </style></defs><g id="Layer_1-2" data-name="Layer 1"><g><g><path class="cls-1" d="m229.47,2.12c-.68-.06-1.37.09-1.96.43-.59.35-1.07.86-1.36,1.48-.22.47-.33.97-.31,1.48,0,.51.14,1.01.37,1.47.23.45.57.84.98,1.15.41.31.88.51,1.39.59.68.11,1.37.02,1.98-.27.62-.3,1.13-.77,1.46-1.37.34-.59.47-1.28.4-1.96-.07-.76-.41-1.47-.95-2.01s-1.25-.88-2-.96v-.03h0Z"></path><path class="cls-2" d="m208.96,13.51c.92-.48,1.7-1.22,2.22-2.12s.77-1.94.73-2.98c0-3.42-2.36-6-6.93-6h-9.78v23.06h9.69c2.77,0,4.84-.6,6.17-1.81.63-.62,1.12-1.37,1.43-2.19.31-.83.46-1.7.4-2.59.05-1.21-.31-2.4-1.02-3.37-.72-.97-1.74-1.68-2.91-1.99h0Zm-8.22-6.34h2.95c.33-.04.66-.02.97.08s.6.27.85.48c.24.22.44.49.57.8.13.31.19.63.18.96,0,1.41-.86,2.43-2.93,2.43h-2.61v-4.74h0Zm3.07,13.57h-3.07v-4.78h3.03c1.76,0,2.79.96,2.79,2.46,0,1.29-.87,2.29-2.75,2.29v.03Z"></path><path class="cls-1" d="m217.66,10.3c.76.74,1.21,1.75,1.25,2.82.59-2.71,2.13-3.88,4.2-3.88.67-.07,1.35.02,1.98.25v5.1c-.58-.2-1.19-.29-1.8-.27-.5-.03-1,.06-1.46.28s-.84.55-1.12.97c-.4.68-.59,1.47-.56,2.27v7.65h-5.32v-8.1c.04-.96-.19-1.91-.69-2.73-.43-.63-1-1.13-1.68-1.46l2.34-4.02c1.07-.02,2.09.39,2.86,1.11h0Z"></path><path class="cls-1" d="m231.79,25.47h-5.35v-14.39l5.31-1.54.04,15.92Z"></path><path class="cls-2" d="m244.66,23.06h-4.84c-.81,0-1.28-.23-1.28-.9,0-.21.08-.42.21-.59.75.14,1.5.21,2.26.21,4.94,0,7.31-2.49,7.31-6.12.02-1.32-.35-2.61-1.06-3.72.29-.08.58-.13.88-.12h1.25v-4.49h-1.61c-.76-.07-1.53.13-2.15.56s-1.09,1.08-1.29,1.82c-1.07-.4-2.2-.59-3.34-.57-5.09,0-7.31,2.93-7.31,6.55-.04.84.11,1.69.44,2.47s.84,1.47,1.47,2.03c-.55.31-1,.76-1.31,1.29-.32.54-.49,1.15-.5,1.78-.02.84.26,1.66.79,2.31.52.65,1.26,1.1,2.08,1.26l-3.5,1.03c-.18.44-.28.91-.31,1.38,0,2.93,2.64,5.03,8.01,5.03,6.76,0,9.28-2.87,9.28-6.07,0-3.49-2.18-5.14-5.48-5.14Zm-3.65-9.72c.46,0,.91.14,1.29.4.38.26.68.63.85,1.05.18.43.22.89.13,1.34-.09.45-.31.87-.64,1.19-.33.32-.74.55-1.2.64-.45.09-.92.04-1.34-.14s-.79-.47-1.05-.86-.39-.84-.39-1.29c-.03-.31.02-.64.12-.93.11-.3.28-.56.51-.79s.5-.39.8-.5.62-.14.93-.11h0Zm.08,16.42c-2.47,0-3.42-.64-3.42-1.63,0-.4.14-.79.41-1.09h5.64c.86,0,1.31.47,1.31,1.1,0,1.06-1.46,1.61-3.93,1.61v.02h0Z"></path><path class="cls-1" d="m265.74,19.41v-4.78c0-2.73-1.46-5.41-5.06-5.41-.95-.04-1.9.2-2.72.68-.82.49-1.48,1.21-1.89,2.07V2.5l-5.31,1.53v21.49h5.31v-7.86c-.05-.76.11-1.52.47-2.2.18-.36.47-.67.82-.87.35-.21.76-.31,1.17-.29,1.34,0,1.91.96,1.91,2.4v4.08c-.13,1.23.15,2.47.8,3.53.47.54,1.06.96,1.73,1.23s1.38.38,2.1.31c1.12.02,2.23-.15,3.3-.51v-4.78c-.42.12-.84.18-1.28.18-.92-.02-1.34-.45-1.34-1.33Z"></path><path class="cls-1" d="m276.31,20.63c-.96,0-1.43-.4-1.43-1.51v-5.64h4.37v-4.08h-4.37v-5.08l-5.32,1.3v3.77h-2.4v4.08h2.4v6.21c0,2.03.34,3.18,1.06,4.11.96,1.26,2.29,1.86,4.52,1.86,1.95-.03,3.85-.56,5.54-1.54l-2.37-4.05c-.61.34-1.29.54-1.99.58Z"></path><path class="cls-2" d="m288.84,21.13c-.89.02-1.78-.24-2.51-.76l9.67-4.08c-.03-1.01-.26-2.01-.68-2.93-.42-.92-1.02-1.75-1.76-2.44-.74-.69-1.62-1.23-2.56-1.58-.95-.35-1.96-.51-2.97-.47-1.1-.06-2.2.13-3.23.52-1.03.39-1.96,1-2.74,1.78s-1.39,1.71-1.78,2.75c-.39,1.03-.58,2.13-.52,3.23,0,5.65,4.1,8.65,8.89,8.65,2.36.05,4.67-.7,6.56-2.12l-2.37-3.83c-1.2.79-2.57,1.22-3.99,1.26h0Zm-4.15-4.22c-.03-.44.02-.88.18-1.3.14-.42.38-.8.68-1.13.3-.33.66-.59,1.07-.77.4-.18.84-.28,1.29-.28.5-.02,1,.1,1.43.36.43.26.77.64.98,1.1l-5.6,2.36v-.33h-.02Z"></path><path class="cls-1" d="m185.79,13.02c.75-.32,1.54-.53,2.34-.64.76-.14,1.52-.2,2.28-.2V2.41c-2.77,0-5.53.49-8.14,1.42l3.52,9.18Z"></path><path class="cls-1" d="m182.58,14.84s-1.03.84-1.56,1.37c-.52.52-1.42,1.72-1.42,1.72l-8.6-5.19c1.53-2.36,3.5-4.41,5.8-6.02l5.79,8.13Z"></path><path class="cls-1" d="m177.37,25.04c.06-1.35.31-2.68.74-3.97l.14-.42-9.74-2.61c-.75,2.37-1.13,4.84-1.12,7.32v.1h9.96s0-.19.02-.43Z"></path><path class="cls-1" d="m190.42,21.26v-5.57c-5.74.11-9.56,4.09-9.56,9.68v.1h5.58s0-.05,0-.06h0c-.05-.54.02-1.09.21-1.6s.47-.98.84-1.37.83-.7,1.33-.9c.51-.2,1.05-.3,1.59-.27h0Z"></path></g><g><path class="cls-3" d="m48.27,15.93c0-2.27-1.21-3-3.07-3-1.72,0-2.89.95-3.58,1.83v12.02h-5.96V1.06h5.92v9.39c1.13-1.32,3.33-2.74,6.43-2.74,4.24,0,6.18,2.38,6.18,5.81v13.26h-5.96v-10.85h.04Zm19.88,10.85h5.96V8.15h-5.96v12.02c-.69.88-1.86,1.83-3.54,1.83-1.94,0-3.07-.77-3.07-3v-10.85h-5.96v13.26c0,3.43,1.9,5.81,6.14,5.81,3.14,0,5.3-1.39,6.43-2.7v2.27h0ZM122.88,7.67c-2.92,0-5.37,1.68-6.43,3.33-.77-2.19-2.63-3.33-5.3-3.33s-5.01,1.46-5.96,2.52c-.4-.84-1.02-1.46-1.83-1.9-.88-.51-1.97-.77-3.29-.77-.69,0-1.39.11-2.05.29-2.3.44-4.13,1.83-5.04,3.18-.77-2.19-2.63-3.33-5.3-3.33-2.92,0-5.33,1.64-6.14,2.74v-2.27h-5.96v18.64h5.96v-12.02c.62-.77,1.72-1.83,3.33-1.83,1.83,0,2.48,1.1,2.48,2.52v11.33h5.96v-12.02c.44-.58,1.17-1.28,2.19-1.64.18-.07.4-.11.62-.15.18-.04.37-.04.55-.04,1.43,0,2.16.69,2.38,1.72v12.13h5.96v-12.09c.62-.77,1.72-1.75,3.25-1.75,1.83,0,2.48,1.1,2.48,2.52v11.33h5.96v-12.02c.58-.77,1.72-1.83,3.36-1.83,1.79,0,2.48,1.1,2.48,2.52v11.33h5.88v-13.48c.04-3.84-2.12-5.63-5.55-5.63"></path><path class="cls-3" d="m15.35,13.59c-.22-.22-.22-.51,0-.73L24.34,3.87l-.18-.29c-2.38-2.23-5.59-3.58-9.1-3.58-3.69,0-7.02,1.5-9.43,3.91-.88.88-3.69,1.02-5.63.8,1.21,1.53,2.38,3.87,2.12,5.33-.26,1.06-.4,2.19-.4,3.33,0,7.38,5.99,13.37,13.37,13.37h13.37v-9.1c4.64-4.64,4.79-12.06.55-16.88l-12.86,12.86c-.11.11-.22.15-.37.15-.18-.04-.33-.11-.44-.18m-3.98-7.31c0,1.02-.84,1.86-1.9,1.86-.77,0-1.43-.48-1.72-1.13-.11-.26-.15-.51-.15-.77v-.18c.15.37.51.62.95.62.55,0,1.02-.48,1.02-1.02s-.48-1.02-1.02-1.02h-.04c.29-.18.62-.26.95-.26,1.02,0,1.9.84,1.9,1.9"></path><path class="cls-3" d="m133.55,10.38c.48,0,.77.29.77.77,0,.44-.29.73-.77.73h-1.1v-1.46h1.1v-.04Zm.73,3.73h.8l-1.17-1.72c.26,0,1.1-.33,1.1-1.28,0-.8-.62-1.32-1.46-1.32h-1.75v4.28h.66v-1.68h.69l1.13,1.72Zm-1.02-5.26c1.75,0,3.14,1.35,3.14,3.11s-1.39,3.11-3.14,3.11-3.14-1.39-3.14-3.11,1.39-3.11,3.14-3.11m0,6.83c2.08,0,3.76-1.68,3.76-3.73s-1.68-3.73-3.76-3.73-3.76,1.64-3.76,3.73,1.68,3.73,3.76,3.73"></path></g></g></g></svg> 