<?xml version="1.0" encoding="UTF-8"?>
<svg id="b" xmlns="http://www.w3.org/2000/svg" version="1.1" viewBox="0 0 540.4 57.7">
  <!-- Generator: Adobe Illustrator 30.3.0, SVG Export Plug-In . SVG Version: 2.1.3 Build 182)  -->
  <defs>
    <style>
      .st0 {
        fill: none;
        stroke: #231f20;
        stroke-miterlimit: 10;
      }

      .st1 {
        fill: #ce1c24;
      }

      .st2 {
        fill: #3e3a39;
      }
    </style>
  </defs>
  <g id="c">
    <path class="st2" d="M83.7,29.6h11.3v11c-3.2.3-6.4.6-9.3.6-6.9,0-11.6-1.2-14.2-3.5-1.7-1.5-2.6-3.8-2.6-7s.9-5.2,2.6-6.7c2.6-2.6,7.2-3.8,14.2-3.8s6.1.3,9.3.9v2.9c-2-.6-4.4-.9-6.9-.9s-5.5.6-7,1.5c-2,1.1-3.2,3.2-3.2,6.1s1.5,6.3,4,7.2c1.8.7,4.3.6,4.9.6,1.7,0,2.7-.3,3.5-.6.4-.2.6-.6.6-1.2v-4.3h-7.2v-2.9h0ZM96.7,30.7c0,3.2.9,5.5,2.6,7,1.2,1.2,2.9,2,5.2,2.6,2,.6,4,.9,5.8.9s4-.4,5.8-.9c2.3-.7,4-1.4,5.2-2.6,1.7-1.5,2.6-3.8,2.6-7s-.9-5.2-2.6-6.7c-2.6-2.3-6.1-3.5-10.4-3.5s-4.1,0-6.1.6c-2.4.6-4.4,1.7-5.5,2.9-1.7,1.4-2.6,3.5-2.6,6.7M105.7,30.7c0-2.3.7-4.2,2-5.5s3.2-1.7,5.8-1.7,4,.7,5.5,2c1.4,1.2,2,2.9,2,5.2s-.6,4.4-2,5.5-3.2,2-5.5,2-4.4-.8-5.8-2c-1.2-1.1-2-3.2-2-5.5M126,30.7c0,3.2.6,5.5,2.3,7,1.1,1.2,2.9,2,5.2,2.6,2,.6,4,.9,5.8.9s4-.3,6.1-.9,3.8-1.4,4.9-2.6c1.7-1.5,2.6-3.8,2.6-7s-.9-5.2-2.6-6.7c-2.6-2.3-6.1-3.5-10.4-3.5s-4.1,0-6.1.6c-2.4.6-4.4,1.7-5.5,2.9-1.7,1.4-2.3,3.5-2.3,6.7M134.7,30.7c0-2.3.7-4.2,2-5.5s3.2-1.7,5.8-1.7,4.2.7,5.5,2c1.3,1.3,2,2.9,2,5.2s-.6,4.4-2,5.5c-1.5,1.2-3.2,2-5.5,2s-4.4-.8-5.8-2c-1.2-1.1-2-3.2-2-5.5M181.9,30.7c0,3.8-1.1,6.4-3.5,7.8-2,1.2-4.9,2-8.7,2h-7.1c-1.1,0-1.9,0-2.6-.2-1.4-.3-2.3-.8-3.1-1.2-1-.6-1.5-2-1.5-3.5v-14.5h14.2c3.8,0,6.7.6,8.7,2,2.4,1.5,3.5,4.1,3.5,7.6M170.3,38c2,0,3.1-.2,3.9-.5,2.7-1,3.9-3.2,3.9-6.7s-.7-4.9-3.2-6.1c-.8-.4-1.7-.6-2.9-.6h-8.1v11.9c0,.9.9,1.4,2.6,1.7.9.1,2,.3,3.8.3M206.2,34.7v-13.6h3.8v19.4h-6.4c-.6,0-1.2-.2-1.8-.4-.8-.4-1.1-.8-1.7-1.3l-2.9-2.9-4.4,4.6h-.9c-.6,0-1.5,0-2.6-.3-1.7-.4-2.9-.9-3.5-1.4-.8-.7-1.5-1.7-1.5-3.2v-14.5h8.4v13.6l4.6-4.6h2.3c.6,0,1.2.2,1.8.5.8.4,1.1.7,1.7,1.3l3,2.8h0ZM227.7,40.5h9.3v-2.9h-12.7c-.6,0-1.2,0-1.7-.5-.4-.3-.6-.6-.6-1.2v-4.4h13.9v-2.9h-13.9v-4.6h15.1v-2.9h-23.5v14.5c0,3.2,2.6,4.6,7.5,4.9h6.7,0Z"/>
    <polygon class="st1" points="47.5 27.2 27.2 7 7 27.2 27.2 47.5 41.7 33.3 27.2 18.8 18.8 27.2 27.2 35.6 29.8 33.3 23.6 27.1 27.2 23.5 36.8 33.3 27.2 42.6 11.9 27.2 27.2 11.9 48.9 33.3 27.2 54.4 0 27.2 27.2 0 54.8 27.2 47.5 27.2"/>
    <polygon class="st2" points="130.9 48.1 128.5 50.9 127.7 48.1 126.3 48.1 127.6 52 126.8 54.8 128.1 54.8 128.9 52 132.3 48.1 130.9 48.1"/>
    <path class="st2" d="M138.8,48.9h0c-.2-.3-.5-.5-.8-.7-.4-.2-.8-.2-1.3-.2s-1,0-1.5.2c-.4.2-.9.4-1.2.7-.4.3-.7.7-.9,1.1s-.4.9-.6,1.4c-.1.5-.2,1-.2,1.4s.1.8.3,1.1.5.5.8.7.8.3,1.4.3,1,0,1.4-.2.9-.4,1.2-.7.7-.7.9-1.1c.3-.4.5-.9.6-1.4.2-.5.2-1,.2-1.4,0-.4-.2-.8-.4-1.1M137.7,51.4c0,.4-.2.7-.4,1-.2.3-.4.5-.6.8-.2.2-.5.4-.7.5-.3.1-.6.2-.9.2s-.6,0-.8-.2c-.2-.1-.4-.3-.5-.5s-.2-.5-.2-.8,0-.6.1-1c0-.4.2-.7.4-1,.2-.3.4-.5.6-.7s.5-.4.7-.4c.3-.1.6-.2.9-.2s.6,0,.8.2.4.3.5.4c.1.2.2.4.2.7,0,.2,0,.5-.1.9"/>
    <path class="st2" d="M145,52.1c0,.3-.2.5-.3.8-.1.2-.3.4-.5.5-.2.1-.4.2-.6.3-.4.1-.9.1-1.2,0-.2,0-.3-.2-.4-.3,0-.1-.2-.3-.2-.5,0-.2,0-.4,0-.7l1.1-4.1h-1.3l-1.1,4.2c-.1.4-.2.8-.1,1.2s.2.6.4.8.4.4.8.5c.3.1.6.2,1,.2s.8,0,1.1-.2c.4-.1.7-.3,1.1-.5.3-.2.6-.5.8-.8.2-.3.4-.7.6-1.2l1.1-4.1h-1.3l-1.1,4h0Z"/>
    <path class="st2" d="M152.8,51.8c.2-.1.4-.3.6-.4s.3-.4.5-.6c.1-.2.2-.4.3-.6,0-.3.1-.6,0-.8s-.2-.5-.3-.6-.4-.3-.7-.4-.6-.1-1-.1h-2.6l-1.8,6.7h1.3l.7-2.6h1l.9,2.6h1.5l-1.1-2.8c.2,0,.4-.2.6-.2M152.6,50.5c0,.1-.2.2-.3.3s-.3.2-.4.2-.4,0-.6,0h-1.2l.6-2h1.2c.4,0,.7,0,.8.3.2.2.2.4.1.7,0,.1-.1.3-.2.4"/>
    <path class="st2" d="M163.7,51.7c0-.2-.2-.3-.3-.4-.1,0-.3-.2-.4-.2s-.3-.1-.5-.2-.4,0-.5-.2c-.2,0-.4-.1-.6-.2-.2,0-.3-.1-.4-.2s-.2-.2-.2-.2,0-.2,0-.4c0-.1,0-.2.2-.3l.2-.2c.1,0,.2-.1.4-.2.2,0,.4,0,.6,0s.4,0,.6,0c.1,0,.2,0,.3.2s.2.2.2.2c0,0,0,.2,0,.4h0c0,.1,1.3,0,1.3,0v-.2c0-.3,0-.5-.1-.7,0-.2-.2-.4-.4-.5s-.4-.2-.7-.3c-.3,0-.6-.1-1-.1s-.7,0-1,.1c-.3,0-.6.2-.9.3-.3.2-.5.4-.7.6-.2.2-.4.5-.4.8,0,.2,0,.4,0,.6s0,.4.1.5c0,.1.2.2.3.4.1,0,.3.2.4.2.2,0,.3.1.5.2h.1c.1,0,.2.1.4.2l.6.2c.2,0,.4.1.5.2.1,0,.2.2.3.3s0,.2,0,.4c0,.2-.1.3-.2.4s-.2.2-.4.3-.3.1-.5.2-.4,0-.6,0-.5,0-.7,0c-.2,0-.3-.1-.4-.2s-.2-.2-.2-.3c0-.1,0-.2,0-.4h0c0-.1-1.3.1-1.3.1v.2c0,.5.2,1,.6,1.3.4.3,1,.4,1.8.4s.9,0,1.2-.2.7-.2.9-.4c.3-.2.5-.4.7-.6.2-.2.3-.5.4-.8,0-.2,0-.5,0-.7,0-.2,0-.4,0-.5"/>
    <path class="st2" d="M172.1,48.9h0c-.2-.3-.5-.5-.8-.7-.4-.2-.8-.2-1.3-.2s-1,0-1.5.2c-.4.2-.9.4-1.2.7s-.7.7-.9,1.1c-.2.4-.5.9-.6,1.4-.1.5-.2,1-.2,1.4s.1.8.3,1.1c.2.3.5.5.8.7.4.2.8.3,1.4.3s1,0,1.4-.2.9-.4,1.2-.7.7-.7.9-1.1c.3-.4.5-.9.6-1.4.2-.5.2-1,.2-1.4,0-.4-.2-.8-.4-1.1M171,51.4c0,.4-.2.7-.4,1h0c-.2.3-.4.5-.6.8-.2.2-.4.4-.7.5-.3.1-.6.2-.9.2s-.6,0-.8-.2c-.2-.1-.4-.3-.5-.5s-.2-.5-.2-.8,0-.6.1-1c0-.4.2-.7.4-1,.2-.3.4-.5.6-.7s.5-.4.7-.4c.3-.1.6-.2.9-.2s.6,0,.8.2.4.3.5.4c.1.2.2.4.2.7,0,.2,0,.5-.1.9"/>
    <polygon class="st2" points="176.5 48.1 175.2 48.1 173.4 54.8 177.7 54.8 178 53.7 175 53.7 176.5 48.1"/>
    <path class="st2" d="M184.2,48.1h-1.4l-4.3,6.7h1.4l1.1-1.8h2.4l.2,1.8h1.4l-.7-6.6h0c0,0,0,0,0,0ZM183.4,51.9h-1.8l1.6-2.5.2,2.5h0Z"/>
    <path class="st2" d="M191.2,51.8c.2-.1.4-.3.6-.4s.4-.4.5-.5c.1-.2.2-.4.3-.6,0-.3.1-.6,0-.8s-.2-.5-.3-.6-.4-.3-.7-.4-.6-.2-1-.2h-2.6l-1.8,6.7h1.3l.7-2.6h1l.9,2.6h1.5l-1.1-2.8c.2,0,.4-.2.6-.2M189.1,49.1h1.2c.4,0,.7,0,.8.3.2.2.2.4.1.7,0,.2-.1.3-.2.4s-.2.2-.3.3c-.1,0-.3.2-.4.2-.2,0-.4,0-.6,0h-1.2l.6-2h0Z"/>
    <polygon class="st2" points="198.7 51.9 201.8 51.9 202.1 50.8 198.9 50.8 199.4 49.2 202.8 49.2 203.1 48.1 198.4 48.1 196.6 54.8 201.5 54.8 201.8 53.7 198.1 53.7 198.7 51.9"/>
    <path class="st2" d="M208.9,52.3c0,.2-.1.5-.2.8l-2.1-4.9h0c0,0-1.4,0-1.4,0l-1.8,6.7h1.2l1.1-4.2c0-.2.1-.4.2-.7l2.1,4.9h1.4l1.8-6.7h-1.2l-1.1,4.2Z"/>
    <path class="st2" d="M215,52.3h1.7l-.2.9c0,0-.2.1-.3.2s-.3.2-.4.2c-.2,0-.3.1-.5.2s-.4,0-.6,0c-.3,0-.6,0-.8-.2-.2-.1-.4-.3-.4-.5-.1-.2-.2-.5-.2-.8s0-.6.2-1c.1-.4.2-.7.4-1,.2-.3.3-.5.5-.7s.4-.4.7-.4c.2-.1.6-.2.9-.2s.4,0,.6,0,.3.1.4.2c.1,0,.2.2.2.3s.1.2.1.4h0c0,.1,1.3-.3,1.3-.3v-.2c0-.2-.2-.4-.2-.6s-.2-.4-.4-.5-.4-.3-.7-.4c-.3,0-.6-.1-.9-.1-.5,0-1,0-1.4.2s-.8.4-1.2.7-.6.7-.9,1.1c-.2.4-.4.9-.6,1.4-.1.5-.2,1-.2,1.4s.1.8.3,1.1c.2.3.4.5.8.7s.8.3,1.3.3.6,0,.9,0c.3,0,.6-.2.8-.2.3-.1.5-.2.8-.4.2-.2.4-.3.6-.4h0s.7-2.5.7-2.5h-2.9l-.3,1h0Z"/>
    <polygon class="st2" points="219.4 54.8 220.7 54.8 222.5 48.1 221.2 48.1 219.4 54.8"/>
    <path class="st2" d="M228.5,52.3c0,.2-.1.5-.2.8l-2.1-4.9h0c0,0-1.4,0-1.4,0l-1.8,6.7h1.2l1.1-4.2c0-.2.1-.4.2-.7l2,4.8h0c0,0,1.4,0,1.4,0l1.8-6.7h-1.2s-1.1,4.2-1.1,4.2Z"/>
    <polygon class="st2" points="232.9 53.7 233.3 51.9 236.5 51.9 236.8 50.8 233.6 50.8 234.1 49.2 237.5 49.2 237.8 48.1 233.1 48.1 231.3 54.8 236.1 54.8 236.5 53.7 232.9 53.7"/>
    <path d="M411.2,17.6v8.6c0,7.2,7.4,6.9,7.4,6.9h34.1v-6.8h-32c-2.1,0-2.2-2-2.2-2v-2.5h34.1v-4.2,1.3-4.2h-34.1v-2.5s0-2,2.2-2h32V3.5h-34.1s-7.4-.4-7.4,6.9v8.6-1.3h0Z"/>
    <path d="M462.3,33v-11.2h34.1v-4.2,1.3-4.2h-34.1v-2.5s0-2,2.2-2h32V3.5h-34.1s-7.4-.4-7.4,6.9v8.6-1.3,15.4h7.3Z"/>
    <path d="M540.4,21.5v4.9c0,6.8-7.8,6.5-7.8,6.5h-33.7v-6.9h32.8c1.7,0,1.5-1.2,1.5-1.2v-2c0-1.4-1.6-1.3-1.6-1.3h-25.4s-8.5.5-8.5-6.4v-4.5c0-7.6,7.4-7.3,7.4-7.3h34.2v6.8h-32.8c-1.8,0-1.5,1.6-1.5,1.6v1.5s-.3,1.5,1.7,1.5h26.3s7.2-.2,7.3,6.7"/>
    <path d="M380.1,53.7c0,.1.5.4,1.1.6.2,0,.5.1.6.1.4,0,.5,0,.8.1-.2,0-.4-.1-.7-.3-.4-.2-.6-.3-.9-.5-.3-.1-.5-.2-.7-.2-.2,0-.3,0-.2.1M383,54.1s0,0,0,0c.2.8,1.6.3,1.9-.1.1-.2,0-.4-.1-.5-.2-.1-.4-.2-.5-.2-.6,0-1.3.3-1.2.7M375.5,51.6c0,.2.5.7,1.5,1.2,1.1.6,2.4,1,2.6,1h0c0,0-1.5-1.3-2.8-2-.5-.2-.8-.3-.9-.3-.3,0-.3.1-.3.2M386.8,54c-.8.5-.7.5-.6.5.3.1,3.6-.5,3.8-1.3,0-.1-.1-.2-.3-.2-.5,0-1.6.2-2.8,1M379.5,52c0,.2.1.3.3.5.9,1.1,2.6,1.6,2.8.4,0-.3,0-.9-.9-1.4-.4-.2-.7-.3-1-.3-.8-.1-1.3.3-1.1.9M395,52.2c-.6,0-1.6.5-3.5,1.3-.5.2-1.1.3-1.6.7.2.1,4.1-.8,5.3-1.8,0,0,.1-.2,0-.2h-.2M385.2,52.2c-.3,1.2,1.1,1.6,2.5.6.2-.1,1.5-1,.8-1.9-.2-.2-.5-.3-.8-.3-1-.1-2.3.6-2.5,1.6M370.2,48.6c.1.3.6,1,1.7,1.7,1.3,1,3,1.8,2.9,1.5,0-.2-1.8-2-3.4-3-.5-.3-.8-.4-1-.4-.3,0-.2.2-.2.2M374.2,48.7c0,.2.2.6.6,1.1,1.1,1.3,3.2,2.4,3.4,1.1,0-.5-.3-1.6-1.8-2.6-.5-.3-.9-.4-1.2-.5-.8,0-1.1.4-1,.9M391.8,51.6c-.2.2-1.1,1.2-.2,1.2,1.2,0,4.4-1.6,4.3-2.8,0-.2-.2-.3-.5-.3-.8-.1-2.5.7-3.5,1.8M381,49.4c.5,1.8,3.1,2.5,4.2.7.2-.4.6-1.4-.6-2.3-.4-.3-.9-.4-1.3-.5-1.4-.2-2.6.9-2.3,2.1M365.4,44.5c0,.3.7,1.2,1.8,2.4,1.1,1.2,2.4,2.2,2.6,2.1,0-.3-2.3-2.9-3.5-4-.4-.3-.7-.5-.8-.5,0,0-.1,0,0,.1M401.1,48.6c-.7.3-1.9,1-3.2,2-1.7,1.3-1.4,1.4-1.4,1.4.5,0,4.2-1.8,5.1-3.2,0-.2,0-.3,0-.3-.1,0-.3,0-.5.1M368.5,44.6c0,.4.4,1,.8,1.6,1.1,1.6,3.3,3,3.4,1.7,0-.6-.5-2.3-2.2-3.7-.5-.4-.9-.5-1.2-.6-.6,0-.9.4-.8.9M389.4,48.7c-.5,1.5.8,2.4,2.8,1.3,1.2-.6,2.5-2.1,1.6-3.2-.3-.2-.6-.4-1-.4-1.3-.2-3,.9-3.4,2.3M375,45.1c0,.1,0,.3.1.5.8,2.1,3.7,3.2,4.6,1.3,0-.2.8-1.8-1.2-3.3-.5-.3-1.1-.5-1.5-.6-1.4-.2-2.3.8-2,2.1M397.6,47.7c-.7,1.1-.8,2.1.3,1.8,1.5-.3,4.2-2.6,3.9-4-.1-.2-.3-.4-.5-.4-1-.1-2.7,1.1-3.7,2.6M384.5,44.9c0,2.2,3,3.3,4.8,1.2.6-.7,1.2-2.1-.1-3.3-.4-.3-.9-.5-1.4-.5-1.7-.2-3.3,1.1-3.3,2.7M363.4,39.5c0,.6.3,1.4.8,2.2,1,1.8,2.6,3.3,2.9,2.3.1-.7-.6-2.9-2.1-4.6-.5-.4-.8-.6-1-.6-.5,0-.5.6-.5.7M406.9,43.3c-.5.2-1.7,1.4-2.9,2.9-.4.5-1.6,2-1.1,1.9.6-.1,3.4-2.9,4.1-4.5,0-.1.1-.3,0-.4,0,0,0,0-.1,0M368.8,40.1c0,.2.1.6.2.8.8,2.2,3.4,3.7,4.3,1.9.4-.8.4-2.7-1.4-4.2-.5-.4-1-.6-1.5-.7-1.1-.1-1.9.8-1.7,2.1M394.6,44c-.5,2,1,3,3,1.8,1.4-.9,2.8-2.9,1.8-4.2-.3-.3-.6-.4-1-.5-1.4-.2-3.2,1.2-3.7,2.9M377.9,40.3c.4,2.8,4.2,3.8,5.7,1.5.5-.8.9-2.5-.8-3.9-.6-.4-1.2-.6-1.7-.7-1.9-.2-3.4,1.2-3.1,3M360.2,33.8c-.1.4.2,1.8.6,3.1.6,1.8,1.4,3.2,1.6,2.8.2-.4-.6-3.5-1.5-5.4-.1-.2-.4-.6-.5-.7,0,0-.1,0-.1.2M403.4,42.5c-.7,1.7-.4,2.7.7,2.2,1.4-.6,3.4-3.4,3-5-.1-.3-.3-.4-.5-.4-.9-.1-2.5,1.5-3.2,3.2M389.4,39.4c-.1,2.5,2.8,3.7,4.8,1.8,1-.9,1.8-3,.3-4.4-.5-.4-1-.5-1.4-.6-1.8-.2-3.6,1.3-3.7,3.2M363.5,34.6c0,.4,0,.8.2,1.2.6,2.4,2.5,3.8,3.4,2.5.6-.9.5-3.3-1-5.1-.4-.4-.8-.7-1.2-.7-.8-.1-1.4.8-1.4,2M371.2,35c.4,2.8,3.5,4.1,5.1,2.2.8-.9,1.2-3-.7-4.8-.5-.4-1.1-.6-1.6-.7-1.7-.2-3,1.3-2.8,3.3M400.1,38c-.4,2.3,1.1,3.4,2.9,2.2,1.4-.9,2.6-3.5,1.4-5.2-.3-.3-.6-.5-1-.5-1.4-.2-3,1.5-3.3,3.5M382.5,34.1c.1,2.9,3.6,4.2,5.7,2.2,1-1,1.6-3.2-.3-4.9-.5-.4-1.1-.6-1.7-.7-2-.2-3.8,1.4-3.7,3.4M360.5,27.9c0,.3-.3,1.2-.2,2.5.2,2.3,1.1,3.9,1.8,2.9.6-.8.8-3.7,0-5.7-.3-.5-.5-.7-.7-.7-.4,0-.7.6-.9,1.1M365.8,28.9v.3c0,2.7,2.2,4.2,3.7,2.8,1.2-1.1,1.5-3.8.1-5.5-.4-.4-.9-.7-1.3-.7-1.3-.2-2.4,1.2-2.5,3.1M394.6,32.9c0,2.8,2.7,4.1,4.6,2.2,1.3-1.3,1.7-3.7.1-5.2-.4-.3-.9-.5-1.4-.6-1.7-.2-3.4,1.5-3.4,3.6M375.4,28.3c0,3.1,3.5,4.5,5.6,2.4,1-1.1,1.6-3.3-.3-5.1-.6-.4-1.2-.6-1.7-.7-1.9-.2-3.6,1.4-3.5,3.4M359.5,25.9h0s0,.1,0,.2v-.2s0,0,0,0ZM360,22.7c0,.4-.1.7-.2,1.1,0-.4.1-.8.2-1.1-.1.6-.2,1.3-.4,2,0,.3,0,.6-.1.9,0,.1,0,.2,0,.3v.2c0,0,0,.2,0,.3-.1,1.4,0,1.5,0,1.6.4-.2,1.1-4.3,1.1-6.1,0-.4,0-.6-.1-.7,0,0-.2,0-.5,1.5M387.8,27.3c0,2.9,3.3,4.4,5.3,2.4,1.1-1.1,1.7-3.5-.2-5.2-.5-.4-1-.6-1.6-.6-1.9-.2-3.6,1.4-3.5,3.4M362.5,22.9c0,.2-.1.4-.1.6-.4,2.4.6,4,1.9,3.1,1.1-.8,2.1-3.7,1.3-5.7-.2-.4-.5-.6-.9-.7-.9-.1-1.8,1.2-2.2,2.7M369.9,22.6c-.4,2.6,1.9,4.2,3.9,2.7,1.5-1.1,2.2-3.6.8-5.2-.4-.4-.9-.6-1.4-.7-1.6-.2-3.1,1.5-3.3,3.2M380.8,21.7c-.1,2.7,3.2,4.2,5.3,2.4,1.4-1.2,1.7-3.4,0-4.9-.5-.4-1-.6-1.6-.6-1.9-.2-3.6,1.2-3.7,3.1M363.4,15.5c-.5.5-1.2,1.6-1.6,2.7-.7,1.8-.8,3.2-.1,3,.9-.3,2.5-3.5,2.6-5.4,0-.4-.1-.6-.3-.6-.2,0-.4.2-.6.4M366.7,17.2c-.8,2.1.2,3.6,1.9,2.8,1.6-.8,2.9-3.4,2.2-5-.2-.4-.5-.6-.9-.6-1.1-.1-2.7,1.3-3.2,2.9M375.3,16.5c-.6,2.3,1.8,3.8,3.9,2.5,1.5-1,2.3-3.2.9-4.7-.4-.3-.8-.5-1.3-.6-1.6-.2-3.2,1.2-3.6,2.8M366.1,10.9c-1.6,1.9-1.9,2.2-2.5,3.2-.4.6-.8,1.4-1.1,2,0,0,0,0,0,0,0,0,1.2-1.7,3.4-4.8.2-.3.3-.4.3-.5,0,0,0,0,0,0M367.3,11.3c-.4.3-.7.8-1,1.2-1.1,1.5-1.2,2.8-.2,2.6,1.3-.2,3.5-3,3.7-4.6,0-.3-.1-.5-.3-.5-.5,0-1.6.8-2.1,1.3M372.4,11.8c-1,1.7-.1,3,1.6,2.5,1.9-.6,3.4-2.9,2.8-4.4-.2-.3-.5-.5-.8-.5-1.1-.1-2.8,1.1-3.5,2.4M368.5,8.6c-1.4,1.2-2.1,2.2-1.7,2.2.6,0,3.7-2.8,4.6-3.8.2-.2.2-.3.2-.4,0,0,0,0,0,0-.3,0-1.7.8-3,2M372.6,7.5c-.1.1-.3.3-.5.4-1.3,1.2-1.4,2.2-.6,2.2,1.4,0,4-2.4,4.4-3.6,0-.2,0-.4-.3-.4-.6,0-2.2.8-3.1,1.5M374.5,4.9c-1.5.8-2.3,1.5-1.9,1.6.7.2,5.3-2.6,5.3-2.7.2-.1.2-.1.2-.2,0,0,0,0,0,0-.4,0-2.2.6-3.6,1.3h0Z"/>
    <path d="M431.1,40.6v3.2h-15.5c-.5,0-.8.2-.8.5v1.1c0,.3.3.5.8.5h11.7c2.8,0,4.2,1.1,4.2,3.3v1.9c0,2.3-1.4,3.4-4.2,3.4h-15.5v-3.2h15.5c.5,0,.8-.2.8-.5v-1.1c0-.3-.3-.5-.8-.5h-11.7c-2.8,0-4.2-1-4.2-3v-2.2c0-2.3,1.4-3.4,4.2-3.4h15.5Z"/>
    <path d="M443.3,54.6c-3.5,0-5.3-1.5-5.3-4.4v-5.1c0-3,1.8-4.5,5.3-4.5h10.8c3.5,0,5.3,1.5,5.3,4.5v5.1c0,3-1.8,4.4-5.3,4.4h-10.8ZM443.3,43.8c-1.2,0-1.8.4-1.8,1.2v5.1c0,.8.6,1.2,1.8,1.2h10.8c1.2,0,1.8-.4,1.8-1.2v-5.1c0-.8-.6-1.2-1.8-1.2h-10.8Z"/>
    <path d="M470.2,54.6c-2.8,0-4.2-1.1-4.2-3.4v-10.6h3.4v10.1c0,.4.3.7.8.7h15.2v3.2h-15.2Z"/>
    <path d="M507.6,51.8h-11.4l-1.5,2.8h-4l7.3-12.8c.1-.2.2-.4.3-.5.1-.2.2-.3.4-.4.1,0,.3-.2.5-.2s.5,0,.8,0h3.5c1,0,1.7.4,2.1,1.2l7.3,12.8h-3.9l-1.6-2.8h0ZM497.9,48.8h8l-2.4-4.3c-.1-.2-.3-.4-.4-.5s-.3-.2-.5-.2h-1.4c-.4,0-.7.2-.9.7l-2.4,4.2h0Z"/>
    <path d="M518.8,40.6h16.8c2.7,0,4,1.1,4,3.4v1.3c0,2.4-1.3,3.5-4,3.5h-1.2l5.8,5.8h-4.7l-5.4-5.6h-7.9v5.6h-3.4v-14h0ZM522.2,43.8v2.2h13.5c.5,0,.7-.2.7-.6v-1.1c0-.4-.3-.5-.8-.5h-13.4,0Z"/>
    <line class="st0" x1="285.1" y1="14.4" x2="314.8" y2="44.1"/>
    <line class="st0" x1="314.8" y1="14.4" x2="285.1" y2="44.1"/>
  </g>
</svg>