<?xml version="1.0" encoding="UTF-8"?>
<svg id="b" xmlns="http://www.w3.org/2000/svg" version="1.1" viewBox="0 0 427.3 56.1">
  <!-- Generator: Adobe Illustrator 30.3.0, SVG Export Plug-In . SVG Version: 2.1.3 Build 182)  -->
  <defs>
    <style>
      .st0, .st1 {
        fill: none;
      }

      .st2 {
        fill-rule: evenodd;
      }

      .st2, .st3 {
        fill: #404041;
      }

      .st4 {
        fill: #231f20;
      }

      .st1 {
        stroke: #231f20;
        stroke-miterlimit: 10;
      }
    </style>
  </defs>
  <g id="c">
    <path class="st3" d="M86.4,0h-2v10h9.1c1-.4,1.5-1.1,1.7-2h-8.8V0h0Z"/>
    <path class="st3" d="M111.1,2h7.5c1-.2,1.8-1.1,2-2h-11.6c.2.9,1,1.8,2,2h0Z"/>
    <path class="st3" d="M64.8,2h0c1-.3,1.9-1.1,2.1-2h-11v5.9h9v2.1h-7.1c-1.1.3-2,1-2.5,2h11.5V3.9h-9v-2h6.9Z"/>
    <polygon class="st3" points="109.3 10 109.3 10 111.3 10 111.3 6 118.4 6 118.4 10 120.3 10 120.3 3.9 109.3 3.9 109.3 10 109.3 10"/>
    <path class="st3" d="M30,2h7.6C38.7,1.8,39.5.9,39.7,0h-11.7c.2.9,1,1.8,2.1,2h0Z"/>
    <path class="st3" d="M30,10h7.6c1-.2,1.8-1.1,2.1-2h-11.7c.2.9,1,1.8,2.1,2h0Z"/>
    <path class="st3" d="M.1,0H.1c.2.9,1,1.8,2.1,2h3.3v7.9h2V2.1h.2c0,0,3.2,0,3.2,0,1.1-.3,1.8-1.1,2-2h0S.1,0,.1,0Z"/>
    <path class="st3" d="M30,5.9h7.6c1-.2,1.8-1.1,2.1-2h-11.7c.2.9,1,1.8,2.1,2h0Z"/>
    <path class="st3" d="M62.2,35.3c.6,0,1.1-.2,1.5-.5.4-.3.6-.7.6-1.2h0c0-.6-.2-1-.5-1.3s-.9-.4-1.5-.4h-2.6v3.3h2.6,0ZM57.9,30.4h4.5c.6,0,1.2,0,1.7.3s.9.4,1.2.7c.3.3.5.6.6,1s.2.8.2,1.2h0c0,.4,0,.8-.2,1.1-.1.3-.3.6-.5.9s-.5.5-.8.6c-.3.2-.6.3-1,.4l2.7,3.8h-2.1l-2.5-3.5h-2.2v3.5h-1.7v-9.9h0Z"/>
    <path class="st3" d="M4,35.5c.7,0,1.2-.2,1.6-.5s.6-.8.6-1.3h0c0-.6-.2-1.1-.6-1.4-.4-.3-.9-.5-1.6-.5h-2v3.6h2ZM.3,30.4h3.9c.6,0,1.1,0,1.6.2.5.2.9.4,1.2.7s.6.6.8,1,.3.9.3,1.4h0c0,.6,0,1.1-.3,1.5s-.5.8-.8,1c-.4.3-.8.5-1.3.6-.5.2-1,.2-1.5.2h-2v3.2H.3v-9.9H.3Z"/>
    <path class="st3" d="M17.3,38.9c.5,0,.9,0,1.4-.3.4-.2.8-.4,1-.8.3-.3.5-.7.7-1.1.2-.4.2-.9.2-1.4h0c0-.5,0-1-.2-1.4-.2-.4-.4-.8-.7-1.1-.3-.3-.6-.6-1.1-.8-.4-.2-.9-.3-1.4-.3s-.9,0-1.4.3c-.4.2-.8.4-1.1.8s-.5.7-.7,1.1c-.2.4-.2.9-.2,1.4h0c0,.5,0,1,.2,1.4.2.4.4.8.7,1.1.3.3.6.6,1.1.8s.9.3,1.4.3h0ZM17.3,40.5c-.8,0-1.5-.1-2.1-.4s-1.2-.6-1.6-1.1c-.4-.5-.8-1-1.1-1.6-.3-.6-.4-1.3-.4-2h0c0-.7.1-1.4.4-2,.3-.6.6-1.2,1.1-1.6s1-.8,1.6-1.1c.6-.3,1.3-.4,2.1-.4s1.5.1,2.1.4c.6.3,1.2.6,1.6,1.1.5.5.8,1,1.1,1.6.3.6.4,1.3.4,2h0c0,.7-.1,1.4-.4,2-.3.6-.6,1.2-1.1,1.6s-1,.8-1.6,1.1c-.6.3-1.3.4-2.1.4h0Z"/>
    <polygon class="st3" points="26.1 30.4 28 30.4 30.4 37.7 32.8 30.4 34.3 30.4 36.7 37.7 39.1 30.4 40.9 30.4 37.5 40.4 36 40.4 33.5 33.3 31.1 40.4 29.6 40.4 26.1 30.4 26.1 30.4"/>
    <polygon class="st3" points="45.5 30.4 53 30.4 53 32 47.3 32 47.3 34.5 52.3 34.5 52.3 36.1 47.3 36.1 47.3 38.7 53 38.7 53 40.3 45.5 40.3 45.5 30.4 45.5 30.4"/>
    <polygon class="st3" points="70.4 30.4 71.3 30.4 74.4 39.2 77.3 30.4 77.8 30.4 80.8 39.2 83.9 30.4 84.7 30.4 81.1 40.4 80.4 40.4 77.5 31.8 74.6 40.4 74 40.4 70.4 30.4 70.4 30.4"/>
    <path class="st3" d="M95.1,36.9l-2.6-5.7-2.6,5.7h5.3ZM92.2,30.3h.7l4.7,10h-.8l-1.3-2.8h-5.9l-1.3,2.8h-.8l4.7-10h0Z"/>
    <polygon class="st3" points="102.4 30.4 103.1 30.4 103.1 39.6 108.9 39.6 108.9 40.3 102.4 40.3 102.4 30.4 102.4 30.4"/>
    <polygon class="st3" points="114 30.4 114.8 30.4 114.8 39.6 120.6 39.6 120.6 40.3 114 40.3 114 30.4 114 30.4"/>
    <polygon class="st2" points=".2 19.6 120.7 19.6 120.7 20.4 .2 20.4 .2 19.6 .2 19.6"/>
    <rect class="st0" y="48.9" width="122.2" height="6.3"/>
    <path class="st3" d="M5.2,54.3c-.2.1-.3.2-.5.3-.2,0-.4.2-.6.2s-.4,0-.7,0c-.4,0-.8,0-1.1-.2-.3-.2-.6-.3-.9-.6-.2-.3-.4-.6-.6-.9-.1-.3-.2-.7-.2-1.1h0c0-.4,0-.8.2-1.2.1-.3.3-.7.6-.9s.6-.5.9-.6c.3-.2.7-.2,1.1-.2s.5,0,.7,0,.4,0,.6.2c.2,0,.3.2.5.3s.3.2.4.4l-.3.3c-.2-.2-.5-.4-.8-.6s-.7-.2-1.1-.2-.7,0-.9.2c-.3.1-.5.3-.8.5-.2.2-.4.5-.5.8-.1.3-.2.6-.2,1h0c0,.4,0,.7.2,1s.3.6.5.8c.2.2.5.4.8.5s.6.2.9.2.8,0,1.1-.2c.3-.2.6-.4.9-.7l.3.3c-.2.1-.3.3-.5.4h0Z"/>
    <path class="st3" d="M8.4,49.2h4v.4h-3.6v2.2h3.2v.4h-3.2v2.3h3.6v.4h-4v-5.6h0Z"/>
    <path class="st3" d="M17.6,52.5h-1.8v2.3h-.4v-5.6h2.4c.3,0,.6,0,.8.1.2,0,.5.2.6.3.2.1.3.3.4.5.1.2.1.4.1.7h0c0,.3,0,.5-.1.7,0,.2-.2.3-.4.5-.1.1-.3.2-.5.3s-.4.1-.7.2l1.9,2.4h-.5l-1.8-2.3h0ZM18.9,49.9c-.3-.2-.7-.3-1.2-.3h-1.9v2.5h1.9c.2,0,.5,0,.7,0,.2,0,.4-.1.5-.2.1-.1.3-.2.3-.4s.1-.3.1-.5h0c0-.4-.1-.7-.4-.9h0Z"/>
    <path class="st3" d="M24.8,54.8h-.4v-5.2h-2v-.4h4.3v.4h-2v5.2Z"/>
    <path class="st3" d="M29.7,49.2h.4v5.6h-.4v-5.6Z"/>
    <path class="st3" d="M33.9,51.9h3.2v.4h-3.2v2.5h-.4v-5.6h4v.4h-3.5v2.3h0Z"/>
    <path class="st3" d="M40.4,49.2h.4v5.6h-.4v-5.6Z"/>
    <path class="st3" d="M44.2,49.2h4v.4h-3.6v2.2h3.2v.4h-3.2v2.3h3.6v.4h-4v-5.6h0Z"/>
    <path class="st3" d="M55.8,53.1c-.1.3-.3.6-.6.9s-.6.5-1,.6c-.4.1-.8.2-1.2.2h-1.9v-5.6h1.9c.5,0,.8,0,1.2.2.4.1.7.3,1,.6s.5.5.6.9c.1.3.2.7.2,1.1h0c0,.4,0,.8-.2,1.1h0ZM55.4,51.1c-.1-.3-.3-.5-.5-.8s-.5-.4-.8-.5-.7-.2-1.1-.2h-1.5v4.9h1.5c.4,0,.8,0,1.1-.2s.6-.3.8-.5c.2-.2.4-.5.5-.8.1-.3.2-.6.2-1h0c0-.4,0-.7-.2-1h0Z"/>
    <path class="st3" d="M63.1,49.2h.4v5.6h-.4v-5.6Z"/>
    <path class="st3" d="M67.3,49.8v5h-.4v-5.6h.4l3.9,4.9v-4.9h.4v5.6h-.3l-4-5Z"/>
    <path class="st3" d="M78.5,54c0,.2-.2.3-.4.5s-.4.2-.6.3-.5.1-.8.1c-.5,0-.9,0-1.2-.2s-.7-.4-1-.7l.3-.3c.3.3.6.5.9.6s.7.2,1.1.2.4,0,.6,0c.2,0,.3-.1.4-.2.1,0,.2-.2.3-.3s0-.3,0-.5h0c0-.2,0-.3,0-.4,0-.1-.1-.2-.2-.3-.1,0-.3-.2-.5-.3-.2,0-.5-.2-.8-.2-.7-.1-1.2-.3-1.5-.6-.3-.2-.4-.6-.4-1h0c0-.2,0-.4.1-.6s.2-.3.4-.5c.2-.1.3-.2.6-.3s.5-.1.7-.1c.4,0,.8,0,1.1.2.3.1.6.3.9.5l-.3.3c-.3-.2-.5-.4-.8-.5s-.6-.1-.9-.1-.4,0-.6,0-.3.1-.4.2-.2.2-.3.3c0,.1,0,.3,0,.4h0c0,.2,0,.3,0,.4,0,.1.1.2.2.3.1,0,.3.2.5.3s.5.2.8.2c.7.1,1.1.3,1.4.6.3.2.4.6.4,1h0c0,.2,0,.5-.1.6h0Z"/>
    <path class="st3" d="M83.6,54.8h-.4v-5.2h-2v-.4h4.3v.4h-2v5.2Z"/>
    <path class="st3" d="M92.4,53.2h-3.3l-.7,1.6h-.4l2.6-5.7h.4l2.6,5.7h-.5s-.7-1.6-.7-1.6ZM89.3,52.9h3l-1.5-3.3-1.5,3.3Z"/>
    <path class="st3" d="M96.4,49.2h.4v5.2h3.3v.4h-3.7s0-5.6,0-5.6Z"/>
    <path class="st3" d="M103,49.2h.4v5.2h3.3v.4h-3.7s0-5.6,0-5.6Z"/>
    <path class="st3" d="M109.6,49.2h4v.4h-3.6v2.2h3.2v.4h-3.2v2.3h3.6v.4h-4v-5.6h0Z"/>
    <path class="st3" d="M118.9,52.5h-1.8v2.3h-.4v-5.6h2.4c.3,0,.6,0,.8.1.2,0,.5.2.6.3.2.1.3.3.4.5,0,.2.1.4.1.7h0c0,.3,0,.5-.1.7,0,.2-.2.3-.3.5-.2.1-.3.2-.5.3s-.4.1-.7.2l1.9,2.4h-.5l-1.8-2.3h0ZM120.1,49.9c-.3-.2-.7-.3-1.2-.3h-1.9v2.5h1.9c.2,0,.4,0,.7,0,.2,0,.4-.1.5-.2.1-.1.3-.2.3-.4s.1-.3.1-.5h0c0-.4-.1-.7-.4-.9h0Z"/>
    <path class="st4" d="M298.1,16.7v8.6c0,7.2,7.4,6.9,7.4,6.9h34.1v-6.8h-32c-2.1,0-2.2-2-2.2-2v-2.5h34.1v-4.2,1.3-4.2h-34.1v-2.5s0-2,2.2-2h32V2.6h-34.1s-7.4-.4-7.4,6.9v8.6-1.3h0Z"/>
    <path class="st4" d="M349.1,32.1v-11.2h34.1v-4.2,1.3-4.2h-34.1v-2.5s0-2,2.2-2h32V2.6h-34.1s-7.4-.4-7.4,6.9v8.6-1.3,15.4h7.3s0,0,0,0Z"/>
    <path class="st4" d="M427.3,20.6v4.9c0,6.8-7.8,6.5-7.8,6.5h-33.7v-6.9h32.8c1.7,0,1.5-1.2,1.5-1.2v-2c0-1.4-1.6-1.3-1.6-1.3h-25.4s-8.5.5-8.5-6.4v-4.5c0-7.6,7.4-7.3,7.4-7.3h34.2v6.8h-32.8c-1.8,0-1.5,1.6-1.5,1.6v1.5s-.3,1.5,1.7,1.5h26.3s7.2-.2,7.3,6.7"/>
    <path class="st4" d="M267,52.8c0,.1.5.4,1.1.6.2,0,.5.1.6.2.4,0,.5,0,.8.1-.2,0-.4-.1-.7-.3-.4-.2-.6-.3-.9-.5-.3-.1-.5-.2-.7-.2-.2,0-.3,0-.2.1M269.9,53.2s0,0,0,0c.2.8,1.6.3,1.9-.1.1-.2,0-.4-.1-.5-.2-.1-.4-.2-.5-.2-.6,0-1.3.3-1.2.7M262.4,50.7c0,.2.5.7,1.5,1.2,1.1.6,2.4,1,2.6,1h0c0,0-1.5-1.3-2.8-2-.5-.2-.8-.3-.9-.3-.3,0-.3.1-.3.2M273.7,53.1c-.8.5-.7.5-.6.5.3.1,3.6-.5,3.8-1.3,0-.1-.1-.2-.3-.2-.5,0-1.6.2-2.8,1M266.3,51.1c0,.2.1.3.3.5.9,1.1,2.6,1.6,2.8.4,0-.3,0-.9-.9-1.4-.4-.2-.7-.3-1-.4-.8,0-1.3.3-1.1.9M281.8,51.4c-.6,0-1.6.5-3.5,1.3-.5.2-1.1.3-1.6.7.2.1,4.1-.8,5.3-1.8,0,0,.1-.2,0-.2h-.2M272.1,51.3c-.3,1.2,1.1,1.6,2.5.6.2,0,1.5-1,.8-1.9-.2-.2-.5-.3-.8-.3-1-.1-2.3.6-2.5,1.6M257.1,47.7c.1.3.6,1,1.7,1.7,1.3,1,3,1.8,2.9,1.5,0-.2-1.8-2-3.4-3-.5-.3-.8-.4-1-.4-.3,0-.2.2-.2.2M261,47.9c0,.2.2.6.6,1.1,1.1,1.3,3.2,2.4,3.4,1.1,0-.5-.3-1.7-1.8-2.7-.5-.3-.9-.4-1.2-.5-.8,0-1.1.4-1,.9M278.6,50.8c-.2.2-1.1,1.2-.2,1.2,1.2,0,4.4-1.6,4.3-2.8,0-.2-.2-.3-.5-.3-.8,0-2.5.7-3.5,1.8M267.9,48.5c.5,1.8,3.1,2.6,4.2.7.2-.4.6-1.4-.6-2.3-.4-.3-.9-.4-1.3-.5-1.4-.2-2.6.9-2.3,2.1M252.2,43.6c0,.3.7,1.2,1.8,2.4,1.1,1.2,2.4,2.2,2.6,2.1,0-.3-2.3-2.9-3.5-4-.4-.3-.7-.5-.8-.5,0,0-.1,0,0,.1M288,47.7c-.7.3-1.9,1.1-3.2,2.1-1.7,1.3-1.4,1.3-1.4,1.4.5,0,4.2-1.8,5.1-3.2,0-.2,0-.3,0-.3-.1,0-.3,0-.5.1M255.3,43.7c0,.4.4,1,.7,1.6,1.1,1.6,3.3,3,3.4,1.7,0-.6-.5-2.3-2.2-3.7-.5-.4-.9-.5-1.2-.6-.6,0-.9.4-.8.9M276.2,47.9c-.5,1.5.8,2.4,2.8,1.3,1.2-.6,2.5-2.1,1.6-3.2-.3-.2-.6-.4-1-.4-1.3-.2-3,.9-3.4,2.3M261.9,44.2c0,.1,0,.3.1.5.8,2.1,3.7,3.2,4.6,1.3,0-.2.8-1.8-1.2-3.3-.5-.3-1.1-.5-1.5-.6-1.4-.2-2.3.8-2,2.1M284.5,46.9c-.7,1.1-.8,2,.3,1.8,1.5-.3,4.2-2.6,3.9-4-.1-.2-.3-.4-.5-.4-1-.1-2.7,1.1-3.7,2.6M271.4,44.1c0,2.2,3,3.3,4.8,1.2.6-.7,1.2-2.2-.1-3.4-.4-.3-.9-.5-1.4-.5-1.7-.2-3.3,1.1-3.3,2.7M250.3,38.7c0,.6.3,1.4.8,2.2,1,1.8,2.6,3.3,2.9,2.3.1-.6-.6-2.9-2.1-4.6-.5-.4-.8-.6-1-.6-.5,0-.5.6-.5.7M293.8,42.4c-.5.2-1.7,1.4-2.9,2.9-.4.5-1.6,2-1.1,1.9.6-.1,3.4-2.9,4.1-4.5,0-.1.1-.3,0-.3,0,0,0,0-.1,0M255.6,39.3c0,.2.1.6.2.8.8,2.2,3.4,3.7,4.3,1.9.4-.8.4-2.7-1.4-4.2-.5-.4-1-.6-1.5-.7-1.1-.1-1.9.8-1.7,2.1M281.5,43.1c-.5,2,1,3,3,1.8,1.4-.8,2.8-2.9,1.8-4.2-.3-.3-.6-.4-1-.5-1.4-.2-3.2,1.2-3.7,2.9M264.8,39.4c.4,2.8,4.2,3.8,5.7,1.5.5-.8.9-2.5-.8-3.9-.6-.4-1.2-.6-1.7-.7-1.9-.2-3.4,1.2-3.1,3M247.1,32.9c-.1.5.2,1.8.6,3.1.6,1.8,1.4,3.2,1.6,2.8.2-.4-.6-3.5-1.6-5.4-.1-.2-.4-.6-.6-.7,0,0-.1,0-.1.2M290.3,41.6c-.7,1.7-.4,2.7.7,2.2,1.4-.6,3.4-3.4,3-5-.1-.3-.3-.4-.5-.4-.9-.1-2.5,1.5-3.2,3.2M276.2,38.6c-.1,2.5,2.8,3.7,4.8,1.8,1-.9,1.8-3,.3-4.4-.5-.3-1-.5-1.4-.6-1.8-.2-3.6,1.3-3.7,3.2M250.4,33.8c0,.4,0,.8.2,1.2.6,2.4,2.5,3.8,3.4,2.5.6-.9.5-3.3-.9-5.1-.4-.4-.8-.7-1.2-.7-.8,0-1.4.8-1.4,2.1M258.1,34.1c.4,2.8,3.5,4.2,5.1,2.2.8-.9,1.2-3-.7-4.8-.5-.4-1.1-.6-1.6-.7-1.7-.2-3,1.3-2.8,3.3M286.9,37.2c-.4,2.3,1.1,3.4,2.9,2.2,1.4-.9,2.6-3.5,1.4-5.2-.3-.3-.6-.5-1-.5-1.4-.2-3,1.5-3.3,3.5M269.4,33.3c.1,2.9,3.6,4.2,5.7,2.2,1-1,1.6-3.2-.3-4.9-.5-.4-1.1-.6-1.7-.7-2-.2-3.8,1.4-3.7,3.4M247.3,27c0,.3-.3,1.2-.2,2.4.2,2.3,1.1,3.9,1.8,2.9.6-.8.8-3.7,0-5.7-.3-.5-.5-.7-.7-.7-.4,0-.7.6-.9,1.1M252.6,28.1v.3c0,2.7,2.2,4.2,3.7,2.8,1.2-1.1,1.5-3.8.1-5.5-.4-.4-.9-.7-1.3-.7-1.3-.2-2.4,1.2-2.5,3.1M281.4,32.1c0,2.8,2.7,4.1,4.6,2.2,1.3-1.3,1.7-3.7.1-5.2-.4-.4-.9-.5-1.4-.6-1.7-.2-3.4,1.5-3.4,3.6M262.3,27.5c0,3.1,3.5,4.6,5.6,2.4,1-1.1,1.6-3.4-.3-5.1-.6-.4-1.2-.7-1.7-.7-1.9-.2-3.6,1.3-3.5,3.4M246.4,25h0s0,.1,0,.2v-.2s0,0,0,0ZM246.8,21.9c0,.4-.1.7-.2,1.1,0-.4.1-.8.2-1.1-.1.6-.2,1.3-.4,2,0,.3,0,.6-.1.8,0,.1,0,.2,0,.3v.2c0,.1,0,.2,0,.3-.1,1.4,0,1.5,0,1.6.4-.2,1.1-4.3,1.1-6.1,0-.4,0-.6-.1-.7,0,0-.2,0-.5,1.5M274.6,26.5c0,2.9,3.3,4.4,5.3,2.4,1.1-1.1,1.7-3.5-.2-5.2-.5-.4-1-.6-1.6-.6-1.9-.2-3.6,1.4-3.5,3.4M249.4,22c0,.2-.1.4-.1.6-.4,2.4.6,4,1.9,3,1.1-.8,2.1-3.7,1.3-5.6-.2-.4-.5-.6-.9-.7-.9-.1-1.8,1.2-2.2,2.7M256.8,21.7c-.4,2.6,1.9,4.2,3.9,2.7,1.5-1.1,2.2-3.6.8-5.2-.4-.4-.9-.6-1.4-.7-1.6-.2-3.1,1.4-3.3,3.2M267.6,20.9c-.1,2.7,3.2,4.2,5.3,2.4,1.4-1.2,1.7-3.4,0-4.9-.5-.4-1-.5-1.6-.6-1.9-.2-3.6,1.2-3.7,3.1M250.3,14.6c-.5.5-1.2,1.6-1.6,2.7-.7,1.8-.8,3.2-.1,3,.9-.3,2.5-3.5,2.6-5.4,0-.4-.1-.6-.3-.6-.2,0-.4.1-.6.4M253.6,16.4c-.8,2.1.2,3.6,1.9,2.8,1.6-.8,2.9-3.4,2.2-5-.2-.4-.5-.6-.9-.6-1.1-.1-2.7,1.3-3.2,2.9M262.1,15.6c-.6,2.3,1.8,3.8,3.9,2.5,1.5-1,2.3-3.2.9-4.7-.4-.3-.8-.5-1.3-.6-1.6-.2-3.2,1.2-3.6,2.8M252.9,10c-1.6,1.9-1.9,2.2-2.5,3.2-.4.6-.8,1.4-1.1,2,0,0,0,0,0,0,0,0,1.2-1.7,3.4-4.8.2-.3.3-.4.3-.5,0,0,0,0,0,0M254.1,10.5c-.4.4-.7.8-1,1.2-1.1,1.5-1.2,2.8-.2,2.6,1.3-.2,3.5-3,3.7-4.6,0-.3-.1-.5-.3-.5-.5,0-1.6.8-2.1,1.3M259.2,11c-1,1.7-.1,3,1.6,2.5,1.9-.6,3.4-2.9,2.8-4.4-.2-.3-.5-.5-.8-.5-1.1-.1-2.8,1.1-3.5,2.4M255.3,7.7c-1.4,1.2-2.1,2.2-1.7,2.2.6,0,3.7-2.8,4.6-3.8.2-.2.2-.3.2-.4,0,0,0,0,0,0-.3,0-1.7.8-3,2M259.5,6.7c-.1.1-.3.3-.5.4-1.3,1.2-1.4,2.1-.6,2.1,1.4,0,4-2.3,4.4-3.6,0-.2,0-.4-.3-.4-.6,0-2.2.8-3.1,1.5M261.3,4.1c-1.5.8-2.3,1.5-1.9,1.6.7.2,5.3-2.6,5.3-2.6.2-.1.2-.1.2-.2,0,0,0,0,0,0-.4,0-2.2.6-3.6,1.3h0Z"/>
    <path class="st4" d="M318,39.7v3.2h-15.5c-.5,0-.8.2-.8.5v1.1c0,.3.3.5.8.5h11.7c2.8,0,4.2,1.1,4.2,3.3v1.9c0,2.3-1.4,3.4-4.2,3.4h-15.5v-3.2h15.5c.5,0,.8-.2.8-.5v-1.1c0-.3-.3-.5-.8-.5h-11.7c-2.8,0-4.2-1-4.2-3v-2.2c0-2.3,1.4-3.4,4.2-3.4h15.5Z"/>
    <path class="st4" d="M330.2,53.7c-3.5,0-5.3-1.5-5.3-4.4v-5.1c0-3,1.8-4.5,5.3-4.5h10.8c3.5,0,5.3,1.5,5.3,4.5v5.1c0,3-1.8,4.4-5.3,4.4h-10.8ZM330.2,43c-1.2,0-1.8.4-1.8,1.2v5.1c0,.8.6,1.2,1.8,1.2h10.8c1.2,0,1.8-.4,1.8-1.2v-5.1c0-.8-.6-1.2-1.8-1.2h-10.8Z"/>
    <path class="st4" d="M357,53.7c-2.8,0-4.2-1.1-4.2-3.4v-10.6h3.4v10.1c0,.4.3.7.8.7h15.2v3.2h-15.2Z"/>
    <path class="st4" d="M394.4,51h-11.4l-1.5,2.8h-4l7.3-12.8c.1-.2.2-.4.3-.5.1-.2.2-.3.4-.4.1,0,.3-.2.5-.2s.5,0,.8,0h3.5c1,0,1.7.4,2.1,1.2l7.3,12.8h-3.9l-1.6-2.8h0ZM384.7,47.9h8l-2.4-4.3c-.1-.2-.3-.4-.4-.5s-.3-.2-.5-.2h-1.4c-.4,0-.7.2-.9.7l-2.4,4.2h0Z"/>
    <path class="st4" d="M405.6,39.7h16.9c2.7,0,4,1.1,4,3.4v1.3c0,2.4-1.4,3.5-4,3.5h-1.2l5.8,5.8h-4.7l-5.4-5.6h-7.9v5.6h-3.4v-14h0ZM409,43v2.2h13.5c.5,0,.7-.2.7-.6v-1.1c0-.4-.3-.5-.8-.5h-13.4,0Z"/>
    <line class="st1" x1="171.9" y1="13.5" x2="201.6" y2="43.3"/>
    <line class="st1" x1="201.6" y1="13.5" x2="171.9" y2="43.3"/>
  </g>
</svg>