<?xml version="1.0" encoding="UTF-8"?>
<svg id="b" xmlns="http://www.w3.org/2000/svg" version="1.1" viewBox="0 0 173.35 85.5">
  <!-- Generator: Adobe Illustrator 30.3.0, SVG Export Plug-In . SVG Version: 2.1.3 Build 182)  -->
  <defs>
    <style>
      .st0 {
        fill: none;
      }

      .st1 {
        fill: #5f6062;
      }

      .st2 {
        fill: #f58025;
      }
    </style>
  </defs>
  <g id="c">
    <rect class="st0" y="0" width="173.35" height="85.5"/>
  </g>
  <g id="c1" data-name="c">
    <path class="st2" d="M84.632,55.6c-3.878,0-6.749-1.06-9.017-3.355l1.624-1.704c1.758,1.946,4.119,2.872,7.3,2.872,4.348,0,6.696-1.61,6.696-4.764,0-2.442-1.342-3.65-4.254-3.945l-3.69-.349c-4.482-.389-6.696-2.482-6.696-6.132,0-4.039,3.14-6.669,7.997-6.669,3.059,0,5.877.926,7.81,2.482l-1.57,1.65c-1.718-1.315-3.797-1.999-6.24-1.999-3.65,0-5.676,1.65-5.676,4.522,0,2.429,1.382,3.65,4.535,3.945l3.61.335c3.69.335,6.521,1.557,6.521,6.132,0,4.28-3.462,6.951-8.923,6.951"/>
    <path class="st2" d="M122.996,55.305c-3.61,0-5.354-2.429-5.354-6.079v-25.039h2.362v24.999c0,2.63.778,3.932,3.422,3.932h1.61v2.187s-2.04,0-2.04,0Z"/>
    <path class="st2" d="M128.229,31.863h2.362v23.442h-2.362v-23.442ZM129.437,27.542c-.966,0-1.758-.819-1.758-1.798s.792-1.852,1.718-1.852,1.758.832,1.758,1.798c0,1.02-.792,1.852-1.704,1.852"/>
    <path class="st2" d="M142.063,55.6c-3.891,0-6.763-1.06-9.031-3.355l1.624-1.704c1.758,1.946,4.119,2.872,7.313,2.872,4.348,0,6.709-1.61,6.709-4.764,0-2.442-1.342-3.65-4.254-3.945l-3.703-.349c-4.495-.389-6.709-2.482-6.709-6.132,0-4.039,3.14-6.669,8.011-6.669,3.059,0,5.877.926,7.823,2.482l-1.57,1.65c-1.718-1.315-3.797-1.999-6.253-1.999-3.663,0-5.689,1.65-5.689,4.522,0,2.429,1.382,3.65,4.535,3.945l3.61.335c3.703.335,6.521,1.557,6.521,6.132,0,4.28-3.462,6.951-8.923,6.951"/>
    <path class="st2" d="M109.926,35.741c-1.261-1.275-2.965-1.999-4.871-1.999s-3.596.725-4.871,1.999c-1.946,1.946-2.093,5.112-2.093,7.836s.148,5.891,2.093,7.836c1.275,1.261,2.965,1.999,4.871,1.999s3.61-.725,4.871-1.999c1.946-1.946,2.093-5.112,2.093-7.836s-.148-5.891-2.093-7.836M111.59,53.024c-1.65,1.65-3.891,2.576-6.521,2.576s-4.871-.926-6.521-2.576c-2.482-2.482-2.925-6.079-2.925-9.447s.443-6.964,2.925-9.447c1.65-1.65,3.891-2.576,6.521-2.576s4.871.926,6.521,2.576c2.482,2.482,2.912,6.079,2.912,9.447s-.443,6.964-2.912,9.447"/>
    <path class="st1" d="M40.781,32.319c-2.362,0-4.844-2.053-6.723-3.61-.684-.564-1.61-1.328-2.013-1.503-.349.121-.751.027-.993-.268-.322-.376-.268-.953.107-1.275,1.02-.845,2.214.148,4.039,1.65,1.892,1.557,4.468,3.703,6.199,3.1.47-.161.98.081,1.141.55.161.47-.081.98-.55,1.141-.403.134-.805.201-1.221.201"/>
    <path class="st1" d="M24.062,40.572s-.107,0-.161-.013c-.483-.094-.819-.55-.725-1.047.228-1.302,1.798-1.315,4.16-1.328,2.456-.013,5.81-.04,6.749-1.61.255-.429.805-.564,1.234-.309.429.255.564.805.309,1.234-1.463,2.442-5.408,2.469-8.279,2.496-.886,0-2.08.013-2.509.134-.161.268-.456.443-.778.443"/>
    <path class="st1" d="M26.732,55.694c-.309,0-.617-.161-.778-.443-.658-1.141.523-2.16,2.335-3.69,1.865-1.583,4.415-3.757,4.133-5.569-.081-.483.255-.953.751-1.033.496-.081.953.255,1.033.751.443,2.818-2.55,5.367-4.737,7.233-.671.577-1.583,1.355-1.825,1.718.067.362-.094.738-.429.939-.148.081-.295.121-.456.121"/>
    <path class="st1" d="M38.5,65.584c-.107,0-.201-.013-.309-.054-1.248-.456-.98-1.999-.59-4.321.403-2.415.966-5.716-.429-6.924-.376-.322-.416-.899-.094-1.275.322-.376.886-.416,1.261-.094,2.147,1.865,1.489,5.757,1.02,8.588-.148.872-.349,2.053-.295,2.496.282.242.403.631.268.993s-.483.59-.845.59"/>
    <path class="st1" d="M53.716,65.61c-.993,0-1.731-1.248-2.764-3.033-1.234-2.107-2.939-5.005-4.777-5.032-.496,0-.886-.416-.886-.912s.403-.886.912-.886c2.845.04,4.844,3.449,6.293,5.918.456.765,1.06,1.798,1.382,2.107.362,0,.711.228.845.59.174.47-.067.98-.537,1.154-.161.067-.309.094-.47.094"/>
    <path class="st1" d="M65.176,55.909c-.778,0-1.825-.376-3.126-.832-2.308-.819-5.461-1.946-6.897-.792-.389.309-.953.255-1.261-.134-.309-.389-.255-.953.134-1.261,2.214-1.798,5.918-.47,8.628.496.845.295,1.959.698,2.402.725.282-.242.698-.282,1.02-.094.429.242.577.792.335,1.234-.282.47-.684.658-1.234.658"/>
    <path class="st1" d="M59.07,46.744s-.121,0-.174-.013c-.483-.094-.805-.564-.711-1.06.537-2.791,4.227-4.173,6.924-5.18.832-.309,1.946-.725,2.308-.993.067-.362.349-.658.725-.725.483-.081.953.242,1.047.725.228,1.302-1.234,1.852-3.449,2.67-2.295.859-5.434,2.026-5.783,3.824-.081.429-.456.725-.886.725"/>
    <path class="st1" d="M57.514,37.928c-.309,0-.617-.161-.792-.47-1.382-2.482.564-5.918,1.986-8.413.443-.778,1.033-1.811,1.127-2.241-.188-.322-.161-.725.094-1.02.322-.376.886-.429,1.261-.107,1.02.845.242,2.214-.926,4.267-1.208,2.134-2.858,5.045-1.973,6.656.242.443.081.98-.349,1.221-.134.081-.282.107-.429.107"/>
    <path class="st1" d="M50.657,32.172c-.107,0-.215-.013-.322-.067-2.657-1.02-3.368-4.884-3.891-7.716-.161-.872-.376-2.04-.577-2.442-.349-.134-.59-.456-.59-.845,0-.496.403-.899.899-.899,1.328,0,1.61,1.543,2.04,3.865.443,2.402,1.047,5.703,2.764,6.36.456.174.698.698.523,1.154-.134.362-.483.577-.845.577"/>
    <path class="st2" d="M34.85,37.928c-.148,0-.295-.04-.443-.107-.429-.242-.59-.792-.349-1.221.899-1.61-.765-4.522-1.973-6.656-1.167-2.053-1.946-3.422-.926-4.267.376-.322.953-.268,1.261.107.255.295.268.711.094,1.02.107.429.698,1.476,1.127,2.241,1.422,2.496,3.368,5.931,1.986,8.413-.161.295-.47.47-.792.47"/>
    <path class="st2" d="M33.293,46.744c-.416,0-.792-.295-.886-.725-.349-1.811-3.489-2.979-5.783-3.824-2.214-.832-3.677-1.382-3.449-2.684.094-.483.55-.819,1.047-.725.376.067.658.362.725.725.362.268,1.476.684,2.308.993,2.697,1.006,6.387,2.375,6.924,5.18.094.483-.228.953-.711,1.06-.054,0-.107.013-.174.013"/>
    <path class="st2" d="M27.188,55.909c-.55,0-.966-.188-1.234-.658-.242-.429-.107-.98.335-1.221.335-.201.738-.148,1.033.094.443-.027,1.57-.429,2.402-.725,2.711-.966,6.427-2.281,8.628-.496.389.309.443.872.134,1.261s-.886.443-1.261.134c-1.422-1.154-4.589-.027-6.897.792-1.302.456-2.348.832-3.126.832"/>
    <path class="st2" d="M38.661,65.61c-.148,0-.309-.027-.47-.094-.47-.174-.711-.684-.537-1.154.134-.362.47-.59.845-.59.322-.309.926-1.342,1.382-2.107,1.449-2.482,3.449-5.877,6.293-5.918.483,0,.912.389.912.886s-.389.899-.886.912c-1.838.027-3.542,2.925-4.777,5.032-1.047,1.771-1.771,3.019-2.764,3.019"/>
    <path class="st2" d="M53.864,65.584c-.362,0-.711-.228-.845-.59-.134-.362-.013-.765.268-.993.054-.443-.148-1.61-.295-2.496-.47-2.831-1.141-6.723,1.02-8.588.376-.322.939-.282,1.261.094.322.376.282.939-.094,1.275-1.382,1.208-.832,4.509-.429,6.924.389,2.335.658,3.878-.59,4.321-.107.04-.201.054-.309.054"/>
    <path class="st2" d="M65.645,55.694c-.148,0-.309-.04-.456-.121-.335-.201-.496-.577-.429-.939-.242-.362-1.154-1.141-1.825-1.718-2.187-1.865-5.193-4.415-4.737-7.233.081-.496.537-.832,1.033-.751.483.081.819.537.751,1.033-.282,1.811,2.268,3.985,4.133,5.569,1.798,1.53,2.992,2.55,2.335,3.69-.174.282-.47.443-.778.443"/>
    <path class="st2" d="M68.316,40.572c-.322,0-.617-.174-.778-.443-.429-.121-1.61-.134-2.509-.134-2.872-.013-6.817-.054-8.279-2.496-.255-.429-.121-.98.309-1.234s.98-.121,1.234.309c.939,1.57,4.294,1.597,6.749,1.61,2.375.013,3.932.027,4.16,1.328.094.483-.242.953-.725,1.047-.054,0-.107.013-.161.013"/>
    <path class="st2" d="M51.583,32.319c-.416,0-.819-.067-1.221-.201-.47-.161-.725-.671-.55-1.141.161-.47.671-.711,1.141-.55,1.731.604,4.321-1.543,6.213-3.1,1.825-1.503,3.033-2.509,4.039-1.65.376.322.429.886.107,1.261-.255.295-.644.389-.993.268-.403.174-1.328.939-2.013,1.503-1.892,1.557-4.374,3.61-6.723,3.61"/>
    <path class="st2" d="M41.707,32.172c-.362,0-.698-.215-.845-.577-.174-.47.054-.98.523-1.154,1.718-.658,2.321-3.958,2.764-6.36.429-2.321.711-3.865,2.04-3.865.496,0,.899.403.899.899,0,.389-.242.725-.59.845-.201.403-.416,1.57-.577,2.442-.523,2.831-1.234,6.709-3.891,7.716-.107.04-.215.067-.322.067"/>
    <path class="st2" d="M40.781,55.265c.376,0,.738.054,1.087.174,2.442.926,3.126,4.656,3.623,7.38.188,1.033.443,2.429.711,2.724.268-.309.523-1.704.711-2.724.496-2.724,1.194-6.454,3.61-7.38.349-.121.711-.188,1.1-.188,2.187,0,4.535,1.946,6.427,3.516.845.698,1.879,1.557,2.295,1.637,0-.403-.698-1.637-1.208-2.536-1.369-2.402-3.247-5.703-1.986-7.971,1.342-2.241,5.139-2.268,7.903-2.281,1.047,0,2.469-.013,2.818-.228-.255-.309-1.583-.805-2.563-1.167-2.59-.966-6.146-2.295-6.642-4.831-.416-2.576,2.469-5.032,4.576-6.83.792-.684,1.865-1.583,2.013-1.973h-.081c-.51,0-1.543.362-2.63.751-1.704.604-3.811,1.355-5.609,1.355-1.06,0-1.932-.268-2.576-.792-1.973-1.704-1.342-5.448-.872-8.172.174-1.033.416-2.429.268-2.804-.349.201-1.06,1.422-1.597,2.321-1.396,2.388-3.314,5.663-5.918,5.703-2.617-.04-4.535-3.314-5.931-5.703-.537-.899-1.248-2.12-1.597-2.321-.148.376.094,1.771.268,2.804.456,2.724,1.1,6.468-.872,8.172-.658.537-1.53.805-2.59.805-1.798,0-3.918-.751-5.622-1.355-1.087-.389-2.12-.751-2.63-.751h-.094c.148.376,1.208,1.288,2.013,1.973,2.107,1.798,4.992,4.254,4.589,6.817-.496,2.563-4.052,3.878-6.642,4.844-.98.362-2.308.859-2.563,1.167.349.201,1.758.215,2.804.215,2.778.013,6.562.04,7.903,2.268,1.275,2.281-.604,5.582-1.973,7.984-.51.912-1.208,2.134-1.208,2.536.416-.081,1.463-.939,2.295-1.637,1.892-1.57,4.24-3.516,6.427-3.516M46.189,66.483h0c-.953,0-1.208-1.396-1.583-3.489-.456-2.509-1.1-5.958-3.046-6.709-.228-.081-.496-.121-.765-.121-1.865,0-4.079,1.838-5.85,3.301-1.422,1.181-2.268,1.852-2.925,1.852-.201,0-.389-.067-.537-.188-.725-.604-.027-1.838,1.033-3.703,1.261-2.214,2.992-5.26,1.973-7.098-1.06-1.785-4.562-1.811-7.125-1.825-2.134-.013-3.556-.027-3.717-.953-.161-.939,1.154-1.422,3.167-2.174,2.388-.886,5.676-2.107,6.065-4.16.322-2.053-2.335-4.321-4.28-5.971-1.624-1.396-2.711-2.308-2.227-3.126.107-.201.362-.429.899-.429.671,0,1.664.349,2.925.805,1.637.577,3.677,1.302,5.314,1.302.859,0,1.516-.188,2.013-.59,1.57-1.355.98-4.817.55-7.326-.349-2.107-.59-3.502.295-3.824.094-.027.174-.054.268-.054.778,0,1.436,1.114,2.415,2.791,1.288,2.201,3.073,5.22,5.153,5.26,2.08-.027,3.851-3.046,5.139-5.26.98-1.677,1.637-2.791,2.415-2.791.094,0,.188.013.268.054.886.322.658,1.718.295,3.838-.429,2.523-1.006,5.971.577,7.34.483.389,1.141.577,1.999.577,1.637,0,3.677-.725,5.314-1.302,1.261-.443,2.254-.805,2.925-.805.537,0,.778.242.899.429.47.819-.604,1.744-2.227,3.126-1.946,1.664-4.616,3.918-4.28,5.985.389,2.04,3.677,3.261,6.065,4.146,2.013.751,3.341,1.234,3.167,2.174-.161.939-1.583.939-3.717.953-2.563.013-6.052.054-7.125,1.838-1.006,1.811.725,4.857,1.986,7.072,1.06,1.865,1.758,3.086,1.033,3.703-.148.121-.335.188-.537.188-.658,0-1.503-.671-2.925-1.852-1.785-1.476-3.999-3.301-5.85-3.301-.282,0-.537.04-.792.121-1.932.738-2.576,4.187-3.033,6.696-.389,2.107-.644,3.489-1.597,3.489"/>
  </g>
</svg>