<?xml version="1.0" encoding="UTF-8"?>
<svg id="Layer_1" xmlns="http://www.w3.org/2000/svg" version="1.1" viewBox="0 0 50.3 50.3">
  <!-- Generator: Adobe Illustrator 30.3.0, SVG Export Plug-In . SVG Version: 2.1.3 Build 182)  -->
  <defs>
    <style>
      .st0 {
        fill: #2f266f;
      }

      .st1 {
        fill: #231f20;
      }

      .st2 {
        fill: #fff;
      }
    </style>
  </defs>
  <g id="Layer_2">
    <g id="Layer_1-2">
      <path class="st1" d="M25.1,50.3c13.9,0,25.1-11.3,25.1-25.1S39,0,25.1,0,0,11.3,0,25.1c0,13.9,11.3,25.1,25.1,25.1h0"/>
      <polygon class="st2" points="13.5 26.2 13.5 26.2 13.5 35.9 15.7 38.1 34.6 38.1 36.8 35.9 36.8 26.2 13.5 26.2"/>
      <polygon class="st0" points="15.6 28.2 15.6 34.9 16.7 36 17.7 36 17.7 28.2 15.6 28.2"/>
      <rect class="st0" x="19.8" y="28.2" width="2.1" height="7.8"/>
      <rect class="st0" x="24.1" y="28.2" width="2.1" height="7.8"/>
      <rect class="st0" x="28.3" y="28.2" width="2.1" height="7.8"/>
      <polygon class="st0" points="32.5 28.2 32.5 36 33.6 36 34.7 34.9 34.7 28.2 32.5 28.2"/>
      <polygon class="st2" points="13.5 24.1 13.5 24.1 13.5 14.4 15.7 12.2 34.6 12.2 36.8 14.4 36.8 24.1 13.5 24.1"/>
      <polygon class="st0" points="15.6 22.1 15.6 15.4 16.7 14.2 17.7 14.2 17.7 22.1 15.6 22.1"/>
      <rect class="st0" x="19.8" y="14.2" width="2.1" height="7.8"/>
      <rect class="st0" x="24.1" y="14.2" width="2.1" height="7.8"/>
      <rect class="st0" x="28.3" y="14.2" width="2.1" height="7.8"/>
      <polygon class="st0" points="32.5 22.1 32.5 14.2 33.6 14.2 34.7 15.4 34.7 22.1 32.5 22.1"/>
    </g>
  </g>
</svg>