<?xml version="1.0" encoding="UTF-8"?>
<svg id="Layer_2" xmlns="http://www.w3.org/2000/svg" version="1.1" viewBox="0 0 506 59.7">
  <!-- Generator: Adobe Illustrator 30.3.0, SVG Export Plug-In . SVG Version: 2.1.3 Build 182)  -->
  <defs>
    <style>
      .st0 {
        fill: #231f20;
      }

      .st1 {
        fill: none;
        stroke: #231f20;
        stroke-miterlimit: 10;
      }

      .st2 {
        fill: #44acc8;
      }
    </style>
  </defs>
  <g id="Layer_1-2">
    <g>
      <g>
        <g>
          <g>
            <path d="M376.9,15.6v8.6c0,7.2,7.4,6.9,7.4,6.9h34.1v-6.8h-32c-2.1,0-2.2-2-2.2-2v-2.5h34.1v-4.2,1.3-4.2h-34.1v-2.5s0-2,2.2-2h32V1.5h-34.1s-7.4-.4-7.4,6.9v8.6-1.3h0Z"/>
            <path d="M427.9,31v-11.2h34.1v-4.2,1.3-4.2h-34.1v-2.5s0-2,2.2-2h32V1.5h-34.1s-7.4-.4-7.4,6.9v8.6-1.3,15.4h7.3Z"/>
            <path d="M506,19.6v4.9c0,6.8-7.8,6.5-7.8,6.5h-33.7v-6.9h32.8c1.7,0,1.5-1.2,1.5-1.2v-2c0-1.4-1.6-1.3-1.6-1.3h-25.4s-8.5.5-8.5-6.4v-4.5c0-7.6,7.4-7.3,7.4-7.3h34.2v6.8h-32.8c-1.8,0-1.5,1.6-1.5,1.6v1.5s-.3,1.5,1.7,1.5h26.3s7.2-.2,7.3,6.7"/>
          </g>
          <path d="M345.7,51.8c0,0,.5.4,1.1.6.2,0,.5,0,.6,0,.4,0,.5,0,.8,0-.2,0-.4,0-.7-.3-.4-.2-.6-.3-.9-.5-.3,0-.5-.2-.7-.2s-.3,0-.2,0M348.7,52.2h0c.2.8,1.6.3,1.9,0,.1-.2,0-.4-.1-.5-.2,0-.4-.2-.5-.2-.6,0-1.3.3-1.2.7M341.1,49.7c0,.2.5.7,1.5,1.2,1.1.6,2.4,1,2.6,1h0s-1.5-1.3-2.8-2c-.5-.2-.8-.3-.9-.3-.3,0-.3,0-.3.2M352.4,52.1c-.8.5-.7.5-.6.5.3,0,3.6-.5,3.8-1.3,0,0-.1-.2-.3-.2-.5,0-1.6.2-2.8,1M345.1,50.1c0,.2.1.3.3.5.9,1.1,2.6,1.6,2.8.4,0-.3,0-.9-.9-1.4-.4-.2-.7-.3-1-.4-.8,0-1.3.3-1.1.9M360.6,50.3c-.6,0-1.6.5-3.5,1.3-.5.2-1.1.3-1.6.7.2,0,4.1-.8,5.3-1.8,0,0,.1-.2,0-.2h-.2M350.8,50.3c-.3,1.2,1.1,1.6,2.5.6.2,0,1.5-1,.8-1.9-.2-.2-.5-.3-.8-.3-1,0-2.3.6-2.5,1.6M335.9,46.6c.1.3.6,1,1.7,1.7,1.3,1,3,1.8,2.9,1.5,0-.2-1.8-2-3.4-3-.5-.3-.8-.4-1-.4-.3,0-.2.2-.2.2M339.8,46.7c0,.2.2.6.6,1.1,1.1,1.3,3.2,2.4,3.4,1.1,0-.5-.3-1.6-1.8-2.6-.5-.3-.9-.4-1.2-.5-.8,0-1.1.4-1,.9M357.4,49.7c-.2.2-1.1,1.2-.2,1.2s4.4-1.6,4.3-2.8c0-.2-.2-.3-.5-.3-.8,0-2.5.7-3.5,1.8M346.7,47.4c.5,1.8,3.1,2.6,4.2.7.2-.4.6-1.4-.6-2.3-.4-.3-.9-.4-1.3-.5-1.4-.2-2.6.8-2.3,2.1M331,42.5c0,.3.7,1.2,1.8,2.4,1.1,1.2,2.4,2.2,2.6,2.1,0-.3-2.3-2.9-3.5-4-.4-.3-.7-.5-.8-.5,0,0-.1,0,0,0M366.7,46.6c-.7.3-1.9,1-3.2,2-1.7,1.3-1.4,1.4-1.4,1.4.5,0,4.2-1.8,5.1-3.2v-.3c-.1,0-.3,0-.5,0M334.1,42.6c0,.4.4,1,.8,1.6,1.1,1.6,3.3,3,3.4,1.7,0-.6-.5-2.3-2.2-3.7-.5-.4-.9-.5-1.2-.6-.6,0-.9.4-.8,1M355,46.8c-.5,1.5.8,2.4,2.8,1.3,1.2-.6,2.5-2.1,1.6-3.2-.3-.2-.6-.4-1-.4-1.3-.2-3,.9-3.4,2.3M340.7,43.1c0,0,0,.3.1.5.8,2.1,3.7,3.2,4.6,1.3,0-.2.8-1.8-1.2-3.3-.5-.3-1.1-.5-1.5-.6-1.4-.2-2.3.8-2,2.1M363.2,45.7c-.7,1.1-.8,2.1.3,1.8,1.5-.3,4.2-2.6,3.9-4-.1-.2-.3-.4-.5-.4-1,0-2.7,1.1-3.7,2.6M350.2,43c0,2.2,3,3.3,4.8,1.2.6-.7,1.2-2.1-.1-3.3-.4-.3-.9-.5-1.4-.5-1.7-.2-3.3,1.1-3.3,2.7M329,37.6c0,.6.3,1.4.8,2.2,1,1.8,2.6,3.3,2.9,2.3.1-.7-.6-3-2.1-4.6-.5-.4-.8-.6-1-.6-.5,0-.5.6-.5.7M372.6,41.3c-.5.2-1.7,1.4-2.9,2.9s-1.6,2-1.1,1.9c.6,0,3.4-2.9,4.1-4.5,0,0,.1-.3,0-.4h-.1M334.5,38.2c0,.2.1.6.2.8.8,2.2,3.4,3.7,4.3,1.9.4-.8.4-2.7-1.4-4.2-.5-.4-1-.6-1.5-.7-1.1,0-1.9.8-1.7,2.1M360.3,42c-.5,2,1,3,3,1.8,1.4-.9,2.8-2.9,1.8-4.2-.3-.3-.6-.5-1-.5-1.4-.2-3.2,1.2-3.7,2.9M343.6,38.3c.4,2.8,4.2,3.8,5.7,1.5.5-.8.9-2.5-.8-3.9-.6-.4-1.2-.6-1.7-.7-1.9-.2-3.4,1.2-3.1,3M325.9,31.8c-.1.4.2,1.8.6,3.1.6,1.8,1.4,3.2,1.6,2.8s-.6-3.5-1.5-5.4c-.1-.2-.4-.7-.5-.7,0,0-.1,0-.1.2M369.1,40.5c-.7,1.7-.4,2.7.7,2.2,1.4-.6,3.4-3.4,3-5-.1-.3-.3-.4-.5-.4-.9,0-2.5,1.5-3.2,3.2M355,37.5c-.1,2.5,2.8,3.7,4.8,1.8,1-.9,1.8-3,.3-4.4-.5-.4-1-.5-1.4-.6-1.8-.2-3.6,1.3-3.7,3.2M329.2,32.7c0,.4,0,.8.2,1.2.6,2.4,2.5,3.8,3.4,2.5.6-.9.5-3.3-1-5.1-.4-.4-.8-.7-1.2-.7-.8-.1-1.4.8-1.4,2M336.9,33c.4,2.8,3.5,4.1,5.1,2.2.8-.9,1.2-3-.7-4.8-.5-.4-1.1-.6-1.6-.7-1.7-.2-3,1.3-2.8,3.3M365.7,36.1c-.4,2.3,1.1,3.4,2.9,2.2,1.4-.9,2.6-3.5,1.4-5.2-.3-.3-.6-.5-1-.5-1.4-.2-3,1.5-3.3,3.5M348.2,32.2c.1,2.9,3.6,4.2,5.7,2.2,1-1,1.6-3.2-.3-4.9-.5-.4-1.1-.6-1.7-.7-2-.2-3.8,1.4-3.7,3.4M326.2,25.9c0,.3-.3,1.2-.2,2.5.2,2.3,1.1,3.9,1.8,2.9.6-.8.8-3.7,0-5.7-.3-.5-.5-.7-.7-.7-.4,0-.7.6-.9,1.1M331.4,27v.3c0,2.7,2.2,4.2,3.7,2.8,1.2-1.1,1.5-3.8.1-5.5-.4-.4-.9-.7-1.3-.7-1.3-.2-2.4,1.2-2.5,3.1M360.2,31c0,2.8,2.7,4.1,4.6,2.2,1.3-1.3,1.7-3.7.1-5.2-.4-.3-.9-.5-1.4-.6-1.7-.2-3.4,1.5-3.4,3.6M341.1,26.4c0,3.1,3.5,4.5,5.6,2.4,1-1.1,1.6-3.3-.3-5.1-.6-.4-1.2-.6-1.7-.7-1.9-.2-3.6,1.4-3.5,3.4M325.2,23.9h0v.2-.2h0ZM325.7,20.8c0,.4-.1.7-.2,1.1,0-.4.1-.8.2-1.1-.1.6-.2,1.3-.4,2,0,.3,0,.6-.1.9v.8c-.1,1.4,0,1.5,0,1.6.4-.2,1.1-4.3,1.1-6.1s0-.6-.1-.7c0,0-.2,0-.5,1.5M353.4,25.4c0,2.9,3.3,4.4,5.3,2.4,1.1-1.1,1.7-3.5-.2-5.2-.5-.4-1-.6-1.6-.6-1.9-.2-3.6,1.4-3.5,3.4M328.2,20.9c0,.2-.1.4-.1.6-.4,2.4.6,4,1.9,3.1,1.1-.8,2.1-3.7,1.3-5.6-.2-.4-.5-.7-.9-.7-.9-.1-1.8,1.2-2.2,2.7M335.6,20.6c-.4,2.6,1.9,4.2,3.9,2.7,1.5-1.1,2.2-3.6.8-5.2-.4-.4-.9-.6-1.4-.7-1.6-.2-3.1,1.4-3.3,3.2M346.4,19.8c-.1,2.7,3.2,4.2,5.3,2.4,1.4-1.2,1.7-3.4,0-4.9-.5-.4-1-.6-1.6-.6-1.9-.2-3.6,1.2-3.7,3.1M329.1,13.5c-.5.5-1.2,1.6-1.6,2.7-.7,1.8-.8,3.2-.1,3,.9-.3,2.5-3.5,2.6-5.4,0-.4-.1-.6-.3-.6s-.4.1-.6.4M332.4,15.2c-.8,2.1.2,3.6,1.9,2.8,1.6-.8,2.9-3.4,2.2-5-.2-.4-.5-.6-.9-.6-1.1-.1-2.7,1.3-3.2,2.9M340.9,14.5c-.6,2.3,1.8,3.8,3.9,2.5,1.5-1,2.3-3.2.9-4.7-.4-.3-.8-.5-1.3-.6-1.6-.2-3.2,1.2-3.6,2.8M331.7,8.9c-1.6,1.9-1.9,2.2-2.5,3.2-.4.6-.8,1.4-1.1,2h0s1.2-1.7,3.4-4.8c.2-.3.3-.4.3-.5h0M332.9,9.3c-.4.3-.7.8-1,1.2-1.1,1.5-1.2,2.8-.2,2.6,1.3-.2,3.5-3,3.7-4.6,0-.3-.1-.5-.3-.5-.5,0-1.6.8-2.1,1.3M338,9.8c-1,1.7-.1,3,1.6,2.5,1.9-.6,3.4-2.9,2.8-4.4-.2-.3-.5-.5-.8-.5-1.1,0-2.8,1.1-3.5,2.4M334.1,6.6c-1.4,1.2-2.1,2.2-1.7,2.2.6,0,3.7-2.8,4.6-3.8.2-.2.2-.3.2-.4h0c-.3,0-1.7.8-3,2M338.3,5.6c-.1,0-.3.3-.5.4-1.3,1.2-1.4,2.2-.6,2.2,1.4,0,4-2.4,4.4-3.6,0-.2,0-.4-.3-.4-.6,0-2.2.8-3.1,1.5M340.1,3c-1.5.8-2.3,1.5-1.9,1.6.7.2,5.3-2.6,5.3-2.7q.2-.1.2-.2h0c-.4,0-2.2.6-3.6,1.3h0Z"/>
        </g>
        <g>
          <path d="M396.8,38.6v3.2h-15.5c-.5,0-.8.2-.8.5v1.1c0,.3.3.5.8.5h11.7c2.8,0,4.2,1.1,4.2,3.3v1.9c0,2.3-1.4,3.4-4.2,3.4h-15.5v-3.2h15.5c.5,0,.8-.2.8-.5v-1.1c0-.3-.3-.5-.8-.5h-11.7c-2.8,0-4.2-1-4.2-3v-2.2c0-2.3,1.4-3.4,4.2-3.4h15.5Z"/>
          <path d="M408.9,52.6c-3.5,0-5.3-1.5-5.3-4.4v-5.1c0-3,1.8-4.5,5.3-4.5h10.8c3.5,0,5.3,1.5,5.3,4.5v5.1c0,3-1.8,4.4-5.3,4.4h-10.8ZM408.9,41.9c-1.2,0-1.8.4-1.8,1.2v5.1c0,.8.6,1.2,1.8,1.2h10.8c1.2,0,1.8-.4,1.8-1.2v-5.1c0-.8-.6-1.2-1.8-1.2h-10.8Z"/>
          <path d="M435.8,52.6c-2.8,0-4.2-1.1-4.2-3.4v-10.6h3.4v10.1c0,.4.3.7.8.7h15.2v3.2h-15.2,0Z"/>
          <path d="M473.2,49.9h-11.4l-1.5,2.8h-4l7.3-12.8c.1-.2.2-.4.3-.5.1-.2.2-.3.4-.4.1,0,.3-.2.5-.2h4.3c1,0,1.7.4,2.1,1.2l7.3,12.8h-3.9l-1.6-2.8h.2ZM463.5,46.8h8l-2.4-4.3c-.1-.2-.3-.4-.4-.5s-.3-.2-.5-.2h-1.4c-.4,0-.7.2-.9.7l-2.4,4.2h0Z"/>
          <path d="M484.4,38.6h16.9c2.7,0,4,1.1,4,3.4v1.3c0,2.4-1.4,3.5-4,3.5h-1.2l5.8,5.8h-4.7l-5.4-5.6h-7.9v5.6h-3.4v-14h0ZM487.8,41.9v2.2h13.5c.5,0,.7-.2.7-.6v-1.1c0-.4-.3-.5-.8-.5h-13.4Z"/>
        </g>
      </g>
      <g>
        <polygon class="st0" points="0 40.5 19 0 41.7 0 37.9 8.1 25.1 8.1 21.6 15.6 33.7 15.6 29.9 23.7 17.8 23.7 13.7 32.4 26.5 32.4 22.7 40.5 0 40.5"/>
        <path class="st0" d="M96.6,13.4c2.5-3.2,5.2-3.6,8.1-3.6l-4.2,8.7h-1.9c-1.8,0-4.2,1.4-5.6,3.9l-8.5,18.1h-8.7l14.2-30.2h8.1l-1.5,3.2h0Z"/>
        <path class="st0" d="M133,6.9l2.5-5.3h8.7l-2.5,5.3h-8.7ZM117.2,40.5l14.2-30.2h8.7l-14.2,30.2h-8.7Z"/>
        <polygon class="st0" points="142.6 10.3 162.5 10.2 159.4 17 142.4 33.7 152.4 33.7 149.1 40.6 128.5 40.6 131.8 33.5 148.6 17 139.5 17 142.6 10.3"/>
        <path class="st0" d="M73.5,21.3l1.2-2.7c.7-1.3,1.2-3.6-.9-3.6s-3.7,2.4-4.5,4.1l-1,2.2h5.2ZM65.8,26.8l-2.5,5.3c-.8,1.7-.7,3.3,1.1,3.3,2.7,0,3.4-2,5.2-5.4h8.5c-4.5,9.2-7.9,11.5-16.6,11.5s-9.3-3.6-5.9-11.5l4.7-10c3.7-7.8,9-10.2,15.8-10.2s8.6,5.2,6.1,10.6l-2.9,6.4h-13.6.1Z"/>
        <path class="st0" d="M173.3,21.3l1.2-2.7c.7-1.3,1.2-3.6-.9-3.6s-3.7,2.4-4.5,4.1l-1,2.2h5.2ZM165.5,26.8l-2.5,5.3c-.8,1.7-.7,3.3,1.1,3.3,2.7,0,3.4-2,5.1-5.4h8.5c-4.5,9.2-7.9,11.5-16.6,11.5s-9.3-3.6-5.9-11.5l4.7-10c3.7-7.8,9.1-10.2,15.8-10.2s8.6,5.2,6.1,10.6l-2.9,6.4h-13.6.2Z"/>
        <path class="st0" d="M106.3,28.3c-1.2,2.7-2.4,5.1.2,5,1.6,0,2.9-1.7,4.4-4.8l3.4-7.3c1.5-3.3,1.6-4.8-.2-4.8s-3.1,1.7-4.6,4.8l-3.3,7.1h0ZM99.9,39.6c-4,0-5.7-3.5-1.7-12.5l3.9-8.3c4.2-8,8.8-9.2,12.4-9.1,2.3,0,4.2.7,4.2,3.7l1.5-3.2h8.1l-14.5,30.9c-3.3,7.1-6,10.6-15.6,10.7-6.6,0-9.5-4-6.9-9.6h8.1c-1,2.8-.8,3.6,1.2,3.6s3.4-1.3,4.4-3.2l2.8-5.8c-2.5,1.9-5.3,3.2-7.9,2.9"/>
        <path class="st0" d="M46.6,13.2c1.9-2.3,4.9-3.6,7.6-3.6,5,0,6.2,4.2,4.2,8.3l-10.4,22.5h-8.6l9.8-21.3c.5-1.4,1.2-3.4-1-3.4s-3.3,1.9-4,3.4l-10,21.2h-8.7l14.2-30.2h8.1l-1.3,3h0Z"/>
        <path class="st0" d="M195.9,13.4c2.5-3.2,4.4-3.2,8.1-3.6l-4.1,8.7h-1.9c-1.8,0-4.3,1.4-5.6,3.9l-8.5,18.1h-8.7l14.2-30.2h8.1l-1.5,3.1h-.1Z"/>
        <path class="st0" d="M193.6,37.7c0,1.4-.9,2.3-2,2.3h0c-1.1,0-2.1-.9-2.1-2.3s.9-2.3,2.1-2.3,2,.9,2,2.3M194.5,37.7c0-1.9-1.4-3-2.9-3s-2.9,1.1-2.9,3,1.4,3,2.9,3,2.9-1.1,2.9-3M191.1,37.4v-.8h.5c.2,0,.6,0,.6.4s-.2.4-.5.4c0,0-.6,0-.6,0ZM191.1,37.9h.3l.7,1.4h.8l-.8-1.4c.4,0,.7-.2.7-.8s-.5-1-1.3-1h-1.1v3.2h.7v-1.4h0Z"/>
        <path class="st2" d="M117.3,59.7c-1.8,0-3.5-.2-5-.5-.5,0-.6-.3-.4-.7l.9-1.4c.2-.3.6-.4,1-.3,1.4.3,2.7.5,4,.5s1.8,0,2.3-.2.8-.5,1-.9.2-.7,0-.9-.7-.4-1.5-.5l-1.1-.2c-1.5-.3-2.5-.7-3-1.3s-.5-1.5,0-2.5c.9-2.1,3.4-3.1,7.4-3.1s2.8,0,4,.3c.5,0,.6.3.4.7l-.9,1.4c-.2.3-.5.5-1,.3-1-.2-2-.3-3-.3s-1.7,0-2.2.2-.8.4-1,.8c-.2.4,0,.7.2.9.3.2.9.4,1.8.5l1.2.2c2.7.5,3.6,1.7,2.6,3.8-1,2.2-3.5,3.3-7.7,3.3"/>
        <path class="st2" d="M132.2,57.2c.9,0,1.6-.2,2.2-.5.5-.3,1-.9,1.4-1.7l1.1-2.5c.8-1.6.2-2.4-1.8-2.4s-1.6.2-2.2.5-1,.9-1.3,1.7l-1.1,2.5c-.7,1.6-.1,2.4,1.8,2.4M131.3,59.7c-2.2,0-3.8-.4-4.6-1.3-.8-.9-.9-2.1-.2-3.8l1.2-2.7c.7-1.5,1.7-2.6,3-3.3s3-1.1,5.1-1.1,3.8.4,4.7,1.3.9,2.1.2,3.7l-1.2,2.7c-.7,1.5-1.7,2.6-3,3.3s-3,1.1-5.1,1.1"/>
        <path class="st2" d="M143.7,57h6.7c.2,0,.4,0,.5.2.1,0,.1.2,0,.4l-.7,1.5c-.1.3-.4.5-.9.5h-9.9c-.2,0-.4,0-.5-.2-.1,0-.1-.2,0-.4l4.7-10.7c.2-.3.5-.5.9-.5h2.4c.2,0,.4,0,.5.2.1,0,.1.2,0,.4l-3.8,8.6h.1Z"/>
        <path class="st2" d="M160.4,52.8l-2,2.3h3.8v-2.3c.1-.9.2-1.7.4-2.3v-.2h-.3c-.3.6-1,1.5-1.9,2.6M166,48.3v10.7c0,.4-.3.6-.8.6h-2.4c-.5,0-.7-.2-.7-.5v-1.6h-5.5l-1.4,1.7c-.2.3-.6.4-1,.4h-2.7c-.3,0-.5,0-.6-.2s0-.3.1-.5l9.5-10.7c.2-.3.6-.4,1-.4h3.8c.4,0,.7.2.7.5"/>
        <path class="st2" d="M177.9,52.1l.2-.6c.4-.9,0-1.4-1.4-1.4h-2.3l-1.4,3.2h2.4c1.3,0,2.2-.4,2.5-1.2M175.5,47.8h2c1.9,0,3.3.3,4.1,1.1.8.7.9,1.7.3,3l-.2.6c-.8,1.8-2.4,2.8-4.9,2.9v.2c.7,0,1.2.4,1.4,1l.7,2.3c0,.2,0,.3-.1.5-.1,0-.4.2-.6.2h-2.6c-.4,0-.7-.2-.8-.5l-.5-2.4c0-.3-.2-.6-.4-.7-.2,0-.5-.2-.9-.2h-.9l-1.5,3.3c-.2.3-.5.5-.9.5h-2.3c-.2,0-.4,0-.5-.2-.1,0-.1-.2,0-.4l4.7-10.7c.2-.3.5-.5.9-.5h3.1-.1Z"/>
      </g>
      <g>
        <line class="st1" x1="250.7" y1="12.4" x2="280.4" y2="42.2"/>
        <line class="st1" x1="280.4" y1="12.4" x2="250.7" y2="42.2"/>
      </g>
    </g>
  </g>
</svg>