<svg xmlns="http://www.w3.org/2000/svg" id="b" viewBox="0 0 130.99 23.7"><defs><style>.d{fill:#fff;}</style></defs><g id="c"><polygon class="d" points="87.42 7.1 84.26 7.13 81.05 7.15 83.14 9.34 85.32 11.38 87.41 13.42 89.56 11.43 91.6 9.26 93.8 7.14 90.58 7.18 87.42 7.1"></polygon><polygon class="d" points="78.94 5.12 81.1 7.14 83.17 5.04 85.31 2.96 87.43 .87 89.46 3.01 91.59 5.1 93.73 7.11 95.84 5.08 97.87 2.9 99.99 .89 96.9 .8 93.74 .89 90.58 .78 87.44 .86 87.47 .83 84.26 .77 81.11 .87 77.94 .93 74.73 .83 76.9 2.94 78.94 5.12"></polygon><path class="d" d="M32.83,3.28l2.09,2.19,2.04,1.77s0,.06.01.09c.06.15.21.24.37.25l1.92,1.86,1.9,2.38,2.23,2.04c.08.07.18.11.28.11s.2-.04.28-.11l2.25-2.09,2.01-2.21,1.95-2.05c.08-.04.15-.11.19-.2l1.95-2.05,2.23-2.02,1.97-2.23c.15-.17.13-.43-.04-.58-.17-.15-.43-.14-.58.04l-1.94,2.2-2.22,2.01-1.79,1.88-1.8-1.73-2.07-2.17-2.11-2.01c-.16-.16-.42-.15-.58,0l-2.03,2.07-2.23,2.02-1.72,1.78-1.91-1.66-2.08-2.19-2.21-2.01c-.17-.15-.43-.14-.58.03-.15.17-.14.43.03.58l2.19,1.99ZM47.61,9l-1.99,2.19-1.95,1.8-1.91-1.73-1.89-2.37-1.33-1.29,5.15.07,5.26-.08-1.34,1.41ZM39.7,5.34l2.23-2.02,1.76-1.8,1.8,1.72,2.07,2.17,1.4,1.35-5.26.08-5.37-.07,1.38-1.43Z"></path><path class="d" d="M119.14,19.33l-2.64-2.21-2.43-2.39-2.16-2.84-2.57-2.32c-.15-.14-.38-.14-.54,0l-2.5,2.1-2.16,2.4-1.92,2.48-2.32,2.14-2.54,2.05-2.04,2.44-.45.52h1.1l1.97-2.36,2.5-2.01,2.05-1.9,2.07,2.01,2.07,2.18,2.15,2.01c.05.05.12.06.19.07h.26s.09-.05.13-.09l2.04-2.1,2.17-2.06,2.02-2.05.35.34,2.61,2.19,2.31,2.65,1.21,1.13h1.21l-1.83-1.7-2.32-2.67ZM112.22,16.58l-6.29.15-2.7-.11,1.57-2.02,2.09-2.34,2.18-1.83,2.25,2.02,2.15,2.83,1.4,1.38-2.64-.08Z"></path><path class="d" d="M75.27,19.49l-2.53-2.34-2.42-2.44-2.31-2.66-2.42-2.2c-.15-.13-.37-.14-.52-.03l-2.46,1.84-2.33,2.25-4.11,4.77-2.61,1.99-2.05,2.38-.7.65h1.21l.08-.08,2.02-2.35,2.61-1.98,1.93-2.24c0,.12.02.24.11.32l2.09,2.01,2.01,2.25,2.17,2.07s0,0,0,0h.56s0,0,0,0l2.18-2.09,2.05-2.15,2-2.03.32.32,2.56,2.37,2.67,2.17,1.44,1.42h1.17l-2.06-2.03-2.68-2.18ZM68.48,16.55l-3.15.07-3.17-.04-3.1.08s-.05.02-.07.02l1.9-2.2,2.26-2.18,2.15-1.61,2.14,1.94,2.29,2.64,1.35,1.36-2.59-.08Z"></path><path class="d" d="M31.57,19.46l-2.43-2.41-2.28-2.69-2.52-2.33-2.44-2.65c-.08-.09-.2-.16-.32-.13-.12,0-.24.06-.31.16l-1.98,2.62-2.54,2.05-2.19,2.29-2.34,2.21-2.08,2.35-2.33,2.23-.46.54h1.09l2.29-2.19,2.08-2.35,2.11-1.98c.02.06.04.12.09.17l2.08,2.1,2.13,2.07,2.08,2.18h.6l4.18-4.28,2.18-2.11s0-.02.01-.03l.27.32,2.45,2.43,2.43,2.51,1.29,1.14h1.24l-1.96-1.74-2.42-2.5ZM24.75,16.67l-3.18-.02-3.14.07-2.99-.07,1.86-1.96,2.57-2.09,1.75-2.3,2.13,2.31,2.51,2.31,1.42,1.67-2.94.06Z"></path><path class="d" d="M12.13.44l-2.06,2.17-1.92,2.23-1.8,1.82-1.89-1.94-2.17-2.02L.22.66C.16.6.08.55,0,.55v1.05l1.71,1.7,2.17,2.02,1.42,1.45-2.21-.04L0,6.77v.83l3.09-.04,2.24.04-1.52,1.33-2.1,2.14L0,12.91v1.08c.09-.02.17-.05.23-.12l2.08-2.22,2.07-2.12,2.27-1.99,2.11-2.14,1.93-2.23,2.05-2.16c.16-.17.15-.43-.02-.58-.17-.16-.43-.15-.58.02Z"></path><path class="d" d="M130.99,21.9l-1.76-2.04-2.36-2.54-2.56-2.2s-.27-.4-.3-.42l-2.58-2.14-2.35-2.57-2.7-2.05-2.41-2.26-1.89-2.92s-.05-.07-.08-.09l-2.68-2.25c-.15-.13-.38-.13-.53,0l-2.57,2.2-2.03,2.47-4.23,4.7-2.54,2.08-1.94,2.5-2.16,2.22-2.7,1.81s-.06.04-.08.07l-2.02,2.36-1.45,1.15-2.24-2.12-2.36-2.54-2.56-2.2-2.37-2.51-2.58-2.14-2.24-2.59-2.31-2.56-2.5-2.22-2.27-2.72c-.08-.09-.19-.15-.31-.15-.13,0-.24.05-.32.14l-2.2,2.51-2.16,2.27-2.6,2-2.27,2.32-1.88,2.55-2.11,2.36-2.24,2.21-2.54,2.08-1.99,2.41-1.55,1-2.11-2.59-2.69-2.06-2.37-2.37-2.11-2.7s-.05-.06-.08-.08l-2.74-1.96-4.67-5-2.5-2.19L21.93.17c-.08-.1-.2-.2-.33-.16-.13,0-.25.06-.33.17l-2.06,2.84-2.53,2-2.22,2.33-2.03,2.42-2.3,2.2-2.2,2.23-2.57,2.03-2.08,2.34-2.44,2.05s-.06.06-.08.09l-.6.93-.16.25v1.53l1.42-2.21,2.43-2.05,2.07-2.33,2.55-2.02,2.23-2.25,2.33-2.22,2.04-2.43,2.16-2.27,2.53-2s.06-.05.08-.08l1.77-2.44,1.98,2.58,2.53,2.22,4.7,5.03,2.75,1.98,2.11,2.69,2.45,2.45,2.66,2.03,1.99,2.45-.49.32-.88.84h1.18l.2-.2,2.74-1.76s.07-.05.1-.08l1.97-2.4,2.51-2.05,2.28-2.25,2.15-2.41,1.87-2.53,2.19-2.24,2.61-2,2.22-2.33,1.9-2.16,2.01,2.4,2.51,2.23,2.27,2.52,2.28,2.63,2.59,2.15,2.37,2.5,2.55,2.2,2.34,2.53,2.17,2.05-.46.36-.73.84h1.08l.21-.25,2.57-2.04,2.04-2.37,2.72-1.83,2.26-2.31,1.9-2.47,2.52-2.06,4.29-4.76,2-2.43,2.25-1.92,2.36,1.99,1.92,2.95,2.5,2.37,2.68,2.03,2.34,2.56,2.88,2.57,2.55,2.2,2.34,2.53,1.88,2.2-.16.22-.73.84h1.08l.28-.27v-1.53Z"></path><path class="d" d="M130.99,12.91l-.06.07-1.77-1.94-2.14-2.01-1.36-1.44,2.11.06,3.21-.04v-.83l-3.21.04-2.14-.06,1.36-1.37,2.17-2.06,1.76-1.78.06.06V.55s-.05-.02-.07,0c-.11,0-.21.04-.29.12l-2.04,2.07-2.17,2.06-1.73,1.75-1.77-1.89-2.2-2-2.08-2.14c-.16-.16-.42-.17-.58,0-.16.16-.17.42,0,.58l2.1,2.16,2.19,1.99,4.1,4.37,2.14,2.01,2.05,2.25c.08.09.17.11.31.13.02,0,.05-.01.07-.01v-1.08Z"></path></g></svg>