<?xml version="1.0" encoding="UTF-8"?>
<svg id="b" xmlns="http://www.w3.org/2000/svg" version="1.1" viewBox="0 0 540.4 57.7">
  <!-- Generator: Adobe Illustrator 30.3.0, SVG Export Plug-In . SVG Version: 2.1.3 Build 182)  -->
  <g id="c">
    <path d="M378.308,17.6v8.6c0,7.2,7.4,6.9,7.4,6.9h34.1v-6.8h-32c-2.1,0-2.2-2-2.2-2v-2.5h34.1v-4.2,1.3-4.2h-34.1v-2.5s0-2,2.2-2h32V3.5h-34.1s-7.4-.4-7.4,6.9v8.6-1.3h0v-.1Z"/>
    <path d="M429.408,33v-11.2h34.1v-4.2,1.3-4.2h-34.1v-2.5s0-2,2.2-2h32V3.5h-34.1s-7.4-.4-7.4,6.9v8.6-1.3,15.4h7.3v-.1Z"/>
    <path d="M507.508,21.5v4.9c0,6.8-7.8,6.5-7.8,6.5h-33.7v-6.9h32.8c1.7,0,1.5-1.2,1.5-1.2v-2c0-1.4-1.6-1.3-1.6-1.3h-25.4s-8.5.5-8.5-6.4v-4.5c0-7.6,7.4-7.3,7.4-7.3h34.2v6.8h-32.8c-1.8,0-1.5,1.6-1.5,1.6v1.5s-.3,1.5,1.7,1.5h26.3s7.2-.2,7.3,6.7"/>
    <path d="M347.208,53.7c0,.1.5.4,1.1.6.2,0,.5.1.6.1.4,0,.5,0,.8.1-.2,0-.4-.1-.7-.3-.4-.2-.6-.3-.9-.5-.3-.1-.5-.2-.7-.2s-.3,0-.2.1M350.108,54.1h0c.2.8,1.6.3,1.9-.1.1-.2,0-.4-.1-.5-.2-.1-.4-.2-.5-.2-.6,0-1.3.3-1.2.7M342.608,51.6c0,.2.5.7,1.5,1.2,1.1.6,2.4,1,2.6,1h0s-1.5-1.3-2.8-2c-.5-.2-.8-.3-.9-.3-.3,0-.3.1-.3.2M353.908,54c-.8.5-.7.5-.6.5.3.1,3.6-.5,3.8-1.3,0-.1-.1-.2-.3-.2-.5,0-1.6.2-2.8,1M346.608,52c0,.2.1.3.3.5.9,1.1,2.6,1.6,2.8.4,0-.3,0-.9-.9-1.4-.4-.2-.7-.3-1-.3-.8-.1-1.3.3-1.1.9M362.108,52.2c-.6,0-1.6.5-3.5,1.3-.5.2-1.1.3-1.6.7.2.1,4.1-.8,5.3-1.8,0,0,.1-.2,0-.2h-.2M352.308,52.2c-.3,1.2,1.1,1.6,2.5.6.2-.1,1.5-1,.8-1.9-.2-.2-.5-.3-.8-.3-1-.1-2.3.6-2.5,1.6M337.308,48.6c.1.3.6,1,1.7,1.7,1.3,1,3,1.8,2.9,1.5,0-.2-1.8-2-3.4-3-.5-.3-.8-.4-1-.4-.3,0-.2.2-.2.2M341.308,48.7c0,.2.2.6.6,1.1,1.1,1.3,3.2,2.4,3.4,1.1,0-.5-.3-1.6-1.8-2.6-.5-.3-.9-.4-1.2-.5-.8,0-1.1.4-1,.9M358.908,51.6c-.2.2-1.1,1.2-.2,1.2,1.2,0,4.4-1.6,4.3-2.8,0-.2-.2-.3-.5-.3-.8-.1-2.5.7-3.5,1.8M348.108,49.4c.5,1.8,3.1,2.5,4.2.7.2-.4.6-1.4-.6-2.3-.4-.3-.9-.4-1.3-.5-1.4-.2-2.6.9-2.3,2.1M332.508,44.5c0,.3.7,1.2,1.8,2.4,1.1,1.2,2.4,2.2,2.6,2.1,0-.3-2.3-2.9-3.5-4-.4-.3-.7-.5-.8-.5,0,0-.1,0,0,.1M368.208,48.6c-.7.3-1.9,1-3.2,2-1.7,1.3-1.4,1.4-1.4,1.4.5,0,4.2-1.8,5.1-3.2v-.3c-.1,0-.3,0-.5.1M335.608,44.6c0,.4.4,1,.8,1.6,1.1,1.6,3.3,3,3.4,1.7,0-.6-.5-2.3-2.2-3.7-.5-.4-.9-.5-1.2-.6-.6,0-.9.4-.8.9M356.508,48.7c-.5,1.5.8,2.4,2.8,1.3,1.2-.6,2.5-2.1,1.6-3.2-.3-.2-.6-.4-1-.4-1.3-.2-3,.9-3.4,2.3M342.108,45.1c0,.1,0,.3.1.5.8,2.1,3.7,3.2,4.6,1.3,0-.2.8-1.8-1.2-3.3-.5-.3-1.1-.5-1.5-.6-1.4-.2-2.3.8-2,2.1M364.708,47.7c-.7,1.1-.8,2.1.3,1.8,1.5-.3,4.2-2.6,3.9-4-.1-.2-.3-.4-.5-.4-1-.1-2.7,1.1-3.7,2.6M351.608,44.9c0,2.2,3,3.3,4.8,1.2.6-.7,1.2-2.1-.1-3.3-.4-.3-.9-.5-1.4-.5-1.7-.2-3.3,1.1-3.3,2.7M330.508,39.5c0,.6.3,1.4.8,2.2,1,1.8,2.6,3.3,2.9,2.3.1-.7-.6-2.9-2.1-4.6-.5-.4-.8-.6-1-.6-.5,0-.5.6-.5.7M374.008,43.3c-.5.2-1.7,1.4-2.9,2.9-.4.5-1.6,2-1.1,1.9.6-.1,3.4-2.9,4.1-4.5,0-.1.1-.3,0-.4h-.1M335.908,40.1c0,.2.1.6.2.8.8,2.2,3.4,3.7,4.3,1.9.4-.8.4-2.7-1.4-4.2-.5-.4-1-.6-1.5-.7-1.1-.1-1.9.8-1.7,2.1M361.708,44c-.5,2,1,3,3,1.8,1.4-.9,2.8-2.9,1.8-4.2-.3-.3-.6-.4-1-.5-1.4-.2-3.2,1.2-3.7,2.9M345.008,40.3c.4,2.8,4.2,3.8,5.7,1.5.5-.8.9-2.5-.8-3.9-.6-.4-1.2-.6-1.7-.7-1.9-.2-3.4,1.2-3.1,3M327.308,33.8c-.1.4.2,1.8.6,3.1.6,1.8,1.4,3.2,1.6,2.8s-.6-3.5-1.5-5.4c-.1-.2-.4-.6-.5-.7,0,0-.1,0-.1.2M370.508,42.5c-.7,1.7-.4,2.7.7,2.2,1.4-.6,3.4-3.4,3-5-.1-.3-.3-.4-.5-.4-.9-.1-2.5,1.5-3.2,3.2M356.508,39.4c-.1,2.5,2.8,3.7,4.8,1.8,1-.9,1.8-3,.3-4.4-.5-.4-1-.5-1.4-.6-1.8-.2-3.6,1.3-3.7,3.2M330.608,34.6c0,.4,0,.8.2,1.2.6,2.4,2.5,3.8,3.4,2.5.6-.9.5-3.3-1-5.1-.4-.4-.8-.7-1.2-.7-.8-.1-1.4.8-1.4,2M338.308,35c.4,2.8,3.5,4.1,5.1,2.2.8-.9,1.2-3-.7-4.8-.5-.4-1.1-.6-1.6-.7-1.7-.2-3,1.3-2.8,3.3M367.208,38c-.4,2.3,1.1,3.4,2.9,2.2,1.4-.9,2.6-3.5,1.4-5.2-.3-.3-.6-.5-1-.5-1.4-.2-3,1.5-3.3,3.5M349.608,34.1c.1,2.9,3.6,4.2,5.7,2.2,1-1,1.6-3.2-.3-4.9-.5-.4-1.1-.6-1.7-.7-2-.2-3.8,1.4-3.7,3.4M327.608,27.9c0,.3-.3,1.2-.2,2.5.2,2.3,1.1,3.9,1.8,2.9.6-.8.8-3.7,0-5.7-.3-.5-.5-.7-.7-.7-.4,0-.7.6-.9,1.1M332.908,28.9v.3c0,2.7,2.2,4.2,3.7,2.8,1.2-1.1,1.5-3.8.1-5.5-.4-.4-.9-.7-1.3-.7-1.3-.2-2.4,1.2-2.5,3.1M361.708,32.9c0,2.8,2.7,4.1,4.6,2.2,1.3-1.3,1.7-3.7.1-5.2-.4-.3-.9-.5-1.4-.6-1.7-.2-3.4,1.5-3.4,3.6M342.508,28.3c0,3.1,3.5,4.5,5.6,2.4,1-1.1,1.6-3.3-.3-5.1-.6-.4-1.2-.6-1.7-.7-1.9-.2-3.6,1.4-3.5,3.4M326.608,25.9h0v.2-.2h0ZM327.108,22.7c0,.4-.1.7-.2,1.1,0-.4.1-.8.2-1.1-.1.6-.2,1.3-.4,2,0,.3,0,.6-.1.9v.8c-.1,1.4,0,1.5,0,1.6.4-.2,1.1-4.3,1.1-6.1,0-.4,0-.6-.1-.7,0,0-.2,0-.5,1.5M354.908,27.3c0,2.9,3.3,4.4,5.3,2.4,1.1-1.1,1.7-3.5-.2-5.2-.5-.4-1-.6-1.6-.6-1.9-.2-3.6,1.4-3.5,3.4M329.608,22.9c0,.2-.1.4-.1.6-.4,2.4.6,4,1.9,3.1,1.1-.8,2.1-3.7,1.3-5.7-.2-.4-.5-.6-.9-.7-.9-.1-1.8,1.2-2.2,2.7M337.008,22.6c-.4,2.6,1.9,4.2,3.9,2.7,1.5-1.1,2.2-3.6.8-5.2-.4-.4-.9-.6-1.4-.7-1.6-.2-3.1,1.5-3.3,3.2M347.908,21.7c-.1,2.7,3.2,4.2,5.3,2.4,1.4-1.2,1.7-3.4,0-4.9-.5-.4-1-.6-1.6-.6-1.9-.2-3.6,1.2-3.7,3.1M330.508,15.5c-.5.5-1.2,1.6-1.6,2.7-.7,1.8-.8,3.2-.1,3,.9-.3,2.5-3.5,2.6-5.4,0-.4-.1-.6-.3-.6s-.4.2-.6.4M333.808,17.2c-.8,2.1.2,3.6,1.9,2.8,1.6-.8,2.9-3.4,2.2-5-.2-.4-.5-.6-.9-.6-1.1-.1-2.7,1.3-3.2,2.9M342.408,16.5c-.6,2.3,1.8,3.8,3.9,2.5,1.5-1,2.3-3.2.9-4.7-.4-.3-.8-.5-1.3-.6-1.6-.2-3.2,1.2-3.6,2.8M333.208,10.9c-1.6,1.9-1.9,2.2-2.5,3.2-.4.6-.8,1.4-1.1,2h0s1.2-1.7,3.4-4.8c.2-.3.3-.4.3-.5h0M334.408,11.3c-.4.3-.7.8-1,1.2-1.1,1.5-1.2,2.8-.2,2.6,1.3-.2,3.5-3,3.7-4.6,0-.3-.1-.5-.3-.5-.5,0-1.6.8-2.1,1.3M339.508,11.8c-1,1.7-.1,3,1.6,2.5,1.9-.6,3.4-2.9,2.8-4.4-.2-.3-.5-.5-.8-.5-1.1-.1-2.8,1.1-3.5,2.4M335.608,8.6c-1.4,1.2-2.1,2.2-1.7,2.2.6,0,3.7-2.8,4.6-3.8.2-.2.2-.3.2-.4h0c-.3,0-1.7.8-3,2M339.708,7.5c-.1.1-.3.3-.5.4-1.3,1.2-1.4,2.2-.6,2.2,1.4,0,4-2.4,4.4-3.6,0-.2,0-.4-.3-.4-.6,0-2.2.8-3.1,1.5M341.608,4.9c-1.5.8-2.3,1.5-1.9,1.6.7.2,5.3-2.6,5.3-2.7q.2-.1.2-.2h0c-.4,0-2.2.6-3.6,1.3h0Z"/>
    <path d="M398.208,40.6v3.2h-15.5c-.5,0-.8.2-.8.5v1.1c0,.3.3.5.8.5h11.7c2.8,0,4.2,1.1,4.2,3.3v1.9c0,2.3-1.4,3.4-4.2,3.4h-15.5v-3.2h15.5c.5,0,.8-.2.8-.5v-1.1c0-.3-.3-.5-.8-.5h-11.7c-2.8,0-4.2-1-4.2-3v-2.2c0-2.3,1.4-3.4,4.2-3.4h15.5Z"/>
    <path d="M410.408,54.6c-3.5,0-5.3-1.5-5.3-4.4v-5.1c0-3,1.8-4.5,5.3-4.5h10.8c3.5,0,5.3,1.5,5.3,4.5v5.1c0,3-1.8,4.4-5.3,4.4h-10.8ZM410.408,43.8c-1.2,0-1.8.4-1.8,1.2v5.1c0,.8.6,1.2,1.8,1.2h10.8c1.2,0,1.8-.4,1.8-1.2v-5.1c0-.8-.6-1.2-1.8-1.2h-10.8Z"/>
    <path d="M437.308,54.6c-2.8,0-4.2-1.1-4.2-3.4v-10.6h3.4v10.1c0,.4.3.7.8.7h15.2v3.2h-15.2,0Z"/>
    <path d="M474.708,51.8h-11.4l-1.5,2.8h-4l7.3-12.8c.1-.2.2-.4.3-.5.1-.2.2-.3.4-.4.1,0,.3-.2.5-.2h4.3c1,0,1.7.4,2.1,1.2l7.3,12.8h-3.9l-1.6-2.8h0l.2-.1ZM465.008,48.8h8l-2.4-4.3c-.1-.2-.3-.4-.4-.5s-.3-.2-.5-.2h-1.4c-.4,0-.7.2-.9.7l-2.4,4.2h0v.1Z"/>
    <path d="M485.908,40.6h16.8c2.7,0,4,1.1,4,3.4v1.3c0,2.4-1.3,3.5-4,3.5h-1.2l5.8,5.8h-4.7l-5.4-5.6h-7.9v5.6h-3.4v-14h0ZM489.308,43.8v2.2h13.5c.5,0,.7-.2.7-.6v-1.1c0-.4-.3-.5-.8-.5h-13.4Z"/>
    <line x1="252.208" y1="14.4" x2="281.908" y2="44.1" fill="none" stroke="#231f20" stroke-miterlimit="10"/>
    <line x1="281.908" y1="14.4" x2="252.208" y2="44.1" fill="none" stroke="#231f20" stroke-miterlimit="10"/>
    <g id="_图层_2">
      <g id="_图层_1-2">
        <path d="M204.774,44.726h-11.358c-7.102,0-12.876-5.774-12.876-12.876v-4.96c0-7.102,5.774-12.876,12.876-12.876h11.358c1.789.055,3.198,1.545,3.145,3.334-.054,1.707-1.436,3.091-3.145,3.145h-11.358c-3.551,0-6.398,2.874-6.398,6.398h0v4.96c0,3.551,2.874,6.398,6.398,6.398h11.358c1.789.055,3.198,1.545,3.145,3.334-.027,1.707-1.409,3.091-3.145,3.145" fill="#e60012"/>
        <path d="M204.774,32.337h-18.243c-1.789,0-3.225-1.436-3.225-3.225s1.436-3.225,3.225-3.225h18.243c1.789,0,3.225,1.436,3.225,3.225.027,1.762-1.436,3.225-3.225,3.225" fill="#e60012"/>
        <path d="M125.429,13.959l-16.942.027v30.551h16.942c7.075,0,12.795-5.746,12.821-12.821v-4.934c0-7.075-5.746-12.821-12.821-12.821M131.827,31.714c0,3.524-2.847,6.37-6.37,6.37h-10.464v-17.674h10.464c3.524,0,6.37,2.847,6.37,6.37v4.934h0Z" fill="#e60012"/>
        <path d="M14.233,29.383h0c.027,1.762,1.436,3.172,3.198,3.172h7.292v5.502h-11.955c-3.497,0-6.343-2.847-6.343-6.343v-4.934c0-3.497,2.847-6.343,6.343-6.343h15.018c1.762,0,3.198-1.436,3.198-3.225,0-1.762-1.436-3.198-3.198-3.198h-15.018C5.72,14.013,0,19.732,0,26.781v4.934c0,7.048,5.719,12.768,12.768,12.768h18.352v-15.506c0-1.573-1.274-2.847-2.847-2.847h-10.843c-1.762,0-3.198,1.436-3.198,3.198v.055" fill="#e60012"/>
        <path d="M57.525,44.508h-12.415c-5.639,0-10.193-4.581-10.193-10.193v-10.138c0-5.639,4.581-10.193,10.193-10.193h12.415c5.639,0,10.193,4.581,10.193,10.193v10.138c0,5.611-4.554,10.193-10.193,10.193M45.11,19.868c-2.386,0-4.31,1.924-4.31,4.31v10.138c0,2.386,1.924,4.31,4.31,4.31h12.415c2.386,0,4.31-1.924,4.31-4.31v-10.138c0-2.386-1.924-4.31-4.31-4.31,0,0-12.415,0-12.415,0Z" fill="#e60012"/>
        <path d="M93.822,44.508h-12.415c-5.639,0-10.193-4.581-10.193-10.193v-10.138c0-5.639,4.581-10.193,10.193-10.193h12.415c5.639,0,10.193,4.581,10.193,10.193v10.138c0,5.611-4.554,10.193-10.193,10.193M81.407,19.868c-2.386,0-4.31,1.924-4.31,4.31v10.138c0,2.386,1.924,4.31,4.31,4.31h12.415c2.386,0,4.31-1.924,4.31-4.31v-10.138c0-2.386-1.924-4.31-4.31-4.31,0,0-12.415,0-12.415,0Z" fill="#e60012"/>
        <path d="M146.086,13.822h-.135c-1.653,0-2.982,1.329-2.982,2.982v24.776c0,1.653,1.329,2.982,2.982,2.982h.135c1.653,0,2.982-1.329,2.982-2.982v-24.776c0-1.653-1.356-2.982-2.982-2.982" fill="#e60012"/>
        <path d="M158.04,29.084c-1.22-1.165-3.145-1.112-4.31.109l-9.894,10.274c-1.165,1.22-1.112,3.145.109,4.31.597.57,1.383.868,2.195.841.109,0,.244,0,.353-.027.677-.082,1.301-.406,1.789-.921l9.894-10.274c1.139-1.22,1.085-3.145-.135-4.31" fill="#e60012"/>
        <path d="M172.245,13.822h.109c1.653,0,2.982,1.329,2.982,2.982v24.776c0,1.653-1.329,2.982-2.982,2.982h-.109c-1.653,0-2.982-1.329-2.982-2.982v-24.776c0-1.653,1.356-2.982,2.982-2.982" fill="#e60012"/>
        <path d="M160.29,29.084c1.22-1.165,3.145-1.112,4.31.109l9.894,10.274c1.165,1.22,1.112,3.145-.109,4.31-.597.57-1.383.868-2.195.841-.109,0-.244,0-.353-.027-.677-.082-1.301-.406-1.789-.921l-9.894-10.274c-1.139-1.22-1.085-3.145.135-4.31" fill="#e60012"/>
      </g>
    </g>
  </g>
</svg>