<?xml version="1.0" encoding="UTF-8"?>
<svg id="Layer_1" xmlns="http://www.w3.org/2000/svg" version="1.1" viewBox="0 0 50.3 50.3">
  <!-- Generator: Adobe Illustrator 30.3.0, SVG Export Plug-In . SVG Version: 2.1.3 Build 182)  -->
  <defs>
    <style>
      .st0 {
        fill: #231f20;
      }

      .st1 {
        fill: #fff;
      }
    </style>
  </defs>
  <g id="Layer_2">
    <g id="Layer_1-2">
      <path class="st0" d="M25.1,50.3c13.9,0,25.1-11.3,25.1-25.1S39,0,25.1,0,0,11.3,0,25.1c0,13.9,11.3,25.1,25.1,25.1h0"/>
      <path class="st1" d="M33.7,20.3c0-.2-.3-.3-.5-.3h-6l6-9.4c0-.2,0-.4,0-.5,0-.2-.3-.3-.5-.3h-8.2c-.2,0-.4.1-.5.3l-7.6,15.3c-.1.3,0,.6.2.7,0,0,.2,0,.2,0h5.2l-5.7,13.6c0,.2,0,.5.2.6,0,0,.2,0,.3,0,.2,0,.3,0,.4-.2l16.3-19.3c.1-.2.1-.4,0-.5"/>
    </g>
  </g>
</svg>