<svg xmlns="http://www.w3.org/2000/svg" xmlns:xlink="http://www.w3.org/1999/xlink" id="b" viewBox="0 0 471.95 442.54"><defs><style>.j{fill:none;}.k{fill:url(#i);}.l{fill:#ffb087;}.m{fill:#cca38e;}.n{fill:#002964;}.o{fill:#0081ac;}.p{fill:#12264c;}.q{fill:#d4d4d4;}.r{fill:#66d1e3;}.s{fill:#005d77;}.t{fill:#273755;}.u{fill:#00b2c8;}.v{fill:#fff;}.w{fill:#ff0;}.x{fill:#f9c9a2;}.y{fill:#172946;}.z{clip-path:url(#g);}.aa{fill:#db7e15;}.ab{fill:#f7aa6e;}.ac{fill:#47c7ea;}.ad{fill:#0081b4;}.ae{fill:#009fae;}.af{fill:#181818;}.ag{fill:#00738c;}</style><clipPath id="g"><path class="j" d="M75.7-1.59v324.51h333.38V-1.59H75.7ZM110.04,189.43c-1.99,1.76-3.97,3.47-5.96,5.17-2.95-2.3-5.63-4.98-8-7.99.9-.97,1.79-1.93,2.69-2.9.91-.99,1.82-1.99,2.73-2.98.82-.89,1.63-1.78,2.44-2.68.35-.39.7-.77,1.05-1.16.31.46.64.92.98,1.38,2.03,2.76,4.48,5.2,7.27,7.25.21.15.44.3.67.45-1.28,1.16-2.57,2.31-3.88,3.46ZM181.37,100.21c.03,1.3-.02,2.53-.16,3.64-.22,1.8-.58,4.43-2.27,6.61.09-.12.2-.24.28-.36-.22.66-.46,1.29-.73,1.9-.13-.21-.25-.42-.38-.63.2-.19.39-.38.57-.58-.17.2-.37.39-.57.58-.9-1.52-1.69-3.07-2.32-4.65-1.74-4.36-1.82-8.74-.21-12.35.92-2.02,2.31-3.78,4.13-5.24.49-.39,1.02-.75,1.56-1.08.29.64.55,1.29.75,1.95,1.24,4.15.25,7.94-.65,10.21ZM206.94,122.54c.1.65.2,1.57.13,2.66-.03.52-.09,1.39-.36,2.22-.49,1.47-1.55,2.39-2.3,2.99-.35.28-.83.65-1.42,1.09-.11-.04-.23-.08-.34-.12-6.88-2.68-13.1-6.78-17.99-11.67.64-.31,1.23-.72,1.74-1.23,1.02-1.01,2.04-2.02,3.06-3.03,1.15-1.14,2.3-2.27,3.45-3.41,3.81,3.81,8.51,6.88,13.77,8.93.39.15.79.29,1.19.43-.31.38-.61.77-.93,1.16h0ZM252.6,111.05c-.08-.1-.15-.21-.23-.31-.61-.86-1.21-1.72-1.8-2.58-.19-.28-.38-.56-.57-.85-.16-.24-.32-.48-.47-.72-.4-.62-.8-1.24-1.18-1.87-2.16-3.49-4.06-7-5.62-10.06,1.31-5.47,3.57-10.74,7.35-14.93.5-.55,1.1-1.21,1.8-1.92.9,1.68,1.85,3.4,2.88,5.17.15.25,1.57,2.69,3.42,5.57-.31.44-.57.85-.79,1.19-4.04,6.16-4.8,14.89-4.72,21.14l-.06.18ZM263.2,263.91c-.39-.17-.9-.41-1.47-.75-2.84-4.44-5.29-8.92-7.32-13.42-.44-1.93-.61-3.77-.21-5.95.6-3.27,2.17-5.61,3.17-6.88,2-1.8,4.05-3.61,6.14-5.43,5.39,18.95,20.14,35.16,28.32,43.02-9.54-3.53-19.08-7.06-28.63-10.59ZM323.21,172.13c-4.33-.76-8.68-1.16-12.56-1.16-1.05,0-1.85.03-2.4.05-3.16.14-11.1.79-18.61,3.7.71-4.3.46-8.53.07-13.97,0-.02,0-.05,0-.07,8.12-2.28,15.59-2.73,18.17-2.82.54-.02,1.29-.04,2.22-.04,3.41,0,8.86.27,15.44,1.53,8.2,1.57,16.47,4.33,23.59,7.76.62,2.31,1.38,4.02,1.77,4.92.24.55.52,1.18.82,1.88,1.21,2.81,2.85,6.75,4.41,11.2-4.4-4.35-18.26-10.42-32.92-13Z"></path></clipPath><linearGradient id="i" x1="2.3" y1="218.21" x2="463.1" y2="218.21" gradientUnits="userSpaceOnUse"><stop offset="0" stop-color="#ffd535"></stop><stop offset="1" stop-color="#faff43"></stop></linearGradient></defs><g id="c"><g id="d"><path class="ac" d="M401.76,319.35c-.54-4.82-1.08-9.64-1.62-14.45-16.38,2.47-45.24,4.27-76.23-8.76-15.58-6.55-24.84-13.96-26.97-15.7-2.87-2.35-45.4-38-34.78-75.19.42-1.48,6.55-21.82,24.4-30.3,8.46-4.02,18.24-4.77,21.66-4.92,1.98-.09,7.42-.24,15.18,1.12,16.55,2.9,36,11.34,35.16,16.84-.14.9-.87,2.08-3.57,3.21,1.65,3.04,3.3,6.07,4.95,9.11,1.29-.57,5.82-2.78,7.68-7.75,0,0,1.1-2.9.66-6.25-1.41-10.84-22.97-22.14-42.92-25.97-8.61-1.65-15.05-1.55-17.44-1.47-2.14.07-14.93.62-26.09,5.73-22.34,10.24-30.53,35.32-31.11,37.17-11.04,35.53,16.15,72.32,37.32,89.82,13.52,11.17,26.58,16.13,36.16,19.67,32.3,11.94,61.25,10.32,77.57,8.1Z"></path><path class="ac" d="M407.06,311.62c-.29-3.5-3.33-7.18-6.56-6.78,0,0,0,0-.01,0-3.09.39-5.02,4.33-4.83,7.5.2,3.37,2.87,7.18,6.1,7.01.61-.03,1.18-.2,1.72-.48,2.31-1.21,3.81-4.44,3.58-7.26Z"></path><path class="ac" d="M253.74,125.73c1.42-.87,2.81-1.81,4.15-2.8,3.28-2.44,6.44-5.39,9.26-8.7-2.33-2.07-4.67-4.14-7-6.21-1.84,2.25-3.84,4.15-3.84,4.15-.15.14-.27.25-.35.31-1.36,1.09-2.72,2.19-4.07,3.28h0s0,0,0,0c-1.41,1.04-3.04,2.12-4.92,3.17-1.39.78-2.72,1.43-3.97,1.97t0,0s0,0,0,0c-2.2.98-4.46,1.8-6.77,2.44.5.48,1.85,1.9,2.3,4.22.46,2.37-.29,4.23-.58,4.86,2.39-.62,4.74-1.39,7.04-2.3,1.29-.48,2.69-1.07,4.15-1.78,1.74-.85,3.28-1.74,4.63-2.61Z"></path><path class="ac" d="M220.21,124.97c-.03-4.44-.75-8.85-2.29-13.07-.54-1.47-1.18-2.89-1.88-4.26,0-.02-.02-.03-.02-.04-2.79,1.38-5.58,2.77-8.37,4.16.02.04.05.09.07.13.54,1.06,1.02,2.14,1.41,3.24.4,1.1.73,2.22.99,3.36.37,1.6.58,3.23.67,4.89.06,1.36.05,2.88-.08,4.55-.14,1.75-.39,3.34-.68,4.72,0,.04-.02.08-.02.12-.5,2.43-1.21,4.85-2.05,7.31-.21.62-.43,1.23-.65,1.86-1.53,4.24-3.39,8.37-5.65,12.26-.24.42-.48.85-.73,1.27-5,8.39-11.44,16.32-19.04,22.51-6.31,5.15-13.11,9.6-20.7,12.63.43,3.44.87,6.88,1.3,10.33-.01-.1,7.03-3.06,7.75-3.42,2.61-1.33,5.21-2.73,7.67-4.32,5.14-3.32,9.97-7.12,14.38-11.36,7-6.75,12.92-14.47,17.74-22.9,2.86-5,5.11-10.33,6.94-15.79.91-2.72,1.73-5.55,2.31-8.48.04-.18.07-.35.1-.53.22-1.19.42-2.46.56-3.82.21-1.91.28-3.7.28-5.32Z"></path><path class="ac" d="M286.64,185.8c6.74,4.39,34.04,22.18,66.03,16.25,3.06-.57,5.56-1.24,7.25-1.74-1.65-3.04-3.3-6.07-4.95-9.11-.83.25-2.2.64-3.9,1.02-28.87,6.42-55.35-12.1-61.64-16.49-4.78-3.34-11.61-8.73-18.68-16.83-2.22,2.44-4.45,4.89-6.67,7.33,8.31,9.44,16.52,15.65,22.55,19.58Z"></path><path class="ac" d="M267.08,154.3c-1.55-2.07-2.95-4.24-4.31-6.43l-.97-1.68c-.32-.56-.65-1.11-.94-1.69-2.39-4.57-4.41-9.25-5.88-14.21-.37-1.25-.72-2.5-1.04-3.76-.07-.26-.13-.53-.2-.8-1.34.86-2.89,1.76-4.63,2.61-1.46.72-2.85,1.3-4.15,1.78.25.97.52,1.93.8,2.89,1.63,5.59,3.98,10.88,6.56,16.05.32.65.69,1.27,1.04,1.9l1.07,1.88c1.5,2.46,3.05,4.89,4.76,7.21,1.53,2.14,3.18,4.18,4.88,6.18,2.22-2.44,4.44-4.89,6.67-7.33-1.27-1.49-2.5-3.02-3.68-4.59Z"></path><path class="ac" d="M238.51,127.57c-.45-2.31-1.8-3.73-2.3-4.22-4.94,1.38-10.11,1.96-15.33,1.66-.22-.01-.45-.03-.67-.04,0,1.62-.08,3.41-.28,5.32-.15,1.36-.34,2.63-.56,3.82.33.02.65.05.98.07.51.03,1.03.05,1.54.07,5.4.17,10.82-.46,16.05-1.81.29-.63,1.04-2.49.58-4.86Z"></path><path class="ac" d="M210.78,123.37c-1.52-.41-3.01-.91-4.47-1.47-7.98-3.1-15.05-8.65-19.53-16-.6-.99-1.12-1.98-1.5-2.94-.8-2.06-1.11-4.31.82-5.84.57-.45,1.27-.82,1.9-.96.63-.16,1.39-.2,2.26-.07.87.12,1.82.41,2.79.82,1.81.76,3.63,1.96,5.34,3.35.13.1.25.2.38.31,3.6,3.04,6.72,6.97,8.88,11.18,2.79-1.38,5.58-2.77,8.37-4.16-1.39-2.72-3.07-5.24-4.93-7.6-1.9-2.36-3.99-4.56-6.36-6.53-2.37-1.97-4.98-3.76-8.08-5.07-1.55-.65-3.22-1.18-5.06-1.45-1.83-.26-3.86-.24-5.87.27-.13.03-.26.07-.39.11-.87.24-1.69.58-2.47.97-.89.45-1.73.99-2.51,1.62-1.56,1.25-2.93,2.86-3.85,4.87-1.63,3.67-1.23,7.91.23,11.57,4.47,11.17,15.31,19.82,26.28,24.09,2.29.89,4.64,1.63,7.03,2.2.29-1.38.54-2.97.68-4.72.13-1.67.14-3.19.08-4.55Z"></path><path class="ac" d="M246.97,118.94c1.87-1.05,3.51-2.13,4.92-3.17-.37-4.67-1.01-17.93,4.66-26.57,1.44-2.2,4.5-6.86,8.28-6.65.41.02,1.31.08,2.13.68,3.48,2.54.69,11.34.09,13.21-.84,2.65-2.67,7.05-6.9,11.6,2.33,2.07,4.67,4.14,7,6.21,3.28-3.48,6.69-8.36,8.5-14.74.61-2.16,4.86-17.18-3.05-23.74-3.53-2.93-7.93-2.88-8.9-2.85-6.3.22-10.53,4.9-12.88,7.5-11.62,12.87-8.39,36.67-7.83,40.51,1.25-.55,2.58-1.2,3.97-1.97Z"></path><path class="ac" d="M114.87,187.8c-.75-.47-1.49-.96-2.2-1.47-2.87-2.1-5.4-4.62-7.49-7.46-.73-.99-1.44-2.02-2.08-3.05-.76-1.22-1.47-2.46-2.07-3.7-3.67.86-7.33,1.72-11,2.58.12.28.24.56.37.84.03.06.05.12.08.17.12.27.25.54.38.81.03.06.06.11.08.17.12.24.24.49.37.73.02.04.04.08.06.12.45.87.93,1.72,1.43,2.54.34.57.69,1.13,1.05,1.68.82,1.27,1.69,2.49,2.59,3.68,2.83,3.72,6.17,6.98,10,9.67,2.17,1.53,4.45,2.85,6.8,3.99.46-1.44.89-3.13,1.2-5.04.38-2.35.47-4.47.44-6.24Z"></path><path class="ac" d="M155.22,192.61c-7.21,2-14.75,2.71-22.18,1.59-2.1-.31-4.18-.75-6.22-1.31-.08,1.11-.21,2.28-.38,3.49-.36,2.54-.88,4.85-1.47,6.9,2.18.53,4.38.95,6.61,1.25,8.86,1.2,17.9.32,26.47-2.16,1.5-.43,2.98-.92,4.43-1.46-.43-3.44-.87-6.88-1.3-10.33-1.96.78-3.95,1.46-5.96,2.02Z"></path><path class="ac" d="M126.82,192.89c.1-1.1.19-2.5.21-4.14.01-1.3-.03-2.3-.05-2.76,0-.13-.16-2.43-.45-4.67-.62-4.72-2.17-9.38-4.38-13.59-.76-1.41-1.55-2.72-2.41-4.01-.86-1.29-1.78-2.54-2.77-3.76-1.01-1.22-2.08-2.42-3.32-3.57-.61-.58-1.27-1.14-1.97-1.68-2.64-2.09-9.69-5.24-15.44-2.6-2.07.95-3.76,2.56-3.91,2.7-.47.45-1.43,1.44-2.27,2.8,0,0-2.88,4.62-1.9,10.76.29,1.83.78,3.49,1.36,5.04.21.56.38.97.51,1.27,3.67-.86,7.33-1.72,11-2.58-1.92-4.01-2.48-7.59-1.05-8.83.42-.37,1-.52,1.07-.53,1.77-.44,3.52,1.1,4.62,2.07.84.74,1.37,1.39,2.21,2.47.71.91,1.4,1.87,2.04,2.87,0,0,.99,1.54,1.75,3.04,1.15,2.26,2.59,7.54,3.2,14.59.03,1.77-.06,3.89-.44,6.24-.31,1.91-.74,3.6-1.2,5.04-.14.49-.3.99-.47,1.5-4.02,12.06-15.34,21.26-15.34,21.26-5.89,4.76-11.87,7.4-16.5,8.9,1.71,4.32,3.41,8.64,5.12,12.96.52-.16,1.29-.41,2.2-.73,10.06-3.59,16.89-9.29,19.95-12.12,3.11-2.88,11.4-11.15,15.85-24.47.16-.49.52-1.57.93-3.1.58-2.05,1.1-4.36,1.47-6.9.17-1.21.3-2.38.38-3.49Z"></path><path class="ac" d="M89.38,235.06c-1.24-3.19-5.09-5.7-8.28-4.39-.01,0-.03.01-.04.02-3.2,1.35-4.21,5.98-2.63,9.16,1.47,2.96,5.4,5.08,8.46,3.53,0,0,0,0,.01,0,2.91-1.48,3.56-5.52,2.47-8.31Z"></path><path class="w" d="M244.02,25.62c.89-1.09,1.87-2.09,2.94-2.95,1.03-.84,2.13-1.57,3.29-2.18,1.02-.54,1.83-.85,3.69-1.5,3.87-1.34,5.62-1.82,6.6-2.41-.05.02-.09.04-.14.06-1.47.53-2.92-.91-3.1-1.08-.96-.97-1.34-2.43-1-3.74.07-.27.54-2.08,1.99-2.41.18-.04.35-.05.52-.04-.37-.1-.69-.13-.9-.12-.51.01-1.22.06-2.04.17-8.99,1.22-14.41,9.2-16.41,13.15-1.5,2.96,2.38,5.59,4.57,3.06Z"></path><path class="w" d="M236.16,19.45c-.12-1.1-.15-2.21-.07-3.3.19-3.08,1.22-6.16,2.89-8.69,1.37-2.03.77-4.81-1.12-6.18,1.43,1.06,2.36,3.31,1.44,4.53-.86,1.14-2.99.93-4.3.21-1.73-.96-2.97-3.35-2.13-4.66.23-.36.61-.61,1.07-.77-1.37.39-2.54,1.42-3.05,2.87-2.2,5.5-2.46,11.62-.7,17.23,1.18,3.48,6.27,2.47,5.98-1.23Z"></path><path class="w" d="M201.78,10.48c1.23-.3,2.27.78,2.58,1.1,1.12,1.15,1.57,3,1.1,4.59-.13.44-.51,1.72-1.58,2.14-1.34.53-2.66-.72-3.02-1.09.9.99,2.28,1.6,4.08,1.37,1.52-.26,3.15-.28,4.73-.04,5.02.69,9.43,4.03,11.78,8.5,1.55,2.91,5.88,1.13,4.9-2.05-1.13-3.28-3.04-6.34-5.53-8.79-2.57-2.55-5.76-4.45-9.21-5.53-2.6-.78-5.4-1.27-8.17-1.04-1.22.26-2.12.82-2.74,1.55.28-.32.64-.59,1.09-.7Z"></path><path class="w" d="M232.86,1.36c-.84,1.31.4,3.7,2.13,4.66,1.31.72,3.44.93,4.3-.21.92-1.22-.01-3.47-1.44-4.53,0,0-.01,0-.02-.01,0,0,0,0-.01,0-.09-.06-.18-.13-.28-.18-.02-.01-.04-.02-.07-.04-.08-.04-.16-.09-.24-.13-.02-.01-.05-.02-.07-.04-.1-.05-.2-.09-.3-.13,0,0,0,0,0,0-.45-.18-.93-.28-1.4-.32-.55-.04-1.08.01-1.53.17-.46.15-.83.41-1.07.77Z"></path><path class="w" d="M258.29,9.41c-1.45.32-1.92,2.14-1.99,2.41-.34,1.3.04,2.76,1,3.74.17.18,1.63,1.61,3.1,1.08.05-.02.1-.04.14-.06.96-.44,1.31-1.52,1.43-1.91.47-1.47.02-3.18-1.1-4.24-.27-.25-1.07-1.01-2.06-1.06-.17,0-.34,0-.52.04Z"></path><path class="w" d="M199.79,13.09c-.08.33-.12.68-.12,1.02,0,1.11.39,2.22,1.12,3.03.02.02.04.04.08.08.36.37,1.68,1.62,3.02,1.09,1.07-.42,1.45-1.7,1.58-2.14.47-1.59.02-3.44-1.1-4.59-.31-.32-1.35-1.39-2.58-1.1-.45.11-.81.37-1.09.7,0,0-.01.02-.02.02-.6.71-.84,1.69-.89,1.89Z"></path></g><g id="e"><path class="af" d="M179.22,110.1c-1.48,4.55-4.04,7.84-7.39,8.93,0,0-.02,0-.03,0-1.46.47-3.04.34-4.41-.35-.82-.42-1.88-.82-3.13-1.02-6.26-.97-9.44,4.91-16.65,4.32-1-.08-3.07-.25-5.42-1.28,3.09-.69,4.81-2,5.81-3.1,2.27-2.47,2.01-5.02,4.72-9.38,1-1.61,2.01-2.82,2.7-3.6.07.17.17.4.33.66.24.39.98,1.62,2.43,1.98,1.26.31,2.32-.22,2.63-.39.58.79,1.17,1.47,1.74,2.04.87.87,1.68,1.51,2.33,1.96,1.34.93,3.81,2.64,6.78,2.87.84.06,1.72,0,2.63-.22.43-.11,2.04-.55,3.57-1.9.54-.47.98-.99,1.36-1.53Z"></path><path d="M157.27,103.12s.08-.07.2-.17c.12-.1.28-.25.43-.4,4.15-4.18,6.81-7.83,8.49-10.62.32-.54.61-1.05.87-1.53,1.47-2.74,1.85-4.34,1.85-4.34.12-.52.32-1.46.45-2.67.97.09,2.45.33,4.04,1.11,2.12,1.04,3.73,2.71,4.92,4.69.17.28.32.56.47.85,1.62,3.12,2.3,6.86,2.39,10.18.9-2.26,1.89-6.06.65-10.21-1.76-5.88-7.67-11.39-12.2-10.41-.89.19-1.57.6-2.03.95-.45-.43-1.18-1.03-2.22-1.45-4.01-1.62-8.49,1.19-9.77,1.99-.33.21-.64.43-.94.65h0s0,0,0,0c-.29.22-.57.45-.84.69-.02.02-.04.03-.05.05-7.19,6.17-5.79,11.87-10.35,16.48-4.95,5.01-10.2,1.94-14.18,7.39-1.95,2.67-2.37,5.72-2.43,7.87,0,0,0,0,0,0,0,.09,0,.16,0,.23,0,.27.02.98.48,1.33.44.33,1.07.18,1.29.13,1.21-.28,3.95-1.11,5.39-.72,2.8.77,3.43,3.17,7.2,5.11.28.14.56.28.83.39,3.09-.69,4.81-2,5.81-3.1,2.27-2.47,2.01-5.02,4.72-9.38,1-1.61,2.01-2.82,2.7-3.6h0c.55-.43,1.17-.93,1.84-1.51ZM142.03,104.93c-3.79,1.82-7.22.32-10.96,2.93.05-.07.1-.15.15-.22,1.58-2.16,3.31-2.54,5.7-3.07,2.42-.54,5.43-1.2,8.26-4.07.95-.96,1.67-1.95,2.26-2.96-.98,3.18-2.35,5.92-5.41,7.39Z"></path><path class="s" d="M161.43,81.09c-1.73.51-3.4,1.3-4.88,2.38-9.93,7.1-2.8,20.86-16.32,24.79-1.62.46-3.32.68-5.03.77-.43.03-.76.4-.73.83.03.43.4.76.83.73,1.79-.11,3.6-.37,5.35-.89,5.98-1.72,9.02-5.86,10.24-11.77,1.11-5.14,1.78-10.23,6.33-13.55.6-.45,1.24-.84,1.91-1.19-.27.29-.53.59-.78.9-2.58,3.18-4.1,7.16-4.47,11.23-.04.58.8.66.88.09.13-1.3.39-2.58.76-3.83.38-1.25.85-2.46,1.47-3.61,1.21-2.29,2.9-4.33,4.93-5.94.46-.36.07-1.09-.48-.93Z"></path><path class="l" d="M174.12,121.66c-.02.06-.04.12-.05.18-.47,3.66-3.03,6.63-6.3,7.43-4.03.98-8.54-1.47-10.1-5.85-.04-.1-.09-.19-.16-.27.24-.08.43-.16.6-.24,2.94-1.42,3.67-5.56,3.88-6.77.18-1.05.33-2.38.33-2.38.04-.42.09-.85.12-1.29.1-1.26.13-2.44.12-3.55.87.87,1.68,1.51,2.33,1.96,1.34.93,3.81,2.64,6.78,2.87,0,.09-.01.18-.02.27-.02.25-.04.49-.06.74-.08,1.03-.16,2.06-.24,3.09-.05.67.15,1.25.51,1.9.62,1.14,1.67,1.68,2.26,1.92Z"></path><path class="l" d="M231.87,193.18c-.12,2.58-.84,4.48-1.19,5.38-3.13,8.1-8.79,18.58-10.44,21.6-.52.13-1.37.33-2.45.5-.66.11-1.4.21-2.22.28-1.49.13-3.21.17-5.07,0-.61-.05-1.23-.13-1.86-.23-1.63-.27-3.33-.72-5.03-1.42-.55-.22-1.1-.48-1.64-.76-.68-.35-1.36-.75-2.03-1.19-.52-.34-1-.7-1.46-1.07-.51-.4-.99-.82-1.43-1.24-.83-.79-1.54-1.59-2.15-2.36.06-.13.12-.26.17-.39.07-.18.14-.35.2-.51.08,0,.78-.08.86-.09.05,0,.64-.07.69-.08.23.13.43.21.58.25.39.11.82.16,1.23.14.05,0,.1,0,.14-.01,0,0,.01,0,.02,0,.04,0,.08,0,.12-.02.59-.14,1.16-.38,1.77-.44.06,0,.13-.02.19-.02,1.39-.13,1.55.31,2.83.03.4-.08,1.32-.33,1.77-1.04,0-.01.02-.02.03-.04.07-.11.17-.3.17-.48,0-.06-.02-.11-.04-.16-.07-.14-.27-.29-.48-.29-.02,0-.01,0-.03,0,0,0-.22,0-.44-.22-1.48-1.44-1.7-3.74-1.7-3.74-.04-.42-.08-.86-.13-1.34-.7-7.58-1.7-22.01,4.37-24.03.23-.08.45-.13.64-.16,4.12-.11,8.24-.21,12.36-.32.93,0,5.59.1,8.84,3.69,3.12,3.45,2.91,7.86,2.81,9.81Z"></path><path class="l" d="M163.82,231.75s0,.02,0,.02c-1.49,5.3-3.13,11.15-4.95,17.54-2.53,8.91-4.74,16.6-9.05,26.52-2.53,5.82-4.95,10.51-6.7,13.72-.91-.03-1.91-.1-2.99-.21-5.79-.58-11.47-2.28-16.6-5.03-.62-.33-1.21-.67-1.78-1-.03-.02-.07-.04-.1-.06-.4-.24-.79-.48-1.16-.72-.03-.02-.06-.04-.1-.06-1.06-.68-2.02-1.37-2.9-2.04.07-.12.14-.25.21-.38.1-.18.21-.37.32-.57.13-.24.27-.48.42-.74,0-.01.02-.03.02-.04.1-.18.21-.36.31-.55,1.49-2.67,3-5.33,4.48-8.02.94-1.7,2.01-3.64,2.23-4.03,4.46-8.18,5.28-22.01,5.46-24.82.03-.42.06-.86.09-1.3.03-.43.06-.87.1-1.32,0-.02,0-.04,0-.07.12-1.21.2-2.43.32-3.65.15-1.59.33-3.28.55-5.06.03-.24.06-.48.09-.72.09-.75.44-1.42.96-1.91s1.2-.82,1.96-.87c1.2-.1,2.47-.17,3.81-.21,3.39-.1,7.2.03,11.33.55,4.74.6,8.91,1.59,12.41,2.67.99.3,1.55,1.35,1.27,2.34Z"></path><path class="l" d="M234.35,63.95c-.56.69-1.11,1.17-1.41,1.41-.19,1.32-.44,2.87-.77,4.62-.39,2.1-.91,4.49-1.58,7.08-1.02,3.96-5.64,20.93-19.08,39.52-1.32,1.82-2.85,3.83-4.6,5.97-1,1.15-1.99,2.3-2.99,3.45-1.31-2.06-2.7-4.6-3.95-7.6-.99-2.39-1.71-4.64-2.24-6.69-.25-.96-.46-1.88-.63-2.74h0s0,0,0,0c.14-.16.27-.32.41-.48.94-1.12,1.79-2.18,2.57-3.16,5.27-6.7,13.51-17.36,18.58-33.16.9-2.81,1.53-5.25,1.96-7.07.13-.56.03-1.15-.27-1.63-.18-.28-.38-.61-.59-.98-3.6-6.11-2.58-8.13-5.16-10.39-.61-.53-1.64-1.53-3.72-3.54-.39-.38-.98-.97-.88-1.62.08-.52.52-.99,1.31-1.29.26-.1.52-.17.78-.22,1.65-.31,3.04.45,4.34,1.48.91.72,1.74,1.55,2.6,2.34.21.19.73.74,1.22.61.17-.05.29-.15.36-.24.03-.2.1-.63.15-1.18.58-6.86-3.7-13.36-2.47-15.66.07-.12.21-.39.53-.56.88-.48,2.19.35,2.81.81.08.06.15.12.21.16.17-.36.56-1.02,1.24-1.22,1.07-.31,2.61.61,3.29,2.48.01-.15.07-.68.5-1.06,0,0,.5-.44,1.23-.37,1.12.12,1.85,1.78,2.29,2.93,1.34,3.54,1.97,8.02,2.26,10.76.84-5.12.65-7.77.25-9.26-.11-.4-.56-1.93.03-2.36.33-.24.84-.04.95,0,.83.32,1.2,1.27,1.54,2.17.56,1.51,1.34,4.4,1.27,9.4.14,1.6.19,2.93.21,3.84.13,5.65.18,10.12-2.52,13.43Z"></path><path class="l" d="M141.14,159.47c-9.46,9.95-19.8,20-31.1,29.96-4.17,3.68-8.32,7.21-12.44,10.61-.24.2-.43.44-.56.72-1.26,2.75-2.78,4.43-3.9,5.44-3.8,3.42-7.14,2.87-9.07,6.42-.63,1.17-1.17,2.87-2.31,2.98-.61.06-1.18-.35-1.49-.74-1-1.27-.03-3.42.14-3.8,1.42-3.17,4.9-4.18,4.61-4.97-.14-.39-1.08-.39-1.28-.39-2.62.03-7.15.28-10.69.5-2.12.13-3.89.25-4.68.29-1.25.07-3.98.21-6.09-.15-1.38-.23-2.5-.67-2.79-1.48-.15-.4-.05-.77-.03-.81.56-1.97,5.79-1.84,6.1-1.83,1.11-1.5,2.68-3.31,4.82-5.05.01-.01.03-.02.04-.03,2.04-1.65,4.48-2.72,7.07-3.16,4.66-.79,9.32-1.58,13.98-2.37,2.44-2.62,4.88-5.25,7.32-7.9.91-.99,1.82-1.99,2.73-2.98.82-.89,1.63-1.78,2.44-2.68.86-.94,1.72-1.89,2.57-2.83,1.71-1.89,3.41-3.77,5.1-5.66.54-.6,1.07-1.2,1.61-1.8.5-.56,1-1.12,1.5-1.68,5.24-5.88,10.41-11.75,15.5-17.63h0c.69-.8,1.39-1.6,2.08-2.4.07-.08.14-.16.21-.25.89.63,1.92,1.47,2.95,2.55.49.51.99,1.07,1.47,1.69,2.76,3.57,3.75,7.23,4.15,9.41,0,0,.01,0,.02,0,0,0,.01,0,.02,0Z"></path><path class="l" d="M178.98,90.04c-.15-.29-.31-.57-.47-.85-1.19-1.98-2.8-3.65-4.92-4.69-1.59-.78-3.07-1.02-4.04-1.11-.13,1.21-.33,2.15-.45,2.67,0,0-.37,1.6-1.85,4.34-.25.47-.54.98-.87,1.53-1.68,2.79-4.33,6.44-8.49,10.62-.15.15-.31.3-.43.4-.12.11-.2.17-.2.17-.66.58-1.29,1.08-1.84,1.51h0c.07.17.17.4.33.66.24.39.98,1.62,2.43,1.98,1.26.31,2.32-.22,2.63-.39.58.79,1.17,1.47,1.74,2.04.87.87,1.69,1.51,2.33,1.96,1.34.93,3.81,2.64,6.78,2.87.84.06,1.72,0,2.63-.22.43-.11,2.04-.55,3.57-1.9,2.65-2.33,3.09-5.64,3.35-7.78.13-1.11.19-2.34.16-3.64-.08-3.32-.77-7.06-2.39-10.18Z"></path><path class="m" d="M62.27,206.35c-.4.74-.59,1.41-.32,1.81.14.2.64.71,1.32.71.46,0,.82-.24.98-.37.04.26.14.6.41.85,1.12,1.04,4.07-.49,5.36-1.15.81-.42,1.87-1.05,3.02-1.98-2.12.13-3.89.24-4.68.29-1.25.07-3.97.21-6.09-.15Z"></path><path class="m" d="M205.49,210.43c-.35,1.01-.69,2.11-.98,3.31-.5,2.03-.76,3.91-.9,5.54-.55-.22-1.1-.48-1.64-.76-.68-.35-1.36-.75-2.03-1.19-.52-.34-1-.7-1.46-1.07-.51-.4-.99-.82-1.43-1.24-.83-.79-1.54-1.59-2.15-2.36.06-.13.12-.26.17-.39.07-.18.14-.35.2-.51.51-.06,1.03-.11,1.55-.17.24.12.6.27,1.06.34.07.01.13.02.2.03.02,0,.06,0,.1.01.02,0,.04,0,.07,0,.02,0,.03,0,.05,0,.02,0,.05,0,.07,0,.07,0,.15,0,.24,0,.7-.03,1.35-.37,2.05-.47.06,0,.13-.02.19-.02,1.39-.13,1.55.31,2.83.03.4-.08,1.32-.33,1.77-1.04,0-.01.02-.02.03-.04Z"></path><path class="m" d="M210.97,208.43c-.04.42-.82,1.05-5.31,1.52,0-.06-.02-.11-.04-.16-.07-.14-.27-.29-.48-.29-.02,0-.01,0-.03,0,0,0-.22,0-.44-.22-1.48-1.44-1.7-3.74-1.7-3.74-.04-.42-.08-.86-.13-1.34.4.16.99.41,1.7.71,4.32,1.86,6.48,2.79,6.42,3.53Z"></path><path class="m" d="M222.48,65.55c-1.1,5.15-2.78,10.96-5.4,17.12-5.42,12.78-12.85,22.35-19.33,29.06-.25-.96-.46-1.88-.63-2.74h0c.14-.16.27-.33.4-.48.94-1.12,1.79-2.18,2.57-3.16,5.27-6.7,13.51-17.36,18.58-33.16.9-2.81,1.53-5.25,1.96-7.07.13-.56.03-1.15-.27-1.63-.18-.28-.38-.61-.59-.98-3.6-6.11-2.58-8.13-5.16-10.39-.61-.53-1.64-1.53-3.72-3.54-.39-.38-.98-.97-.88-1.62.08-.52.52-.99,1.31-1.29.26-.1.52-.17.78-.22-.1.12-.23.3-.29.54-.4,1.48,2.16,2.8,4.21,5.02.72.77,2.05,3.55,4.68,9.07.59,1.24,1.11,2.33,1.54,3.25.33.69.42,1.47.26,2.22Z"></path><path class="m" d="M171.66,113.75c0,.09-.01.18-.02.27-.02.25-.04.49-.06.74-.63.43-1.76,1.07-3.28,1.22-3.28.34-5.62-1.85-6-2.21.04-.42.09-.85.12-1.29.1-1.26.13-2.44.12-3.55.87.87,1.68,1.51,2.33,1.96,1.34.93,3.81,2.64,6.78,2.87Z"></path><path class="m" d="M135.48,148.36c-13.64,14.56-27.28,29.12-40.92,43.68-1.17,1.25-2.75,2.02-4.44,2.18-2.52.24-4.58.63-6.12,1-1.79.43-3.07.85-3.89,2.04-.85,1.21-.81,2.63-.72,3.39-4.61.52-9.23,1.05-13.84,1.57,1.11-1.5,2.68-3.31,4.82-5.05.01-.01.03-.02.04-.03.29-.23.57-.46.86-.67,1.66-1.24,3.6-2.05,5.64-2.4,4.85-.82,9.71-1.64,14.56-2.47,2.44-2.62,4.88-5.25,7.32-7.9.91-.99,1.82-1.99,2.73-2.98.82-.89,1.63-1.78,2.44-2.68.86-.94,1.72-1.89,2.57-2.83,1.71-1.89,3.41-3.77,5.1-5.66.54-.6,1.07-1.2,1.61-1.8.5-.56,1-1.12,1.5-1.68,5.25-5.88,10.41-11.75,15.5-17.63.7-.8,1.39-1.6,2.08-2.4.07-.08.14-.16.21-.25.89.63,1.92,1.47,2.95,2.55Z"></path><path class="m" d="M236.87,50.52c-.02-.91-.07-2.24-.21-3.84.08-5.01-.7-7.89-1.27-9.4-.34-.9-.71-1.85-1.54-2.17-.11-.04-.62-.24-.95,0-.58.43-.13,1.96-.03,2.36.4,1.49.6,4.14-.24,9.26-.3-2.74-.93-7.22-2.26-10.76-.43-1.15-1.17-2.82-2.29-2.93-.74-.07-1.23.37-1.23.37-.43.39-.49.91-.5,1.06-.68-1.86-2.21-2.79-3.29-2.48-.68.2-1.07.86-1.24,1.22-.06-.04-.12-.09-.21-.16-.17,1.76.13,3.25.13,3.25.99,4.98,1.6,10.03,2.79,14.97,2.23,9.26,2.39,11.29,4.54,14.72,1.03,1.64,2.13,2.97,3.09,4,.33-1.75.58-3.3.76-4.62.3-.24.85-.72,1.41-1.41,2.7-3.31,2.65-7.78,2.52-13.43Z"></path><path class="m" d="M138.8,226.19c-2.21,1.9-2.01,4.61-3.43,16.29-.38,3.13-.89,6.25-1.25,9.38-.72,6.42-3.13,16.48-10.59,32.46-.62-.33-1.21-.67-1.78-1-.03-.02-.07-.04-.1-.06-.4-.24-.79-.48-1.16-.72-.03-.02-.06-.04-.1-.06-1.06-.68-2.02-1.37-2.9-2.04.07-.12.14-.25.21-.38.1-.18.21-.37.32-.57.13-.24.27-.48.42-.74,0-.01.02-.03.02-.04,1.25-2.51,2.74-4.89,4.1-7.33.22-.4.45-.81.69-1.23.94-1.7,2.01-3.64,2.23-4.03,4.46-8.18,5.28-22.01,5.46-24.82.03-.42.06-.86.09-1.3.12-1.68.26-3.36.42-5.04.15-1.59.33-3.28.55-5.06.03-.24.06-.48.09-.72.09-.75.44-1.42.96-1.91s1.2-.82,1.96-.87c1.2-.1,2.47-.17,3.81-.21Z"></path><path class="r" d="M220.24,220.16c-7.46,14.58-14.93,29.15-22.39,43.73-2.18-.44-5.48.42-8.22,3.2-.45.46-1.17.54-1.71.19-.14-.09-.28-.18-.42-.28-.05-.03-.1-.06-.14-.1-1.42-.97-3.01-2.21-4.6-3.8-.52-.51-1-1.03-1.45-1.54-1.15-1.29-2.08-2.54-2.83-3.67-.26-.39-.64-.67-1.05-.82,1.53-3.47,2.98-6.98,4.34-10.52,3.46-9.04,4.83-14.23,9.07-24.52,1.67-4.06,3.14-7.32,4.07-9.36.15.19.31.39.48.58.17.2.34.39.52.59.36.39.74.79,1.16,1.19.44.42.92.84,1.43,1.24.12.09.23.18.35.27.08.06.16.12.24.18.24.18.49.35.74.52,2.48,1.66,5.32,2.78,8.24,3.34,2.53.48,5.02.52,7.51.28,1.56-.15,3.11-.4,4.68-.71Z"></path><path class="r" d="M143.12,289.56c-9.41,17.7-18.81,35.4-28.22,53.11-1.22-1.13-2.94-1.11-3.46-1.11-3.82.04-4.63,3.69-8.23,3.98-1.53.12-3.08-.4-4.36-1.28-.76-.52-1.43-1.17-1.94-1.89-1.41-1.95-1.44-4.05-1.41-4.83-.01-.11-.06-.43-.29-.7.04-.17.08-.34.12-.5.02-.08.04-.16.06-.24.02-.09.05-.18.08-.27,2.12-6.34,3.76-11.35,4.71-14.3,6.01-18.52,7.96-25.64,13.43-34.99,1.6-2.74,3.03-4.87,3.88-6.09.87.67,1.84,1.35,2.9,2.04.03.02.06.04.1.06.38.24.76.48,1.16.72.03.02.07.04.1.06.14.09.29.17.43.25.44.26.89.51,1.35.75,4.62,2.47,9.73,4.1,14.94,4.82,1.17.16,2.37.27,2.37.27.87.08,1.64.12,2.29.14Z"></path><path class="u" d="M123.53,284.32h0s0,0,0,0c-1.66,2.47-3.96,6.05-6.43,10.52-6.48,11.73-9.78,21.67-13.16,32.02-1.49,4.56-3.28,10.44-5.08,17.39-.76-.52-1.43-1.17-1.94-1.89-1.41-1.95-1.44-4.05-1.41-4.83-.01-.11-.06-.43-.29-.7.04-.17.08-.34.12-.5.02-.08.04-.16.06-.24.02-.09.05-.18.08-.27,2.12-6.34,3.76-11.35,4.71-14.3,6.01-18.52,7.96-25.64,13.43-34.99,1.6-2.74,3.03-4.87,3.88-6.09.87.67,1.84,1.35,2.9,2.04.03.02.06.04.1.06.38.24.76.48,1.16.72.03.02.07.04.1.06.14.09.29.17.43.25.44.25.89.51,1.35.75Z"></path><path class="u" d="M203.62,219.29c-5.14,7.19-10.66,16.04-15.7,26.58-2.62,5.48-4.79,10.74-6.6,15.69-1.15-1.29-2.08-2.54-2.83-3.67-.26-.39-.64-.67-1.05-.82.18-.4.35-.79.51-1.18.06-.13.11-.26.17-.38,1.29-2.96,2.5-5.95,3.65-8.96,3.46-9.04,4.83-14.23,9.07-24.52,1.67-4.06,3.14-7.32,4.07-9.36.15.19.31.39.48.58.17.2.34.39.52.59.36.39.74.79,1.16,1.19.44.42.92.84,1.43,1.24.12.09.23.18.35.27.08.06.16.12.24.18.24.18.49.35.74.52.04.03.09.06.13.09.67.45,1.35.84,2.03,1.19.55.28,1.09.54,1.64.76Z"></path><path class="ad" d="M197.05,215.03c-2.1,5.15-3.01,7.8-2.74,7.93.27.13,1.66-2.1,4.16-6.69l-1.43-1.24Z"></path><path class="ad" d="M203.62,219.29c-2.56,4.68-3.97,6.96-4.24,6.83-.27-.13.59-2.66,2.6-7.59.54.28,1.09.54,1.64.76Z"></path><path class="ad" d="M210.5,220.94c-2.57,4.72-4,7.02-4.27,6.89-.26-.13.54-2.5,2.41-7.12.63.1,1.25.18,1.86.23Z"></path><path class="ad" d="M217.79,220.66c-2.55,4.67-4.43,7.71-4.7,7.58-.27-.13.56-2.56,2.48-7.3.82-.07,1.56-.17,2.22-.28Z"></path><path class="ad" d="M140.13,289.35l-.02.04c-3.68,6.57-4.29,7.22-4.5,7.22-.03,0-.05-.01-.07-.02-.17-.09-.4-.21,2.86-7.45.04,0,.08.01.11.02.51.07,1.01.13,1.49.18.04,0,.08,0,.12.01Z"></path><path class="ad" d="M133.47,288.17v.02c-3.63,6.45-4.22,7.09-4.43,7.09-.03,0-.05-.01-.07-.02-.17-.09-.4-.21,2.9-7.53.04,0,.07.02.11.03.47.14.93.26,1.38.38.04,0,.07.02.11.03Z"></path><path class="ad" d="M127.68,286.27h0c-3.52,6.28-4.1,6.9-4.31,6.9-.03,0-.05-.01-.07-.02-.17-.09-.41-.2,2.89-7.52.03.02.07.03.1.05.43.19.86.38,1.29.55.04.01.07.03.1.04Z"></path><path class="ad" d="M121.74,283.32c-3.3,5.86-3.87,6.46-4.07,6.46-.03,0-.05-.01-.07-.02-.17-.09-.4-.2,2.78-7.26v-.02s.07.04.1.06c.37.24.76.48,1.16.72.03.02.06.04.1.06Z"></path><path class="o" d="M119.25,396.14s-.02.04-.02.04c0,0-.47,1.04-1.59,1.84-2.22,1.59-6.7,1.04-6.7,1.04-2.46-.3-4.37-.73-5.57-1.28-10.53-4.78-14.05-16.36-17.78-28.96-1.21-4.1-2.44-9.14-3.29-15.03-.35-2.44.35-4.92,1.94-6.81-1.53,1.83-3.07,3.67-4.6,5.5-1.01,1.21-2.03,3.87-1.98,7.11.01.91.17,1.75.47,3.44.47,2.61,1.03,4.63,1.27,5.45,0,0,.04.14.09.29,5.42,18.2,8.15,27.37,15.48,32.38,5.32,3.64,12.61,4.79,16.77,2.53,2.35-1.28,3.87-3.32,3.87-3.32,1.67-2.25,2.09-4.54,2.22-5.69-.16.47-.34.95-.57,1.46Z"></path><path class="o" d="M201.42,312.79c-.82,1.29-2.01,1.9-2.66,2.22-2.65,1.32-5.31.91-6.42.72-6.44-1.08-10.43-6.64-11.58-8.23-1.51-2.1-2.36-4.23-4.07-8.5-2.59-6.46-1.9-7.01-4.25-12.21-1.86-4.11-4.06-8.39-4.07-8.41h0c-.75-1.51-1.93-4.01-2.32-5.84-.1-.48-.77-3.67.9-6.23,0,0,0,0,0,0-.88.59-6.21,4.26-6.46,9.79-.22,4.78,3.42,9.64,4.89,11.6h0c1.25,2.26,2.94,5.74,4.16,10.23,1.08,3.95.7,4.7,1.41,7.4.14.51,3.36,12.1,13.32,15.74,1.56.57,6.62,2.4,11.13.02,2.6-1.38,4.04-3.59,4.6-4.45,1.72-2.64,2.07-5.13,2.15-5.77-.12.62-.35,1.28-.76,1.92Z"></path><path class="t" d="M84.3,353.79c.85,5.89,2.08,10.93,3.29,15.03,3.73,12.61,7.25,24.18,17.78,28.96,1.21.55,3.11.98,5.57,1.28,0,0,4.48.54,6.7-1.04,1.12-.8,1.59-1.84,1.59-1.84,0,0,0-.02.02-.04.23-.51.41-.99.57-1.46,1.22-3.67.36-6.35-.96-12.06-.82-3.56-1.44-6.85-2.25-11.56-.12-.7-.24-1.44-.37-2.21-.26-1.52-.53-3.18-.84-5.03,0-.05-.02-.11-.03-.16-.11-.7-.22-1.37-.33-2.02-.26-1.64-.48-3.13-.66-4.44-.03-.19-.06-.45-.07-.75-.03-.56-.02-1.3.14-2.14.02-.09.03-.17.05-.26.26-1.22.69-1.99.93-2.51,1.18-2.54,1.54-6.9-.5-8.84,0,0-.02-.01-.03-.02-1.22-1.13-2.94-1.11-3.46-1.11-3.82.04-4.63,3.69-8.23,3.98-2.44.2-4.92-1.25-6.3-3.17-1.41-1.95-1.44-4.05-1.41-4.83-.01-.11-.06-.43-.29-.7-.04-.05-.08-.09-.13-.13-.46-.4-1.17-.38-1.57-.09-.01,0-.02.01-.02.02-1.07.8-1.51,1.96-1.68,2.83-.03.14-.06.28-.1.43h0c-.21.75-.57,1.45-1.08,2.04-.17.2-.35.4-.52.6-1.26,1.45-2.52,2.9-3.79,4.35-.03.04-.06.07-.09.11-1.59,1.89-2.3,4.37-1.94,6.81Z"></path><path class="t" d="M166.06,272.54c.38,1.83,1.56,4.33,2.32,5.84h0s2.21,4.31,4.07,8.41c2.35,5.2,1.66,5.75,4.25,12.21,1.71,4.27,2.56,6.4,4.07,8.5,1.14,1.59,5.14,7.15,11.58,8.23,1.11.19,3.77.6,6.42-.72.65-.32,1.84-.93,2.66-2.22.41-.64.63-1.3.76-1.92.19-.94.14-1.79.09-2.33-.02-.22-.04-.44-.07-.67,0,0,0,0,0,0-.65-5.7-3.51-15.11-4.35-18.7-.05-.22-.1-.44-.15-.67-.13-.62-.25-1.29-.35-2.01-.37-2.61-.43-5.26-.21-7.89.04-.47.09-.96.15-1.45.01-.1.03-.19.04-.29.19-1.24.62-2.43,1.33-3.47,2.36-3.46,2.4-7.21.92-8.65-.41-.41-1.01-.69-1.73-.84-2.18-.44-5.48.42-8.22,3.2-.45.46-1.17.54-1.71.19-.14-.09-.28-.18-.42-.28-.05-.03-.1-.06-.14-.1-1.42-.97-3.01-2.21-4.6-3.8-1.84-1.82-3.23-3.63-4.28-5.21-.26-.39-.64-.67-1.05-.82-.65-.23-1.39-.14-1.97.31-.01,0-.02.02-.03.02-.87.7-.96,1.62-1.32,2.48-.09.21-.19.42-.33.62-.02.03-.04.06-.06.08,0,0,0,0,0,0-.33.45-.56.63-1.17,1.08-.35.25-.82.58-1.51,1.08-2.21,1.61-3.32,2.42-4.07,3.56,0,0,0,0,0,0-1.67,2.56-1,5.75-.9,6.23Z"></path><path class="o" d="M198.14,179.91c-.14.1-.27.22-.42.35-.08.07-.16.15-.24.23-.81.8-1.44,2.02-1.9,3.53,0,0,0,.01,0,.02-1.96,6.26-1.29,17.34-.6,22.76.15,1.21.31,2.14.44,2.67.15.64.44,1.44,1.15,1.97.09.07.18.12.27.17-4.04.44-8.67.92-10.74,1.08-5.95.45-11.63.65-17,.68h-.02c-.56,3.02-1.13,6.03-1.69,9.05-.53-.81-1.3-1.47-2.26-1.87-3.92-1.61-9.12-3.22-15.36-3.87-1.02-.1-2.02-.18-2.99-.23-2.05-.1-3.99-.08-5.8.02-.49.03-.98.06-1.45.1-2.24.18-4.26.48-6.03.83-.33.06-.64.16-.93.29.14-.79.27-1.56.41-2.33.06-.31.12-.62.17-.92.16-.84.32-1.67.48-2.48.1-.53.21-1.06.32-1.57.03-.17.07-.34.11-.51.14-.68.28-1.35.43-2,.03-.16.07-.33.11-.49.07-.32.14-.64.21-.96.07-.31.14-.63.21-.94.03-.15.07-.31.11-.46s.07-.31.11-.46c.03-.15.07-.3.1-.45,0-.03.02-.07.02-.1.09-.38.18-.74.27-1.11.1-.43.21-.85.31-1.26.07-.29.14-.57.21-.84.09-.34.17-.67.26-1,3.01-11.69,4.96-15.67,6.9-18.74,2.87-4.53,6.1-7.75,8.52-9.83.36-.31.56-.76.56-1.24,0-.78-.02-1.56-.02-2.35,0-.1,0-.21,0-.31.58.44,1.28.84,2.1,1.09.89.27,1.72.32,2.45.27.82-.06,1.51-.24,2-.35.1-.02.19-.04.29-.07.62-.14,1.18-.22,1.7-.27.33-.03.63-.05.92-.05.47,0,.91.02,1.32.07.31.03.6.08.9.13,1.98.35,3.86.99,7.9.53,3.3-.38,5.87-1.25,8.02-1.98.31-.11.62-.21.91-.31.43-.14.84-.27,1.23-.39.31-.09.61-.17.9-.24.46-.11.91-.18,1.35-.21.15-.01.54-.04,1.02-.2v3.19c0,.37.07.74.19,1.09.49,1.38.96,2.85,1.4,4.42.35,1.24.65,2.44.91,3.6.18.81.34,1.6.49,2.36,3.27-.04,6.54-.08,9.81-.12Z"></path><path class="ag" d="M155.42,170.1c-.17.43-.16.85-.12,1.13-.86-.12-1.34-.19-1.34-.13,0,.06.42.22,1.2.41-2.62,5.03-2.81,9.35-.99,10.7.24.18.64.41,1.32.47-2.71,1.61-5.82,1.57-5.79,1.74.01.06.45.14,1.14.15-.88.47-1.54,1.3-1.79,2.3-1.59,6.25-2.46,11.6-2.97,15.68,0,0-1.12,9.07.68,13.88-2.05-.1-3.99-.08-5.8.02.76-5.33,1.61-10.81,2.55-16.44,1.37-8.18,2.27-12.59,4.73-17.88,1.51-3.24,3.09-5.73,4.23-7.36.41-.74.57-1.14.5-1.2-.08-.06-.43.26-1.05.97-1.21,1.64-2.89,4.13-4.49,7.39-2.49,5.06-3.53,9.41-5.12,18.04-.89,4.79-1.84,10.35-2.79,16.57-2.24.18-4.26.48-6.03.83-.33.06-.64.16-.93.29.14-.79.27-1.56.41-2.33.06-.31.12-.62.17-.92.16-.84.32-1.67.48-2.48.1-.53.21-1.06.32-1.57.03-.17.07-.34.11-.51.14-.68.28-1.35.43-2,.03-.16.07-.33.11-.49.07-.32.14-.64.21-.96.07-.31.14-.63.21-.94.03-.15.07-.31.11-.46s.07-.31.11-.46c.03-.15.07-.3.1-.45,0-.03.02-.07.02-.1.09-.38.18-.74.27-1.11.1-.43.21-.85.31-1.26.07-.29.14-.57.21-.84.09-.34.17-.67.26-1,3.01-11.69,4.96-15.67,6.9-18.74,2.87-4.53,6.1-7.75,8.52-9.83.36-.31.56-.76.56-1.24,0-.78-.02-1.56-.02-2.35,0-.1,0-.21,0-.31.58.44,1.28.84,2.1,1.09.89.27,1.72.32,2.45.27-.64.31-1.2.76-1.46,1.41Z"></path><path class="ag" d="M188.32,180.2c-.48.11-.88.09-1.19.03-.09-.02-.18-.04-.27-.07.02,0,.03,0,.03-.02.12-.17-.89-1.1-1.12-1.32-.5-.49-1.03-1.24-1.49-2.46.4.4,1.05.91,1.96,1.22.6.2,1.14.26,1.59.26.18.81.34,1.6.49,2.36Z"></path><path class="ag" d="M175.17,202.02c-1.27.05-2.63.1-4.08.16.27-2.23.53-4.46.8-6.69.06-.51.39-.94.85-1.17.28-.14.59-.32.9-.57.47-.39.97-.96,1.03-1.24.04.41.09.99.12,1.68.19,4.49-.87,6.51.2,7.66.05.05.11.11.18.17Z"></path><path class="ag" d="M196.82,211.59c-4.04.44-8.67.92-10.74,1.08-5.95.45-11.63.65-17,.68.14-1.02.27-2.04.41-3.06.19.03.7-2.27,1.53-6.9,12.23-.89,18.35-1.43,18.35-1.63,0-.03-.15-.05-.43-.07h.04c.55-.04,1.76-.22,2.62-1.16.54-.58.74-1.25.94-2.26.37-1.89.19-2.86.43-4.52.56-3.79,1.55-7.05,2.59-9.7-1.96,6.26-1.29,17.34-.6,22.76.15,1.21.31,2.14.44,2.67.15.64.44,1.44,1.15,1.97.09.07.18.12.27.17Z"></path><path class="u" d="M167.37,222.39c-.2-.31-.44-.59-.7-.85-.44-.43-.96-.77-1.56-1.02-3.92-1.61-9.12-3.22-15.36-3.87-6.31-.66-11.76-.13-15.88.64-.13.02-.26.05-.39.07-.33.06-.64.16-.93.29-1.33.6-2.28,1.87-2.46,3.37-.05.42-.09.84-.13,1.29,0,.07-.01.14-.02.22-.1,1.28-.13,2.47-.1,3.57.02.98.51,1.89,1.32,2.45.24.17.43.29.43.3,0,0,.44.3.48.33h0c.09-.75.44-1.42.96-1.91s1.2-.82,1.96-.87c4.25-.34,9.38-.38,15.14.34,4.74.6,8.91,1.59,12.41,2.67.99.3,1.55,1.35,1.27,2.34v.02s0,0,0,0c.12-.02.24-.05.37-.07h0c.1-.02.19-.04.29-.06.92-.19,1.7-.79,2.12-1.63.46-.92.91-1.99,1.31-3.19l.05-.17c.47-1.48.21-3.03-.59-4.25Z"></path><path class="u" d="M206.91,178.6c-.76-.31-1.35-.03-2.38.19-2.74.57-3.52-.37-5.34.45,0,0-.46.21-1.05.67-.13.1-.27.22-.42.35-.08.07-.16.15-.24.23-4.19,4.13-3.37,19.58-2.52,26.3.15,1.21.31,2.14.44,2.67.15.64.44,1.44,1.16,1.97.09.07.18.12.27.17.49.27.97.33,1.26.37,1.16.13,1.39-.35,2.78-.48,1.38-.13,1.55.31,2.83.04.4-.08,1.32-.33,1.77-1.04.09-.13.28-.45.16-.69-.07-.14-.27-.29-.48-.3-.02,0-.01,0-.03,0,0,0-.22,0-.44-.22-1.48-1.44-1.7-3.74-1.7-3.74-.04-.42-.08-.86-.13-1.34-.7-7.59-1.7-22.01,4.37-24.03.23-.08.45-.13.64-.16.15-.03.28-.04.4-.05-.24-.46-.66-1.06-1.35-1.34Z"></path><path class="o" d="M152.46,174.77c-1.13,1.63-2.72,4.12-4.23,7.36-2.46,5.29-3.36,9.7-4.73,17.88-.94,5.63-1.79,11.11-2.55,16.44-.49.03-.98.06-1.45.1.94-6.23,1.9-11.78,2.79-16.57,1.6-8.63,2.63-12.97,5.12-18.04,1.6-3.26,3.28-5.75,4.49-7.39.62-.71.98-1.03,1.05-.97.08.06-.09.45-.5,1.2Z"></path><path class="o" d="M140.13,217.19c.15.05-.41,1.35-.5,3.59-.08,2.14.33,3.42.18,3.46-.17.04-1-1.55-.95-3.44.05-2.03,1.09-3.67,1.27-3.62Z"></path><path class="o" d="M138.07,217.28c.15.05-.41,1.35-.5,3.59-.08,2.14.33,3.42.18,3.46-.17.04-1-1.55-.95-3.44.05-2.03,1.09-3.67,1.27-3.62Z"></path><path class="u" d="M206.94,122.54s-.01.01-.02.02c-1,1.15-1.99,2.3-2.99,3.45-1.31-2.06-2.7-4.6-3.95-7.6-1.46-3.51-2.33-6.75-2.87-9.43,0,0,0,0,0,0,0,0,0,0,0,0-.51-.18-1.07-.05-1.45.32-2.07,2.04-4.14,4.09-6.21,6.13-1.02,1.01-2.04,2.02-3.06,3.03-1.08,1.06-2.48,1.73-3.99,1.88-.53.06-1.06.11-1.59.17-2.01.21-4.03.42-6.04.63-.3.03-.55.24-.66.51-.02.06-.04.12-.05.18-.47,3.66-3.03,6.63-6.3,7.43-4.03.98-8.54-1.47-10.1-5.85-.04-.1-.09-.19-.16-.27-.18-.21-.47-.31-.76-.25-2.2.45-4.16.95-5.87,1.42-2.89.8-4.96,1.54-6.93,3.18-.01.01-.02.02-.04.03-5.05,4.2-10.09,8.41-15.12,12.64-.78.65-1.17,1.65-1.06,2.66.07.59.2,1.24.42,1.94.57,1.78,1.49,3,2.08,3.68,0,0,0,0,0,0,.76-.88,1.53-1.77,2.29-2.65,1.31.94,2.92,2.31,4.42,4.24,2.76,3.56,3.75,7.23,4.15,9.41,0,0,.01,0,.02,0,0,0,0,0,.02,0,.14.04.97.2,2.12-.5.92-.56,3.98-3.79,7.78-8.52-.02.09-.04.19-.07.28-.67,2.85-1.01,5.3-1.18,7.14-.5,5.13.11,6.49.48,7.14.08.15.76,1.33,2.06,2.32.58.44,1.28.83,2.1,1.09,1.89.58,3.53.13,4.45-.08.1-.02.19-.04.29-.06,5.28-1.14,5.98,1.18,12.74.4,5.86-.68,9.43-2.9,12.41-3.12.15-.01.54-.04,1.02-.2.24-.08.49-.19.75-.35,1.03-.64,1.46-1.69,1.63-2.1,1.03-2.57.09-5.51.41-9.29.19-2.33.72-3.23,1.19-5.26.24-1.04.4-1.79.49-2.57.02-.15.06-.5.08-.99.04-.8.08-2.19-.08-4.17.61-.4,1.21-.8,1.79-1.19,6.44-4.3,11.07-7.64,12.81-9.03.75-.6,1.81-1.52,2.3-2.99.27-.82.33-1.69.36-2.22.07-1.09-.02-2.01-.13-2.66Z"></path><path class="v" d="M169.28,105.18c1.1,2.75,4.9,4.38,7.06,1.82.56-.65.91-1.48,1.04-2.33-2.6.86-5.42.99-8.11.51Z"></path><path class="ag" d="M210.77,271.51c-1.44-1.98-7.23.07-8.14.39-1.67.59-4.17,1.72-6.82,4,.01-1.91.03-15.78-4.46-16.83-1.04-.24-2.21.22-2.87.97-2.65,3,2.23,11.35,4.92,15.47-4.47-.7-8.4,1.25-8.32,1.62.06.31,2.9-.61,7.19.07.85.13,1.63.31,2.35.51,1.64,1.58,3.57,3.83,5.09,6.86,1.58,3.14,1.66,7.47,2.67,7.46.04,0,.19,0,.39-.23,1.57-1.67-1.11-7.17-1.49-7.95-.68-1.4-1.83-3.37-3.75-5.48,1.07.41,1.95.88,2.66,1.32,2.66,1.67,4.97,4.25,5.61,3.76.04-.03.09-.08.13-.24.36-1.39-2.29-3.7-3.97-4.82-.4-.27-.92-.58-1.57-.9,2.91-.25,6.26-.74,8.24-1.72.69-.34,2.08-1.04,2.41-2.37.02-.1.27-1.16-.27-1.9ZM190.08,261.32c.33-.26.72-.22.79-.21,2.39.29,3.29,8.68,3.64,13.73-3.24-6.07-6.01-12.28-4.43-13.53ZM209.24,273.46c-.77,2.01-9.06,2.75-11.65,2.95,2.85-1.91,5.38-2.88,7.18-3.4,1.11-.32,3.99-1.16,4.49-.3.16.27.02.62-.03.75Z"></path><path class="ag" d="M128.75,350.68c-1.24-.97-2.97-.61-5.55.11-2.63.73-6.07,1.8-10.1,3.37-.82-.05-1.71-.06-2.64,0-4.23.28-7.82,1.89-7.73,2.26.07.33,2.91-.47,7.33-.36.61.02,1.19.05,1.75.09-.38,2.05-.49,3.88-.44,5.48-4.01.37-7.31,1.86-7.22,2.22.08.33,2.92-.47,7.33-.36,0,0,.01,0,.02,0,.16,1.48.43,2.7.7,3.63.13.48.3,1.06.5,1.66-4.22.29-7.78,1.89-7.7,2.26.08.33,2.92-.47,7.33-.36.4.01.79.03,1.18.05.59,1.13,1.38,2.06,2.44,2.24,1.16.2,2.37-.54,2.98-1.25.98-1.15.99-2.96.52-4.91,1.4,1.57,4.06,4.22,5.72,3.67.29-.1.36-.22.38-.26.43-.91-3.47-2.81-5.65-5.55-1.44-1.8-2.46-3.62-3.21-5.28,1.82,1.02,3.39,1.42,4.42,1.61,1.99.36,5.5.53,6.21-.72.08-.14.08-.22.07-.26-.12-.8-3.58-.54-6.65-1.18-.83-.17-1.81-.45-2.88-.91,2.16.52,3.92.48,5,.39,2.12-.18,5.91-.5,6.97-3.01.63-1.5.23-3.61-1.04-4.6ZM114.62,356.81s0,.03,0,.05c-.02-.03-.04-.05-.05-.07.02,0,.03.01.05.02ZM117.63,370.53c-.19.15-.57.33-.98.29-.03,0-.06,0-.09-.01-.11-.62-.21-1.27-.33-1.95-.46-.05-.95-.08-1.45-.1-.36-.86-.64-1.83-.85-2.58-.2-.72-.4-1.58-.57-2.58.71.06,1.39.14,2.02.23,0-.05-.02-.11-.03-.16-.11-.7-.22-1.37-.33-2.02-.61-.06-1.25-.08-1.93-.08-.12-1.3-.16-2.76-.06-4.38,5.54,10.31,5.33,12.74,4.57,13.36ZM128.12,354.53c-.38,1.51-2.9,2.01-4.24,2.18-1.92.23-5.19.3-9.28-1.25,3.13-1.24,5.8-2,7.71-2.48,2.47-.62,4.09-1.35,5.12-.49.58.48.87,1.35.69,2.05Z"></path><path class="ag" d="M192.28,282.12c1.95.31,3.57.85,4.78,1.35-.03-.6-.05-1.23-.05-1.88-.86-.43-1.94-.85-3.23-1.1-4.62-.87-8.77,1.18-8.7,1.56.06.31,2.9-.61,7.19.07Z"></path><path class="ag" d="M194.19,285.42c-4.62-.87-8.77,1.18-8.69,1.56.06.31,2.9-.61,7.19.07,2.09.33,3.79.93,5.02,1.45-.13-.62-.25-1.29-.35-2.01-.85-.42-1.91-.83-3.16-1.06Z"></path><path class="ae" d="M164.7,231.12c-.14.27-.34.45-.51.57,0,0,0,0,0,0-.12.03-.25.05-.37.07v-.02c.28-1-.28-2.04-1.27-2.34-3.51-1.07-7.68-2.07-12.41-2.67-5.75-.73-10.89-.68-15.14-.34-.76.06-1.44.38-1.95.88-.52.49-.87,1.16-.96,1.91,0,0-.48-.33-.49-.33,0,0-.19-.13-.43-.3-.81-.55-1.31-1.47-1.32-2.45-.02-1.1,0-2.29.11-3.57,0-.07.01-.15.02-.22.09.43.34,1.24,1.02,1.94.97.99,2.24,1.18,3.06,1.18.42,0,.72-.05.8-.06,4.5-.71,12.62.05,13.03.09.11.01,10.83,1.05,15.84,3.29.52.23.88.55,1.06.95.2.45.17.99-.06,1.42Z"></path><path class="ae" d="M205.46,210.47c-.45.71-1.37.96-1.77,1.04-1.28.28-1.44-.16-2.83-.04-1.39.13-1.62.61-2.78.48-.34-.04-.97-.12-1.54-.54-.71-.52-1-1.33-1.16-1.97-.13-.53-.28-1.45-.44-2.67.95.08,2.65.09,4.57-.62,1.55-.57,2.65-1.4,3.32-1.98.04.47.09.92.13,1.34,0,0,.22,2.3,1.7,3.74.22.21.44.22.44.22.02,0,.01,0,.03,0,.21,0,.41.16.48.3.13.24-.07.55-.16.69Z"></path><path class="ae" d="M159.17,168.28c-.09.02-.19.04-.29.07-.91.21-2.56.66-4.45.08-2.69-.83-4.05-3.18-4.17-3.41-.36-.65-.98-2.01-.48-7.14.18-1.84.51-4.28,1.18-7.14.15-.32.29-.63.43-.94.74-1.55,1.92-4.88,2.08-8.94.62,3.74.79,6.69.79,8.93,0,0,0,6.21,1.56,9.68.09.19.17.39.26.58-.04-.01-.07-.01-.09,0-.39.21,1.59,3.23,1.93,6.04.04.32.14,1.33.61,1.46.17.05.36-.04.48-.14h0c.06.31.11.61.15.88Z"></path><path class="ae" d="M191.58,139.44c-.58.39-1.18.78-1.79,1.19-.13-.48-.26-.97-.39-1.46.19-.07-.78-3.83-2.44-7.8-1.7-4.06-3.74-7.46-3.97-7.46,1.36-.29,2.21-.03,2.68.21,2.65,1.28,2.13,5.55,4.82,12.68.44,1.18.85,2.11,1.09,2.64Z"></path><path class="ae" d="M132.53,145.81c-.56.65-1.12,1.29-1.68,1.94-.54-.68-1.23-1.72-1.68-3.13-.11-.34-.19-.66-.25-.97-.07-.32.29-.57.57-.38.46.31.93.66,1.42,1.05.62.5,1.16,1,1.63,1.48Z"></path><path class="ae" d="M205.46,127.81c-.38.07-.89-.53-1.53-1.8.8-.91,1.6-1.82,2.39-2.74-.03,2.92-.31,4.43-.87,4.53Z"></path><path class="o" d="M175.57,123.78c-.17-.04-.46,1.07-.95,2.1-.18.37-2.07,4.23-6.2,5.43-1.92.55-3.55.34-4.21.23-3.93-.71-6.28-3.9-6.67-4.45-.65-.91-1.13-1.91-1.28-1.84-.16.07.14,1.36.62,2.36,1.3,2.73,4.37,4.43,7.19,4.93,2.25.4,4.03-.06,4.52-.19,3.1-.86,6.05-3.26,6.82-6.22.26-1.02.33-2.3.15-2.34Z"></path><path class="o" d="M153.45,138.52c-.44-7.09-4.17-12.32-4.43-12.21-.25.1,2.76,5,3.21,12.44.42,6.99-1.67,11.92-1.43,11.98.27.07,3.07-5.4,2.65-12.21Z"></path><path class="o" d="M153.12,161.6c-.73-.15-1.49.35-1.84.87-1.15,1.75,1.62,4.92,2.48,5.02.04,0,.15.02.21-.05.16-.19-.39-.81-.88-1.62-.33-.54-1.26-2.06-.81-2.61.15-.19.44-.23.64-.2.56.07.84.7,1.87,2.68.46.89.69,1.33.71,1.32.21-.07-.4-5-2.37-5.41Z"></path><path class="o" d="M156,160.03c-.4.21,1.59,3.23,1.93,6.04.04.32.14,1.33.61,1.46.17.05.36-.04.47-.14.11-.1.44-.45.07-1.83-.6-2.25-2.67-5.75-3.09-5.53Z"></path><path class="o" d="M186.96,131.37c-1.72-4.12-3.79-7.55-3.98-7.46-.08.04.23.8,3.23,7.94,2.76,6.55,3.1,7.36,3.19,7.33.19-.07-.78-3.83-2.44-7.8Z"></path><path class="p" d="M178.51,89.19h0c-.47-.32-1.14-.59-1.85-.56-1.45.06-2.6,1.39-2.43,1.7.12.23.9-.18,2.76-.28,1.12-.06,1.73.04,1.99-.01l-.47-.84Z"></path><path class="p" d="M169.28,91.15c-.04.22-.8.19-2.5.66-.14.04-.28.08-.4.11.32-.54.61-1.05.87-1.53,1.14.04,2.07.5,2.03.75Z"></path><path class="p" d="M160.15,104.59s-.05.16-.18.23c-.34.19-.73-.35-1.29-.25-.41.07-.66.43-.7.48-.22.32-.15.61-.25.62-.12.02-.44-.53-.31-1.01.12-.44.6-.77,1.21-.86-.26-.16-.59-.34-.98-.48-.13-.05-.26-.09-.38-.13.21-.18.42-.37.63-.57,1.24.41,2.43,1.39,2.25,1.97Z"></path><path class="p" d="M179.71,94.03c.41,1.21.42,3.06-.62,3.65-.12.07-.41.21-.77.17-1.05-.11-1.72-1.68-1.86-2.77-.06-.43-.03-.82.02-1.13.02-.14-.14-.24-.27-.16-.11.07-.22.15-.34.24-.53.44-.66.79-.74.76-.16-.06-.15-1.75,1.09-2.54.13-.08.83-.53,1.65-.35,1.2.26,1.66,1.62,1.83,2.12Z"></path><path class="p" d="M169.93,96.36c.44,1.29.44,3.26-.66,3.9-.13.07-.44.23-.82.19-1.13-.12-1.83-1.79-1.98-2.95-.06-.47-.03-.89.02-1.23.02-.14-.14-.24-.27-.16-.12.08-.25.17-.38.27-.57.47-.7.85-.79.82-.17-.06-.16-1.86,1.17-2.71.14-.09.88-.56,1.76-.38,1.28.27,1.77,1.73,1.95,2.26Z"></path><path class="p" d="M172.4,93.24c.29-.07.68,3.78,3.71,5.35,0,0,.01,0,.02.01.67.34.97,1.13.64,1.79-.21.42-.54.85-1.04,1.18-1.11.71-2.54.54-2.58.36-.03-.14.9-.25,1.76-1.06.16-.15.3-.31.41-.46.24-.32.13-.76-.22-.96-.15-.09-.31-.19-.47-.3-2.61-1.91-2.52-5.83-2.23-5.9Z"></path><path class="p" d="M178.14,103.67c-.13-.07-.35-.08-.51-.02h-.03s-.14.06-.14.06c-2.82.97-5.9,1.02-8.79.31-.35-.1-.71.25-.61.61.84,3.94,6.11,6.38,8.97,2.94.72-.87,1.15-1.95,1.26-3.06.04-.28.03-.62-.15-.84ZM169.28,105.18c2.69.48,5.51.35,8.11-.51-.13.85-.49,1.68-1.04,2.33-2.17,2.56-5.96.93-7.06-1.82Z"></path><path class="p" d="M103.44,350.06c-.09.36-5.44.56-9.44-2.43-1.85-1.39-3.08-3.21-3.89-5.1.17-.2.35-.4.52-.6.51-.59.87-1.29,1.08-2.04.55,2.33,1.57,4.49,3.31,6.18,3.45,3.35,8.5,3.63,8.42,3.99Z"></path><path class="p" d="M172.58,172.58c.41,1.81.79,4.41.47,7.5-.28,2.76-1.06,5.44-1.29,5.4-.19-.03.07-1.93.13-4.39.09-3.39-.21-6.21-.53-8.21-.05-.33-.35-.55-.68-.52-1.12.11-2.53.22-4.16.25-1.48.02-2.91-.02-4.23-.11-.16-.01-.29.1-.31.26-.26,2.36-1.3,8.1-5.71,10.54-1.94,1.07-4.13,1.3-5.43,1.27-.69-.01-1.13-.09-1.14-.15-.03-.17,3.09-.13,5.79-1.74.07-.04.13-.08.19-.12,3.09-1.94,4.48-5.44,5.16-8.53.09-.4.14-.81.16-1.22.01-.23-.16-.42-.39-.45-2.38-.23-4.31-.58-5.46-.86-.78-.19-1.21-.34-1.2-.41,0-.06.48.01,1.34.13,1.21.17,3.17.43,5.69.54-.02-.17-.03-.34-.05-.52-.01-.1-.03-.21-.04-.31-.13-1.1-.11-2.1-.03-2.94.33-.03.63-.05.92-.05-.07.79-.08,1.71.04,2.73.03.27.07.53.11.77.03.2.21.36.41.36.1,0,.21,0,.31,0,.26,0,.46-.23.43-.49-.02-.17-.04-.35-.06-.53-.09-1.05-.03-1.99.08-2.78.31.03.6.08.9.13-.09.92-.1,1.95.02,3.07.02.21.05.41.08.6.68,0,1.38-.03,2.11-.07,3.66-.19,8.3-.51,8.3-.51,2.29-.15,3.72-.26,3.73-.17.01.08-1.1.32-5.27.94-.27.04-.44.29-.38.56Z"></path><path class="p" d="M171.09,202.17c.27-2.23.53-4.46.8-6.7.06-.51.39-.94.85-1.16.28-.14.59-.32.9-.57.56-.46,1.15-1.18,1.02-1.36-.13-.17-.86.32-2.37.78,0,0-.01,0-.02,0-.83.25-1.43.96-1.52,1.82-1.11,10.16-1.53,15.25-1.24,15.29.19.03.7-2.27,1.53-6.9,12.24-.89,18.36-1.43,18.35-1.64-.01-.2-6.11-.06-18.28.42Z"></path><path class="p" d="M186.89,180.14c-.12.16-1.29-.52-1.39-.58-.76-.44-2.57-1.98-3.28-8.72-.03-.31-.33-.51-.63-.44-.22.05-.45.11-.67.16-.5.12-.97-.28-.93-.79.03-.34.05-.69.05-1.06,0-.73-.04-1.4-.12-2.01.31-.11.62-.21.91-.31.09.55.15,1.15.15,1.81,0,.42-.02.82-.05,1.19-.01.14.11.24.25.21.21-.05.42-.1.63-.15.16-.04.28-.17.3-.34.03-.36.06-.74.06-1.15.01-.71-.03-1.36-.11-1.96.31-.09.61-.17.9-.24.1.7.17,1.49.16,2.36,0,.32-.02.63-.05.92-.04.47-.03.95.01,1.42.47,5.15,1.64,7.33,2.68,8.34.23.23,1.24,1.16,1.12,1.32Z"></path><path class="y" d="M185.49,271.14c-.18.31-4.44-1.13-8.24-4.24-2.01-1.65-3.54-3.48-4.7-5.23.62-.44.84-.63,1.17-1.08,0,0,0,0,0,0,.02-.03.04-.05.06-.08.14-.2.24-.41.33-.62,1.03,1.76,2.39,3.64,4.16,5.46,3.66,3.76,7.39,5.5,7.22,5.8Z"></path><path class="p" d="M71.55,200.59l2.68-.23c1.09-.62,1.67-.88,1.74-.78.05.07-.12.3-.52.7.97-.09,1.94-.18,2.92-.27.03-.09.06-.23,0-.37-.11-.26-.4-.24-.61-.44-.33-.31,0-.72-.24-1.22-.29-.61-.96-.38-1.39-1.05-.34-.52-.08-.87-.44-1.22-.45-.43-1.18-.22-1.19-.31-.01-.12,1.37-.63,1.87-.1.3.32-.03.72.27,1.19.41.65,1.32.35,1.61.94.22.45-.22.82.07,1.3.18.32.45.29.76.6.18.18.37.46.46.94.05.24-.13.48-.38.5-3.03.31-6.07.62-9.1.92-.33.03-.51-.36-.28-.59.05-.04.09-.09.14-.14,2.05-1.98,4.25-3.5,4.36-3.37.06.06-.52.67-1.67,1.89-.42.44-.78.82-1.07,1.1Z"></path><path class="p" d="M222.1,34.67c.22-.07,1.56,3.07,2.44,6.58.93,3.68,1.23,7.19.99,7.24-.19.04-.78-2.31-1.85-6.58-1.09-4.36-1.8-7.18-1.59-7.24Z"></path><path class="p" d="M229.06,47.64c.15-.01.21-2.72-.36-5.76-.59-3.13-1.68-5.69-1.83-5.64-.13.04.44,1.89,1.21,5.98.7,3.71.86,5.44.98,5.43Z"></path><path class="p" d="M228.75,59.74c-.22.09-.77-2.07-3.03-4.57-1.71-1.89-3.24-2.69-3.11-2.9.14-.23,2.07.31,3.58,1.67,2.45,2.2,2.83,5.69,2.56,5.8Z"></path></g><g id="f"><path class="x" d="M322.22,103.63s0,0,0,0c-.88.54-2.24,1.25-4,1.7-.94.24-4.06.99-7.63-.14-4-1.26-6.31-4.16-7.34-5.76-.27-.43-.13-.99.31-1.25.06-.03.12-.07.18-.11,3.02-2.02,3.11-8.74.58-10.31-.93-.57-2.08-.38-2.17-.36-.96.18-1.62.77-2.02,1.24-.2.24-.59.18-.71-.12-.08-.19-.16-.41-.26-.63-.59-1.39-2-4.69-3.26-5.83-1.41-1.28-3.77-.89-6.22-.12-.9,2.61-.63,5.31-.36,7.99.07.68.15,1.29.23,1.78.08.5-.02,1.02-.27,1.46-.26.45-.54.9-.84,1.37-.39.58-.78,1.12-1.16,1.62-.59.75-.31,1.85.56,2.23.32.14.66.27,1.02.4.49.18.97.32,1.42.43.06.73.17,1.85.36,3.19.4,2.78.71,4.91,1.26,5.97.24.46.59.84,1.03,1.16,1.72,1.26,4.76,1.52,7.39,1.46.1,0,.19,0,.29,0,.16,0,.33-.01.49-.02.12,0,.24-.01.36-.02.03,0,.05,0,.08,0,.13,0,.27-.02.39-.03.02,0,.03,0,.05,0,.09,0,.17-.01.25-.02.06,0,.11,0,.17-.01.07,0,.14-.01.21-.02.16-.01.32-.03.47-.04.09,0,.17-.02.26-.03.07,0,.14-.02.21-.02.12-.01.22-.03.33-.04.1-.01.21-.03.3-.04h.05c.45-.07.77-.12.93-.14,0,.32,0,.63,0,.95h0c0,1.15,0,2.29,0,3.43,1.39-.39,3.14-.58,5.52-.66,1.2-.04,2.33-.08,3.4-.1,3.96-.1,7.03-.05,9.56.61-.48-3.72-.95-7.44-1.43-11.15Z"></path><path class="x" d="M418.48,234.17c-.38.22-.79.24-.79.24-.67.02-1.2-.38-1.54-.72h0c-.15-.16-.26-.3-.32-.37,0,0,0-.01-.02-.02,0,.8-.05,3.16-.95,4.79-.53.98-1.06,1.14-1.22,1.18-.41.1-.78,0-1-.09-.24.21-.93.75-1.9.75-1.05,0-1.77-.63-2.15-.97-1.15-1.04-1.47-2.39-1.78-3.84-.36-1.64-.68-3.22-.96-4.71-.23-1.23-.65-2.42-1.24-3.53-.56-1.05-1.13-2.1-1.7-3.15-.06-.1-.19-.35-.24-.45,0,.04,0,.17,0,.36,0,1.55-.2,7.36-2.5,7.98-.68.18-1.67-.05-2.14-.69-.72-.97.02-2.51.37-3.6,1.57-4.8-2.16-7.41-1.73-14.38.06-.94.21-2.31.67-3.96.17-.6.09-1.24-.22-1.79-3.76-6.62-7.52-13.24-11.27-19.86-3.58-6.3-8.26-11.91-13.85-16.52-1.89-1.56-3.83-3.12-5.82-4.69-.28-.22-.55-.43-.83-.65-.33-.26-.65-.51-.98-.77-.18-.15-.36-.29-.54-.43-1.08-.87-2.17-1.74-3.25-2.61.36-1.44.95-3.41,1.98-5.61.91-1.93,2.15-4.05,3.87-6.14,2.26-2.76,4.66-4.65,6.53-5.88.81.63,1.62,1.25,2.43,1.88.12.1.25.19.37.29,4.36,3.67,8.65,7.84,12.72,12.61.03.03.05.06.08.09,4.15,4.87,7.54,10.34,10.14,16.19,2.8,6.32,5.54,12.92,8.15,19.8,1.07,2.81,2.09,5.59,3.06,8.35.24.68.56,1.33.95,1.94,1.78,2.83,3.56,6.41,4.72,10.73.15.57.29,1.14.41,1.69.22,1.02.56,2.01,1,2.95,1.19,2.57,1.77,4.82,2.07,6.48.56,3.07.6,6.4-.59,7.11Z"></path><path class="x" d="M276.28,110.16c-1.26,1.13-2.54,2.4-3.81,3.8-2.11,2.34-3.88,4.73-5.36,7.06-.96,1.51-1.79,3-2.53,4.44-.18-.2-.37-.39-.55-.59-.37-.4-.73-.8-1.1-1.2-.18-.2-.37-.4-.55-.6s-.36-.41-.55-.61c-1.13-1.27-2.25-2.56-3.35-3.88-.26-.31-.51-.62-.77-.93-.46-.57-.93-1.13-1.38-1.71-.12-.15-.24-.3-.36-.45-1.03-1.3-2.04-2.63-3.02-3.97-.19-.27-.39-.53-.58-.8-.61-.86-1.21-1.72-1.8-2.58-.19-.28-.38-.56-.57-.85-.16-.24-.32-.48-.47-.72-.4-.62-.8-1.24-1.18-1.87-5.91-9.56-9.97-19.33-9.97-19.33-2.82-6.79-4.73-12.98-6.03-18.11-.22-.88-.62-1.71-1.13-2.47,0-.01-.02-.03-.03-.04-3.57-5.24-4.76-11.1-4.91-16.31h0c-.01-.42-.02-.83-.02-1.23.02-3.22-.4-5.63-.83-7.34-.13-.48-.76-2.91.02-5,.19-.49.41-.86.7-.89.22-.02.67.11,1.42,1.72.52,1.11,1.48,3.54,2.35,8.52.02.07.03.14.04.21-.12-7.54.22-13.07.83-14.05.37-.6.94-.92.94-.92.33-.2.64-.27.89-.28.28-.02.49.03.57.04.71.01,1.28,2.76,1.42,3.5.08-.8.32-1.96,1.09-2.98.35-.46.64-.67.88-.77.06-.03.12-.05.18-.06.43-.12,1.02-.07,1.39.27.52.48.41,1.25.4,1.32-.11,1.74-.14,3.68-.04,5.78.12,2.45.41,4.67.76,6.62.1-.82,1.06-8.68,1.81-10.92.37-1.13.85-1.3,1.02-1.35.44-.11.87.18.99.27,1.54,1.06.27,6.7-.06,12.41-.15,2.6-.08,4.72,0,6.06,0-.02.01-.05.02-.08.21-.91.72-2.45,2.11-3.63.84-.71,2.67-1.88,3.6-1.22.41.3.49.84.52,1.03.2,1.35-.93,2.36-1.74,3.51-1.11,1.57-.61,2.01-1.85,5.78-.31.96-.77,2.23-1.42,3.71-.29.65-.36,1.38-.23,2.07,0,.06.02.11.03.17.04.16.09.32.15.47,2.24,5.76,5.61,13.36,10.55,21.82.21.36,3.07,5.23,6,9.45,4.6,6.63,10.01,12.56,15.52,17.72Z"></path><path class="x" d="M396.47,341.51c-3.53-4.01-7.06-8.01-10.6-12.01-2.26,2.2-5,5.3-7.51,9.42-.12.2-.24.4-.36.61-1.2,5.67-.09,11.07,3.27,14.47.95.97,2.65,2.34,5.43,3.17-1.93.42-3.87.83-5.8,1.25.18.16.36.31.55.47,6.79-.4,12.51-4.05,14.57-9.41,1.24-3.22.84-6.24.45-7.96Z"></path><path class="x" d="M344.92,264.51c-.14-1.26-.45-2.31-.73-3.08-2.01-.29-4.02-.57-6.03-.86,0,0,0,0,0,0-.43-.07-.87-.14-1.3-.2-1.22-.19-2.45-.38-3.67-.57-1.05,1.95-2.18,4.43-3.08,7.39-.14.44-.27.89-.39,1.36-1.31,4.86-1.5,9.12-1.39,12.2,1.26.12,2.52.24,3.78.37.43.04.86.08,1.29.13,1.71-1.83,3.85-1.93,5.99-3.27,1.63-1.03,2.89-2.55,3.8-4.28h0c.19-.36.36-.73.52-1.1.16-.38.3-.76.43-1.15.77-2.32,1.02-4.8.78-6.91Z"></path><path class="ab" d="M379.73,346.48c-.99-2.61-1.49-5-1.73-6.97-2.68,4.54-4.18,8.78-5.04,11.96.92.82,1.85,1.64,2.77,2.46,1.72,1.49,3.44,2.98,5.17,4.48,1.93-.42,3.87-.83,5.8-1.25-2.05-2.04-5.01-5.56-6.96-10.67Z"></path><path class="ab" d="M402.69,223.62c0,1.55-.2,7.36-2.5,7.98-.68.18-1.67-.05-2.14-.69-.72-.97.02-2.51.37-3.6,1.57-4.8-2.16-7.41-1.73-14.38.06-.94.21-2.31.67-3.96.17-.6.09-1.24-.22-1.79-3.76-6.62-7.52-13.24-11.27-19.86-3.58-6.3-8.26-11.91-13.85-16.52-1.89-1.56-3.83-3.12-5.82-4.69-.28-.22-.55-.43-.83-.65-.33-.26-.65-.51-.98-.77-.18-.15-.36-.29-.54-.43-1.08-.87-2.17-1.74-3.25-2.61.36-1.44.95-3.41,1.98-5.61,1.37.97,2.96,2.14,4.68,3.53,1.64,1.32,9.13,7.45,16.89,17.91,8.05,10.84,12.98,21.73,16.01,30.19-.56,2.43-2.67,12.4,1.83,15.53.22.15.46.29.71.41Z"></path><path class="ab" d="M415.35,227.86c.31,1.99.44,3.82.47,5.44,0,.8-.05,3.16-.95,4.79-.53.97-1.06,1.14-1.22,1.17-.41.1-.78,0-1-.09-.24.21-.93.75-1.9.75-1.05,0-1.77-.63-2.15-.97-1.15-1.04-1.47-2.39-1.79-3.84-.36-1.64-.68-3.22-.95-4.71-.23-1.23-.65-2.42-1.24-3.53-.56-1.05-1.13-2.1-1.7-3.15.67.21,1.96.35,4.07-1.04.78-.57,1.85-1.47,2.85-2.8.35-.47.65-.93.9-1.37-.62,2.09-.17,3.94.91,4.72.18.13,1.07.72,2.77.31.35,1.3.67,2.75.92,4.34Z"></path><path class="ab" d="M314.09,114.18c-1.07.03-2.2.06-3.4.1-2.39.08-4.14.27-5.52.66,0-1.14,0-2.28,0-3.42h0c0-.5-.44-.88-.93-.82h-.05c-.1.02-.2.03-.3.04-.11.01-.22.02-.33.04-.07,0-.14.02-.21.02-.09,0-.17.02-.26.03-.15.02-.31.03-.47.04-.07,0-.14.01-.21.02-.06,0-.11.01-.17.01-.08,0-.17.01-.25.02-.02,0-.03,0-.05,0-.13,0-.26.02-.39.03-.03,0-.05,0-.08,0-.12,0-.24.01-.36.02-.16,0-.32.01-.49.02-.1,0-.19,0-.29,0-2.63.06-5.66-.2-7.39-1.46,3.45-.81,6.37-1.08,8.46-1.17,3.43-.15,5.4-.19,7.46.69,2.54,1.09,4.19,3.18,5.23,5.12Z"></path><path class="ab" d="M267.11,121.03c-.96,1.51-1.79,3-2.53,4.44-.18-.2-.37-.39-.55-.59-.37-.39-.74-.79-1.1-1.2-.18-.2-.37-.4-.55-.6s-.36-.41-.55-.61c-1.13-1.27-2.25-2.56-3.35-3.88-.26-.31-.52-.62-.77-.93-.46-.57-.93-1.13-1.38-1.71-.12-.15-.24-.3-.36-.45-1.03-1.3-2.04-2.63-3.02-3.97-.19-.27-.39-.53-.58-.8-.61-.86-1.21-1.72-1.8-2.58-.19-.28-.38-.56-.57-.85-.16-.24-.32-.48-.47-.72-.4-.62-.8-1.24-1.18-1.87-5.91-9.56-9.97-19.33-9.97-19.33-2.82-6.79-4.73-12.98-6.03-18.11-.22-.88-.62-1.71-1.13-2.47,0-.01-.02-.03-.03-.04-3.57-5.24-4.76-11.1-4.91-16.31.62,3.34,1.73,7.21,3.69,11.25,1.03,2.12,2.15,3.99,3.26,5.61,3.5,11.25,7.66,20.14,11.03,26.45,3.71,6.95,7.36,13.66,14.11,21.03,3.04,3.32,6.04,6.04,8.74,8.24Z"></path><path class="ab" d="M232.2,30.04c-.57,1.26-.84,2.4-1.02,3.46-.28,1.61-.78,5.59-1.2,10.93h-.02c-.12-7.55.22-13.08.83-14.06.37-.6.94-.92.94-.92.33-.2.64-.27.9-.28-.11.2-.26.5-.43.87Z"></path><path class="ab" d="M236.59,28.94c-.16.29-.35.69-.48,1.14-.39,1.31-.82,6.71-.97,14.06-.17-3.81-.34-7.63-.51-11.44.08-.8.32-1.96,1.09-2.98.35-.46.64-.67.88-.77Z"></path><path class="ab" d="M247.53,48.96c-1.11,1.57-.61,2.01-1.85,5.78-.32.95-.77,2.22-1.42,3.71-.29.65-.36,1.38-.23,2.07-.36-1.62-.5-2.95-.56-3.85-.14-2,0-3.33-.26-6.1-.05-.53-.11-.99-.15-1.3.21-.91.73-2.45,2.11-3.63.84-.71,2.67-1.88,3.6-1.22.41.3.49.84.52,1.03.2,1.35-.93,2.36-1.74,3.51Z"></path><path class="ab" d="M339.38,277.96c1.63-1.03,2.89-2.55,3.8-4.28h0c-.24.1-.49.19-.75.28-1.78.61-6.33,2.17-9.09.63-1.97-1.1-3.17-3.87-3.24-7.4-.11.35-.21.71-.31,1.07-.03.1-.05.19-.08.29-.23.86-.43,1.7-.59,2.51-.02.1-.04.21-.06.31-.16.81-.29,1.59-.39,2.36-.22,1.62-.32,3.13-.36,4.49-.02.91-.01,1.75.01,2.52.63.06,1.26.12,1.89.18.63.06,1.26.12,1.89.18.35.03.7.07,1.05.1.08,0,.16.02.24.02,1.71-1.83,3.85-1.93,5.99-3.27Z"></path><path class="t" d="M389.22,333.29c-1.12-1.27-2.23-2.53-3.35-3.8-2.26,2.2-5,5.3-7.51,9.42-.12.2-.24.4-.36.61-2.68,4.54-4.18,8.78-5.04,11.96.92.82,1.85,1.64,2.77,2.45.01,0,.02.02.03.03-.05.1-1.24,2.35-3.62,2.48-1.49.08-2.55-.71-2.85-.95-20.53-24.03-35.38-41.78-39.91-47.03-.93-1.08-4.39-5.05-6.53-10.67-.84-2.21-1.24-4-1.36-4.56-.38-1.78-.55-3.43-.62-4.87-.05-1.21-.02-2.26.03-3.09-19.23-7.12-38.46-14.23-57.69-21.34-.6-.25-1.47-.68-2.4-1.37-3.2-2.36-4.3-5.75-5.33-9.08-1.09-3.52-1.92-6.17-1.27-9.67.6-3.27,2.17-5.61,3.17-6.88,8.75-7.89,18.41-15.97,29.03-24.01,3.98-3.02,7.93-5.9,11.82-8.65,4.29,1.43,7.72,3.25,12.9,5.25,5.61,2.16,10.63,3.51,15.29,4.43.72.14,1.44.27,2.14.4,4.31.76,8.32,1.18,12.21,1.59,6.48.68,10.67.64,13.42.27-.07.14-.15.28-.23.42-2.59,4.66-6.41,7.19-9.23,8.91-5.3,3.23-15.44,8.66-29.04,14.7-.06.03-.11.05-.17.08-3.27,1.46-6.54,2.91-9.8,4.37.74.23,2.73.83,4.85,1.48,2.12.65,4.37,1.33,5.64,1.72,6.63,2.02,13.26,4.05,19.89,6.07.95.29,1.63,1.14,1.71,2.13.12,1.5.23,3,.35,4.51-.43-.07-.87-.14-1.3-.2-1.22-.19-2.45-.38-3.67-.57-1.05,1.95-2.18,4.43-3.09,7.38-.14.44-.27.89-.39,1.36-1.31,4.85-1.5,9.12-1.39,12.2,3.5.34,7.01.68,10.51,1.02,11.13,8.27,22.27,16.53,33.4,24.79,5.58,6.32,11.15,12.64,16.73,18.96.4.55.94,1.47,1.18,2.72.49,2.5-.58,4.49-.92,5.08Z"></path><path class="ae" d="M362.74,259.06l-4.46-.02-13.08-.05c-.11.01-.63.07-1,.51-.11.14-.19.3-.24.47,0,0,0,0,0,0-.01.04-.02.08-.03.12,0,0,0,0,0,.01-.01.07-.02.14-.03.21,0,.02,0,.04,0,.06,0,.03,0,.06,0,.1,0,.04,0,.07,0,.11,0,.03,0,.05.01.08,0,.05.02.1.03.14,0,.02,0,.03.02.05.02.06.04.12.06.17.05.12.1.25.15.39.28.77.59,1.82.73,3.08.24,2.11,0,4.59-.78,6.91-.26.77-.57,1.53-.95,2.25h0c-.91,1.74-2.17,3.26-3.8,4.28-2.13,1.34-4.28,1.44-5.99,3.27-.23.24-.45.52-.66.83-.79,1.17-.78,1.88-.76,2.15.01.18.06.36.11.53.49,1.5,2.51,2.83,5.41,3.5.61.14,1.14.5,1.49,1.02.58.84,1.17,1.71,1.75,2.59.05.07.09.14.14.21.33.5.65,1,.98,1.51.58.91,1.16,1.83,1.73,2.78.35.58.7,1.16,1.04,1.75.18.31.37.62.55.94.43.74.84,1.48,1.24,2.21.34.61.67,1.22.99,1.82.07.14.15.27.22.41.54,1.03.89,2.15,1.01,3.31.37,3.52.76,6.49,1.09,8.75,1.26,8.8,2.07,10.91,3.53,12.79,1.98,2.56,4.59,3.85,6.4,4.53-.04-.09-.12-.26-.21-.47,0,0-.47-1.17-.65-2.49-.95-7.07,1.45-26.25,1.45-26.25.59-4.74,1.24-9.91.76-16.79-.52-7.46-.54-11.85-.58-20.62,0-1.05.02-3.66,1.58-6.15.28-.44.55-.78.73-1.01Z"></path><path class="u" d="M371.95,291.95c-.48-7.81.51-18.32.19-26.61-.05-1.36-.23-4.66-2.34-5.94-.5-.3-.98-.41-1.28-.46-.35.12-.84.32-1.33.7-2.17,1.65-2.26,4.9-2.28,6.31-.12,8.64-.18,12.96.48,20.49.66,7.42-.01,13.06-.57,17.77,0,0-1.86,15.69-1.54,24.83.02.6.09,2.09.85,3.74.18.39.35.69.46.88,1.6.19,3.05-2.12,4.36-4.19.84-1.33,2.72-4.58,3.94-10.69.67-3.34.82-5.92.85-6.46.47-8.56-1.32-12.86-1.79-20.36Z"></path><path class="r" d="M363.27,329.03c-.33-9.14,1.54-24.83,1.54-24.83.56-4.71,1.23-10.35.57-17.77-.66-7.53-.6-11.85-.48-20.49.02-1.41.11-4.66,2.28-6.31.5-.38.99-.58,1.33-.7-1.93.04-3.85.08-5.78.12,0,0,0,0,0,0-.19.23-.46.57-.73,1.01-1.57,2.49-1.59,5.1-1.58,6.15.04,8.78.06,13.17.58,20.62.48,6.89-.17,12.05-.76,16.79,0,0-2.39,19.18-1.45,26.25.18,1.31.65,2.49.65,2.49.09.22.17.39.21.47,0,0,0,0,0,0,.74.23,1.61.44,2.58.59.86.13,1.65.19,2.35.21-.11-.19-.29-.49-.46-.88-.76-1.66-.83-3.14-.85-3.74Z"></path><path class="ae" d="M422.29,346.72s.07,0,.1.02c-.02,0-.05-.02-.07-.02,0,0-.01,0-.02,0t0,0Z"></path><path class="ae" d="M400.29,384.31c1.47-3.39,3.13-8.66,6.44-19.19,3.41-10.86,5.41-18.37,9.21-20.49-5.79-1.89-11.58-3.78-17.36-5.68-.2-.1-1.08-.54-2.16-.25-.87.24-1.36.82-1.52,1.02,0,.45-.08,11.16-8.14,15.54-2.98,1.62-5.94,1.77-7.77,1.68-.44.15-2.37.83-2.69,2.33-.2.92.3,1.75.7,2.34,1.96,2.93,5.26,5.73,6.96,7.09.27,1.77.55,3.55.84,5.34.06.36.12.72.18,1.08l.04.27.37,2.16c.21,1.22.42,2.43.64,3.63.15.8.29,1.6.44,2.4.07.35.13.71.2,1.06-2.43,6.63-3.46,12.06-3.93,15.74-.33,2.59-.46,4.77.41,7.26,1.15,3.3,3.42,5.38,4.8,6.43.29-2.69,1.52-5.62,2.46-7.79,4.83-11.19,7.98-17.57,9.9-21.98Z"></path><path class="u" d="M424.42,348.03c-.17-.2-.67-.75-1.38-1.08,0,0,0,0,0,0-.12-.06-.24-.11-.37-.15-.09-.03-.18-.05-.28-.07-.03,0-.07-.01-.1-.02-5.8,1.87-7.72,9.72-10.89,20.1-3.11,10.22-4.67,15.32-6.5,19.47-6.41,14.5-9.74,21.25-9.74,21.25-1.12,2.27-3.29,6.6-2.86,9.13,0,.02,0,.03,0,.05.01,0,.02.02.04.03,2.28,1.47,9.79-4.55,14.58-11.24,1.62-2.26,5.39-7.53,6.8-14.65.38-1.91.82-4.64,1.97-8.86.48-1.76,1.16-3.8,2.26-6.42,1.91-4.53,5.32-11.32,7.24-19,.5-2,1.41-6.1-.76-8.54Z"></path><path class="r" d="M395.16,407.53s3.33-6.75,9.74-21.25c1.83-4.15,3.39-9.25,6.5-19.47,3.16-10.38,5.09-18.22,10.89-20.1t0,0s.01,0,.02,0c-2.12-.69-4.25-1.39-6.37-2.08-3.79,2.12-5.79,9.63-9.21,20.49-3.31,10.54-4.97,15.81-6.44,19.19-1.92,4.41-5.07,10.79-9.9,21.98-.94,2.17-2.17,5.09-2.46,7.79,0,0,.01,0,.02.01,1.45.88,2.91,1.75,4.36,2.63,0,0,0,0,0,0,0-.02,0-.03,0-.05-.43-2.52,1.74-6.86,2.86-9.13Z"></path><path class="aa" d="M295.9,82.06c1.25,1.14,2.66,4.45,3.26,5.83.1.23.18.44.26.63.12.29.5.36.71.12.4-.48,1.07-1.07,2.02-1.24.09-.02,1.24-.22,2.17.36,2.53,1.57,2.44,8.29-.58,10.31-.06.04-.12.08-.18.11-.44.26-.58.82-.31,1.25,1.03,1.6,3.35,4.5,7.34,5.76,3.57,1.13,6.69.37,7.63.14,1.76-.45,3.12-1.15,4-1.7,0,0,0,0,0,0,2.52-4.36,3.61-8.22,4.14-10.85.27-1.34,2.32-11.67-1.22-13.43-.44-.22-.9-.27-1.32-.25-.39.02-.71-.3-.67-.69.1-1.08.05-2.39-.45-3.74-3.61-9.66-26.8-10.6-28.34-6.51-.25.67.07,1.5.68,2.34.13.19-.02.44-.25.41-4.14-.53-7.1.83-7.5,2.54-.22.95.37,1.93.88,2.57.17.22,0,.54-.28.52-1.28-.09-3.77.04-5.49,2-1.23,1.4-2.22,3.93-1.29,5.02,1.21,1.41,4.98-.49,8.57-1.61,2.45-.76,4.81-1.16,6.22.12Z"></path><path class="o" d="M375.84,143.97c-.33-1.28-1.14-2.04-1.45-2.31-3.68-3.08-8.24-6.44-13.74-9.64-6.49-3.78-12.59-6.34-17.7-8.1-1.59-.28-3.23-.55-4.91-.8-2.17-.32-4.28-.58-6.32-.8-.46-1.23-1.35-3.14-3.12-4.84-1.43-1.37-3.03-2.21-4.94-2.7-3.21-.83-7.31-.69-12.96-.51-2.39.08-4.14.27-5.52.66-.46.13-.88.28-1.27.46-.71.33-1.32.74-1.89,1.26-1.42,1.31-2.1,2.87-2.44,3.93-2.76-.14-5.52-.27-8.28-.41-4.11-3.45-8.21-6.89-12.32-10.34-.69-.58-1.69-.56-2.36.03-.11.09-.21.19-.32.29-1.26,1.13-2.54,2.4-3.81,3.8-3.48,3.86-6.02,7.83-7.89,11.5-.78,1.53-1.44,3.01-2.01,4.4-.6,1.49-.14,3.21,1.15,4.17,7.91,5.94,15.81,11.89,23.72,17.83.41.33.97.88,1.32,1.71.18.42.23.77.26.94.26,1.73.52,3.84.69,6.24.46,6.47.75,11.23-.58,16.44-1.99,7.8-5.99,9.01-8.26,18.31-.05.19-.09.38-.14.58-.25,1.1-.43,2.12-.57,3.01-.19,1.28.77,2.44,2.07,2.48,2.35.07,5.31.29,8.66.86,2.87.49,5.2,1.11,7.33,1.81,4.29,1.43,7.72,3.25,12.9,5.25,11.78,4.54,21,5.51,29.64,6.42,6.48.68,10.67.64,13.42.27h0c1.55-.21,2.64-.52,3.43-.86,1.06-.45,1.57-.96,1.9-1.35,2.73-3.17,1.87-7.88.42-15.33-1.86-9.5-5.85-19.26-8.21-24.73-.3-.7-.58-1.33-.82-1.88-.75-1.73-2.83-6.41-2.77-12.63.01-1.01.07-1.84.13-2.4,2.82,2.22,5.64,4.44,8.46,6.66.85.67,1.7,1.34,2.55,2,.27.15,1.47.78,2.97.41,1.22-.3,1.92-1.09,2.15-1.37,0,0,0,0,0,0-.18-.14-.36-.29-.54-.43-1.08-.87-2.17-1.74-3.25-2.61.67-2.72,2.18-7.27,5.85-11.74,2.26-2.76,4.66-4.64,6.53-5.88.81.63,1.62,1.25,2.43,1.88.12.1.25.19.37.29.01.01.03.02.04.03.11-.4.28-1.25.02-2.27Z"></path><path class="v" d="M297.07,99.74l-4.23,1.58c.19,1.03.64,1.57,1.01,1.65.08.02.34.07,1.07-.48.88-.67,1.61-1.61,2.16-2.75Z"></path><path class="p" d="M357.61,215.33c-.79.34-1.88.65-3.43.86h0c-.07.14-.15.28-.23.42-2.59,4.66-6.41,7.19-9.22,8.91-5.3,3.23-15.43,8.66-29.03,14.7.1,1.46.19,2.92.29,4.39.07,1.09.14,2.17.22,3.26h0c6.63,2.02,13.26,4.05,19.89,6.07.95.29,1.63,1.14,1.71,2.13.12,1.5.23,3,.35,4.5,0,0,0,0,0,0,2.01.29,4.02.57,6.03.86-.05-.14-.1-.27-.15-.39-.15-.35-.17-.72-.07-1.06.05-.17.13-.33.24-.47.36-.45.89-.5,1-.51l13.08.05c-.22-14.57-.44-29.14-.67-43.71Z"></path><path class="p" d="M305.72,244.67l-12.45,5.29c-.52.22-.28,1,.27.9,2.74-.52,5.6-1,8.6-1.41,5.27-.72,10.22-1.14,14.79-1.36-.19-.06-5.27-1.61-5.46-1.66-.21-.06-5.54-1.69-5.75-1.75Z"></path><path class="p" d="M338.99,289.26c-.35-.51-.89-.88-1.49-1.02-2.9-.67-4.92-2-5.41-3.5,0,0,0,0,0,0-.23.34-.51.71-.84,1.08-.4.44-.8.8-1.18,1.09-.54.42-1.24.55-1.89.37-2.42-.67-4.85-1.35-7.27-2.03-.05.87-.07,1.91-.02,3.09.33-.05.66-.1,1.01-.13,1.45-.16,4.44-.34,12.38,1.82,1.82.5,4.07,1.15,6.62,2.03-.05-.07-.09-.14-.14-.21-.58-.89-1.17-1.75-1.75-2.59Z"></path><path class="p" d="M325.85,274.89c-.1.34-.41.55-.74.55-.07,0-.15-.01-.22-.03-8.47-2.48-16.93-5.38-25.14-8.61-8.32-3.28-16.59-6.98-24.57-11.01-.44-.23-.82-.55-1.09-.95-.56-.8-.56-1.64-.53-1.97.02-.32-.24-.85-1.04-1.39-.51-.34-.67-.6-.83-.92l-.02-.03c-.11-.21-.35-.76-.27-1.45.1-.93.72-1.51.98-1.72.03-.03.07-.05.1-.07,5.83-3.23,11.69-6.59,17.42-10,12.36-7.35,24.62-15.19,36.52-23.35.36.07.71.14,1.08.21.36.07.71.13,1.06.19-11.79,8.13-24.41,16.27-37.88,24.28-5.86,3.49-11.66,6.81-17.39,9.99-.11.1-.33.33-.36.64-.03.3.1.56.11.57l.02.03c.09.17.1.2.33.35,1.15.78,1.78,1.79,1.71,2.77v.02c0,.12-.02.56.26.96.17.24.38.38.53.45,7.94,4,16.16,7.69,24.44,10.95,8.17,3.22,16.58,6.1,25.01,8.57.41.12.64.55.52.96Z"></path><path class="p" d="M412.5,229.69c-.15-2.41-.46-4.38-.71-5.71-.49.2-1.14.53-1.84,1.02-1.24.87-2.45,2.16-2.27,2.41.04.05.15.08.45-.01.14,1.08.32,2.62.45,4.5.14,2.02.16,3.42.25,3.42.1,0,.22-1.51.27-2.75.09-2.12-.02-3.9-.14-5.19.1-.24.31-.68.75-1.09.46-.42.94-.6,1.19-.67.17,1.06.42,2.63.66,4.55.52,4.12.58,6.21.74,6.21.19,0,.4-3.21.19-6.69Z"></path><path class="p" d="M414.43,223.52c-.11.03.35,1.44.78,4.24.39,2.56.4,3.94.51,3.93.13,0,.37-1.87.06-3.99-.34-2.35-1.22-4.22-1.35-4.18Z"></path><path class="p" d="M403.85,211.18c-.19.04.36,1.79-.07,4.48-.35,2.18-1.09,3.44-.93,3.52.19.09,1.46-1.37,1.84-3.32.48-2.46-.63-4.72-.85-4.68Z"></path><path class="p" d="M411.85,215.28c-.15-.06-.67,1.44-2.1,3.66-1.6,2.49-2.86,3.62-2.75,3.73.14.13,2.18-1.24,3.56-3.56,1.1-1.85,1.45-3.77,1.29-3.83Z"></path><path class="p" d="M390.69,173.14c0,.36,1.55,1.1,2.57.43.99-.66.94-2.33.63-2.46-.19-.08-.39.42-1.19,1.01-1.12.81-2,.76-2,1.03Z"></path><path class="p" d="M243.22,50.77c-.12.01-.05,1.47.09,4.39.05.96.08,1.51.16,1.52.1,0,.22-.9.27-1.56.17-2.27-.35-4.36-.52-4.34Z"></path><path class="p" d="M235.05,44.74c.2-.02.04-3.39-.06-5.62-.1-2.17-.23-4.93-.41-4.93-.17,0-.4,2.44-.32,4.97.1,2.9.6,5.59.78,5.57Z"></path><path class="y" d="M333.19,259.8c.32-.62.77-1.39,1.44-2.19.38-.45.76-.84,1.12-1.16.28-.25.73-.07.76.3.12,1.21.23,2.42.35,3.63l-3.67-.57Z"></path><path class="y" d="M332.1,281.1c-.38,1.04-.95,2.22-1.85,3.4-.21.27-.41.52-.62.76-.2.23-.58.15-.66-.15-.17-.59-.32-1.25-.43-1.97-.14-.88-.21-1.69-.22-2.4,1.26.12,2.52.24,3.78.37Z"></path><path class="p" d="M292.1,88.71c.54-.42,1.29-.32,1.38-.3,1.06.17,1.57,1.16,1.64,1.28-.36.03-.72.07-1.09.1.58,2.03.43,3.65-.37,4.1-.03.02-.35.19-.74.09-1.42-.39-2.18-4.21-.82-5.27Z"></path><path class="p" d="M305.01,91.49c-.17.21-1.23-1.24-2.42-.92-1.11.3-1.52,1.9-1.8,1.76-.21-.11-.14-1.17.33-1.97.08-.14.71-1.17,1.71-1.19,1.43-.02,2.37,2.08,2.18,2.31Z"></path><path class="p" d="M294.9,85.57c-.09.22-.75.16-2.05.03-1.25-.12-1.88-.18-1.91-.36-.06-.35,1.31-1.22,2.55-.9.83.21,1.53.94,1.41,1.23Z"></path><path class="p" d="M303.86,93.79c-.14.09-.4-.45-1.01-.56-.8-.14-1.42.59-1.53.47-.15-.16.81-1.94,1.73-1.7.76.2,1.02,1.64.81,1.78Z"></path><path class="p" d="M298.33,98.5c-.14-.14-.35-.18-.53-.11l-5.7,2.13c-.22.08-.35.3-.32.53.18,1.59.89,2.71,1.86,2.91.1.02.2.03.3.03.46,0,.96-.22,1.58-.7,1.29-.98,2.3-2.45,2.93-4.26.06-.18.02-.39-.12-.53ZM293.85,102.96c-.37-.08-.81-.62-1.01-1.65l4.23-1.58c-.55,1.14-1.28,2.08-2.16,2.75-.72.55-.98.5-1.07.48Z"></path><path class="ag" d="M304.31,118.21c-.55-1.08-.51-2.17-.42-2.82-.71.33-1.32.74-1.89,1.26-1.42,1.31-2.1,2.87-2.44,3.93,1.77.06,3.53.11,5.3.17.34-.08,1.11-.16,2.18-.22-1.22-.46-2.2-1.26-2.74-2.33Z"></path><path class="ag" d="M294.62,139.32c-.58,6.2-2.79,10.98-3.06,10.91-.06-.02-.02-.26.07-.71-.06.11-.11.21-.17.32-.84,1.5-1.78,2.74-2.69,3.74.3,1.67.68,4.15.95,7.18.6,6.69.76,11.19-.58,16.44-1.99,7.8-5.99,9.01-8.26,18.31.75-1.68,2-4.24,3.94-7.12,2.43-3.61,4.62-5.76,5.52-6.74,8.35-9.11,6.42-27.66,5.83-33.33-.24-2.27-.67-5.36-1.55-9.01Z"></path><path class="ag" d="M360.53,162.22c-.02.34-.15,2.61.86,3.08.62.29,1.64-.09,2.46-1.02-1.08-.87-2.17-1.74-3.25-2.61-.02.14-.05.33-.06.55Z"></path><path class="ag" d="M375.45,145.04c-.03-.45-.06-.97-.34-1.25-.39-.38-1.27-.28-2.14.25.81.63,1.62,1.25,2.43,1.88.04-.21.07-.51.05-.88Z"></path><path class="p" d="M291.56,150.23c.27.07,2.48-4.71,3.06-10.91.03-.3.05-.6.07-.91.54-8.2-2.17-14.8-2.5-14.73-.32.06,1.66,6.2,1.08,15.34-.33,5.17-1.33,8.99-1.65,10.5-.09.45-.13.69-.07.71Z"></path><path class="p" d="M317.15,179.86c-7.39,6.47-11.71,13.5-11.41,13.75.3.26,5.45-6.89,15.16-14.61,9.53-7.58,17.06-10.62,16.9-10.92-.19-.36-10.79,3.15-20.65,11.79Z"></path><path class="p" d="M309.7,179.51c.14.27,7.93-2.44,15.84-8.53,7.29-5.62,11.72-11.84,11.51-12.04-.2-.19-4.48,5.03-12.36,11.05-8.47,6.46-15.11,9.27-14.98,9.52Z"></path><path class="p" d="M327.46,122.28c.03-.23-5.45-1.36-11.85-1.72-3.38-.19-6.52-.14-8.57-.03-1.08.06-1.84.14-2.18.22-.12.03-.19.05-.19.08,0,.17,2.92.2,10.83.69,8.84.55,11.94.93,11.96.75Z"></path><path class="p" d="M343.73,126.35c-.31.1,1.43,4.82,2.83,13.11,1.49,8.77,1.33,14.09,1.67,14.09.38,0,1.25-6.61-.07-14.26-1.26-7.32-4.08-13.04-4.43-12.93Z"></path><path class="p" d="M315.05,75.17c-.15-.33-.54-.48-.87-.34-1.17.47-2.4.78-3.64.91-3.72.42-7.51-.9-10.33-3.31-1.11-.87-2.38.73-1.3,1.61,3.47,2.71,7.94,3.88,12.19,3.13-2.13,1.28-4.56,2.05-7.05,2.11-1.23.04-2.46-.09-3.66-.35-1.23-.19-1.55,1.58-.34,1.84,4.03.77,8.32-.07,11.75-2.31,1.13-.74,2.18-1.6,3.11-2.57.19-.19.25-.48.14-.74Z"></path><path class="ag" d="M385.03,362.49c-.41.15-.61.62-.42,1.01.56,1.19.59,1.54.49,1.61-.31.21-2.1-1.83-3.36-3.87-.28-.45-1.12-1.81-.92-1.97.16-.13.97.59,2.03,1.66.44.45,1.11.59,1.7.36,1.46-.56,3.14-1.38,4.82-2.62,7.64-5.62,8.81-14.99,9.09-14.9.27.09-.32,9.44-7.41,15.33-2.07,1.72-4.22,2.75-6.01,3.38Z"></path><path class="ag" d="M342.77,282.71c-.45.41-.46,1.13-.01,1.55.75.71.87.98.81,1.08-.21.31-2.64-.9-4.57-2.31-.43-.31-1.72-1.25-1.59-1.48.1-.18,1.15.19,2.56.79.54.23,1.16.13,1.59-.27,1.16-1.07,2.43-2.49,3.54-4.31,4.81-7.92,2.41-16.82,2.7-16.84.29-.02,3.22,8.65-.99,16.6-1.19,2.24-2.68,3.94-4.04,5.18Z"></path><path class="p" d="M356.81,290.71c-1.3-1.39-4.58-.89-11.74-.45.41-.42.86-.88,1.32-1.36.47-.48-.13-1.25-.71-.9-.48.29-.98.61-1.49.96-1.2.83-2.21,1.69-3.05,2.48-.1.07-.2.14-.3.21-3.8,2.66-8.33,6.09-7.77,8.78.01.05.23,1.05,1.08,1.58,1.01.63,2.28.22,2.8.05,2.5-.82,3.89-4.64,4.5-6.87,0,.1.02.21.03.31.68,7.82,2.3,14.35,3.67,14.61.05,0,.07,0,.08,0,.68-.23-1.45-6.54-2.48-14.72-.06-.49-.12-.96-.16-1.38.08.04.15.08.22.12.43.42.97.92,1.65,1.43-.31.26-.6.52-.87.77.35.58.7,1.16,1.04,1.75.47-.48.96-.98,1.42-1.45,1.26.75,2.61,1.35,3.9,1.8-.15.1-.3.2-.45.3-1.21.84-2.23,1.7-3.07,2.5.34.61.67,1.22.99,1.82.92-.94,1.95-2,2.72-2.78.41-.42.87-.89,1.35-1.38,2.64.69,4.78.68,5.1-.03.06-.13.04-.26.03-.31-.26-1.41-5.26-.59-9.76-2.74.02-.02.05-.05.07-.07,1.3.34,2.42.49,3.25.55,1.53.11,5.54.4,6.95-1.66.14-.21.69-1.01.6-2.05,0,0-.08-1.01-.91-1.89ZM336.24,300.56c-.11,0-.82.03-1.09-.4-.71-1.15,2.48-4.45,5.86-7.51-.5,1.99-2.19,7.81-4.77,7.9ZM355.84,293.56c-.84,1.58-4.26,1.24-5.93,1.07-.48-.05-1.03-.12-1.65-.24.14-.15.29-.29.43-.44.47-.48-.13-1.25-.71-.9-.47.28-.95.59-1.44.93-1.11-.32-2.34-.78-3.67-1.45.26-.27.53-.54.78-.8,2.56.08,4.66,0,6.17-.1,3.04-.2,5.43-.6,6.05.52.25.45.16,1.03-.05,1.43Z"></path><path class="p" d="M387.79,368.12c.36-.27.71-.53,1.06-.77.63-.43.15-1.4-.57-1.18-.35.11-.72.23-1.09.39-1.54.65-2.61,1.53-3.25,2.14-3.26-1.66-6.04-2.92-8.15-3.84-2.75-1.19-4.21-1.72-5.42-1.02-1.04.6-1.74,2.01-1.53,3.23.49,2.87,5.93,4.04,8.43,4.3,1.38.14,2.53.08,3.28,0-3.38,2.24-5.15,4.8-6.04,6.35-.76,1.34-2.75,4.82-1.49,6.99.13.22.62,1.06,1.59,1.43,0,0,.95.36,2.1,0,2.51-.79,3.05-5.14,5.77-11.17.77-1.7,1.47-3.02,1.88-3.75.9-.96,2.04-2.03,3.44-3.1ZM378.9,379.46c-1.01,2.63-1.74,5.15-3.07,5.23-.51.03-1-.3-1.27-.66-1.08-1.45.74-4.42,1.59-5.81,1.02-1.67,2.95-4.24,6.51-6.56-1.84,3.16-3.01,5.85-3.75,7.79ZM374.17,369.19c-3.18-1.01-3.59-2.1-3.69-2.53-.02-.1-.17-.82.23-1.24.69-.73,2.52-.03,3.89.53,2.03.83,4.9,2.11,8.43,4.04-4.13.42-7.11-.23-8.86-.79Z"></path><path class="p" d="M390.48,372.34c.47-.49-.13-1.25-.71-.9-.48.29-.98.61-1.49.96-1.33.92-2.43,1.87-3.32,2.74l.41,2.43c1.07-1.09,2.53-2.59,3.54-3.62.47-.49,1.01-1.03,1.56-1.6Z"></path><path class="p" d="M390.77,377.54c-.49.29-.98.61-1.49.96-1.31.91-2.39,1.84-3.27,2.69.15.8.29,1.6.44,2.4,1.06-1.08,2.48-2.54,3.47-3.55.47-.49,1.01-1.03,1.56-1.6.47-.49-.13-1.25-.71-.9Z"></path></g><g class="z"><g id="h"><path class="ac" d="M401.76,319.35c-.54-4.82-1.08-9.64-1.62-14.45-16.38,2.47-45.24,4.27-76.23-8.76-15.58-6.55-24.84-13.96-26.97-15.7-2.87-2.35-45.4-38-34.78-75.19.42-1.48,6.55-21.82,24.4-30.3,8.46-4.02,18.24-4.77,21.66-4.92,1.98-.09,7.42-.24,15.18,1.12,16.55,2.9,36,11.34,35.16,16.84-.14.9-.87,2.08-3.57,3.21,1.65,3.04,3.3,6.07,4.95,9.11,1.29-.57,5.82-2.78,7.68-7.75,0,0,1.1-2.9.66-6.25-1.41-10.84-22.97-22.14-42.92-25.97-8.61-1.65-15.05-1.55-17.44-1.47-2.14.07-14.93.62-26.09,5.73-22.34,10.24-30.53,35.32-31.11,37.17-11.04,35.53,16.15,72.32,37.32,89.82,13.52,11.17,26.58,16.13,36.16,19.67,32.3,11.94,61.25,10.32,77.57,8.1Z"></path><path class="ac" d="M407.06,311.62c-.29-3.5-3.33-7.18-6.56-6.78,0,0,0,0-.01,0-3.09.39-5.02,4.33-4.83,7.5.2,3.37,2.87,7.18,6.1,7.01.61-.03,1.18-.2,1.72-.48,2.31-1.21,3.81-4.44,3.58-7.26Z"></path><path class="ac" d="M253.74,125.73c1.42-.87,2.81-1.81,4.15-2.8,3.28-2.44,6.44-5.39,9.26-8.7-2.33-2.07-4.67-4.14-7-6.21-1.84,2.25-3.84,4.15-3.84,4.15-.15.14-.27.25-.35.31-1.36,1.09-2.72,2.19-4.07,3.28h0s0,0,0,0c-1.41,1.04-3.04,2.12-4.92,3.17-1.39.78-2.72,1.43-3.97,1.97t0,0s0,0,0,0c-2.2.98-4.46,1.8-6.77,2.44.5.48,1.85,1.9,2.3,4.22.46,2.37-.29,4.23-.58,4.86,2.39-.62,4.74-1.39,7.04-2.3,1.29-.48,2.69-1.07,4.15-1.78,1.74-.85,3.28-1.74,4.63-2.61Z"></path><path class="ac" d="M220.21,124.97c-.03-4.44-.75-8.85-2.29-13.07-.54-1.47-1.18-2.89-1.88-4.26,0-.02-.02-.03-.02-.04-2.79,1.38-5.58,2.77-8.37,4.16.02.04.05.09.07.13.54,1.06,1.02,2.14,1.41,3.24.4,1.1.73,2.22.99,3.36.37,1.6.58,3.23.67,4.89.06,1.36.05,2.88-.08,4.55-.14,1.75-.39,3.34-.68,4.72,0,.04-.02.08-.02.12-.5,2.43-1.21,4.85-2.05,7.31-.21.62-.43,1.23-.65,1.86-1.53,4.24-3.39,8.37-5.65,12.26-.24.42-.48.85-.73,1.27-5,8.39-11.44,16.32-19.04,22.51-6.31,5.15-13.11,9.6-20.7,12.63.43,3.44.87,6.88,1.3,10.33-.01-.1,7.03-3.06,7.75-3.42,2.61-1.33,5.21-2.73,7.67-4.32,5.14-3.32,9.97-7.12,14.38-11.36,7-6.75,12.92-14.47,17.74-22.9,2.86-5,5.11-10.33,6.94-15.79.91-2.72,1.73-5.55,2.31-8.48.04-.18.07-.35.1-.53.22-1.19.42-2.46.56-3.82.21-1.91.28-3.7.28-5.32Z"></path><path class="ac" d="M286.64,185.8c6.74,4.39,34.04,22.18,66.03,16.25,3.06-.57,5.56-1.24,7.25-1.74-1.65-3.04-3.3-6.07-4.95-9.11-.83.25-2.2.64-3.9,1.02-28.87,6.42-55.35-12.1-61.64-16.49-4.78-3.34-11.61-8.73-18.68-16.83-2.22,2.44-4.45,4.89-6.67,7.33,8.31,9.44,16.52,15.65,22.55,19.58Z"></path><path class="ac" d="M267.08,154.3c-1.55-2.07-2.95-4.24-4.31-6.43l-.97-1.68c-.32-.56-.65-1.11-.94-1.69-2.39-4.57-4.41-9.25-5.88-14.21-.37-1.25-.72-2.5-1.04-3.76-.07-.26-.13-.53-.2-.8-1.34.86-2.89,1.76-4.63,2.61-1.46.72-2.85,1.3-4.15,1.78.25.97.52,1.93.8,2.89,1.63,5.59,3.98,10.88,6.56,16.05.32.65.69,1.27,1.04,1.9l1.07,1.88c1.5,2.46,3.05,4.89,4.76,7.21,1.53,2.14,3.18,4.18,4.88,6.18,2.22-2.44,4.44-4.89,6.67-7.33-1.27-1.49-2.5-3.02-3.68-4.59Z"></path><path class="ac" d="M238.51,127.57c-.45-2.31-1.8-3.73-2.3-4.22-4.94,1.38-10.11,1.96-15.33,1.66-.22-.01-.45-.03-.67-.04,0,1.62-.08,3.41-.28,5.32-.15,1.36-.34,2.63-.56,3.82.33.02.65.05.98.07.51.03,1.03.05,1.54.07,5.4.17,10.82-.46,16.05-1.81.29-.63,1.04-2.49.58-4.86Z"></path><path class="ac" d="M210.78,123.37c-1.52-.41-3.01-.91-4.47-1.47-7.98-3.1-15.05-8.65-19.53-16-.6-.99-1.12-1.98-1.5-2.94-.8-2.06-1.11-4.31.82-5.84.57-.45,1.27-.82,1.9-.96.63-.16,1.39-.2,2.26-.07.87.12,1.82.41,2.79.82,1.81.76,3.63,1.96,5.34,3.35.13.1.25.2.38.31,3.6,3.04,6.72,6.97,8.88,11.18,2.79-1.38,5.58-2.77,8.37-4.16-1.39-2.72-3.07-5.24-4.93-7.6-1.9-2.36-3.99-4.56-6.36-6.53-2.37-1.97-4.98-3.76-8.08-5.07-1.55-.65-3.22-1.18-5.06-1.45-1.83-.26-3.86-.24-5.87.27-.13.03-.26.07-.39.11-.87.24-1.69.58-2.47.97-.89.45-1.73.99-2.51,1.62-1.56,1.25-2.93,2.86-3.85,4.87-1.63,3.67-1.23,7.91.23,11.57,4.47,11.17,15.31,19.82,26.28,24.09,2.29.89,4.64,1.63,7.03,2.2.29-1.38.54-2.97.68-4.72.13-1.67.14-3.19.08-4.55Z"></path><path class="ac" d="M246.97,118.94c1.87-1.05,3.51-2.13,4.92-3.17-.37-4.67-1.01-17.93,4.66-26.57,1.44-2.2,4.5-6.86,8.28-6.65.41.02,1.31.08,2.13.68,3.48,2.54.69,11.34.09,13.21-.84,2.65-2.67,7.05-6.9,11.6,2.33,2.07,4.67,4.14,7,6.21,3.28-3.48,6.69-8.36,8.5-14.74.61-2.16,4.86-17.18-3.05-23.74-3.53-2.93-7.93-2.88-8.9-2.85-6.3.22-10.53,4.9-12.88,7.5-11.62,12.87-8.39,36.67-7.83,40.51,1.25-.55,2.58-1.2,3.97-1.97Z"></path><path class="ac" d="M114.87,187.8c-.75-.47-1.49-.96-2.2-1.47-2.87-2.1-5.4-4.62-7.49-7.46-.73-.99-1.44-2.02-2.08-3.05-.76-1.22-1.47-2.46-2.07-3.7-3.67.86-7.33,1.72-11,2.58.12.28.24.56.37.84.03.06.05.12.08.17.12.27.25.54.38.81.03.06.06.11.08.17.12.24.24.49.37.73.02.04.04.08.06.12.45.87.93,1.72,1.43,2.54.34.57.69,1.13,1.05,1.68.82,1.27,1.69,2.49,2.59,3.68,2.83,3.72,6.17,6.98,10,9.67,2.17,1.53,4.45,2.85,6.8,3.99.46-1.44.89-3.13,1.2-5.04.38-2.35.47-4.47.44-6.24Z"></path><path class="ac" d="M155.22,192.61c-7.21,2-14.75,2.71-22.18,1.59-2.1-.31-4.18-.75-6.22-1.31-.08,1.11-.21,2.28-.38,3.49-.36,2.54-.88,4.85-1.47,6.9,2.18.53,4.38.95,6.61,1.25,8.86,1.2,17.9.32,26.47-2.16,1.5-.43,2.98-.92,4.43-1.46-.43-3.44-.87-6.88-1.3-10.33-1.96.78-3.95,1.46-5.96,2.02Z"></path><path class="ac" d="M126.82,192.89c.1-1.1.19-2.5.21-4.14.01-1.3-.03-2.3-.05-2.76,0-.13-.16-2.43-.45-4.67-.62-4.72-2.17-9.38-4.38-13.59-.76-1.41-1.55-2.72-2.41-4.01-.86-1.29-1.78-2.54-2.77-3.76-1.01-1.22-2.08-2.42-3.32-3.57-.61-.58-1.27-1.14-1.97-1.68-2.64-2.09-9.69-5.24-15.44-2.6-2.07.95-3.76,2.56-3.91,2.7-.47.45-1.43,1.44-2.27,2.8,0,0-2.88,4.62-1.9,10.76.29,1.83.78,3.49,1.36,5.04.21.56.38.97.51,1.27,3.67-.86,7.33-1.72,11-2.58-1.92-4.01-2.48-7.59-1.05-8.83.42-.37,1-.52,1.07-.53,1.77-.44,3.52,1.1,4.62,2.07.84.74,1.37,1.39,2.21,2.47.71.91,1.4,1.87,2.04,2.87,0,0,.99,1.54,1.75,3.04,1.15,2.26,2.59,7.54,3.2,14.59.03,1.77-.06,3.89-.44,6.24-.31,1.91-.74,3.6-1.2,5.04-.14.49-.3.99-.47,1.5-4.02,12.06-15.34,21.26-15.34,21.26-5.89,4.76-11.87,7.4-16.5,8.9,1.71,4.32,3.41,8.64,5.12,12.96.52-.16,1.29-.41,2.2-.73,10.06-3.59,16.89-9.29,19.95-12.12,3.11-2.88,11.4-11.15,15.85-24.47.16-.49.52-1.57.93-3.1.58-2.05,1.1-4.36,1.47-6.9.17-1.21.3-2.38.38-3.49Z"></path><path class="ac" d="M89.38,235.06c-1.24-3.19-5.09-5.7-8.28-4.39-.01,0-.03.01-.04.02-3.2,1.35-4.21,5.98-2.63,9.16,1.47,2.96,5.4,5.08,8.46,3.53,0,0,0,0,.01,0,2.91-1.48,3.56-5.52,2.47-8.31Z"></path><path class="w" d="M244.02,25.62c.89-1.09,1.87-2.09,2.94-2.95,1.03-.84,2.13-1.57,3.29-2.18,1.02-.54,1.83-.85,3.69-1.5,3.87-1.34,5.62-1.82,6.6-2.41-.05.02-.09.04-.14.06-1.47.53-2.92-.91-3.1-1.08-.96-.97-1.34-2.43-1-3.74.07-.27.54-2.08,1.99-2.41.18-.04.35-.05.52-.04-.37-.1-.69-.13-.9-.12-.51.01-1.22.06-2.04.17-8.99,1.22-14.41,9.2-16.41,13.15-1.5,2.96,2.38,5.59,4.57,3.06Z"></path><path class="w" d="M236.16,19.45c-.12-1.1-.15-2.21-.07-3.3.19-3.08,1.22-6.16,2.89-8.69,1.37-2.03.77-4.81-1.12-6.18,1.43,1.06,2.36,3.31,1.44,4.53-.86,1.14-2.99.93-4.3.21-1.73-.96-2.97-3.35-2.13-4.66.23-.36.61-.61,1.07-.77-1.37.39-2.54,1.42-3.05,2.87-2.2,5.5-2.46,11.62-.7,17.23,1.18,3.48,6.27,2.47,5.98-1.23Z"></path><path class="w" d="M201.78,10.48c1.23-.3,2.27.78,2.58,1.1,1.12,1.15,1.57,3,1.1,4.59-.13.44-.51,1.72-1.58,2.14-1.34.53-2.66-.72-3.02-1.09.9.99,2.28,1.6,4.08,1.37,1.52-.26,3.15-.28,4.73-.04,5.02.69,9.43,4.03,11.78,8.5,1.55,2.91,5.88,1.13,4.9-2.05-1.13-3.28-3.04-6.34-5.53-8.79-2.57-2.55-5.76-4.45-9.21-5.53-2.6-.78-5.4-1.27-8.17-1.04-1.22.26-2.12.82-2.74,1.55.28-.32.64-.59,1.09-.7Z"></path><path class="w" d="M232.86,1.36c-.84,1.31.4,3.7,2.13,4.66,1.31.72,3.44.93,4.3-.21.92-1.22-.01-3.47-1.44-4.53,0,0-.01,0-.02-.01,0,0,0,0-.01,0-.09-.06-.18-.13-.28-.18-.02-.01-.04-.02-.07-.04-.08-.04-.16-.09-.24-.13-.02-.01-.05-.02-.07-.04-.1-.05-.2-.09-.3-.13,0,0,0,0,0,0-.45-.18-.93-.28-1.4-.32-.55-.04-1.08.01-1.53.17-.46.15-.83.41-1.07.77Z"></path><path class="w" d="M258.29,9.41c-1.45.32-1.92,2.14-1.99,2.41-.34,1.3.04,2.76,1,3.74.17.18,1.63,1.61,3.1,1.08.05-.02.1-.04.14-.06.96-.44,1.31-1.52,1.43-1.91.47-1.47.02-3.18-1.1-4.24-.27-.25-1.07-1.01-2.06-1.06-.17,0-.34,0-.52.04Z"></path><path class="w" d="M199.79,13.09c-.08.33-.12.68-.12,1.02,0,1.11.39,2.22,1.12,3.03.02.02.04.04.08.08.36.37,1.68,1.62,3.02,1.09,1.07-.42,1.45-1.7,1.58-2.14.47-1.59.02-3.44-1.1-4.59-.31-.32-1.35-1.39-2.58-1.1-.45.11-.81.37-1.09.7,0,0-.01.02-.02.02-.6.71-.84,1.69-.89,1.89Z"></path></g></g><ellipse class="q" cx="238.66" cy="433.16" rx="119.62" ry="9.38"></ellipse><path class="n" d="M8.86,24.17h-2.5c-.41,0-.62-.21-.62-.62v-6.3L.35,5.9c-.08-.18-.07-.33.01-.46.09-.13.22-.19.4-.19h3.12c.31,0,.55.21.71.62l2.94,7.15h.21l2.88-7.15c.14-.41.37-.62.71-.62h3.12c.2,0,.34.06.43.18.09.12.08.27-.01.47l-5.39,11.36v6.3c0,.41-.21.62-.62.62Z"></path><path class="n" d="M23.28,24.17h-2.62c-1.55,0-2.75-.41-3.59-1.24-.84-.82-1.27-2.01-1.27-3.56v-5.41c0-1.55.42-2.74,1.27-3.56.84-.82,2.04-1.24,3.59-1.24h2.62c1.53,0,2.72.42,3.58,1.25.85.83,1.28,2.02,1.28,3.55v5.41c0,1.53-.43,2.71-1.28,3.55-.85.83-2.05,1.25-3.58,1.25ZM21.22,20.97h1.5c.63,0,1.07-.13,1.34-.38.27-.25.4-.7.4-1.32v-5.18c0-.63-.13-1.07-.4-1.32-.26-.25-.71-.38-1.34-.38h-1.5c-.63,0-1.07.13-1.32.38s-.38.7-.38,1.32v5.18c0,.63.13,1.07.38,1.32s.7.38,1.32.38Z"></path><path class="n" d="M35.75,24.17h-.97c-1.51,0-2.65-.41-3.43-1.24-.78-.82-1.16-2.01-1.16-3.56v-9.59c0-.41.21-.62.62-.62h2.5c.41,0,.62.21.62.62v9.42c0,.63.13,1.07.4,1.34.26.27.7.4,1.31.4h1.09c1.35,0,2.03-.75,2.03-2.24v-8.92c0-.41.21-.62.62-.62h2.47c.43,0,.65.21.65.62v13.77c0,.41-.22.62-.65.62h-2.47c-.41,0-.62-.21-.62-.62v-.97h-.12c-.22.53-.6.93-1.15,1.19-.55.26-1.13.4-1.74.4Z"></path><path class="n" d="M56.74,24.17h-3.35c-.37,0-.61-.21-.71-.62l-2.94-13.77c-.08-.41.07-.62.44-.62h2.82c.43,0,.67.21.71.62l1.32,10.06h.24l2.09-10.06c.06-.41.28-.62.68-.62h2.59c.41,0,.66.21.74.62l2.03,10.06h.24l1.35-10.06c.06-.41.29-.62.71-.62h2.83c.39,0,.54.21.44.62l-2.94,13.77c-.08.41-.31.62-.71.62h-3.35c-.39,0-.63-.21-.71-.62l-1.79-9.95h-.24l-1.77,9.95c-.06.41-.29.62-.71.62Z"></path><path class="n" d="M70.63,6.64v-2.56c0-.39.2-.59.59-.59h2.56c.39,0,.59.19.59.56v2.59c0,.39-.2.59-.59.59h-2.56c-.39,0-.59-.2-.59-.59ZM70.63,23.56v-13.77c0-.41.2-.62.59-.62h2.53c.41,0,.62.21.62.62v13.77c0,.26-.04.42-.13.5-.09.08-.24.12-.46.12h-2.53c-.41,0-.62-.21-.62-.62Z"></path><path class="n" d="M80.28,24.17h-2.5c-.41,0-.62-.21-.62-.62V4.11c0-.41.21-.62.62-.62h2.5c.41,0,.62.21.62.62v19.45c0,.41-.21.62-.62.62Z"></path><path class="n" d="M86.81,24.17h-2.5c-.41,0-.62-.21-.62-.62V4.11c0-.41.21-.62.62-.62h2.5c.41,0,.62.21.62.62v19.45c0,.41-.21.62-.62.62Z"></path><path class="n" d="M98.93,24.17h-2.5c-.41,0-.62-.21-.62-.62v-13.77c0-.41.21-.62.62-.62h2.5c.41,0,.62.21.62.62v1h.12c.22-.53.6-.93,1.15-1.21.55-.28,1.13-.41,1.74-.41h1.06c.39,0,.59.21.59.62v2.03c0,.24-.04.4-.13.49s-.24.12-.46.1h-2.03c-1.35,0-2.03.77-2.03,2.3v8.86c0,.41-.21.62-.62.62Z"></path><path class="n" d="M116.41,24.17h-6.5c-1.55,0-2.75-.41-3.59-1.24-.84-.82-1.27-2.01-1.27-3.56v-5.41c0-1.55.42-2.74,1.27-3.56.84-.82,2.04-1.24,3.59-1.24h2.32c1.55,0,2.75.41,3.59,1.24.84.82,1.27,2.01,1.27,3.56v3.74c0,.41-.21.62-.62.62h-7.39c-.24,0-.35.11-.35.32v.65c0,.61.13,1.04.4,1.31.27.26.71.4,1.34.4h5.94c.41,0,.62.22.62.65v1.94c0,.22-.04.37-.13.46-.09.09-.25.13-.49.13ZM109.09,15.82h4c.22,0,.32-.11.32-.32v-1.41c0-.63-.13-1.07-.38-1.32-.26-.25-.7-.38-1.32-.38h-1.24c-.63,0-1.07.13-1.32.38s-.38.7-.38,1.32v1.41c0,.22.11.32.32.32Z"></path><path class="n" d="M128.71,21.56v2.03c0,.22-.04.37-.13.46-.09.09-.25.13-.49.13h-4.38c-1.55,0-2.75-.41-3.59-1.24-.84-.82-1.27-2.01-1.27-3.56v-5.41c0-1.55.42-2.74,1.27-3.56.84-.82,2.04-1.24,3.59-1.24h4.38c.41,0,.62.21.62.62v2.03c0,.22-.04.37-.13.46-.09.09-.25.13-.49.13h-3.8c-.61,0-1.04.13-1.31.4-.27.26-.4.71-.4,1.34v5.06c0,.63.13,1.07.4,1.34.26.27.7.4,1.31.4h3.8c.41,0,.62.21.62.62Z"></path><path class="n" d="M141.57,24.17h-6.5c-1.55,0-2.75-.41-3.59-1.24-.84-.82-1.27-2.01-1.27-3.56v-5.41c0-1.55.42-2.74,1.27-3.56.84-.82,2.04-1.24,3.59-1.24h2.32c1.55,0,2.75.41,3.59,1.24.84.82,1.27,2.01,1.27,3.56v3.74c0,.41-.21.62-.62.62h-7.39c-.24,0-.35.11-.35.32v.65c0,.61.13,1.04.4,1.31.27.26.71.4,1.34.4h5.94c.41,0,.62.22.62.65v1.94c0,.22-.04.37-.13.46-.09.09-.25.13-.49.13ZM134.25,15.82h4c.22,0,.32-.11.32-.32v-1.41c0-.63-.13-1.07-.38-1.32-.26-.25-.7-.38-1.32-.38h-1.24c-.63,0-1.07.13-1.32.38s-.38.7-.38,1.32v1.41c0,.22.11.32.32.32Z"></path><path class="n" d="M144.46,6.64v-2.56c0-.39.2-.59.59-.59h2.56c.39,0,.59.19.59.56v2.59c0,.39-.2.59-.59.59h-2.56c-.39,0-.59-.2-.59-.59ZM144.46,23.56v-13.77c0-.41.2-.62.59-.62h2.53c.41,0,.62.21.62.62v13.77c0,.26-.04.42-.13.5-.09.08-.24.12-.46.12h-2.53c-.41,0-.62-.21-.62-.62Z"></path><path class="n" d="M150.2,9.17h2.59c.39,0,.63.21.71.62l2.53,11.07h.21l2.47-11.07c.08-.41.32-.62.74-.62h2.59c.41,0,.56.21.44.62l-3.71,13.74c-.08.43-.34.65-.79.65h-3.74c-.41,0-.68-.22-.79-.65l-3.68-13.74c-.12-.41.03-.62.44-.62Z"></path><path class="n" d="M174.94,24.17h-6.5c-1.55,0-2.75-.41-3.59-1.24-.84-.82-1.27-2.01-1.27-3.56v-5.41c0-1.55.42-2.74,1.27-3.56.84-.82,2.04-1.24,3.59-1.24h2.32c1.55,0,2.75.41,3.59,1.24.84.82,1.27,2.01,1.27,3.56v3.74c0,.41-.21.62-.62.62h-7.39c-.24,0-.35.11-.35.32v.65c0,.61.13,1.04.4,1.31.27.26.71.4,1.34.4h5.94c.41,0,.62.22.62.65v1.94c0,.22-.04.37-.13.46-.09.09-.25.13-.49.13ZM167.62,15.82h4c.22,0,.32-.11.32-.32v-1.41c0-.63-.13-1.07-.38-1.32-.26-.25-.7-.38-1.32-.38h-1.24c-.63,0-1.07.13-1.32.38s-.38.7-.38,1.32v1.41c0,.22.11.32.32.32Z"></path><path class="n" d="M48.8,179.29c-3.77-2.67-8.19-4.6-12.34-5.62v10.96c14.55,3.5,22,8.47,22,19.89v.18c0,11.33-8.75,18.14-21.73,19.33v9.02h-9.58v-9.12c-9.21-1.01-17.86-4.14-24.86-9.21l8.29-12.25c5.98,4.05,11.32,6.63,17.12,7.64v-11.14c-14.73-3.41-22.37-8.47-22.37-19.98v-.18c0-10.77,7.92-18.23,22-19.24v-5.34h9.58v5.52c7.64,1.01,13.81,3.41,19.43,7.09l-7.55,12.43ZM21.54,177.63c0,2.49,1.2,3.87,6.26,5.25v-9.94c-4.51.28-6.26,2.03-6.26,4.51v.18ZM42.54,205.71c0-2.49-1.38-3.87-6.17-5.25v10.13c4.14-.37,6.17-1.93,6.17-4.7v-.18Z"></path><path class="n" d="M72.66,272.95l56.52-43.14c14.02-11,19.63-17.9,19.63-27.18s-6.69-15.53-17.04-15.53-18.12,6.04-29.98,19.63l-28.26-23.51c16.18-20.71,32.36-32.36,61.48-32.36,32.79,0,55.65,19.63,55.65,48.1v.43c0,24.16-12.51,36.67-34.95,52.85l-25.89,18.12h62.34v34.08h-119.51v-31.49Z"></path><path class="n" d="M193.68,283.52l23.94-28.04c12.08,10.35,23.73,16.39,36.67,16.39,13.81,0,22-6.69,22-17.69v-.43c0-11-9.06-17.47-22.22-17.47-9.28,0-17.04,3.24-24.16,7.55l-24.81-14.02,4.31-76.36h100.95v34.51h-67.95l-1.29,22.87c6.9-3.24,14.02-5.39,24.16-5.39,26.96,0,51.77,15.1,51.77,47.89v.43c0,33.44-25.67,53.71-62.34,53.71-26.75,0-45.3-9.28-61.05-23.94Z"></path><path class="n" d="M323.32,229.38v-.43c0-42.71,27.18-78.52,70.11-78.52s69.68,35.38,69.68,78.09v.43c0,42.71-26.96,78.52-70.11,78.52s-69.68-35.38-69.68-78.09ZM421.04,229.38v-.43c0-24.16-11.43-41.63-28.04-41.63s-27.61,17.04-27.61,41.2v.43c0,24.38,11.43,41.42,28.04,41.42s27.61-17.04,27.61-40.99Z"></path><path class="k" d="M48.8,168.55c-3.77-2.67-8.19-4.6-12.34-5.62v10.96c14.55,3.5,22,8.47,22,19.89v.18c0,11.33-8.75,18.14-21.73,19.33v9.02h-9.58v-9.12c-9.21-1.01-17.86-4.14-24.86-9.21l8.29-12.25c5.98,4.05,11.32,6.63,17.12,7.64v-11.14c-14.73-3.41-22.37-8.47-22.37-19.98v-.18c0-10.77,7.92-18.23,22-19.24v-5.34h9.58v5.52c7.64,1.01,13.81,3.41,19.43,7.09l-7.55,12.43ZM21.54,166.9c0,2.49,1.2,3.87,6.26,5.25v-9.94c-4.51.28-6.26,2.03-6.26,4.51v.18ZM42.54,194.98c0-2.49-1.38-3.87-6.17-5.25v10.13c4.14-.37,6.17-1.93,6.17-4.7v-.18Z"></path><path class="k" d="M72.66,262.22l56.52-43.14c14.02-11,19.63-17.9,19.63-27.18s-6.69-15.53-17.04-15.53-18.12,6.04-29.98,19.63l-28.26-23.51c16.18-20.71,32.36-32.36,61.48-32.36,32.79,0,55.65,19.63,55.65,48.1v.43c0,24.16-12.51,36.67-34.95,52.85l-25.89,18.12h62.34v34.08h-119.51v-31.49Z"></path><path class="k" d="M193.68,272.79l23.94-28.04c12.08,10.35,23.73,16.39,36.67,16.39,13.81,0,22-6.69,22-17.69v-.43c0-11-9.06-17.47-22.22-17.47-9.28,0-17.04,3.24-24.16,7.55l-24.81-14.02,4.31-76.36h100.95v34.51h-67.95l-1.29,22.87c6.9-3.24,14.02-5.39,24.16-5.39,26.96,0,51.77,15.1,51.77,47.89v.43c0,33.44-25.67,53.71-62.34,53.71-26.75,0-45.3-9.28-61.05-23.94Z"></path><path class="k" d="M323.32,218.65v-.43c0-42.71,27.18-78.52,70.11-78.52s69.68,35.38,69.68,78.09v.43c0,42.71-26.96,78.52-70.11,78.52s-69.68-35.38-69.68-78.09ZM421.04,218.65v-.43c0-24.16-11.43-41.63-28.04-41.63s-27.61,17.04-27.61,41.2v.43c0,24.38,11.43,41.42,28.04,41.42s27.61-17.04,27.61-40.99Z"></path></g></svg>