<?xml version="1.0" encoding="UTF-8"?><svg id="b" xmlns="http://www.w3.org/2000/svg" viewBox="0 0 95.28 34.49"><defs><style>.d{fill:#5f6062;}.e{fill:#f58025;}</style></defs><g id="c"><path class="e" d="M45.82,26.38c-2.89,0-5.03-.79-6.72-2.5l1.21-1.27c1.31,1.45,3.07,2.14,5.44,2.14,3.24,0,4.99-1.2,4.99-3.55,0-1.82-1-2.72-3.17-2.94l-2.75-.26c-3.34-.29-4.99-1.85-4.99-4.57,0-3.01,2.34-4.97,5.96-4.97,2.28,0,4.38.69,5.82,1.85l-1.17,1.23c-1.28-.98-2.83-1.49-4.65-1.49-2.72,0-4.23,1.23-4.23,3.37,0,1.81,1.03,2.72,3.38,2.94l2.69.25c2.75.25,4.86,1.16,4.86,4.57,0,3.19-2.58,5.18-6.65,5.18"/><path class="e" d="M74.41,26.16c-2.69,0-3.99-1.81-3.99-4.53V2.97h1.76v18.63c0,1.96.58,2.93,2.55,2.93h1.2v1.63h-1.52Z"/><path class="e" d="M78.31,8.69h1.76v17.47h-1.76V8.69ZM79.21,5.47c-.72,0-1.31-.61-1.31-1.34s.59-1.38,1.28-1.38,1.31.62,1.31,1.34c0,.76-.59,1.38-1.27,1.38"/><path class="e" d="M88.62,26.38c-2.9,0-5.04-.79-6.73-2.5l1.21-1.27c1.31,1.45,3.07,2.14,5.45,2.14,3.24,0,5-1.2,5-3.55,0-1.82-1-2.72-3.17-2.94l-2.76-.26c-3.35-.29-5-1.85-5-4.57,0-3.01,2.34-4.97,5.97-4.97,2.28,0,4.38.69,5.83,1.85l-1.17,1.23c-1.28-.98-2.83-1.49-4.66-1.49-2.73,0-4.24,1.23-4.24,3.37,0,1.81,1.03,2.72,3.38,2.94l2.69.25c2.76.25,4.86,1.16,4.86,4.57,0,3.19-2.58,5.18-6.65,5.18"/><path class="e" d="M64.67,11.58c-.94-.95-2.21-1.49-3.63-1.49s-2.68.54-3.63,1.49c-1.45,1.45-1.56,3.81-1.56,5.84s.11,4.39,1.56,5.84c.95.94,2.21,1.49,3.63,1.49s2.69-.54,3.63-1.49c1.45-1.45,1.56-3.81,1.56-5.84s-.11-4.39-1.56-5.84M65.91,24.46c-1.23,1.23-2.9,1.92-4.86,1.92s-3.63-.69-4.86-1.92c-1.85-1.85-2.18-4.53-2.18-7.04s.33-5.19,2.18-7.04c1.23-1.23,2.9-1.92,4.86-1.92s3.63.69,4.86,1.92c1.85,1.85,2.17,4.53,2.17,7.04s-.33,5.19-2.17,7.04"/><path class="d" d="M13.14,9.03c-1.76,0-3.61-1.53-5.01-2.69-.51-.42-1.2-.99-1.5-1.12-.26.09-.56.02-.74-.2-.24-.28-.2-.71.08-.95.76-.63,1.65.11,3.01,1.23,1.41,1.16,3.33,2.76,4.62,2.31.35-.12.73.06.85.41.12.35-.06.73-.41.85-.3.1-.6.15-.91.15"/><path class="d" d="M.68,15.18s-.08,0-.12-.01c-.36-.07-.61-.41-.54-.78.17-.97,1.34-.98,3.1-.99,1.83-.01,4.33-.03,5.03-1.2.19-.32.6-.42.92-.23.32.19.42.6.23.92-1.09,1.82-4.03,1.84-6.17,1.86-.66,0-1.55.01-1.87.1-.12.2-.34.33-.58.33"/><path class="d" d="M2.67,26.45c-.23,0-.46-.12-.58-.33-.49-.85.39-1.61,1.74-2.75,1.39-1.18,3.29-2.8,3.08-4.15-.06-.36.19-.71.56-.77.37-.06.71.19.77.56.33,2.1-1.9,4-3.53,5.39-.5.43-1.18,1.01-1.36,1.28.05.27-.07.55-.32.7-.11.06-.22.09-.34.09"/><path class="d" d="M11.44,33.82c-.08,0-.15-.01-.23-.04-.93-.34-.73-1.49-.44-3.22.3-1.8.72-4.26-.32-5.16-.28-.24-.31-.67-.07-.95.24-.28.66-.31.94-.07,1.6,1.39,1.11,4.29.76,6.4-.11.65-.26,1.53-.22,1.86.21.18.3.47.2.74-.1.27-.36.44-.63.44"/><path class="d" d="M22.78,33.84c-.74,0-1.29-.93-2.06-2.26-.92-1.57-2.19-3.73-3.56-3.75-.37,0-.66-.31-.66-.68,0-.37.3-.66.68-.66,2.12.03,3.61,2.57,4.69,4.41.34.57.79,1.34,1.03,1.57.27,0,.53.17.63.44.13.35-.05.73-.4.86-.12.05-.23.07-.35.07"/><path class="d" d="M31.32,26.61c-.58,0-1.36-.28-2.33-.62-1.72-.61-4.07-1.45-5.14-.59-.29.23-.71.19-.94-.1-.23-.29-.19-.71.1-.94,1.65-1.34,4.41-.35,6.43.37.63.22,1.46.52,1.79.54.21-.18.52-.21.76-.07.32.18.43.59.25.92-.21.35-.51.49-.92.49"/><path class="d" d="M26.77,19.78s-.09,0-.13-.01c-.36-.07-.6-.42-.53-.79.4-2.08,3.15-3.11,5.16-3.86.62-.23,1.45-.54,1.72-.74.05-.27.26-.49.54-.54.36-.06.71.18.78.54.17.97-.92,1.38-2.57,1.99-1.71.64-4.05,1.51-4.31,2.85-.06.32-.34.54-.66.54"/><path class="d" d="M25.61,13.21c-.23,0-.46-.12-.59-.35-1.03-1.85.42-4.41,1.48-6.27.33-.58.77-1.35.84-1.67-.14-.24-.12-.54.07-.76.24-.28.66-.32.94-.08.76.63.18,1.65-.69,3.18-.9,1.59-2.13,3.76-1.47,4.96.18.33.06.73-.26.91-.1.06-.21.08-.32.08"/><path class="d" d="M20.5,8.92c-.08,0-.16-.01-.24-.05-1.98-.76-2.51-3.64-2.9-5.75-.12-.65-.28-1.52-.43-1.82-.26-.1-.44-.34-.44-.63,0-.37.3-.67.67-.67.99,0,1.2,1.15,1.52,2.88.33,1.79.78,4.25,2.06,4.74.34.13.52.52.39.86-.1.27-.36.43-.63.43"/><path class="e" d="M8.72,13.21c-.11,0-.22-.03-.33-.08-.32-.18-.44-.59-.26-.91.67-1.2-.57-3.37-1.47-4.96-.87-1.53-1.45-2.55-.69-3.18.28-.24.71-.2.94.08.19.22.2.53.07.76.08.32.52,1.1.84,1.67,1.06,1.86,2.51,4.42,1.48,6.27-.12.22-.35.35-.59.35"/><path class="e" d="M7.56,19.78c-.31,0-.59-.22-.66-.54-.26-1.35-2.6-2.22-4.31-2.85C.94,15.77-.15,15.36.02,14.39c.07-.36.41-.61.78-.54.28.05.49.27.54.54.27.2,1.1.51,1.72.74,2.01.75,4.76,1.77,5.16,3.86.07.36-.17.71-.53.79-.04,0-.08.01-.13.01"/><path class="e" d="M3.01,26.61c-.41,0-.72-.14-.92-.49-.18-.32-.08-.73.25-.91.25-.15.55-.11.77.07.33-.02,1.17-.32,1.79-.54,2.02-.72,4.79-1.7,6.43-.37.29.23.33.65.1.94-.23.29-.66.33-.94.1-1.06-.86-3.42-.02-5.14.59-.97.34-1.75.62-2.33.62"/><path class="e" d="M11.56,33.84c-.11,0-.23-.02-.35-.07-.35-.13-.53-.51-.4-.86.1-.27.35-.44.63-.44.24-.23.69-1,1.03-1.57,1.08-1.85,2.57-4.38,4.69-4.41.36,0,.68.29.68.66,0,.37-.29.67-.66.68-1.37.02-2.64,2.18-3.56,3.75-.78,1.32-1.32,2.25-2.06,2.25"/><path class="e" d="M22.89,33.82c-.27,0-.53-.17-.63-.44-.1-.27-.01-.57.2-.74.04-.33-.11-1.2-.22-1.86-.35-2.11-.85-5.01.76-6.4.28-.24.7-.21.94.07.24.28.21.7-.07.95-1.03.9-.62,3.36-.32,5.16.29,1.74.49,2.89-.44,3.22-.08.03-.15.04-.23.04"/><path class="e" d="M31.67,26.45c-.11,0-.23-.03-.34-.09-.25-.15-.37-.43-.32-.7-.18-.27-.86-.85-1.36-1.28-1.63-1.39-3.87-3.29-3.53-5.39.06-.37.4-.62.77-.56.36.06.61.4.56.77-.21,1.35,1.69,2.97,3.08,4.15,1.34,1.14,2.23,1.9,1.74,2.75-.13.21-.35.33-.58.33"/><path class="e" d="M33.66,15.18c-.24,0-.46-.13-.58-.33-.32-.09-1.2-.1-1.87-.1-2.14-.01-5.08-.04-6.17-1.86-.19-.32-.09-.73.23-.92.32-.19.73-.09.92.23.7,1.17,3.2,1.19,5.03,1.2,1.77.01,2.93.02,3.1.99.07.36-.18.71-.54.78-.04,0-.08.01-.12.01"/><path class="e" d="M21.19,9.03c-.31,0-.61-.05-.91-.15-.35-.12-.54-.5-.41-.85.12-.35.5-.53.85-.41,1.29.45,3.22-1.15,4.63-2.31,1.36-1.12,2.26-1.87,3.01-1.23.28.24.32.66.08.94-.19.22-.48.29-.74.2-.3.13-.99.7-1.5,1.12-1.41,1.16-3.26,2.69-5.01,2.69"/><path class="e" d="M13.83,8.92c-.27,0-.52-.16-.63-.43-.13-.35.04-.73.39-.86,1.28-.49,1.73-2.95,2.06-4.74.32-1.73.53-2.88,1.52-2.88.37,0,.67.3.67.67,0,.29-.18.54-.44.63-.15.3-.31,1.17-.43,1.82-.39,2.11-.92,5-2.9,5.75-.08.03-.16.05-.24.05"/><path class="e" d="M13.14,26.13c.28,0,.55.04.81.13,1.82.69,2.33,3.47,2.7,5.5.14.77.33,1.81.53,2.03.2-.23.39-1.27.53-2.03.37-2.03.89-4.81,2.69-5.5.26-.09.53-.14.82-.14,1.63,0,3.38,1.45,4.79,2.62.63.52,1.4,1.16,1.71,1.22,0-.3-.52-1.22-.9-1.89-1.02-1.79-2.42-4.25-1.48-5.94,1-1.67,3.83-1.69,5.89-1.7.78,0,1.84-.01,2.1-.17-.19-.23-1.18-.6-1.91-.87-1.93-.72-4.58-1.71-4.95-3.6-.31-1.92,1.84-3.75,3.41-5.09.59-.51,1.39-1.18,1.5-1.47-.01,0-.04,0-.06,0-.38,0-1.15.27-1.96.56-1.27.45-2.84,1.01-4.18,1.01-.79,0-1.44-.2-1.92-.59-1.47-1.27-1-4.06-.65-6.09.13-.77.31-1.81.2-2.09-.26.15-.79,1.06-1.19,1.73-1.04,1.78-2.47,4.22-4.41,4.25-1.95-.03-3.38-2.47-4.42-4.25-.4-.67-.93-1.58-1.19-1.73-.11.28.07,1.32.2,2.09.34,2.03.82,4.82-.65,6.09-.49.4-1.14.6-1.93.6-1.34,0-2.92-.56-4.19-1.01-.81-.29-1.58-.56-1.96-.56-.03,0-.05,0-.07,0,.11.28.9.96,1.5,1.47,1.57,1.34,3.72,3.17,3.42,5.08-.37,1.91-3.02,2.89-4.95,3.61-.73.27-1.72.64-1.91.87.26.15,1.31.16,2.09.16,2.07.01,4.89.03,5.89,1.69.95,1.7-.45,4.16-1.47,5.95-.38.68-.9,1.59-.9,1.89.31-.06,1.09-.7,1.71-1.22,1.41-1.17,3.16-2.62,4.79-2.62M17.17,34.49h0c-.71,0-.9-1.04-1.18-2.6-.34-1.87-.82-4.44-2.27-5-.17-.06-.37-.09-.57-.09-1.39,0-3.04,1.37-4.36,2.46-1.06.88-1.69,1.38-2.18,1.38-.15,0-.29-.05-.4-.14-.54-.45-.02-1.37.77-2.76.94-1.65,2.23-3.92,1.47-5.29-.79-1.33-3.4-1.35-5.31-1.36-1.59-.01-2.65-.02-2.77-.71-.12-.7.86-1.06,2.36-1.62,1.78-.66,4.23-1.57,4.52-3.1.24-1.53-1.74-3.22-3.19-4.45-1.21-1.04-2.02-1.72-1.66-2.33.08-.15.27-.32.67-.32.5,0,1.24.26,2.18.6,1.22.43,2.74.97,3.96.97.64,0,1.13-.14,1.5-.44,1.17-1.01.73-3.59.41-5.46-.26-1.57-.44-2.61.22-2.85.07-.02.13-.04.2-.04.58,0,1.07.83,1.8,2.08.96,1.64,2.29,3.89,3.84,3.92,1.55-.02,2.87-2.27,3.83-3.92.73-1.25,1.22-2.08,1.8-2.08.07,0,.14.01.2.04.66.24.49,1.28.22,2.86-.32,1.88-.75,4.45.43,5.47.36.29.85.43,1.49.43,1.22,0,2.74-.54,3.96-.97.94-.33,1.68-.6,2.18-.6.4,0,.58.18.67.32.35.61-.45,1.3-1.66,2.33-1.45,1.24-3.44,2.92-3.19,4.46.29,1.52,2.74,2.43,4.52,3.09,1.5.56,2.49.92,2.36,1.62-.12.7-1.18.7-2.77.71-1.91.01-4.51.04-5.31,1.37-.75,1.35.54,3.62,1.48,5.27.79,1.39,1.31,2.3.77,2.76-.11.09-.25.14-.4.14-.49,0-1.12-.5-2.18-1.38-1.33-1.1-2.98-2.46-4.36-2.46-.21,0-.4.03-.59.09-1.44.55-1.92,3.12-2.26,4.99-.29,1.57-.48,2.6-1.19,2.6"/></g></svg>