<?xml version="1.0" encoding="UTF-8"?><svg id="b" xmlns="http://www.w3.org/2000/svg" viewBox="0 0 100.04 33.6"><defs><style>.d{fill:#7bba42;}.e{fill:#1ea84a;}</style></defs><g id="c"><path class="e" d="M6.63,28.52c-.32,1.83-2.05,3.31-3.85,3.31S-.26,30.35.05,28.52c.32-1.83,2.05-3.31,3.86-3.31s3.02,1.48,2.72,3.31"/><polygon class="e" points="20.33 33.16 23.05 19.09 17.65 19.09 14.94 33.16 20.33 33.16"/><path class="e" d="M23.95,14.78c-.26,1.52-1.69,2.74-3.18,2.74s-2.51-1.22-2.24-2.74c.27-1.51,1.69-2.73,3.18-2.73s2.51,1.22,2.25,2.73"/><path class="e" d="M35.44,18.69c-2.38.1-4.62,1.36-4.89,1.51l.21-1.11h-5.4l-2.72,14.07h5.39l1.84-9.53c1.24-1.28,2.69-1.43,3.91-1.21.89.16,1.03.77,1.01,1.21l-1.83,9.53h5.39l2.07-10.76.02-.1c.04-.21.05-.41.05-.6-.03-2.31-2.75-3.09-5.06-3.01"/><polygon class="e" points="44.99 24.04 48.4 20.56 49.57 14.55 44.17 14.55 40.55 33.16 45.94 33.16 47.28 26.28 44.99 24.04"/><polygon class="e" points="52.76 24.04 62.52 14.55 55.61 14.55 46.33 24.04 55.61 33.16 62.52 33.16 52.76 24.04"/><path class="e" d="M10.65,14.64s-1.54,7.91-2.29,11.64c-.58,2.91-1.46,6.16-4.96,6.38-.13.02-.27.02-.42.02-.99,0-1.94-.31-2.71-.85.73.89,1.87,1.4,3.13,1.62,2.29.42,5-.09,6.56-1.05,2.82-1.69,3.64-4.47,4.23-7.46.51-2.56,2.02-10.31,2.02-10.31h-5.57Z"/><path class="e" d="M69.62,28.64c-2.63,0-4.55-2.15-4.32-4.8.23-2.65,2.56-4.79,5.19-4.79s4.56,2.14,4.33,4.79c-.25,2.65-2.57,4.8-5.2,4.8M70.95,14.09c-5.35,0-10.08,4.36-10.57,9.75-.49,5.39,3.45,9.76,8.8,9.76s10.07-4.36,10.56-9.76c.49-5.39-3.45-9.75-8.79-9.75"/><path class="d" d="M73.05,8.8c-.16-.3-.4-.56-.72-.8-.32-.23-.67-.42-1.07-.57-.39-.14-.82-.25-1.24-.33-1.29-.19-2.49-.61-3.59-1.26-.1-.05-.21-.16-.31-.33-.11-.17-.17-.33-.17-.48,0-.56.1-1.13.28-1.69.19-.57.43-1.01.72-1.33.47-.54,1.32-1,2.54-1.39,1.22-.4,2.61-.6,4.13-.6.92,0,1.63.07,2.12.21.5.14.75.36.75.65,0,.48-.06.85-.2,1.12-.13.25-.27.44-.41.52-.15.09-.41.2-.79.35-.39.14-.75.29-1.04.44-.3.15-.55.3-.76.45-.21.14-.34.21-.39.21-.06,0-.09-.02-.09-.08,0-.11.12-.27.34-.49.22-.22.5-.42.83-.58.35-.18.53-.31.53-.35,0-.09-.2-.12-.59-.12-1.17,0-2.26.1-3.26.31-.99.21-1.79.49-2.36.84-.58.34-.86.69-.86,1.05,0,.22.11.38.35.48.24.09.76.25,1.58.46.81.22,1.54.47,2.18.75.92.4,1.6.82,2.05,1.24.45.43.67.91.67,1.44,0,.37-.09.74-.27,1.1-.17.37-.43.71-.77,1.01-.34.31-.73.56-1.16.76-.38.16-.86.31-1.42.45-.57.14-1.18.25-1.84.33-.67.08-1.3.12-1.91.12-1.11,0-2-.11-2.68-.32-.68-.21-1.02-.53-1.02-.96,0-.2.12-.49.34-.9.23-.41.5-.68.82-.83.27-.11.54-.17.79-.19.25-.02.39.02.39.09,0,.02-.02.04-.04.06-.02.02-.04.04-.07.05-.02.01-.04.02-.07.03-.12.06-.23.09-.31.13-.08.02-.15.05-.19.08-.05.03-.07.07-.07.12,0,.13.66.2,1.97.2,1.15,0,2.09-.04,2.81-.13.73-.09,1.39-.24,1.94-.46.55-.22,1.07-.52,1.53-.9"/><path class="d" d="M79.96,6c-.52.32-.98.61-1.35.87-.38.27-.69.53-.96.79-.26.27-.43.53-.52.8-.16.72-.23,1.1-.23,1.16,0,.43.29.64.88.64.28,0,.73-.24,1.37-.71-.11-.3-.16-.59-.16-.87,0-.4.08-.81.25-1.23.16-.42.41-.9.73-1.45M81.93,8.53v.64c-.42.39-.76.64-1.01.77-.26.13-.62.18-1.1.16-.83.98-1.55,1.48-2.18,1.48-.36,0-.68-.12-.97-.36-.3-.23-.54-.55-.71-.97-.17-.42-.26-.87-.26-1.38,0-.42.13-.87.4-1.37.27-.5.62-.97,1.05-1.4.43-.43.9-.78,1.38-1.05.49-.27.94-.4,1.36-.4.29,0,.54.05.71.14.18.1.25.22.25.39,0,.13-.07.27-.21.44.24.04.4.14.49.26.09.12.13.34.13.65s-.07.7-.22,1.16c-.14.47-.33.91-.58,1.32l.17.18h.14c.11,0,.22-.03.32-.09.1-.05.19-.11.28-.18.09-.06.27-.19.54-.41"/><path class="d" d="M83.61,6.71c.34-.33.65-.7.96-1.12.31-.42.61-.86.88-1.33.27-.47.49-.9.65-1.28.16-.38.23-.66.23-.86,0-.14-.05-.22-.15-.22-.04,0-.12.04-.22.11-.38.32-.82.94-1.3,1.88-.48.93-.83,1.87-1.03,2.82M86.46,8.44v.71c-1.33,1.78-2.41,2.66-3.24,2.66-.45,0-.81-.25-1.07-.74-.26-.5-.38-1.15-.38-1.96,0-.66.15-1.43.45-2.34.31-.9.72-1.81,1.22-2.73.52-.93,1.05-1.73,1.6-2.42.55-.69,1.05-1.17,1.52-1.44.19-.12.34-.18.45-.18.15,0,.23.06.28.18.04.12.06.32.06.61,0,.89-.36,1.99-1.08,3.29-.72,1.29-1.72,2.61-3,3.97-.07.33-.09.59-.09.77,0,.41.09.75.26,1,.18.26.42.38.73.38.16,0,.33-.06.51-.18.19-.13.38-.29.58-.47.21-.18.6-.56,1.19-1.11"/><path class="d" d="M92.06,5.77c-1.65.76-2.83,1.4-3.53,1.94-.7.53-1.05,1.08-1.05,1.64,0,.21.03.38.11.51.08.14.16.2.28.2.07,0,.19-.04.38-.13.66-.4,1.27-.91,1.82-1.55.55-.64,1.22-1.51,1.99-2.6M87.49,6.83c.98-.88,1.91-1.54,2.82-1.97.91-.43,1.61-.64,2.11-.64.13,0,.25.06.37.17.11.11.2.24.27.39.06.15.1.26.1.33,0,.12-.04.2-.13.26-.09.05-.25.12-.47.19.04.11.1.24.18.4.07.16.12.29.16.39.04.1.05.19.05.27,0,.15-.15.44-.46.86-.31.42-.52.73-.65.93-.13.2-.19.45-.19.73,0,.47.22.71.65.71s1.14-.43,2.09-1.26v.59c-1.6,1.8-2.76,2.7-3.45,2.7-.25,0-.43-.08-.53-.25-.11-.16-.16-.4-.16-.72,0-.51.18-1.24.54-2.2-.93,1.04-1.62,1.78-2.07,2.21-.46.44-.82.66-1.12.66-.13,0-.31-.12-.52-.37-.21-.24-.4-.56-.55-.95-.16-.38-.24-.78-.24-1.2,0-.3.03-.55.09-.76.05-.2.16-.41.32-.62.17-.21.43-.49.79-.84"/><path class="d" d="M94.21,9.29v-.63c.34-.41.6-.76.78-1.05-.2-.07-.35-.15-.45-.26-.08-.1-.14-.26-.14-.46,0-.23.1-.52.29-.87.18-.36.43-.68.7-.99.28-.31.54-.51.77-.6.08-.04.17-.06.25-.06.13,0,.19.06.19.18,0,.11-.1.33-.3.67,1.31-.21,2.14-.31,2.48-.31.14,0,.23.01.28.04.12.06.2.19.27.39.07.22.11.43.11.64,0,.13-.07.28-.18.43-.12.16-.32.39-.6.69-.34.37-.63.76-.85,1.19-.23.43-.35.75-.35.97,0,.3.18.45.55.45.39,0,1.07-.4,2.03-1.19v.64c-.53.56-.96,1-1.3,1.32-.35.32-.67.57-.96.77-.3.19-.56.28-.78.28-.27,0-.49-.12-.67-.37-.18-.25-.27-.6-.27-1.07,0-.28.07-.59.21-.94.14-.35.35-.73.62-1.15.27-.42.58-.83.91-1.24-.18.04-.38.08-.6.12-.22.05-.46.09-.7.13-.25.05-.44.08-.57.11-.4.79-.96,1.51-1.72,2.16"/></g></svg>