<?xml version="1.0" encoding="UTF-8"?> <svg xmlns="http://www.w3.org/2000/svg" xmlns:xlink="http://www.w3.org/1999/xlink" viewBox="0 0 623.32 189.35"><defs><style>.cls-1{fill:#000;}.cls-2{clip-path:url(#clip-path);}</style><clipPath id="clip-path" transform="translate(10.44 5.95)"><path class="cls-1" d="M70.07,170c.27.46,1.52,1.23,3.7,1.9.87.26,1.53.4,2.07.52,1.26.2,1.6.26,2.67.4a7.23,7.23,0,0,1-2.35-1,24.75,24.75,0,0,0-3-1.57,9.57,9.57,0,0,0-2.22-.65c-.83-.11-1,.17-.86.45M80,171.39a.71.71,0,0,0,0,.21c.75,2.55,5.49,1.15,6.34-.42a1.23,1.23,0,0,0-.35-1.6,3.83,3.83,0,0,0-1.85-.71c-2.15-.26-4.42,1-4.18,2.52M54.51,163c.17.77,1.78,2.31,5,4.06,3.59,1.94,8,3.4,8.66,3.3,0,0,0-.07,0-.11a57.91,57.91,0,0,0-9.55-6.71,10.86,10.86,0,0,0-3.13-1.13c-1.1-.14-1,.48-1,.59m38.29,8c-2.65,1.66-2.38,1.75-2.17,1.82,1.11.36,12.33-1.57,12.8-4.52-.09-.37-.48-.6-1.11-.68-1.75-.22-5.35.76-9.52,3.38M68,164.29a5.36,5.36,0,0,0,1,1.71c2.89,3.58,8.95,5.51,9.33,1.21.08-1-.2-3-3.08-4.87a9.84,9.84,0,0,0-3.46-1.19c-2.7-.33-4.42,1-3.76,3.14m52.47.83c-2.09.28-5.32,1.66-11.76,4.4-1.8.77-3.8,1.09-5.41,2.31.53.53,14.06-2.58,17.91-6.05.15-.18.51-.61-.08-.69a3.28,3.28,0,0,0-.66,0m-33.09-.2c-.92,4.17,3.59,5.3,8.62,2.17.55-.34,5.25-3.4,2.75-6.38A5.25,5.25,0,0,0,96,159.56c-3.5-.43-7.85,1.91-8.62,5.36M36.6,152.63c.33,1.06,2.21,3.27,5.65,5.84,4.45,3.33,10.13,6.12,9.89,5.12-.16-.68-6.24-6.81-11.53-10.29a9.82,9.82,0,0,0-3.3-1.51c-.94-.12-.78.62-.71.84m13.43.49a8.82,8.82,0,0,0,2,3.65c3.72,4.46,11,8.14,11.39,3.78.13-1.62-.93-5.59-5.94-9A11.37,11.37,0,0,0,53.3,150c-2.56-.31-3.69,1.23-3.27,3.15M109.5,163c-.66.7-3.8,4.2-.8,4.24,4,.06,14.91-5.43,14.45-9.37a1.87,1.87,0,0,0-1.63-1c-2.82-.34-8.37,2.29-12,6.17m-36.33-7.71c1.52,6.17,10.62,8.64,14.07,2.29.7-1.29,1.92-4.64-2-7.76a10.32,10.32,0,0,0-4.33-1.62c-4.84-.59-8.82,2.87-7.77,7.09M20.1,138.91c.14,1.06,2.28,4.24,6,8,3.9,4,8.24,7.32,8.76,7,.08-.9-7.74-9.94-11.77-13.63a7.69,7.69,0,0,0-2.66-1.81c-.25,0-.36.12-.31.44m121.05,13.82c-2.34.94-6.34,3.54-10.7,7-5.67,4.44-4.88,4.55-4.58,4.59,1.67.25,14.15-6.24,17.12-11,.27-.59.19-.92-.22-1a3.84,3.84,0,0,0-1.62.39M30.57,139.14a13.63,13.63,0,0,0,2.55,5.29c3.82,5.24,11.15,10.19,11.65,5.86.24-2.09-1.69-7.87-7.44-12.41a10,10,0,0,0-4.21-2c-2.14-.26-2.86,1.38-2.55,3.22m70.78,14.11c-1.51,5,2.76,8.14,9.37,4.53,3.91-2.15,8.34-7.06,5.43-10.81a5.8,5.8,0,0,0-3.29-1.48c-4.48-.55-10.15,3.21-11.51,7.76M52.83,140.84a11.18,11.18,0,0,0,.48,1.59c2.78,7.11,12.63,10.94,15.68,4.41.28-.6,2.55-6-4.17-11.05a12.55,12.55,0,0,0-5.16-2c-4.62-.57-7.72,2.57-6.83,7m76.48,9c-2.35,3.6-2.75,7,1.15,6.1,5.19-1.15,14.16-8.84,13.2-13.49a2.25,2.25,0,0,0-1.87-1.32c-3.25-.4-9.29,3.83-12.48,8.71M85,140.36c.2,7.4,10.08,11.17,16.2,4.15,2-2.29,4.18-7.26-.37-11.36a10.17,10.17,0,0,0-4.66-1.83c-5.74-.71-11.31,3.7-11.17,9M13.49,122a18.39,18.39,0,0,0,2.6,7.62c3.37,6.05,8.93,11.08,9.65,7.77.48-2.21-1.94-10-7.16-15.56-1.56-1.49-2.64-2.08-3.39-2.17-1.73-.21-1.71,2.19-1.7,2.34m147.39,12.68c-1.66.75-5.74,4.88-9.7,9.83-1.27,1.59-5.29,6.74-3.76,6.4,2-.45,11.39-9.68,14-15.18.14-.4.41-1.12,0-1.17a1,1,0,0,0-.51.12M31.74,124.17a15.21,15.21,0,0,0,.72,2.78c2.8,7.51,11.55,12.5,14.57,6.61,1.42-2.75,1.43-9.07-4.58-14.32a10.71,10.71,0,0,0-5-2.23c-3.88-.48-6.35,2.62-5.73,7.16m87.48,12.93c-1.79,6.77,3.55,10,10,6.13,4.76-2.87,9.33-9.72,5.93-14.34a5.94,5.94,0,0,0-3.5-1.68c-4.86-.6-10.93,4.19-12.45,9.89m-56.6-12.5c1.5,9.36,14.26,12.81,19.24,5.2,1.72-2.62,3-8.34-2.85-13.14a13.54,13.54,0,0,0-5.88-2.28c-6.39-.79-11.49,4-10.51,10.22M2.68,102.51c-.35,1.53.56,6,2.14,10.59C7,119.31,9.66,124,10.28,122.62s-1.94-12-5.26-18.41c-.36-.63-1.25-2.21-1.85-2.28-.21,0-.39.13-.49.58M148.93,132c-2.43,5.7-1.32,9.08,2.43,7.38,4.6-2.08,11.51-11.36,10.2-16.82a2.23,2.23,0,0,0-1.8-1.49c-3-.37-8.28,5-10.83,10.93m-47.59-10.36c-.35,8.61,9.49,12.39,16.21,6.22,3.53-3.23,6.19-10,1.06-15a9.93,9.93,0,0,0-4.86-2c-6.09-.75-12.14,4.47-12.41,10.85M13.9,105.44a17.68,17.68,0,0,0,.58,4.09c2.11,8.2,8.47,13,11.35,8.55,2-3.16,1.81-11.24-3.22-17.19a7.28,7.28,0,0,0-4.06-2.39c-2.84-.35-4.73,2.62-4.65,6.94M40,106.67c1.35,9.48,11.75,14,17.12,7.53C59.64,111.1,61.27,104,54.82,98a11.25,11.25,0,0,0-5.46-2.4c-5.77-.71-10.33,4.5-9.38,11.09M137.63,117c-1.26,7.73,3.84,11.69,9.76,7.58,4.61-3.21,8.9-11.83,4.86-17.52a5.63,5.63,0,0,0-3.43-1.81c-4.69-.58-10.1,5.13-11.19,11.75M78.14,103.82a11.2,11.2,0,1,0,18.27-9.23,12.39,12.39,0,0,0-5.74-2.34,11.23,11.23,0,0,0-12.53,11.57M3.57,82.61A24.39,24.39,0,0,0,3,90.92c.61,7.86,3.86,13.08,6.2,10,2.09-2.76,2.8-12.56-.26-19.43C8,79.82,7.19,79.12,6.46,79,5.06,78.86,4,81,3.57,82.61m17.81,3.62c0,.33,0,.78,0,1.11.23,9,7.44,14.36,12.64,9.41C38,93,39,84,34.4,78.11a7.6,7.6,0,0,0-4.49-2.49c-4.39-.54-8.26,4.23-8.53,10.61M119,99.7c-.12,9.47,9.07,13.88,15.6,7.48,4.43-4.33,5.69-12.47.53-17.69a9,9,0,0,0-4.58-2c-5.89-.73-11.46,5.22-11.55,12.23M54.2,84.17c0,10.35,11.83,15.41,18.85,8.08a11.85,11.85,0,0,0-1-17.19,12.41,12.41,0,0,0-5.82-2.43c-6.46-.79-12.06,4.58-12,11.54M.28,75.9a1.1,1.1,0,0,1,0-.18c0,.29,0,.58-.08.87ZM1.93,65.22c-.21,1.18-.44,2.5-.67,3.86.21-1.36.44-2.68.67-3.86-.45,2.09-.84,4.34-1.17,6.7C.62,72.91.5,73.86.4,74.8c-.05.38-.09.75-.12,1.1l-.06.69-.09,1c-.33,4.78,0,5.2.22,5.38C1.77,82.39,4,68.4,4.08,62.36c0-1.39-.06-1.94-.32-2.22-.29.11-.76.29-1.83,5.08M95.88,80.74c.3,9.77,11.25,14.75,18,8.19a12,12,0,0,0-.85-17.68,11.73,11.73,0,0,0-5.3-2.13c-6.45-.79-12.09,4.76-11.88,11.62M10.56,65.58c-.17.63-.35,1.5-.46,2.15-1.31,8,2.15,13.54,6.51,10.31,3.78-2.8,7.26-12.48,4.41-19.12a4,4,0,0,0-2.88-2.33c-2.94-.37-6.24,4-7.58,9m24.94-1c-1.27,8.94,6.45,14.3,13.31,9.26,5.1-3.75,7.32-12.11,2.65-17.69a8.18,8.18,0,0,0-4.67-2.37c-5.33-.65-10.46,4.9-11.29,10.8m36.67-2.79C71.79,71,83.11,76.18,90.25,70.08A10.82,10.82,0,0,0,90,53.38a11.61,11.61,0,0,0-5.27-2.09A11.34,11.34,0,0,0,72.17,61.83M13.57,40.65a29.72,29.72,0,0,0-5.42,9c-2.49,6.1-2.72,11-.48,10.17,2.9-1,8.53-11.77,8.91-18.33,0-1.43-.4-2-.91-2.06s-1.38.52-2.1,1.22M24.7,46.51C22,53.72,25.53,58.83,31.26,56c5.3-2.67,9.84-11.41,7.4-17.06a4,4,0,0,0-3-2.08c-3.83-.48-9,4.52-11,9.7m29-2.47C51.77,52,59.71,57,67,52.38c5.25-3.3,7.71-10.75,3.15-15.77a7.81,7.81,0,0,0-4.25-2C60.59,34,55,38.89,53.72,44M22.44,24.94c-5.43,6.59-6.27,7.6-8.35,11-1.18,2-2.81,4.63-3.9,6.67l-.07.16c.32-.26.34-.28,11.44-16.32.68-1,.87-1.26,1-1.57l-.16.1m4.09,1.57a31.37,31.37,0,0,0-3.41,4c-3.67,5.2-4.06,9.52-.8,8.9C26.7,38.58,34.26,29.27,35,23.86c0-1.17-.44-1.68-1.13-1.77-1.82-.22-5.38,2.54-7.29,4.42m17.26,1.7c-3.31,5.74-.48,10.25,5.32,8.46,6.35-2,11.43-10,9.37-14.75a3.53,3.53,0,0,0-2.68-1.68c-3.8-.47-9.54,3.68-12,8m-13.19-11c-4.64,4.09-7.11,7.47-5.88,7.38,2-.15,12.48-9.58,15.53-12.92.63-.74.78-1,.76-1.24a.22.22,0,0,0-.13-.05c-1-.12-5.77,2.86-10.28,6.83m14-3.47c-.46.37-1.07.89-1.51,1.29-4.45,4.12-4.67,7.29-1.89,7.28,4.68,0,13.68-8,14.95-12.29.11-.84-.27-1.25-1-1.33C53,8.39,47.72,11.23,44.6,13.71M51,4.91C46.05,7.49,43.3,10,44.49,10.32c2.43.56,17.93-8.87,18.08-9,.62-.43.7-.5.82-.71a.39.39,0,0,0-.25-.09C61.77.38,55.73,2.4,51,4.91"></path></clipPath></defs><g id="Layer_2" data-name="Layer 2"><g id="Layer_1-2" data-name="Layer 1"><path class="cls-1" d="M175.39,47.71v29c0,24.53,25.19,23.22,25.19,23.22h115.6V77H207.66a7,7,0,0,1-7.41-6.76V61.87H315.69V38.05H200.25v-8.4a7,7,0,0,1,7.41-6.75H316.19V0H200.58S175.39-1.3,175.39,23.23V47.71Z" transform="translate(10.44 5.95)"></path><path class="cls-1" d="M348.26,99.9v-38H463.69V38.05H348.26v-8.4a7,7,0,0,1,7.41-6.75H464.2V0H348.59S323.4-1.3,323.4,23.23V100Z" transform="translate(10.44 5.95)"></path><path class="cls-1" d="M612.82,61l.06,16.73c0,23.18-26.55,22.13-26.55,22.13H472.11V76.54H583.3c5.77,0,5.21-4,5.21-4V65.86c0-4.83-5.3-4.41-5.3-4.41H497.29s-28.87,1.85-28.87-21.6l0-15.16C468.4-.93,493.5,0,493.5,0H609.32V22.9H498.41c-6.19,0-5.24,5.31-5.24,5.31v5.07s-.95,4.93,5.66,4.93H588s24.55-.85,24.79,22.82" transform="translate(10.44 5.95)"></path><path class="cls-1" d="M70.07,170c.27.46,1.52,1.23,3.7,1.9.87.26,1.53.4,2.07.52,1.26.2,1.6.26,2.67.4a7.23,7.23,0,0,1-2.35-1,24.75,24.75,0,0,0-3-1.57,9.57,9.57,0,0,0-2.22-.65c-.83-.11-1,.17-.86.45M80,171.39a.71.71,0,0,0,0,.21c.75,2.55,5.49,1.15,6.34-.42a1.23,1.23,0,0,0-.35-1.6,3.83,3.83,0,0,0-1.85-.71c-2.15-.26-4.42,1-4.18,2.52M54.51,163c.17.77,1.78,2.31,5,4.06,3.59,1.94,8,3.4,8.66,3.3,0,0,0-.07,0-.11a57.91,57.91,0,0,0-9.55-6.71,10.86,10.86,0,0,0-3.13-1.13c-1.1-.14-1,.48-1,.59m38.29,8c-2.65,1.66-2.38,1.75-2.17,1.82,1.11.36,12.33-1.57,12.8-4.52-.09-.37-.48-.6-1.11-.68-1.75-.22-5.35.76-9.52,3.38M68,164.29a5.36,5.36,0,0,0,1,1.71c2.89,3.58,8.95,5.51,9.33,1.21.08-1-.2-3-3.08-4.87a9.84,9.84,0,0,0-3.46-1.19c-2.7-.33-4.42,1-3.76,3.14m52.47.83c-2.09.28-5.32,1.66-11.76,4.4-1.8.77-3.8,1.09-5.41,2.31.53.53,14.06-2.58,17.91-6.05.15-.18.51-.61-.08-.69a3.28,3.28,0,0,0-.66,0m-33.09-.2c-.92,4.17,3.59,5.3,8.62,2.17.55-.34,5.25-3.4,2.75-6.38A5.25,5.25,0,0,0,96,159.56c-3.5-.43-7.85,1.91-8.62,5.36M36.6,152.63c.33,1.06,2.21,3.27,5.65,5.84,4.45,3.33,10.13,6.12,9.89,5.12-.16-.68-6.24-6.81-11.53-10.29a9.82,9.82,0,0,0-3.3-1.51c-.94-.12-.78.62-.71.84m13.43.49a8.82,8.82,0,0,0,2,3.65c3.72,4.46,11,8.14,11.39,3.78.13-1.62-.93-5.59-5.94-9A11.37,11.37,0,0,0,53.3,150c-2.56-.31-3.69,1.23-3.27,3.15M109.5,163c-.66.7-3.8,4.2-.8,4.24,4,.06,14.91-5.43,14.45-9.37a1.87,1.87,0,0,0-1.63-1c-2.82-.34-8.37,2.29-12,6.17m-36.33-7.71c1.52,6.17,10.62,8.64,14.07,2.29.7-1.29,1.92-4.64-2-7.76a10.32,10.32,0,0,0-4.33-1.62c-4.84-.59-8.82,2.87-7.77,7.09M20.1,138.91c.14,1.06,2.28,4.24,6,8,3.9,4,8.24,7.32,8.76,7,.08-.9-7.74-9.94-11.77-13.63a7.69,7.69,0,0,0-2.66-1.81c-.25,0-.36.12-.31.44m121.05,13.82c-2.34.94-6.34,3.54-10.7,7-5.67,4.44-4.88,4.55-4.58,4.59,1.67.25,14.15-6.24,17.12-11,.27-.59.19-.92-.22-1a3.84,3.84,0,0,0-1.62.39M30.57,139.14a13.63,13.63,0,0,0,2.55,5.29c3.82,5.24,11.15,10.19,11.65,5.86.24-2.09-1.69-7.87-7.44-12.41a10,10,0,0,0-4.21-2c-2.14-.26-2.86,1.38-2.55,3.22m70.78,14.11c-1.51,5,2.76,8.14,9.37,4.53,3.91-2.15,8.34-7.06,5.43-10.81a5.8,5.8,0,0,0-3.29-1.48c-4.48-.55-10.15,3.21-11.51,7.76M52.83,140.84a11.18,11.18,0,0,0,.48,1.59c2.78,7.11,12.63,10.94,15.68,4.41.28-.6,2.55-6-4.17-11.05a12.55,12.55,0,0,0-5.16-2c-4.62-.57-7.72,2.57-6.83,7m76.48,9c-2.35,3.6-2.75,7,1.15,6.1,5.19-1.15,14.16-8.84,13.2-13.49a2.25,2.25,0,0,0-1.87-1.32c-3.25-.4-9.29,3.83-12.48,8.71M85,140.36c.2,7.4,10.08,11.17,16.2,4.15,2-2.29,4.18-7.26-.37-11.36a10.17,10.17,0,0,0-4.66-1.83c-5.74-.71-11.31,3.7-11.17,9M13.49,122a18.39,18.39,0,0,0,2.6,7.62c3.37,6.05,8.93,11.08,9.65,7.77.48-2.21-1.94-10-7.16-15.56-1.56-1.49-2.64-2.08-3.39-2.17-1.73-.21-1.71,2.19-1.7,2.34m147.39,12.68c-1.66.75-5.74,4.88-9.7,9.83-1.27,1.59-5.29,6.74-3.76,6.4,2-.45,11.39-9.68,14-15.18.14-.4.41-1.12,0-1.17a1,1,0,0,0-.51.12M31.74,124.17a15.21,15.21,0,0,0,.72,2.78c2.8,7.51,11.55,12.5,14.57,6.61,1.42-2.75,1.43-9.07-4.58-14.32a10.71,10.71,0,0,0-5-2.23c-3.88-.48-6.35,2.62-5.73,7.16m87.48,12.93c-1.79,6.77,3.55,10,10,6.13,4.76-2.87,9.33-9.72,5.93-14.34a5.94,5.94,0,0,0-3.5-1.68c-4.86-.6-10.93,4.19-12.45,9.89m-56.6-12.5c1.5,9.36,14.26,12.81,19.24,5.2,1.72-2.62,3-8.34-2.85-13.14a13.54,13.54,0,0,0-5.88-2.28c-6.39-.79-11.49,4-10.51,10.22M2.68,102.51c-.35,1.53.56,6,2.14,10.59C7,119.31,9.66,124,10.28,122.62s-1.94-12-5.26-18.41c-.36-.63-1.25-2.21-1.85-2.28-.21,0-.39.13-.49.58M148.93,132c-2.43,5.7-1.32,9.08,2.43,7.38,4.6-2.08,11.51-11.36,10.2-16.82a2.23,2.23,0,0,0-1.8-1.49c-3-.37-8.28,5-10.83,10.93m-47.59-10.36c-.35,8.61,9.49,12.39,16.21,6.22,3.53-3.23,6.19-10,1.06-15a9.93,9.93,0,0,0-4.86-2c-6.09-.75-12.14,4.47-12.41,10.85M13.9,105.44a17.68,17.68,0,0,0,.58,4.09c2.11,8.2,8.47,13,11.35,8.55,2-3.16,1.81-11.24-3.22-17.19a7.28,7.28,0,0,0-4.06-2.39c-2.84-.35-4.73,2.62-4.65,6.94M40,106.67c1.35,9.48,11.75,14,17.12,7.53C59.64,111.1,61.27,104,54.82,98a11.25,11.25,0,0,0-5.46-2.4c-5.77-.71-10.33,4.5-9.38,11.09M137.63,117c-1.26,7.73,3.84,11.69,9.76,7.58,4.61-3.21,8.9-11.83,4.86-17.52a5.63,5.63,0,0,0-3.43-1.81c-4.69-.58-10.1,5.13-11.19,11.75M78.14,103.82a11.2,11.2,0,1,0,18.27-9.23,12.39,12.39,0,0,0-5.74-2.34,11.23,11.23,0,0,0-12.53,11.57M3.57,82.61A24.39,24.39,0,0,0,3,90.92c.61,7.86,3.86,13.08,6.2,10,2.09-2.76,2.8-12.56-.26-19.43C8,79.82,7.19,79.12,6.46,79,5.06,78.86,4,81,3.57,82.61m17.81,3.62c0,.33,0,.78,0,1.11.23,9,7.44,14.36,12.64,9.41C38,93,39,84,34.4,78.11a7.6,7.6,0,0,0-4.49-2.49c-4.39-.54-8.26,4.23-8.53,10.61M119,99.7c-.12,9.47,9.07,13.88,15.6,7.48,4.43-4.33,5.69-12.47.53-17.69a9,9,0,0,0-4.58-2c-5.89-.73-11.46,5.22-11.55,12.23M54.2,84.17c0,10.35,11.83,15.41,18.85,8.08a11.85,11.85,0,0,0-1-17.19,12.41,12.41,0,0,0-5.82-2.43c-6.46-.79-12.06,4.58-12,11.54M.28,75.9a1.1,1.1,0,0,1,0-.18c0,.29,0,.58-.08.87ZM1.93,65.22c-.21,1.18-.44,2.5-.67,3.86.21-1.36.44-2.68.67-3.86-.45,2.09-.84,4.34-1.17,6.7C.62,72.91.5,73.86.4,74.8c-.05.38-.09.75-.12,1.1l-.06.69-.09,1c-.33,4.78,0,5.2.22,5.38C1.77,82.39,4,68.4,4.08,62.36c0-1.39-.06-1.94-.32-2.22-.29.11-.76.29-1.83,5.08M95.88,80.74c.3,9.77,11.25,14.75,18,8.19a12,12,0,0,0-.85-17.68,11.73,11.73,0,0,0-5.3-2.13c-6.45-.79-12.09,4.76-11.88,11.62M10.56,65.58c-.17.63-.35,1.5-.46,2.15-1.31,8,2.15,13.54,6.51,10.31,3.78-2.8,7.26-12.48,4.41-19.12a4,4,0,0,0-2.88-2.33c-2.94-.37-6.24,4-7.58,9m24.94-1c-1.27,8.94,6.45,14.3,13.31,9.26,5.1-3.75,7.32-12.11,2.65-17.69a8.18,8.18,0,0,0-4.67-2.37c-5.33-.65-10.46,4.9-11.29,10.8m36.67-2.79C71.79,71,83.11,76.18,90.25,70.08A10.82,10.82,0,0,0,90,53.38a11.61,11.61,0,0,0-5.27-2.09A11.34,11.34,0,0,0,72.17,61.83M13.57,40.65a29.72,29.72,0,0,0-5.42,9c-2.49,6.1-2.72,11-.48,10.17,2.9-1,8.53-11.77,8.91-18.33,0-1.43-.4-2-.91-2.06s-1.38.52-2.1,1.22M24.7,46.51C22,53.72,25.53,58.83,31.26,56c5.3-2.67,9.84-11.41,7.4-17.06a4,4,0,0,0-3-2.08c-3.83-.48-9,4.52-11,9.7m29-2.47C51.77,52,59.71,57,67,52.38c5.25-3.3,7.71-10.75,3.15-15.77a7.81,7.81,0,0,0-4.25-2C60.59,34,55,38.89,53.72,44M22.44,24.94c-5.43,6.59-6.27,7.6-8.35,11-1.18,2-2.81,4.63-3.9,6.67l-.07.16c.32-.26.34-.28,11.44-16.32.68-1,.87-1.26,1-1.57l-.16.1m4.09,1.57a31.37,31.37,0,0,0-3.41,4c-3.67,5.2-4.06,9.52-.8,8.9C26.7,38.58,34.26,29.27,35,23.86c0-1.17-.44-1.68-1.13-1.77-1.82-.22-5.38,2.54-7.29,4.42m17.26,1.7c-3.31,5.74-.48,10.25,5.32,8.46,6.35-2,11.43-10,9.37-14.75a3.53,3.53,0,0,0-2.68-1.68c-3.8-.47-9.54,3.68-12,8m-13.19-11c-4.64,4.09-7.11,7.47-5.88,7.38,2-.15,12.48-9.58,15.53-12.92.63-.74.78-1,.76-1.24a.22.22,0,0,0-.13-.05c-1-.12-5.77,2.86-10.28,6.83m14-3.47c-.46.37-1.07.89-1.51,1.29-4.45,4.12-4.67,7.29-1.89,7.28,4.68,0,13.68-8,14.95-12.29.11-.84-.27-1.25-1-1.33C53,8.39,47.72,11.23,44.6,13.71M51,4.91C46.05,7.49,43.3,10,44.49,10.32c2.43.56,17.93-8.87,18.08-9,.62-.43.7-.5.82-.71a.39.39,0,0,0-.25-.09C61.77.38,55.73,2.4,51,4.91" transform="translate(10.44 5.95)"></path><g class="cls-2"><rect class="cls-1" x="-1.9" y="4.85" width="170.16" height="167.76" transform="translate(-4.58 166.42) rotate(-83)"></rect></g><path class="cls-1" d="M242.78,125.67v11H190.47c-1.81,0-2.72.58-2.72,1.72v3.67c0,1.15.91,1.72,2.72,1.72H230q14.22,0,14.22,11.32v6.45q0,11.49-14.28,11.49h-52.3V162H230c1.78,0,2.67-.56,2.67-1.66v-3.85c0-1.15-.89-1.72-2.67-1.72H190.41q-14.26,0-14.27-10.13v-7.46q0-11.55,14.33-11.55Z" transform="translate(10.44 5.95)"></path><path class="cls-1" d="M284.06,173.05q-17.82,0-17.83-15V140.77q0-15.11,17.83-15.1h36.61q17.82,0,17.83,15.1V158q0,15-17.83,15Zm0-36.37c-4.14,0-6.22,1.37-6.22,4.09V158c0,2.68,2.08,4,6.22,4h36.61c4.15,0,6.22-1.35,6.22-4V140.77c0-2.72-2.07-4.09-6.22-4.09Z" transform="translate(10.44 5.95)"></path><path class="cls-1" d="M374.93,173.05q-14.28,0-14.28-11.49V125.67h11.61v34.12q0,2.25,2.67,2.25h51.65v11Z" transform="translate(10.44 5.95)"></path><path class="cls-1" d="M501.63,163.75H463.19l-5.22,9.3H444.59l24.82-43.36A11.61,11.61,0,0,1,470.5,128a5.44,5.44,0,0,1,1.33-1.25,6.29,6.29,0,0,1,1.84-.77,11.65,11.65,0,0,1,2.66-.26h12a7.77,7.77,0,0,1,7.23,4l24.76,43.41H507Zm-32.82-10.42h27.13l-8.23-14.45a4.52,4.52,0,0,0-1.45-1.69,3,3,0,0,0-1.63-.51h-4.56c-1.27,0-2.31.75-3.14,2.26Z" transform="translate(10.44 5.95)"></path><path class="cls-1" d="M539.48,125.67h57q13.68,0,13.68,11.55v4.26q0,12-13.68,12h-4l19.61,19.54h-16l-18.4-19H551.09v19H539.48Zm11.61,11v7.59h45.79c1.54,0,2.3-.64,2.3-1.91v-3.82c0-1.24-.88-1.86-2.66-1.86Z" transform="translate(10.44 5.95)"></path></g></g></svg> 