<?xml version="1.0" encoding="UTF-8"?>
<svg id="Layer_1" xmlns="http://www.w3.org/2000/svg" version="1.1" viewBox="0 0 50.3 50.3">
  <!-- Generator: Adobe Illustrator 30.3.0, SVG Export Plug-In . SVG Version: 2.1.3 Build 182)  -->
  <defs>
    <style>
      .st0 {
        fill: #231f20;
      }

      .st1 {
        fill: #fff;
      }
    </style>
  </defs>
  <g id="Layer_2">
    <g id="Layer_1-2">
      <path class="st0" d="M25.1,50.3c13.9,0,25.1-11.3,25.1-25.1S39,0,25.1,0,0,11.3,0,25.1c0,13.9,11.3,25.1,25.1,25.1h0"/>
      <polygon class="st1" points="13.2 36.6 16.6 36.6 16.6 25.8 13.2 27 13.2 36.6"/>
      <polygon class="st1" points="19.2 36.6 22.7 36.6 22.7 23.7 19.2 24.9 19.2 36.6"/>
      <polygon class="st1" points="25.2 36.6 28.7 36.6 28.7 21.7 25.2 22.8 25.2 36.6"/>
      <polygon class="st1" points="31.3 36.6 34.8 36.6 34.8 19.7 31.3 20.8 31.3 36.6"/>
      <path class="st1" d="M37.8,14.5l-4.3-.8c-.2,0-.3,0-.4.3,0,0,0,.1,0,.2l.5,1.3-21.5,7.3.5,1.4,21.4-7.2.5,1.4c0,.2.2.2.4.2,0,0,0,0,.1,0l2.8-3.3c.1-.1,0-.3,0-.4,0,0-.1,0-.2,0"/>
    </g>
  </g>
</svg>