<?xml version="1.0" encoding="UTF-8"?>
<svg id="b" xmlns="http://www.w3.org/2000/svg" version="1.1" viewBox="0 0 173.35 85.5">
  <!-- Generator: Adobe Illustrator 30.3.0, SVG Export Plug-In . SVG Version: 2.1.3 Build 182)  -->
  <defs>
    <style>
      .st0 {
        fill: none;
      }

      .st1 {
        fill: #e60012;
      }
    </style>
  </defs>
  <g id="c">
    <rect class="st0" y="0" width="173.35" height="85.5"/>
  </g>
  <g id="_图层_2" data-name="图层_2">
    <g id="_图层_1-2" data-name="图层_1-2">
      <path class="st1" d="M160.904,54.682h-8.335c-5.212,0-9.449-4.237-9.449-9.449v-3.64c0-5.212,4.237-9.449,9.449-9.449h8.335c1.313.04,2.347,1.134,2.308,2.447-.04,1.253-1.054,2.268-2.308,2.308h-8.335c-2.606,0-4.695,2.109-4.695,4.695h0v3.64c0,2.606,2.109,4.695,4.695,4.695h8.335c1.313.04,2.347,1.134,2.308,2.447-.02,1.253-1.034,2.268-2.308,2.308"/>
      <path class="st1" d="M160.904,45.59h-13.388c-1.313,0-2.367-1.054-2.367-2.367s1.054-2.367,2.367-2.367h13.388c1.313,0,2.367,1.054,2.367,2.367.02,1.293-1.054,2.367-2.367,2.367"/>
      <path class="st1" d="M102.676,32.103l-12.433.02v22.42h12.433c5.192,0,9.39-4.217,9.409-9.409v-3.621c0-5.192-4.217-9.409-9.409-9.409M107.371,45.133c0,2.586-2.089,4.675-4.675,4.675h-7.679v-12.97h7.679c2.586,0,4.675,2.089,4.675,4.675v3.621Z"/>
      <path class="st1" d="M21.074,43.422h0c.02,1.293,1.054,2.328,2.347,2.328h5.351v4.038h-8.773c-2.566,0-4.655-2.089-4.655-4.655v-3.621c0-2.566,2.089-4.655,4.655-4.655h11.021c1.293,0,2.347-1.054,2.347-2.367,0-1.293-1.054-2.347-2.347-2.347h-11.021c-5.172,0-9.37,4.197-9.37,9.37v3.621c0,5.172,4.197,9.37,9.37,9.37h13.468v-11.379c0-1.154-.935-2.089-2.089-2.089h-7.957c-1.293,0-2.347,1.054-2.347,2.347,0,.02,0,.04,0,.04"/>
      <path class="st1" d="M52.844,54.522h-9.111c-4.138,0-7.48-3.362-7.48-7.48v-7.44c0-4.138,3.362-7.48,7.48-7.48h9.111c4.138,0,7.48,3.362,7.48,7.48v7.44c0,4.118-3.342,7.48-7.48,7.48M43.733,36.44c-1.751,0-3.163,1.412-3.163,3.163v7.44c0,1.751,1.412,3.163,3.163,3.163h9.111c1.751,0,3.163-1.412,3.163-3.163v-7.44c0-1.751-1.412-3.163-3.163-3.163,0,0-9.111,0-9.111,0Z"/>
      <path class="st1" d="M79.481,54.522h-9.111c-4.138,0-7.48-3.362-7.48-7.48v-7.44c0-4.138,3.362-7.48,7.48-7.48h9.111c4.138,0,7.48,3.362,7.48,7.48v7.44c0,4.118-3.342,7.48-7.48,7.48M70.37,36.44c-1.751,0-3.163,1.412-3.163,3.163v7.44c0,1.751,1.412,3.163,3.163,3.163h9.111c1.751,0,3.163-1.412,3.163-3.163v-7.44c0-1.751-1.412-3.163-3.163-3.163,0,0-9.111,0-9.111,0Z"/>
      <path class="st1" d="M117.835,32.003h-.099c-1.213,0-2.188.975-2.188,2.188v18.182c0,1.213.975,2.188,2.188,2.188h.099c1.213,0,2.188-.975,2.188-2.188v-18.182c0-1.213-.995-2.188-2.188-2.188"/>
      <path class="st1" d="M126.608,43.203c-.895-.855-2.308-.816-3.163.08l-7.261,7.54c-.855.895-.816,2.308.08,3.163.438.418,1.015.637,1.611.617.08,0,.179,0,.259-.02.497-.06.955-.298,1.313-.676l7.261-7.54c.836-.895.796-2.308-.099-3.163"/>
      <path class="st1" d="M137.032,32.003h.08c1.213,0,2.188.975,2.188,2.188v18.182c0,1.213-.975,2.188-2.188,2.188h-.08c-1.213,0-2.188-.975-2.188-2.188v-18.182c0-1.213.995-2.188,2.188-2.188"/>
      <path class="st1" d="M128.259,43.203c.895-.855,2.308-.816,3.163.08l7.261,7.54c.855.895.816,2.308-.08,3.163-.438.418-1.015.637-1.611.617-.08,0-.179,0-.259-.02-.497-.06-.955-.298-1.313-.676l-7.261-7.54c-.836-.895-.796-2.308.099-3.163"/>
    </g>
  </g>
</svg>