<?xml version="1.0" encoding="UTF-8"?>
<svg id="b" xmlns="http://www.w3.org/2000/svg" version="1.1" viewBox="0 0 561.5 51.1">
  <!-- Generator: Adobe Illustrator 30.3.0, SVG Export Plug-In . SVG Version: 2.1.3 Build 182)  -->
  <defs>
    <style>
      .st0 {
        fill: #231f20;
      }

      .st1 {
        fill: #ffac05;
      }

      .st1, .st2, .st3 {
        fill-rule: evenodd;
      }

      .st4 {
        fill: none;
        stroke: #231f20;
        stroke-miterlimit: 10;
      }

      .st2 {
        fill: #c35e25;
      }

      .st3, .st5 {
        fill: #9f2726;
      }
    </style>
  </defs>
  <g id="c">
    <path class="st3" d="M5.3,40.4h16.2c-1-1.6-2.2-3.2-3.7-4.5-.5-.4-1-.6-1.7-.5H0c.8,1.8,2,3.4,3.6,4.6.6.4.6.5,1.6.5h0Z"/>
    <path class="st5" d="M76.9,21.2c-.1-.2-.3-.5-.4-.7-.4-.6-.8-1.1-1.2-1.5-.7-.6-1.3-1.1-2-1.5-.7-.3-1.4-.6-2.1-.7s-1.3-.2-1.9-.2c-.4,0-.9,0-1.5,0-.6,0-1.1.2-1.7.4-.6.2-1.2.5-1.8.9-.6.4-1.2.9-1.8,1.5-.2.2-.5.5-.8,1-.3.5-.7,1.1-1,1.8-.3.7-.6,1.6-.8,2.6-.2,1-.3,2.2-.3,3.6,0,.4,0,.8,0,1.4,0,.6.1,1.2.2,1.9.1.7.3,1.4.6,2.2.3.8.6,1.5,1,2.2.3.6.8,1.2,1.3,1.7.5.5,1.1,1,1.7,1.5.7.4,1.4.8,2.2,1s1.8.4,2.8.4c.7,0,1.3,0,2-.2s1.3-.4,2-.8,1.3-.9,1.9-1.5c.4-.5.8-1,1.2-1.5.1-.2.3-.4.4-.7l-3.2-2.2c0,0,0,.2,0,.2-.3.6-.6,1.1-.9,1.5-.5.6-1,1-1.5,1.3-.6.3-1.2.4-1.8.4s-1.1,0-1.6-.3c-.5-.2-.9-.5-1.2-.8-.4-.3-.7-.7-.9-1-.2-.4-.5-.7-.6-1.1-.2-.4-.3-.8-.4-1.3s-.2-1.1-.3-1.8c0-.7-.1-1.5-.1-2.5s0-1.3,0-2,.2-1.3.3-1.9c.1-.6.3-1.2.6-1.8.4-1,1-1.7,1.7-2.2.7-.5,1.5-.7,2.5-.7s1.6.2,2.2.5c.6.4,1.1.9,1.6,1.7.2.4.4.8.6,1.2l3.3-2.3h0Z"/>
    <path class="st5" d="M101,40.5v-9.7c0-.5,0-1,0-1.5,0-.5.2-1,.4-1.4.2-.5.5-.9.8-1.3.2-.2.3-.3.6-.5.2-.1.5-.3.8-.4.3-.1.6-.1,1-.1s.4,0,.6,0c.2,0,.4.1.7.2.2.1.4.3.6.6.2.3.3.6.4.9,0,.3.1.7.2,1,0,.4,0,.7,0,1.1v11h3.6v-11.9c0-.8,0-1.5-.2-2.1s-.3-1.1-.5-1.5-.4-.7-.7-1c-.3-.3-.7-.6-1.1-.8-.4-.2-.8-.4-1.2-.5-.4-.1-.9-.1-1.3-.1-.8,0-1.5.1-2.1.5-.6.3-1.2.7-1.6,1.2s-.8,1.1-1.1,1.7h0v-3h-3.3v17.5h3.6,0Z"/>
    <path class="st5" d="M142,18.6v6.4c-.1-.2-.3-.5-.5-.7-.2-.2-.4-.4-.7-.6-.5-.4-1-.6-1.5-.8-.5-.1-1-.2-1.6-.2-.8,0-1.6.1-2.3.5s-1.4.9-2.1,1.7c-.3.4-.6.9-.9,1.5-.3.6-.5,1.4-.7,2.3-.2.9-.3,1.9-.3,3.1s0,1.7.2,2.5c.1.7.3,1.3.4,1.9s.4,1,.6,1.3.4.6.5.8c.5.7,1,1.2,1.5,1.6s1.1.6,1.6.8,1,.2,1.5.2c.6,0,1.2,0,1.8-.3.6-.2,1.1-.5,1.6-1,.5-.5.9-1,1.2-1.8h-.3c0,0,.3,2.7.3,2.7h3.3v-24.3l-3.6,2.4h0ZM141.7,33.4c0,1-.3,2.2-.8,3-.6.9-1.5,1.5-2.5,1.5-1.2,0-2.1-.8-2.6-1.9-.3-.7-.5-1.4-.6-2.1-.1-.6-.2-1.4-.2-2.3s0-1.6.2-2.3c.2-1.1.7-2.2,1.7-2.9.4-.3,1-.4,1.6-.4,1,0,1.8.4,2.4,1.2.3.4.5.8.6,1.3.2.5.2,1,.2,1.6v3.3s0,0,0,0Z"/>
    <path class="st5" d="M153.5,23h-3.6v17.5h3.6v-17.5h0ZM151.8,16.8c1.2,0,2.2,1,2.2,2.2s-1,2.2-2.2,2.2-2.2-1-2.2-2.2,1-2.2,2.2-2.2Z"/>
    <path class="st5" d="M162.9,25.5c.4-.1.8-.1,1.4-.1s.6,0,.9,0c.3,0,.6.1.9.3.3.1.6.4.8.7.1.2.2.4.3.7,0,.2.1.5.2.7,0,.2,0,.5,0,.7,0,.2,0,.3,0,.4v.6h-1.7c-.4,0-.8,0-1.3.1-.5,0-1.1.1-1.6.2-.6.1-1.1.2-1.7.4-.6.2-1.1.4-1.6.6-.7.4-1.3.9-1.7,1.4-.4.5-.7,1.1-.8,1.7-.2.6-.2,1.1-.2,1.7s0,1.2.3,1.8c.2.6.5,1.2.9,1.7s1,.9,1.7,1.3c.7.3,1.6.5,2.6.5.3,0,.7,0,1.2,0,.4,0,.9-.2,1.4-.4.5-.2,1-.5,1.4-1,.5-.5.9-1,1.2-1.8,0,.6,0,1.2.1,1.7,0,.5.1.9.2,1.3h3.6c0-.4-.1-.8-.1-1.2,0-.4-.1-.9-.1-1.3s0-.9,0-1.2v-7.4c0-.5,0-1,0-1.5,0-.5-.1-1-.2-1.5-.1-.5-.3-.9-.6-1.4-.2-.4-.6-.8-1-1.2-.6-.4-1.2-.8-2-1-.8-.2-1.7-.3-2.6-.3-.8,0-1.5,0-2.1.1s-1.1.2-1.4.3c-.4.1-.7.3-.9.4-.3.2-.6.4-.9.7l1.1,2.7c.7-.6,1.7-1.2,2.6-1.4h0ZM167.5,32v.9c0,.4,0,.8-.1,1.2s-.2.8-.4,1.2c-.1.4-.3.8-.6,1-.2.3-.5.6-.8.8-.3.2-.7.4-1.1.6-.4.1-.8.2-1.2.2s-.5,0-.8,0-.5-.1-.7-.3c-.2-.1-.4-.3-.6-.5,0,0-.2-.2-.3-.3-.1-.1-.2-.3-.2-.5s-.1-.5-.1-.7c0-.3,0-.6.1-1,.1-.4.3-.8.6-1.1s.8-.7,1.3-.9c.3-.1.7-.2,1.1-.3.4,0,.8-.1,1.1-.2.4,0,.7,0,.9,0h1.6s0,0,0,0Z"/>
    <path class="st5" d="M178.8,40.5v-9.7c0-.5,0-1,0-1.5,0-.5.2-1,.4-1.4.2-.5.5-.9.8-1.3.2-.2.4-.3.6-.5.2-.1.5-.3.8-.4.3-.1.6-.1,1-.1s.4,0,.6,0c.2,0,.4.1.7.2.2.1.4.3.6.6.2.3.4.6.4.9,0,.3.1.7.2,1,0,.4,0,.7,0,1.1v11h3.6v-11.9c0-.8,0-1.5-.2-2.1-.1-.6-.3-1.1-.5-1.5s-.4-.7-.6-1c-.3-.3-.6-.6-1.1-.8-.4-.2-.8-.4-1.2-.5-.4-.1-.9-.1-1.3-.1-.8,0-1.5.1-2.1.5-.6.3-1.2.7-1.6,1.2s-.9,1.1-1.1,1.7h0v-3h-3.3v17.5h3.6,0Z"/>
    <path class="st5" d="M206.9,20.8c-.2-.4-.4-.8-.7-1.2-.3-.4-.6-.8-1-1.1-.5-.4-1-.8-1.6-1-.6-.3-1.2-.5-1.9-.6-.7-.1-1.3-.2-2-.2s-1.3,0-1.9.1c-.6.1-1.2.3-1.8.5-.6.2-1.1.5-1.5.9-.4.3-.8.8-1.2,1.3-.4.5-.7,1.1-.9,1.8s-.3,1.4-.3,2.3c0,.8.1,1.5.3,2,.2.6.5,1.1.8,1.5s.6.8.9,1.1c.3.3.6.5.9.7.3.2.7.4,1,.5.4.1.7.3,1,.4.3.1.6.2.8.2l3.1.8c.7.2,1.2.4,1.6.7.4.3.7.6,1,.9.2.3.4.6.5.9,0,.3.1.6.1.9,0,.3,0,.7-.2,1-.1.4-.3.7-.6,1-.3.3-.7.6-1.3.8-.6.2-1.2.3-2.1.3-.3,0-.7,0-1.1,0-.4,0-.8-.2-1.2-.3-1.1-.4-2.5-1.4-3-2.4l-2.6,2.3c.2.2.3.5.5.7.4.5.8.8,1.1,1.2.4.4.9.7,1.6,1,.6.3,1.3.5,2,.7s1.6.3,2.6.3,1.3,0,2-.2c.7-.1,1.3-.3,2-.6.6-.3,1.2-.7,1.8-1.1.5-.4.9-.9,1.2-1.5.4-.6.6-1.2.9-1.9s.3-1.4.3-2.1-.1-1.3-.3-2c-.2-.6-.4-1.2-.7-1.7-.3-.5-.6-.9-1-1.3-.4-.4-.9-.7-1.3-.9s-.9-.4-1.4-.6c-.5-.1-.9-.3-1.4-.4l-2.9-.8c-.3,0-.6-.2-.9-.3-.4-.1-.7-.3-1.1-.5-.3-.2-.6-.5-.9-.8s-.3-.8-.4-1.2c0-.3,0-.7.2-1s.3-.7.6-1,.6-.5,1.1-.7c.5-.2,1.1-.3,1.8-.3s1.2,0,1.8.3,1.1.5,1.5.9c.6.5,1.3,1.4,1.4,2.1l.5-.5,2.1-2h0Z"/>
    <path class="st5" d="M210.6,31.8c0,.9.1,1.8.3,2.6.2.8.5,1.6.9,2.4.4.7.9,1.4,1.4,1.9.4.4.8.7,1.3,1s1.1.6,1.8.8c.7.2,1.4.3,2.3.3.8,0,1.6,0,2.3-.3.7-.2,1.2-.5,1.8-.8s.9-.7,1.3-1c.6-.6,1-1.2,1.4-1.9.4-.7.7-1.5.9-2.4s.3-1.7.3-2.6-.1-1.8-.3-2.6c-.2-.8-.5-1.6-.9-2.4-.4-.7-.9-1.4-1.4-1.9-.4-.4-.8-.7-1.3-1s-1.1-.6-1.8-.8c-.7-.2-1.4-.3-2.3-.3-.8,0-1.6.1-2.3.3-.7.2-1.2.5-1.8.8s-.9.7-1.3,1c-.6.6-1,1.2-1.4,1.9-.4.7-.7,1.5-.9,2.4-.2.9-.3,1.7-.3,2.6h0ZM214.6,31.8c0-.8,0-1.5.2-2.1.1-.6.2-1.1.4-1.5.1-.4.3-.7.4-.9.1-.2.2-.4.3-.4.1-.1.3-.3.5-.5.2-.2.5-.4.9-.5.4-.1.8-.2,1.2-.2.5,0,.9,0,1.2.2.4.1.6.3.9.5.2.2.4.4.5.5,0,0,.2.2.3.4.1.2.3.5.4.9s.3.9.4,1.5.1,1.3.2,2.1c0,.8,0,1.5-.2,2.1-.1.6-.2,1.1-.4,1.5-.1.4-.3.7-.4.9s-.2.4-.3.4c-.1.2-.3.3-.5.5-.2.2-.5.4-.9.5-.3.1-.8.2-1.2.2-.5,0-.9,0-1.2-.2-.4-.2-.6-.3-.9-.5s-.4-.4-.5-.5c0,0-.2-.2-.3-.4-.1-.2-.3-.5-.4-.9s-.3-.9-.4-1.5c-.1-.6-.1-1.3-.2-2.1Z"/>
    <polygon class="st5" points="229.3 18.6 229.3 40.7 233.3 40.7 233.3 15.9 229.3 18.6"/>
    <path class="st5" d="M254.2,23v17.5h4.1v-8.4c0-1.8,0-5.4,2.5-5.5.8,0,2.4.2,3.2.6l1-3.5c-2-.8-3.7-1.7-5.6.1-.5.5-.8,1.2-1.1,1.7-.2.5-.4,1-.5,1.4h0v-3.9h-3.7Z"/>
    <path class="st5" d="M119.7,25.5c.4-.1.8-.1,1.4-.1s.6,0,.9,0c.3,0,.6.1.9.3.3.1.6.4.8.7.1.2.2.4.3.7,0,.2.1.5.2.7,0,.2,0,.5,0,.7,0,.2,0,.3,0,.4v.6h-1.7c-.4,0-.8,0-1.3.1-.5,0-1.1.1-1.7.2-.6.1-1.2.2-1.7.4-.6.2-1.1.4-1.6.6-.7.4-1.3.9-1.7,1.4-.4.5-.7,1.1-.8,1.7-.2.6-.2,1.1-.2,1.7s0,1.2.3,1.8c.2.6.5,1.2.9,1.7s1,.9,1.7,1.3c.7.3,1.6.5,2.6.5.3,0,.7,0,1.2,0,.4,0,.9-.2,1.4-.4s1-.5,1.4-1,.9-1,1.2-1.8c0,.6,0,1.2.2,1.7,0,.5.1.9.2,1.3h3.6c0-.4-.1-.8-.1-1.2,0-.4,0-.9-.1-1.3s0-.9,0-1.2v-7.4c0-.5,0-1,0-1.5,0-.5-.1-1-.2-1.5-.1-.5-.3-.9-.6-1.4-.2-.4-.6-.8-1-1.2-.6-.4-1.2-.8-2-1-.8-.2-1.7-.3-2.6-.3-.8,0-1.5,0-2.1.1s-1.1.2-1.4.3c-.4.1-.7.3-.9.4-.3.2-.6.4-.9.7l1.1,2.7c.7-.6,1.7-1.2,2.6-1.4h0ZM124.3,32v.9c0,.4,0,.8-.1,1.2s-.2.8-.3,1.2c-.2.4-.3.8-.6,1-.2.3-.5.6-.8.8-.3.2-.7.4-1.1.6-.4.1-.8.2-1.2.2s-.5,0-.8,0-.5-.1-.7-.3c-.2-.1-.4-.3-.6-.5,0,0-.2-.2-.3-.3,0-.1-.2-.3-.2-.5s-.1-.5-.1-.7c0-.3,0-.6.1-1,0-.4.3-.8.6-1.1.3-.4.8-.7,1.3-.9.3-.1.7-.2,1.1-.3.4,0,.8-.1,1.1-.2.4,0,.7,0,.9,0h1.6s0,0,0,0Z"/>
    <path class="st5" d="M85.2,25.5c.4-.1.8-.1,1.4-.1s.6,0,.9,0c.3,0,.6.1.9.3.3.1.6.4.8.7.1.2.2.4.3.7,0,.2.1.5.2.7,0,.2,0,.5,0,.7,0,.2,0,.3,0,.4v.6h-1.7c-.4,0-.8,0-1.3.1-.5,0-1.1.1-1.7.2-.6.1-1.2.2-1.7.4-.6.2-1.1.4-1.6.6-.7.4-1.3.9-1.7,1.4-.4.5-.7,1.1-.8,1.7-.2.6-.2,1.1-.2,1.7s0,1.2.3,1.8c.2.6.5,1.2.9,1.7s1,.9,1.7,1.3c.7.3,1.6.5,2.6.5.3,0,.7,0,1.2,0,.4,0,.9-.2,1.4-.4s1-.5,1.4-1,.9-1,1.2-1.8c0,.6,0,1.2.2,1.7,0,.5.1.9.2,1.3h3.6c0-.4,0-.8-.2-1.2s0-.9-.1-1.3,0-.9,0-1.2v-7.4c0-.5,0-1,0-1.5,0-.5-.1-1-.2-1.5-.1-.5-.3-.9-.6-1.4-.2-.4-.6-.8-1-1.2-.6-.4-1.2-.8-2-1-.8-.2-1.7-.3-2.6-.3-.8,0-1.5,0-2.1.1s-1.1.2-1.4.3c-.4.1-.7.3-.9.4-.3.2-.6.4-.9.7l1.1,2.7c.7-.6,1.7-1.2,2.6-1.4h0ZM89.8,32v.9c0,.4,0,.8-.1,1.2s-.2.8-.3,1.2c-.2.4-.3.8-.6,1-.2.3-.5.6-.8.8-.3.2-.7.4-1.1.6-.4.1-.8.2-1.2.2s-.5,0-.8,0-.5-.1-.7-.3c-.2-.1-.4-.3-.6-.5,0,0-.2-.2-.3-.3,0-.1-.2-.3-.2-.5s-.1-.5-.1-.7c0-.3,0-.6.1-1,0-.4.3-.8.6-1.1.3-.4.8-.7,1.3-.9.3-.1.7-.2,1.1-.3.4,0,.8-.1,1.1-.2.4,0,.7,0,.9,0h1.6s0,0,0,0Z"/>
    <path class="st5" d="M242.6,25.5c.4-.1.8-.1,1.4-.1s.6,0,.9,0c.3,0,.6.1.9.3.3.1.6.4.8.7.1.2.2.4.3.7,0,.2.1.5.2.7,0,.2,0,.5,0,.7,0,.2,0,.3,0,.4v.6h-1.7c-.4,0-.8,0-1.3.1-.5,0-1.1.1-1.6.2-.6.1-1.1.2-1.7.4-.6.2-1.1.4-1.6.6-.7.4-1.3.9-1.7,1.4-.4.5-.7,1.1-.8,1.7-.2.6-.2,1.1-.2,1.7s0,1.2.3,1.8c.2.6.5,1.2.9,1.7s1,.9,1.7,1.3c.7.3,1.6.5,2.6.5.3,0,.7,0,1.2,0,.4,0,.9-.2,1.4-.4.5-.2,1-.5,1.4-1,.5-.5.9-1,1.2-1.8,0,.6,0,1.2.1,1.7,0,.5.1.9.2,1.3h3.6c0-.4-.1-.8-.1-1.2,0-.4-.1-.9-.1-1.3s0-.9,0-1.2v-7.4c0-.5,0-1,0-1.5,0-.5-.1-1-.2-1.5-.1-.5-.3-.9-.6-1.4-.2-.4-.6-.8-1-1.2-.6-.4-1.2-.8-2-1-.8-.2-1.7-.3-2.6-.3-.8,0-1.5,0-2.1.1s-1.1.2-1.4.3c-.4.1-.7.3-.9.4-.3.2-.6.4-.9.7l1.1,2.7c.7-.6,1.7-1.2,2.6-1.4h0ZM247.2,32v.9c0,.4,0,.8-.1,1.2s-.2.8-.4,1.2c-.1.4-.3.8-.6,1-.2.3-.5.6-.8.8-.3.2-.7.4-1.1.6-.4.1-.8.2-1.2.2s-.5,0-.8,0-.5-.1-.7-.3c-.2-.1-.4-.3-.6-.5,0,0-.2-.2-.3-.3-.1-.1-.2-.3-.2-.5s-.1-.5-.1-.7c0-.3,0-.6.1-1,.1-.4.3-.8.6-1.1s.8-.7,1.3-.9c.3-.1.7-.2,1.1-.3.4,0,.8-.1,1.1-.2.4,0,.7,0,.9,0h1.6s0,0,0,0Z"/>
    <path class="st3" d="M28.5,25.9c4.6-2.9,11.3-2.2,16.9,1.9l-2.4,2.4c-4-2.4-8.5-2.7-11.5-.6-3.1,2.2-4,6.3-2.7,10.6h-3c-2.6-5.7-2-11.5,2.6-14.4h0Z"/>
    <path class="st2" d="M8.1,27.3l13.3,6.8c0-2-.5-3.9-1.2-5.8-.2-.5-.6-1-1.2-1.4l-13.1-7c-.1,2.1,0,4.4.9,6.2.3.6.5.7,1.4,1.2Z"/>
    <path class="st1" d="M15,16.6l9.6,10.1c.6-1.7.9-3.5.8-5.4,0-.5-.2-1.1-.7-1.6l-9.3-10.3c-.8,1.8-1.5,3.8-1.2,5.7,0,.6.2.8.8,1.5Z"/>
    <path class="st2" d="M26.8,10.2l3.6,12.8c1.4-1.2,2.5-2.6,3.4-4.2.2-.4.4-1,.2-1.6l-3.3-12.8c-1.5,1.2-3.2,2.6-3.9,4.2-.2.6-.2.7,0,1.6h0Z"/>
    <path class="st3" d="M39.5,10.5l-.6,11.3c1.6-.6,3.1-1.4,4.4-2.5.3-.3.6-.7.7-1.3l.9-11.2c-1.8.5-3.7,1.2-4.8,2.4-.4.4-.4.5-.5,1.3Z"/>
    <path class="st0" d="M432.3,14.1v8.6c0,7.2,7.4,6.9,7.4,6.9h34.1v-6.8h-32c-2.1,0-2.2-2-2.2-2v-2.5h34.1v-4.2,1.3-4.2h-34.1v-2.5s0-2,2.2-2h32V0h-34.1s-7.4-.4-7.4,6.9v8.6-1.3h0Z"/>
    <path class="st0" d="M483.3,29.5v-11.2h34.1v-4.2,1.3-4.2h-34.1v-2.5s0-2,2.2-2h32.1V0h-34.1s-7.4-.4-7.4,6.9v8.6-1.3,15.4h7.3Z"/>
    <path class="st0" d="M561.5,18v4.9c0,6.8-7.8,6.5-7.8,6.5h-33.7v-6.9h32.8c1.7,0,1.5-1.2,1.5-1.2v-2c0-1.4-1.6-1.3-1.6-1.3h-25.4s-8.5.5-8.5-6.4v-4.5c0-7.6,7.4-7.3,7.4-7.3h34.2v6.8h-32.8c-1.8,0-1.5,1.6-1.5,1.6v1.5s-.3,1.5,1.7,1.5h26.3s7.2-.2,7.3,6.7"/>
    <path class="st0" d="M401.2,50.2c0,.1.5.4,1.1.6.2,0,.5.1.6.1.4,0,.5,0,.8.1-.2,0-.4-.1-.7-.3-.4-.2-.6-.3-.9-.5-.3-.1-.5-.2-.7-.2-.2,0-.3,0-.2.1M404.1,50.6s0,0,0,0c.2.8,1.6.3,1.9-.1.1-.2,0-.4-.1-.5-.2-.1-.4-.2-.5-.2-.6,0-1.3.3-1.2.7M396.6,48.1c0,.2.5.7,1.5,1.2,1.1.6,2.4,1,2.6,1h0c0,0-1.5-1.3-2.8-2-.5-.2-.8-.3-.9-.3-.3,0-.3.1-.3.2M407.9,50.5c-.8.5-.7.5-.6.5.3.1,3.6-.5,3.8-1.3,0-.1-.1-.2-.3-.2-.5,0-1.6.2-2.8,1M400.6,48.5c0,.2.1.3.3.5.9,1.1,2.6,1.6,2.8.4,0-.3,0-.9-.9-1.4-.4-.2-.7-.3-1-.3-.8-.1-1.3.3-1.1.9M416.1,48.8c-.6,0-1.6.5-3.5,1.3-.5.2-1.1.3-1.6.7.2.1,4.1-.8,5.3-1.8,0,0,.1-.2,0-.2h-.2M406.3,48.7c-.3,1.2,1.1,1.6,2.5.6.2-.1,1.5-1,.8-1.9-.2-.2-.5-.3-.8-.3-1-.1-2.3.6-2.5,1.6M391.3,45.1c.1.3.6,1,1.7,1.7,1.3,1,3,1.8,2.9,1.5,0-.2-1.8-2-3.4-3-.5-.3-.8-.4-1-.4-.3,0-.2.2-.2.2M395.3,45.2c0,.2.2.6.6,1.1,1.1,1.3,3.2,2.4,3.4,1.1,0-.5-.3-1.6-1.8-2.6-.5-.3-.9-.4-1.2-.5-.8,0-1.1.4-1,.9M412.8,48.1c-.2.2-1.1,1.2-.2,1.2,1.2,0,4.4-1.6,4.3-2.8,0-.2-.2-.3-.5-.3-.8-.1-2.5.7-3.5,1.8M402.1,45.9c.5,1.8,3.1,2.5,4.2.7.2-.4.6-1.4-.6-2.3-.4-.3-.9-.4-1.3-.5-1.4-.2-2.6.9-2.3,2.1M386.4,41c0,.3.7,1.2,1.8,2.4,1.1,1.2,2.4,2.2,2.6,2.1,0-.3-2.3-2.9-3.5-4-.4-.3-.7-.5-.8-.5,0,0-.1,0,0,.1M422.2,45.1c-.7.3-1.9,1-3.2,2-1.7,1.3-1.4,1.4-1.4,1.4.5,0,4.2-1.8,5.1-3.2,0-.2,0-.3,0-.3-.1,0-.3,0-.5.1M389.5,41.1c0,.4.4,1,.8,1.6,1.1,1.6,3.3,3,3.4,1.7,0-.6-.5-2.3-2.2-3.7-.5-.4-.9-.5-1.2-.6-.6,0-.9.4-.8,1M410.4,45.3c-.5,1.5.8,2.4,2.8,1.3,1.2-.6,2.5-2.1,1.6-3.2-.3-.2-.6-.4-1-.4-1.3-.2-3,.9-3.4,2.3M396.1,41.6c0,.1,0,.3.1.5.8,2.1,3.7,3.2,4.6,1.3,0-.2.8-1.8-1.2-3.3-.5-.3-1.1-.5-1.5-.6-1.4-.2-2.3.8-2,2.1M418.7,44.2c-.7,1.1-.8,2.1.3,1.8,1.5-.3,4.2-2.6,3.9-4-.1-.2-.3-.4-.5-.4-1-.1-2.7,1.1-3.7,2.6M405.6,41.4c0,2.2,3,3.3,4.8,1.2.6-.7,1.2-2.1-.1-3.3-.4-.3-.9-.5-1.4-.5-1.7-.2-3.3,1.1-3.3,2.7M384.5,36c0,.6.3,1.4.8,2.2,1,1.8,2.6,3.3,2.9,2.3.1-.7-.6-3-2.1-4.6-.5-.4-.8-.6-1-.6-.5,0-.5.6-.5.7M428,39.8c-.5.2-1.7,1.4-2.9,2.9-.4.5-1.6,2-1.1,1.9.6-.1,3.4-2.9,4.1-4.5,0-.1.1-.3,0-.4,0,0,0,0-.1,0M389.9,36.7c0,.2.1.6.2.8.8,2.2,3.4,3.7,4.3,1.9.4-.8.4-2.7-1.4-4.2-.5-.4-1-.6-1.5-.7-1.1-.1-1.9.8-1.7,2.1M415.7,40.5c-.5,2,1,3,3,1.8,1.4-.9,2.8-2.9,1.8-4.2-.3-.3-.6-.4-1-.5-1.4-.2-3.2,1.2-3.7,2.9M399,36.8c.4,2.8,4.2,3.8,5.7,1.5.5-.8.9-2.5-.8-3.9-.6-.4-1.2-.6-1.7-.7-1.9-.2-3.4,1.2-3.1,3M381.3,30.3c-.1.4.2,1.8.6,3.1.6,1.8,1.4,3.2,1.6,2.8.2-.4-.6-3.5-1.5-5.4-.1-.2-.4-.7-.5-.7,0,0-.1,0-.1.2M424.5,39c-.7,1.7-.4,2.7.7,2.2,1.4-.6,3.4-3.4,3-5-.1-.3-.3-.4-.5-.4-.9-.1-2.5,1.5-3.2,3.2M410.4,35.9c-.1,2.5,2.8,3.7,4.8,1.8,1-.9,1.8-3,.3-4.4-.5-.4-1-.5-1.4-.6-1.8-.2-3.6,1.3-3.7,3.2M384.6,31.1c0,.4,0,.8.2,1.2.6,2.4,2.5,3.8,3.4,2.5.6-.9.5-3.3-1-5.1-.4-.4-.8-.7-1.2-.7-.8-.1-1.4.8-1.4,2M392.3,31.5c.4,2.8,3.5,4.1,5.1,2.2.8-.9,1.2-3-.7-4.8-.5-.4-1.1-.6-1.6-.7-1.7-.2-3,1.3-2.8,3.3M421.1,34.6c-.4,2.3,1.1,3.4,2.9,2.2,1.4-.9,2.6-3.5,1.4-5.2-.3-.3-.6-.5-1-.5-1.4-.2-3,1.5-3.3,3.5M403.6,30.7c.1,2.9,3.6,4.2,5.7,2.2,1-1,1.6-3.2-.3-4.9-.5-.4-1.1-.6-1.7-.7-2-.2-3.8,1.4-3.7,3.4M381.5,24.4c0,.3-.3,1.2-.2,2.5.2,2.3,1.1,3.9,1.8,2.9.6-.8.8-3.7,0-5.7-.3-.5-.5-.7-.7-.7-.4,0-.7.6-.9,1.1M386.8,25.5v.3c0,2.7,2.2,4.2,3.7,2.8,1.2-1.1,1.5-3.8.1-5.5-.4-.4-.9-.7-1.3-.7-1.3-.2-2.4,1.2-2.5,3.1M415.6,29.4c0,2.8,2.7,4.1,4.6,2.2,1.3-1.3,1.7-3.7.1-5.2-.4-.3-.9-.5-1.4-.6-1.7-.2-3.4,1.5-3.4,3.6M396.5,24.9c0,3.1,3.5,4.5,5.6,2.4,1-1.1,1.6-3.4-.3-5.1-.6-.4-1.2-.6-1.7-.7-1.9-.2-3.6,1.4-3.5,3.4M380.6,22.4h0s0,.1,0,.2v-.2s0,0,0,0ZM381.1,19.3c0,.4-.1.7-.2,1.1,0-.4.1-.8.2-1.1-.1.6-.2,1.3-.4,2,0,.3,0,.6-.1.9,0,.1,0,.2,0,.3v.2c0,0,0,.2,0,.3-.1,1.4,0,1.5,0,1.6.4-.2,1.1-4.3,1.1-6.1,0-.4,0-.6-.1-.7,0,0-.2,0-.5,1.5M408.8,23.8c0,2.9,3.3,4.4,5.3,2.4,1.1-1.1,1.7-3.5-.2-5.2-.5-.4-1-.6-1.6-.6-1.9-.2-3.6,1.4-3.5,3.4M383.6,19.4c0,.2-.1.4-.1.6-.4,2.4.6,4,1.9,3.1,1.1-.8,2.1-3.7,1.3-5.7-.2-.4-.5-.6-.9-.7-.9-.1-1.8,1.2-2.2,2.7M391,19.1c-.4,2.6,1.9,4.2,3.9,2.7,1.5-1.1,2.2-3.6.8-5.2-.4-.4-.9-.6-1.4-.7-1.6-.2-3.1,1.5-3.3,3.2M401.8,18.3c-.1,2.7,3.2,4.2,5.3,2.4,1.4-1.2,1.7-3.4,0-4.9-.5-.4-1-.6-1.6-.6-1.9-.2-3.6,1.2-3.7,3.1M384.5,12c-.5.5-1.2,1.6-1.6,2.7-.7,1.8-.8,3.2-.1,3,.9-.3,2.5-3.5,2.6-5.4,0-.4-.1-.6-.3-.6-.2,0-.4.2-.6.4M387.8,13.7c-.8,2.1.2,3.6,1.9,2.8,1.6-.8,2.9-3.4,2.2-5-.2-.4-.5-.6-.9-.6-1.1-.1-2.7,1.3-3.2,2.9M396.4,13c-.6,2.3,1.8,3.8,3.9,2.5,1.5-1,2.3-3.2.9-4.7-.4-.3-.8-.5-1.3-.6-1.6-.2-3.2,1.2-3.6,2.8M387.1,7.4c-1.6,1.9-1.9,2.2-2.5,3.2-.4.6-.8,1.4-1.1,2,0,0,0,0,0,0,0,0,1.2-1.7,3.4-4.8.2-.3.3-.4.3-.5,0,0,0,0,0,0M388.3,7.8c-.4.3-.7.8-1,1.2-1.1,1.5-1.2,2.8-.2,2.6,1.3-.2,3.5-3,3.7-4.6,0-.3-.1-.5-.3-.5-.5,0-1.6.8-2.1,1.3M393.4,8.3c-1,1.7-.1,3,1.6,2.5,1.9-.6,3.4-2.9,2.8-4.4-.2-.3-.5-.5-.8-.5-1.1-.1-2.8,1.1-3.5,2.4M389.5,5.1c-1.4,1.2-2.1,2.2-1.7,2.2.6,0,3.7-2.8,4.6-3.8.2-.2.2-.3.2-.4,0,0,0,0,0,0-.3,0-1.7.8-3,2M393.7,4.1c-.1.1-.3.3-.5.4-1.3,1.2-1.4,2.2-.6,2.2,1.4,0,4-2.4,4.4-3.6,0-.2,0-.4-.3-.4-.6,0-2.2.8-3.1,1.5M395.5,1.4c-1.5.8-2.3,1.5-1.9,1.6.7.2,5.3-2.6,5.3-2.7.2-.1.2-.1.2-.2,0,0,0,0,0,0-.4,0-2.2.6-3.6,1.3h0Z"/>
    <path class="st0" d="M452.2,37.1v3.2h-15.5c-.5,0-.8.2-.8.5v1.1c0,.3.3.5.8.5h11.7c2.8,0,4.2,1.1,4.2,3.3v1.9c0,2.3-1.4,3.4-4.2,3.4h-15.5v-3.2h15.5c.5,0,.8-.2.8-.5v-1.1c0-.3-.3-.5-.8-.5h-11.7c-2.8,0-4.2-1-4.2-3v-2.2c0-2.3,1.4-3.4,4.2-3.4h15.5Z"/>
    <path class="st0" d="M464.4,51.1c-3.5,0-5.3-1.5-5.3-4.4v-5.1c0-3,1.8-4.5,5.3-4.5h10.8c3.5,0,5.3,1.5,5.3,4.5v5.1c0,3-1.8,4.4-5.3,4.4h-10.8ZM464.4,40.4c-1.2,0-1.8.4-1.8,1.2v5.1c0,.8.6,1.2,1.8,1.2h10.8c1.2,0,1.8-.4,1.8-1.2v-5.1c0-.8-.6-1.2-1.8-1.2h-10.8Z"/>
    <path class="st0" d="M491.2,51.1c-2.8,0-4.2-1.1-4.2-3.4v-10.6h3.4v10.1c0,.4.3.7.8.7h15.2v3.2s-15.2,0-15.2,0Z"/>
    <path class="st0" d="M528.6,48.4h-11.3l-1.5,2.8h-4l7.3-12.8c0-.2.2-.4.3-.5s.2-.3.4-.4.3-.2.5-.2.5,0,.8,0h3.5c1,0,1.7.4,2.1,1.2l7.3,12.8h-3.9l-1.6-2.8h0ZM518.9,45.3h8l-2.4-4.3c-.1-.2-.3-.4-.4-.5s-.3-.2-.5-.2h-1.3c-.4,0-.7.2-.9.7l-2.4,4.2h0Z"/>
    <path class="st0" d="M539.8,37.1h16.8c2.7,0,4,1.1,4,3.4v1.3c0,2.4-1.3,3.5-4,3.5h-1.2l5.8,5.8h-4.7l-5.4-5.6h-7.9v5.6h-3.4v-14h0ZM543.2,40.4v2.2h13.5c.5,0,.7-.2.7-.6v-1.1c0-.4-.3-.5-.8-.5h-13.4,0Z"/>
    <line class="st4" x1="306.1" y1="10.9" x2="335.9" y2="40.6"/>
    <line class="st4" x1="335.9" y1="10.9" x2="306.1" y2="40.6"/>
  </g>
</svg>