<?xml version="1.0" encoding="UTF-8"?>
<svg id="b" xmlns="http://www.w3.org/2000/svg" xmlns:xlink="http://www.w3.org/1999/xlink" version="1.1" viewBox="0 0 173.35 85.5">
  <!-- Generator: Adobe Illustrator 30.3.0, SVG Export Plug-In . SVG Version: 2.1.3 Build 182)  -->
  <defs>
    <style>
      .st0, .st1 {
        fill: none;
      }

      .st2 {
        fill: url(#linear-gradient2);
      }

      .st3 {
        fill: url(#linear-gradient1);
      }

      .st4 {
        fill: url(#linear-gradient9);
      }

      .st5 {
        fill: url(#linear-gradient3);
      }

      .st6 {
        fill: url(#linear-gradient6);
      }

      .st7 {
        fill: url(#linear-gradient8);
      }

      .st8 {
        fill: url(#linear-gradient7);
      }

      .st9 {
        fill: url(#linear-gradient5);
      }

      .st10 {
        fill: url(#linear-gradient4);
      }

      .st11 {
        fill: url(#linear-gradient18);
      }

      .st12 {
        fill: url(#linear-gradient13);
      }

      .st13 {
        fill: url(#linear-gradient12);
      }

      .st14 {
        fill: url(#linear-gradient15);
      }

      .st15 {
        fill: url(#linear-gradient16);
      }

      .st16 {
        fill: url(#linear-gradient11);
      }

      .st17 {
        fill: url(#linear-gradient10);
      }

      .st18 {
        fill: url(#linear-gradient17);
      }

      .st19 {
        fill: url(#linear-gradient14);
      }

      .st20 {
        fill: url(#linear-gradient19);
      }

      .st21 {
        fill: url(#linear-gradient21);
      }

      .st22 {
        fill: url(#linear-gradient20);
      }

      .st23 {
        fill: url(#linear-gradient);
      }

      .st24 {
        clip-path: url(#clippath-17);
      }

      .st25 {
        clip-path: url(#clippath-19);
      }

      .st26 {
        clip-path: url(#clippath-11);
      }

      .st27 {
        clip-path: url(#clippath-16);
      }

      .st28 {
        clip-path: url(#clippath-18);
      }

      .st29 {
        clip-path: url(#clippath-10);
      }

      .st30 {
        clip-path: url(#clippath-15);
      }

      .st31 {
        clip-path: url(#clippath-13);
      }

      .st32 {
        clip-path: url(#clippath-14);
      }

      .st33 {
        clip-path: url(#clippath-12);
      }

      .st34 {
        clip-path: url(#clippath-20);
      }

      .st35 {
        clip-path: url(#clippath-21);
      }

      .st36 {
        clip-path: url(#clippath-1);
      }

      .st37 {
        clip-path: url(#clippath-3);
      }

      .st38 {
        clip-path: url(#clippath-4);
      }

      .st39 {
        clip-path: url(#clippath-2);
      }

      .st40 {
        clip-path: url(#clippath-7);
      }

      .st41 {
        clip-path: url(#clippath-6);
      }

      .st42 {
        clip-path: url(#clippath-9);
      }

      .st43 {
        clip-path: url(#clippath-8);
      }

      .st44 {
        clip-path: url(#clippath-5);
      }

      .st45 {
        fill: #fff;
      }

      .st46 {
        fill: #a52229;
      }

      .st1 {
        stroke: #1d080c;
        stroke-linecap: round;
        stroke-linejoin: round;
        stroke-width: 1.472px;
      }

      .st47 {
        clip-path: url(#clippath);
      }
    </style>
    <clipPath id="clippath">
      <polygon class="st0" points="7.797 27.309 7.791 27.309 19.358 49.96 21.842 49.919 14.914 27.309 7.797 27.309"/>
    </clipPath>
    <linearGradient id="linear-gradient" x1="-512.21" y1="963.975" x2="-511.621" y2="963.975" gradientTransform="translate(-35488.394 18894.843) rotate(90) scale(36.83 -36.83)" gradientUnits="userSpaceOnUse">
      <stop offset="0" stop-color="#fff"/>
      <stop offset=".14" stop-color="#fff"/>
      <stop offset=".25" stop-color="#fff"/>
      <stop offset=".33" stop-color="#fdfafa"/>
      <stop offset=".43" stop-color="#f7eaea"/>
      <stop offset=".55" stop-color="#edd0d1"/>
      <stop offset=".67" stop-color="#e0adae"/>
      <stop offset=".79" stop-color="#ce7f80"/>
      <stop offset=".92" stop-color="#b9474a"/>
      <stop offset="1" stop-color="#ab2326"/>
    </linearGradient>
    <clipPath id="clippath-1">
      <polygon class="st0" points="7.709 27.309 7.709 27.309 19.034 49.96 21.524 49.913 14.519 27.309 7.709 27.309"/>
    </clipPath>
    <linearGradient id="linear-gradient1" x1="-514.962" y1="966.394" x2="-514.373" y2="966.394" gradientTransform="translate(-39018.044 20826.227) rotate(90) scale(40.39 -40.39)" gradientUnits="userSpaceOnUse">
      <stop offset="0" stop-color="#fdf8f5"/>
      <stop offset=".14" stop-color="#fdf8f5"/>
      <stop offset=".25" stop-color="#fbf8f5"/>
      <stop offset=".33" stop-color="#f9f2f0"/>
      <stop offset=".44" stop-color="#f3e2e0"/>
      <stop offset=".55" stop-color="#e9c8c6"/>
      <stop offset=".68" stop-color="#dba3a2"/>
      <stop offset=".81" stop-color="#c97474"/>
      <stop offset=".95" stop-color="#b43b3d"/>
      <stop offset="1" stop-color="#ab2326"/>
    </linearGradient>
    <clipPath id="clippath-2">
      <polygon class="st0" points="7.62 27.309 7.62 27.309 18.716 49.954 21.206 49.907 14.125 27.309 7.62 27.309"/>
    </clipPath>
    <linearGradient id="linear-gradient2" x1="-512.795" y1="968.321" x2="-512.206" y2="968.321" gradientTransform="translate(-36723.678 19482.382) rotate(90) scale(37.94 -37.94)" gradientUnits="userSpaceOnUse">
      <stop offset="0" stop-color="#f7eee8"/>
      <stop offset=".14" stop-color="#f8eee7"/>
      <stop offset=".25" stop-color="#f7ece6"/>
      <stop offset=".34" stop-color="#f5e6e1"/>
      <stop offset=".44" stop-color="#efd6d1"/>
      <stop offset=".56" stop-color="#e4bbb7"/>
      <stop offset=".7" stop-color="#d69693"/>
      <stop offset=".84" stop-color="#c36665"/>
      <stop offset=".98" stop-color="#ad2c2d"/>
      <stop offset="1" stop-color="#aa2426"/>
    </linearGradient>
    <clipPath id="clippath-3">
      <polygon class="st0" points="7.538 27.309 7.538 27.309 18.393 49.954 20.883 49.901 13.736 27.309 7.538 27.309"/>
    </clipPath>
    <linearGradient id="linear-gradient3" x1="-510.495" y1="970.644" x2="-509.907" y2="970.644" gradientTransform="translate(-34414.536 18136.322) rotate(90) scale(35.47 -35.47)" gradientUnits="userSpaceOnUse">
      <stop offset="0" stop-color="#f5e5db"/>
      <stop offset=".14" stop-color="#f4e4da"/>
      <stop offset=".25" stop-color="#f2e3da"/>
      <stop offset=".34" stop-color="#f0ddd5"/>
      <stop offset=".45" stop-color="#eacdc5"/>
      <stop offset=".57" stop-color="#e0b2ac"/>
      <stop offset=".71" stop-color="#d18d89"/>
      <stop offset=".85" stop-color="#bf5c5b"/>
      <stop offset="1" stop-color="#aa2426"/>
    </linearGradient>
    <clipPath id="clippath-4">
      <polygon class="st0" points="7.479 27.309 7.456 27.309 18.069 49.948 20.565 49.895 13.342 27.309 7.479 27.309"/>
    </clipPath>
    <linearGradient id="linear-gradient4" x1="-507.915" y1="973.007" x2="-507.327" y2="973.007" gradientTransform="translate(-32104.948 16792.839) rotate(90) scale(33.01 -33.01)" gradientUnits="userSpaceOnUse">
      <stop offset="0" stop-color="#eed9ce"/>
      <stop offset=".14" stop-color="#eed9ce"/>
      <stop offset=".25" stop-color="#eed9ce"/>
      <stop offset=".34" stop-color="#ecd3c9"/>
      <stop offset=".46" stop-color="#e6c3ba"/>
      <stop offset=".58" stop-color="#dca9a1"/>
      <stop offset=".72" stop-color="#ce847f"/>
      <stop offset=".87" stop-color="#bc5553"/>
      <stop offset="1" stop-color="#aa2426"/>
    </linearGradient>
    <clipPath id="clippath-5">
      <polygon class="st0" points="7.367 27.309 17.745 49.948 20.247 49.889 12.948 27.309 7.367 27.309"/>
    </clipPath>
    <linearGradient id="linear-gradient5" x1="-506.033" y1="976.085" x2="-505.445" y2="976.085" gradientTransform="translate(-15740.299 -30366.428) rotate(-180) scale(31.15 -31.15)" gradientUnits="userSpaceOnUse">
      <stop offset="0" stop-color="#ebd1c2"/>
      <stop offset=".14" stop-color="#ebd1c2"/>
      <stop offset=".25" stop-color="#ebcfc0"/>
      <stop offset=".34" stop-color="#e9c9bb"/>
      <stop offset=".46" stop-color="#e3b9ac"/>
      <stop offset=".6" stop-color="#d89e94"/>
      <stop offset=".74" stop-color="#ca7872"/>
      <stop offset=".9" stop-color="#b84947"/>
      <stop offset="1" stop-color="#aa2426"/>
    </linearGradient>
    <clipPath id="clippath-6">
      <polygon class="st0" points="7.285 27.309 7.285 27.309 17.421 49.948 19.923 49.878 12.553 27.309 7.285 27.309"/>
    </clipPath>
    <linearGradient id="linear-gradient6" x1="-504.011" y1="979.218" x2="-503.423" y2="979.218" gradientTransform="translate(-14745.199 -28652.445) rotate(-180) scale(29.3 -29.3)" gradientUnits="userSpaceOnUse">
      <stop offset="0" stop-color="#e6c7b7"/>
      <stop offset=".14" stop-color="#e6c7b5"/>
      <stop offset=".25" stop-color="#e6c6b4"/>
      <stop offset=".35" stop-color="#e4c0af"/>
      <stop offset=".47" stop-color="#deb0a1"/>
      <stop offset=".61" stop-color="#d4968a"/>
      <stop offset=".76" stop-color="#c67069"/>
      <stop offset=".91" stop-color="#b54140"/>
      <stop offset="1" stop-color="#aa2427"/>
    </linearGradient>
    <clipPath id="clippath-7">
      <polygon class="st0" points="7.197 27.309 17.098 49.942 19.605 49.872 12.159 27.309 7.197 27.309"/>
    </clipPath>
    <linearGradient id="linear-gradient7" x1="-501.713" y1="982.609" x2="-501.125" y2="982.609" gradientTransform="translate(-13707.835 -26855.391) rotate(-180) scale(27.37 -27.37)" gradientUnits="userSpaceOnUse">
      <stop offset="0" stop-color="#e2bfac"/>
      <stop offset=".14" stop-color="#e2bca9"/>
      <stop offset=".25" stop-color="#e0bba8"/>
      <stop offset=".35" stop-color="#deb6a3"/>
      <stop offset=".48" stop-color="#d9a696"/>
      <stop offset=".62" stop-color="#cf8c80"/>
      <stop offset=".77" stop-color="#c36962"/>
      <stop offset=".93" stop-color="#b23b3c"/>
      <stop offset="1" stop-color="#aa2428"/>
    </linearGradient>
    <clipPath id="clippath-8">
      <polygon class="st0" points="7.114 27.309 7.114 27.309 16.774 49.942 19.287 49.866 11.764 27.309 7.114 27.309"/>
    </clipPath>
    <linearGradient id="linear-gradient8" x1="-499.208" y1="986.618" x2="-498.619" y2="986.618" gradientTransform="translate(-12650.694 -25011.594) rotate(-180) scale(25.39 -25.39)" gradientUnits="userSpaceOnUse">
      <stop offset="0" stop-color="#dfb59e"/>
      <stop offset=".14" stop-color="#ddb39e"/>
      <stop offset=".25" stop-color="#ddb09b"/>
      <stop offset=".36" stop-color="#dbaa96"/>
      <stop offset=".49" stop-color="#d59a89"/>
      <stop offset=".64" stop-color="#cb7f73"/>
      <stop offset=".8" stop-color="#bd5a55"/>
      <stop offset=".98" stop-color="#ac2b2e"/>
      <stop offset="1" stop-color="#a92428"/>
    </linearGradient>
    <clipPath id="clippath-9">
      <polygon class="st0" points="7.026 27.309 7.026 27.309 16.45 49.936 18.969 49.86 11.37 27.309 7.026 27.309"/>
    </clipPath>
    <linearGradient id="linear-gradient9" x1="-496.472" y1="991.424" x2="-495.883" y2="991.424" gradientTransform="translate(-11585.154 -23140.871) rotate(-180) scale(23.38 -23.38)" gradientUnits="userSpaceOnUse">
      <stop offset="0" stop-color="#daab94"/>
      <stop offset=".14" stop-color="#daaa93"/>
      <stop offset=".24" stop-color="#d9a891"/>
      <stop offset=".25" stop-color="#d8a690"/>
      <stop offset=".36" stop-color="#d6a18c"/>
      <stop offset=".5" stop-color="#d0917f"/>
      <stop offset=".66" stop-color="#c7776b"/>
      <stop offset=".82" stop-color="#ba544e"/>
      <stop offset=".99" stop-color="#aa262a"/>
      <stop offset="1" stop-color="#a92428"/>
    </linearGradient>
    <clipPath id="clippath-10">
      <polygon class="st0" points="6.943 27.309 16.126 49.936 18.646 49.854 10.976 27.309 6.943 27.309"/>
    </clipPath>
    <linearGradient id="linear-gradient10" x1="-493.355" y1="996.951" x2="-492.766" y2="996.951" gradientTransform="translate(-10511.438 -21246.275) rotate(-180) scale(21.35 -21.35)" gradientUnits="userSpaceOnUse">
      <stop offset="0" stop-color="#d5a188"/>
      <stop offset=".14" stop-color="#d4a087"/>
      <stop offset=".25" stop-color="#d49f86"/>
      <stop offset=".37" stop-color="#d29a82"/>
      <stop offset=".51" stop-color="#cd8b76"/>
      <stop offset=".67" stop-color="#c47163"/>
      <stop offset=".83" stop-color="#b84e48"/>
      <stop offset="1" stop-color="#a92428"/>
    </linearGradient>
    <clipPath id="clippath-11">
      <polygon class="st0" points="6.855 27.309 6.855 27.309 15.803 49.936 18.328 49.848 10.587 27.309 6.855 27.309"/>
    </clipPath>
    <linearGradient id="linear-gradient11" x1="-489.797" y1="1003.44" x2="-489.208" y2="1003.44" gradientTransform="translate(-9441.121 -19347.845) rotate(-180) scale(19.32 -19.32)" gradientUnits="userSpaceOnUse">
      <stop offset="0" stop-color="#d39a7f"/>
      <stop offset=".12" stop-color="#d2987d"/>
      <stop offset=".14" stop-color="#d2967c"/>
      <stop offset=".25" stop-color="#d2967c"/>
      <stop offset=".37" stop-color="#d09178"/>
      <stop offset=".52" stop-color="#cb826d"/>
      <stop offset=".68" stop-color="#c2685b"/>
      <stop offset=".85" stop-color="#b64642"/>
      <stop offset="1" stop-color="#a92128"/>
    </linearGradient>
    <clipPath id="clippath-12">
      <polygon class="st0" points="6.773 27.309 15.479 49.931 18.01 49.842 10.193 27.309 6.773 27.309"/>
    </clipPath>
    <linearGradient id="linear-gradient12" x1="-485.714" y1="1011.24" x2="-485.126" y2="1011.24" gradientTransform="translate(-8385.959 -17465.954) rotate(-180) scale(17.31 -17.31)" gradientUnits="userSpaceOnUse">
      <stop offset="0" stop-color="#cf9174"/>
      <stop offset=".14" stop-color="#cd8d72"/>
      <stop offset=".25" stop-color="#cc8b70"/>
      <stop offset=".38" stop-color="#ca866c"/>
      <stop offset=".53" stop-color="#c57662"/>
      <stop offset=".71" stop-color="#bd5d51"/>
      <stop offset=".89" stop-color="#b13a39"/>
      <stop offset="1" stop-color="#a92128"/>
    </linearGradient>
    <clipPath id="clippath-13">
      <polygon class="st0" points="6.826 27.309 6.684 27.309 15.155 49.931 17.686 49.836 9.798 27.309 6.826 27.309"/>
    </clipPath>
    <linearGradient id="linear-gradient13" x1="-481.127" y1="1020.966" x2="-480.538" y2="1020.966" gradientTransform="translate(-7359.362 -15622.996) rotate(-180) scale(15.34 -15.34)" gradientUnits="userSpaceOnUse">
      <stop offset="0" stop-color="#cc876a"/>
      <stop offset=".14" stop-color="#cb8569"/>
      <stop offset=".25" stop-color="#c88267"/>
      <stop offset=".39" stop-color="#c67d64"/>
      <stop offset=".55" stop-color="#c16d5a"/>
      <stop offset=".73" stop-color="#b85449"/>
      <stop offset=".93" stop-color="#ac3132"/>
      <stop offset="1" stop-color="#a72228"/>
    </linearGradient>
    <clipPath id="clippath-14">
      <polygon class="st0" points="6.92 27.309 6.602 27.309 14.843 49.925 17.368 49.825 9.404 27.309 6.92 27.309"/>
    </clipPath>
    <linearGradient id="linear-gradient14" x1="-475.794" y1="1033.153" x2="-475.205" y2="1033.153" gradientTransform="translate(-6371.142 -13836.636) rotate(-180) scale(13.43 -13.43)" gradientUnits="userSpaceOnUse">
      <stop offset="0" stop-color="#c87f61"/>
      <stop offset=".14" stop-color="#c77c5f"/>
      <stop offset=".25" stop-color="#c6795e"/>
      <stop offset=".4" stop-color="#c4745b"/>
      <stop offset=".57" stop-color="#bf6552"/>
      <stop offset=".76" stop-color="#b64d43"/>
      <stop offset=".95" stop-color="#aa2b2e"/>
      <stop offset="1" stop-color="#a72228"/>
    </linearGradient>
    <clipPath id="clippath-15">
      <polygon class="st0" points="6.92 27.309 6.52 27.309 14.508 49.925 17.05 49.825 9.01 27.309 6.92 27.309"/>
    </clipPath>
    <linearGradient id="linear-gradient15" x1="-469.455" y1="1048.511" x2="-468.867" y2="1048.511" gradientTransform="translate(-5424.152 -12113.628) rotate(-180) scale(11.59 -11.59)" gradientUnits="userSpaceOnUse">
      <stop offset="0" stop-color="#c37657"/>
      <stop offset=".14" stop-color="#c27255"/>
      <stop offset=".25" stop-color="#c16f55"/>
      <stop offset=".41" stop-color="#bf6a52"/>
      <stop offset=".59" stop-color="#ba5b4a"/>
      <stop offset=".79" stop-color="#b2433b"/>
      <stop offset="1" stop-color="#a72228"/>
    </linearGradient>
    <clipPath id="clippath-16">
      <polygon class="st0" points="6.92 27.309 6.431 27.309 14.184 49.925 16.727 49.825 8.592 27.309 6.92 27.309"/>
    </clipPath>
    <linearGradient id="linear-gradient16" x1="-461.639" y1="1067.978" x2="-461.051" y2="1067.978" gradientTransform="translate(-4520.531 -10459.611) rotate(-180) scale(9.83 -9.83)" gradientUnits="userSpaceOnUse">
      <stop offset="0" stop-color="#c16d50"/>
      <stop offset=".14" stop-color="#bf694e"/>
      <stop offset=".25" stop-color="#bf674b"/>
      <stop offset=".42" stop-color="#bd6248"/>
      <stop offset=".61" stop-color="#b85441"/>
      <stop offset=".82" stop-color="#b03c35"/>
      <stop offset="1" stop-color="#a72228"/>
    </linearGradient>
    <clipPath id="clippath-17">
      <polygon class="st0" points="6.92 27.309 6.331 27.309 13.889 49.919 16.409 49.825 8.221 27.309 6.92 27.309"/>
    </clipPath>
    <linearGradient id="linear-gradient17" x1="-452.328" y1="1094.49" x2="-451.739" y2="1094.49" gradientTransform="translate(-3685.226 -8914.307) rotate(-180) scale(8.18 -8.18)" gradientUnits="userSpaceOnUse">
      <stop offset="0" stop-color="#bf6347"/>
      <stop offset=".14" stop-color="#bd6044"/>
      <stop offset=".25" stop-color="#bc5f44"/>
      <stop offset=".43" stop-color="#ba5a42"/>
      <stop offset=".64" stop-color="#b54c3b"/>
      <stop offset=".86" stop-color="#ad3430"/>
      <stop offset="1" stop-color="#a72228"/>
    </linearGradient>
    <clipPath id="clippath-18">
      <path class="st0" d="M6.92,27.309h-.653l7.276,22.61,2.549-.118L7.826,27.309h-.907Z"/>
    </clipPath>
    <linearGradient id="linear-gradient18" x1="-440.406" y1="1130.52" x2="-439.817" y2="1130.52" gradientTransform="translate(-2910.334 -7468.042) rotate(-180) scale(6.64 -6.64)" gradientUnits="userSpaceOnUse">
      <stop offset="0" stop-color="#ba5a40"/>
      <stop offset=".14" stop-color="#b9593e"/>
      <stop offset=".25" stop-color="#b8553e"/>
      <stop offset=".45" stop-color="#b6503c"/>
      <stop offset=".68" stop-color="#b24336"/>
      <stop offset=".91" stop-color="#ab2d2d"/>
      <stop offset="1" stop-color="#a72228"/>
    </linearGradient>
    <clipPath id="clippath-19">
      <path class="st0" d="M6.92,27.309h-.742l7.064,22.592,2.549-.118L7.414,27.309h-.494Z"/>
    </clipPath>
    <linearGradient id="linear-gradient19" x1="-424.474" y1="1181.473" x2="-423.885" y2="1181.473" gradientTransform="translate(-2199.689 -6128.675) rotate(-180) scale(5.22 -5.22)" gradientUnits="userSpaceOnUse">
      <stop offset="0" stop-color="#b75239"/>
      <stop offset=".14" stop-color="#b65038"/>
      <stop offset=".25" stop-color="#b44c36"/>
      <stop offset=".47" stop-color="#b24735"/>
      <stop offset=".73" stop-color="#ad3930"/>
      <stop offset="1" stop-color="#a52229"/>
      <stop offset="1" stop-color="#a52229"/>
    </linearGradient>
    <clipPath id="clippath-20">
      <path class="st0" d="M6.92,27.309h-.824l6.799,22.604,2.555-.124L7.044,27.309h-.124Z"/>
    </clipPath>
    <linearGradient id="linear-gradient20" x1="-405.801" y1="1260.621" x2="-405.212" y2="1260.621" gradientTransform="translate(-1587.144 -4933.772) rotate(-180) scale(3.944 -3.944)" gradientUnits="userSpaceOnUse">
      <stop offset="0" stop-color="#b44a34"/>
      <stop offset=".14" stop-color="#b34532"/>
      <stop offset=".25" stop-color="#b34331"/>
      <stop offset=".5" stop-color="#b13e30"/>
      <stop offset=".79" stop-color="#ab312d"/>
      <stop offset="1" stop-color="#a52229"/>
    </linearGradient>
    <clipPath id="clippath-21">
      <polygon class="st0" points="6.078 27.327 6.013 27.327 12.571 49.913 15.131 49.783 6.649 27.309 6.061 27.309 6.078 27.327"/>
    </clipPath>
    <linearGradient id="linear-gradient21" x1="-373.149" y1="1388.27" x2="-372.56" y2="1388.27" gradientTransform="translate(-1046.007 -3890.196) rotate(-180) scale(2.83 -2.83)" gradientUnits="userSpaceOnUse">
      <stop offset="0" stop-color="#b1412e"/>
      <stop offset=".74" stop-color="#a82b2a"/>
      <stop offset="1" stop-color="#a52229"/>
    </linearGradient>
  </defs>
  <g id="c">
    <rect class="st0" y="0" width="173.35" height="85.5"/>
  </g>
  <g id="_图层_2" data-name="图层_2">
    <g id="_图层_1-2" data-name="图层_1-2">
      <path class="st46" d="M32.832,53.945v-25.524c.067-.552-.326-1.054-.877-1.121-.1-.012-.201-.009-.3.008h-2.172c-4.831-.115-9.624-.89-14.245-2.302-.063-.03-.137-.03-.2,0-.147.088-.377.253-.524.365-.084.063-.119.171-.088.271l.489,1.642H6.066c-1.466.047-4.12.589-4.12,4.803v25.023c-.013.599.46,1.096,1.06,1.113h25.011c4.998,0,4.815-3.661,4.815-4.274"/>
      <path class="st45" d="M22.749,52.12h-2.466c-.501,0-.907-.406-.907-.907h0v-.377c0-.501.406-.907.907-.907h3.367v1.283c.003.497-.397.903-.895.906-.002,0-.004,0-.006,0"/>
      <g class="st47">
        <rect class="st23" x="5.073" y="25.859" width="19.496" height="25.541" transform="translate(-9.61 5.237) rotate(-15.2)"/>
      </g>
      <g class="st36">
        <rect class="st3" x="5.571" y="26.147" width="18.089" height="24.964" transform="translate(-7.469 3.728) rotate(-11.6)"/>
      </g>
      <g class="st39">
        <rect class="st2" x="6.116" y="26.473" width="16.6" height="24.317" transform="translate(-5.236 2.382) rotate(-8)"/>
      </g>
      <g class="st37">
        <rect class="st5" x="6.691" y="26.832" width="15.046" height="23.599" transform="translate(-2.922 1.204) rotate(-4.4)"/>
      </g>
      <g class="st38">
        <rect class="st10" x="7.295" y="27.213" width="13.427" height="22.822" transform="translate(-.538 .199) rotate(-.8)"/>
      </g>
      <g class="st44">
        <rect class="st9" x="2.173" y="31.622" width="23.263" height="14.01" transform="translate(-25.471 50.459) rotate(-87.1)"/>
      </g>
      <g class="st41">
        <rect class="st6" x="1.641" y="31.067" width="23.922" height="15.122" transform="translate(-26.318 47.77) rotate(-83.5)"/>
      </g>
      <g class="st40">
        <rect class="st8" x="1.173" y="30.538" width="24.458" height="16.188" transform="translate(-26.981 45.051) rotate(-79.9)"/>
      </g>
      <g class="st43">
        <rect class="st7" x=".763" y="30.032" width="24.87" height="17.188" transform="translate(-27.456 42.3) rotate(-76.3)"/>
      </g>
      <g class="st42">
        <rect class="st4" x=".416" y="29.556" width="25.159" height="18.13" transform="translate(-27.743 39.544) rotate(-72.7)"/>
      </g>
      <g class="st29">
        <rect class="st17" x=".141" y="29.118" width="25.318" height="19.007" transform="translate(-27.847 36.801) rotate(-69.1)"/>
      </g>
      <g class="st26">
        <rect class="st16" x="-.082" y="28.707" width="25.347" height="19.82" transform="translate(-27.77 34.06) rotate(-65.5)"/>
      </g>
      <g class="st33">
        <rect class="st13" x="-.231" y="28.334" width="25.247" height="20.567" transform="translate(-27.51 31.36) rotate(-61.9)"/>
      </g>
      <g class="st31">
        <rect class="st12" x="-.321" y="27.989" width="25.023" height="21.268" transform="translate(-27.058 28.631) rotate(-58.2)"/>
      </g>
      <g class="st32">
        <rect class="st19" x="-.349" y="27.676" width="24.676" height="21.88" transform="translate(-26.433 26.019) rotate(-54.6)"/>
      </g>
      <g class="st30">
        <rect class="st14" x="-.318" y="27.409" width="24.205" height="22.416" transform="translate(-25.642 23.473) rotate(-51)"/>
      </g>
      <g class="st27">
        <rect class="st15" x="-.227" y="27.171" width="23.616" height="22.886" transform="translate(-24.682 21.002) rotate(-47.4)"/>
      </g>
      <g class="st24">
        <rect class="st18" x="-.075" y="26.978" width="22.91" height="23.287" transform="translate(-23.565 18.622) rotate(-43.8)"/>
      </g>
      <g class="st28">
        <rect class="st11" x=".129" y="26.807" width="22.098" height="23.61" transform="translate(-22.282 16.336) rotate(-40.2)"/>
      </g>
      <g class="st25">
        <rect class="st20" x=".388" y="26.679" width="21.179" height="23.869" transform="translate(-20.858 14.159) rotate(-36.6)"/>
      </g>
      <g class="st34">
        <rect class="st22" x=".654" y="26.696" width="20.127" height="24.018" transform="translate(-19.228 11.943) rotate(-32.735)"/>
      </g>
      <g class="st35">
        <rect class="st21" x="1.047" y="26.527" width="19.037" height="24.164" transform="translate(-17.592 10.159) rotate(-29.4)"/>
      </g>
      <path class="st1" d="M75.479,52.962c-.965.954-3.179,1.601-5.363,1.601s-4.35-.63-5.333-1.566M155.493,52.962c-.971.954-3.179,1.601-5.368,1.601s-4.344-.63-5.327-1.566M153.445,49.642h-6.634c-1.343,0-2.431-1.088-2.431-2.431h0v-1.024c0-1.339,1.086-2.425,2.425-2.425.002,0,.004,0,.006,0h9.065v3.449c0,1.343-1.088,2.431-2.431,2.431h0ZM73.284,49.642h-6.64c-1.34-.003-2.425-1.091-2.425-2.431v-1.024c0-1.339,1.086-2.425,2.425-2.425h9.053v3.449c0,1.336-1.078,2.421-2.413,2.431ZM165.848,48.812v2.884M139.641,51.696l-4.998-1.177c-.509-.262-.801-.815-.73-1.383,0-.771.389-1.395.877-1.395h3.602c.689,0,1.248-.895,1.248-1.995s-.559-1.99-1.248-1.99h-10.007v7.941M96.511,51.696v-6.858c0-.824.589-1.342,1.101-.93l9.024,7.652c.489.412,1.095-.1,1.095-.93v-6.84M114.547,47.711h7.652M123.636,51.696h-8.953c-1.377,0-2.496-1.766-2.496-3.985s1.118-3.985,2.496-3.985h9M82.172,47.711h7.652M91.261,51.696h-8.989c-1.377,0-2.496-1.766-2.496-3.985s1.118-3.985,2.496-3.985h9M59.445,43.726v7.97M43.91,51.696h9.895c.695,0,1.266-.895,1.266-2.001s-.589-1.995-1.266-1.995h-8.647c-.7.024-1.248-.871-1.248-1.995s.589-1.995,1.271-1.995h9.913"/>
      <path class="st46" d="M75.768,41.584h-3.132c-.271,0-.491-.218-.494-.489v-.53c.003-.271.224-.489.494-.489h3.65v1.018c0,.27-.219.489-.489.489-.002,0-.004,0-.006,0"/>
      <path class="st46" d="M156.035,41.584h-3.137c-.27,0-.489-.219-.489-.489v-.53c0-.27.219-.489.489-.489h3.626v1.018c0,.27-.219.489-.489.489"/>
      <path class="st1" d="M171.404,43.508l-2.007,1.519c-2.1,1.587-4.999,1.587-7.099,0l-2.007-1.519"/>
    </g>
  </g>
</svg>