<?xml version="1.0" encoding="UTF-8"?>
<svg id="Layer_1" xmlns="http://www.w3.org/2000/svg" version="1.1" viewBox="0 0 50.3 50.3">
  <!-- Generator: Adobe Illustrator 30.3.0, SVG Export Plug-In . SVG Version: 2.1.3 Build 182)  -->
  <defs>
    <style>
      .st0 {
        fill: #231f20;
      }

      .st1 {
        fill: #fff;
      }
    </style>
  </defs>
  <g id="Layer_2">
    <g id="Layer_1-2">
      <path class="st0" d="M25.1,50.3c13.9,0,25.1-11.3,25.1-25.1S39,0,25.1,0,0,11.3,0,25.1c0,13.9,11.3,25.1,25.1,25.1h0"/>
      <path class="st1" d="M36.6,29.6l-.4.4h-.6v-9.8h1.1v9.3ZM33.1,20.3h1.2v9.7h-1.2v-9.7ZM30.7,20.3h1.2v9.7h-1.2v-9.7ZM28.3,20.3h1.2v9.7h-1.2v-9.7ZM21.1,20.3h1.2v9.7h-1.2v-9.7ZM18.7,20.3h1.2v9.7h-1.2v-9.7ZM13.7,29.2v-8.9h1.4v9.7h-.4l-1-.8ZM17.5,30h-1.2v-9.7h1.2v9.7ZM24.7,30h-1.2v-9.7h1.2v9.7ZM25.9,20.2h1.2v9.8h-1.2v-9.8ZM37.6,18.2H11.7v11.8l2.3,1.9h23l1.6-1.6v-12.2h-1.1Z"/>
    </g>
  </g>
</svg>