<?xml version="1.0" encoding="UTF-8"?>
<svg id="b" xmlns="http://www.w3.org/2000/svg" version="1.1" viewBox="0 0 173.35 85.5">
  <!-- Generator: Adobe Illustrator 30.3.0, SVG Export Plug-In . SVG Version: 2.1.3 Build 182)  -->
  <defs>
    <style>
      .st0 {
        fill: none;
      }

      .st1 {
        fill: #7bba42;
      }

      .st2 {
        fill: #1ea84a;
      }
    </style>
  </defs>
  <g id="c">
    <rect class="st0" y="0" width="173.35" height="85.5"/>
  </g>
  <g id="c1" data-name="c">
    <path class="st2" d="M38.665,56.298c-.357,2.044-2.29,3.697-4.3,3.697s-3.396-1.653-3.049-3.697c.357-2.044,2.29-3.697,4.311-3.697s3.373,1.653,3.038,3.697"/>
    <polygon class="st2" points="53.967 61.481 57.006 45.765 50.974 45.765 47.947 61.481 53.967 61.481"/>
    <path class="st2" d="M58.011,40.951c-.29,1.698-1.888,3.06-3.552,3.06s-2.804-1.363-2.502-3.06c.302-1.687,1.888-3.049,3.552-3.049s2.804,1.363,2.513,3.049"/>
    <path class="st2" d="M70.845,45.319c-2.658.112-5.16,1.519-5.462,1.687l.235-1.24h-6.032l-3.038,15.716h6.02l2.055-10.645c1.385-1.43,3.005-1.597,4.367-1.352.994.179,1.15.86,1.128,1.352l-2.044,10.645h6.02l2.312-12.018.022-.112c.045-.235.056-.458.056-.67-.034-2.58-3.072-3.451-5.652-3.362"/>
    <polygon class="st2" points="81.512 51.294 85.32 47.407 86.627 40.694 80.596 40.694 76.552 61.481 82.573 61.481 84.069 53.796 81.512 51.294"/>
    <polygon class="st2" points="90.19 51.294 101.092 40.694 93.374 40.694 83.008 51.294 93.374 61.481 101.092 61.481 90.19 51.294"/>
    <path class="st2" d="M43.155,40.795s-1.72,8.835-2.558,13.001c-.648,3.25-1.631,6.88-5.54,7.126-.145.022-.302.022-.469.022-1.106,0-2.167-.346-3.027-.949.815.994,2.089,1.564,3.496,1.809,2.558.469,5.585-.101,7.327-1.173,3.15-1.888,4.066-4.993,4.725-8.332.57-2.859,2.256-11.516,2.256-11.516h-6.221l.011.011Z"/>
    <path class="st2" d="M109.022,56.432c-2.938,0-5.082-2.401-4.825-5.361s2.859-5.35,5.797-5.35,5.093,2.39,4.836,5.35c-.279,2.96-2.871,5.361-5.808,5.361M110.508,40.181c-5.976,0-11.259,4.87-11.806,10.89-.547,6.02,3.853,10.901,9.829,10.901s11.248-4.87,11.795-10.901c.547-6.02-3.853-10.89-9.818-10.89"/>
    <path class="st1" d="M112.853,34.272c-.179-.335-.447-.625-.804-.894-.357-.257-.748-.469-1.195-.637-.436-.156-.916-.279-1.385-.369-1.441-.212-2.781-.681-4.01-1.407-.112-.056-.235-.179-.346-.369-.123-.19-.19-.369-.19-.536,0-.625.112-1.262.313-1.888.212-.637.48-1.128.804-1.486.525-.603,1.474-1.117,2.837-1.553,1.363-.447,2.915-.67,4.613-.67,1.028,0,1.821.078,2.368.235.558.156.838.402.838.726,0,.536-.067.949-.223,1.251-.145.279-.302.491-.458.581-.168.101-.458.223-.882.391-.436.156-.838.324-1.162.491-.335.168-.614.335-.849.503-.235.156-.38.235-.436.235-.067,0-.101-.022-.101-.089,0-.123.134-.302.38-.547.246-.246.558-.469.927-.648.391-.201.592-.346.592-.391,0-.101-.223-.134-.659-.134-1.307,0-2.524.112-3.641.346-1.106.235-1.999.547-2.636.938-.648.38-.961.771-.961,1.173,0,.246.123.424.391.536.268.101.849.279,1.765.514.905.246,1.72.525,2.435.838,1.028.447,1.787.916,2.29,1.385.503.48.748,1.016.748,1.608,0,.413-.101.827-.302,1.229-.19.413-.48.793-.86,1.128-.38.346-.815.625-1.296.849-.424.179-.961.346-1.586.503-.637.156-1.318.279-2.055.369-.748.089-1.452.134-2.133.134-1.24,0-2.234-.123-2.993-.357s-1.139-.592-1.139-1.072c0-.223.134-.547.38-1.005.257-.458.558-.76.916-.927.302-.123.603-.19.882-.212.279-.022.436.022.436.101,0,.022-.022.045-.045.067-.022.022-.045.045-.078.056-.022.011-.045.022-.078.034-.134.067-.257.101-.346.145-.089.022-.168.056-.212.089-.056.034-.078.078-.078.134,0,.145.737.223,2.2.223,1.285,0,2.334-.045,3.139-.145.815-.101,1.553-.268,2.167-.514s1.195-.581,1.709-1.005"/>
    <path class="st1" d="M120.572,31.144c-.581.357-1.095.681-1.508.972-.424.302-.771.592-1.072.882-.29.302-.48.592-.581.894-.179.804-.257,1.229-.257,1.296,0,.48.324.715.983.715.313,0,.815-.268,1.53-.793-.123-.335-.179-.659-.179-.972,0-.447.089-.905.279-1.374.179-.469.458-1.005.815-1.62M122.772,33.97v.715c-.469.436-.849.715-1.128.86-.29.145-.693.201-1.229.179-.927,1.095-1.731,1.653-2.435,1.653-.402,0-.76-.134-1.083-.402-.335-.257-.603-.614-.793-1.083s-.29-.972-.29-1.541c0-.469.145-.972.447-1.53.302-.558.693-1.083,1.173-1.564s1.005-.871,1.541-1.173c.547-.302,1.05-.447,1.519-.447.324,0,.603.056.793.156.201.112.279.246.279.436,0,.145-.078.302-.235.491.268.045.447.156.547.29.101.134.145.38.145.726s-.078.782-.246,1.296c-.156.525-.369,1.016-.648,1.474l.19.201h.156c.123,0,.246-.034.357-.101.112-.056.212-.123.313-.201.101-.067.302-.212.603-.458"/>
    <path class="st1" d="M124.648,31.937c.38-.369.726-.782,1.072-1.251s.681-.961.983-1.486c.302-.525.547-1.005.726-1.43s.257-.737.257-.961c0-.156-.056-.246-.168-.246-.045,0-.134.045-.246.123-.424.357-.916,1.05-1.452,2.1-.536,1.039-.927,2.089-1.15,3.15M127.832,33.87v.793c-1.486,1.988-2.692,2.971-3.619,2.971-.503,0-.905-.279-1.195-.827-.29-.558-.424-1.284-.424-2.189,0-.737.168-1.597.503-2.614.346-1.005.804-2.022,1.363-3.049.581-1.039,1.173-1.932,1.787-2.703.614-.771,1.173-1.307,1.698-1.608.212-.134.38-.201.503-.201.168,0,.257.067.313.201.045.134.067.357.067.681,0,.994-.402,2.223-1.206,3.675-.804,1.441-1.921,2.915-3.351,4.434-.078.369-.101.659-.101.86,0,.458.101.838.29,1.117.201.29.469.424.815.424.179,0,.369-.067.57-.201.212-.145.424-.324.648-.525.235-.201.67-.625,1.329-1.24"/>
    <path class="st1" d="M134.087,30.887c-1.843.849-3.161,1.564-3.943,2.167-.782.592-1.173,1.206-1.173,1.832,0,.235.034.424.123.57.089.156.179.223.313.223.078,0,.212-.045.424-.145.737-.447,1.419-1.016,2.033-1.731.614-.715,1.363-1.687,2.223-2.904M128.982,32.071c1.095-.983,2.133-1.72,3.15-2.2,1.016-.48,1.798-.715,2.357-.715.145,0,.279.067.413.19.123.123.223.268.302.436.067.168.112.29.112.369,0,.134-.045.223-.145.29-.101.056-.279.134-.525.212.045.123.112.268.201.447.078.179.134.324.179.436s.056.212.056.302c0,.168-.168.491-.514.961s-.581.815-.726,1.039c-.145.223-.212.503-.212.815,0,.525.246.793.726.793s1.273-.48,2.334-1.407v.659c-1.787,2.011-3.083,3.016-3.853,3.016-.279,0-.48-.089-.592-.279-.123-.179-.179-.447-.179-.804,0-.57.201-1.385.603-2.457-1.039,1.162-1.809,1.988-2.312,2.468-.514.491-.916.737-1.251.737-.145,0-.346-.134-.581-.413-.235-.268-.447-.625-.614-1.061-.179-.424-.268-.871-.268-1.34,0-.335.034-.614.101-.849.056-.223.179-.458.357-.693.19-.235.48-.547.882-.938"/>
    <path class="st1" d="M136.488,34.819v-.704c.38-.458.67-.849.871-1.173-.223-.078-.391-.168-.503-.29-.089-.112-.156-.29-.156-.514,0-.257.112-.581.324-.972.201-.402.48-.76.782-1.106.313-.346.603-.57.86-.67.089-.045.19-.067.279-.067.145,0,.212.067.212.201,0,.123-.112.369-.335.748,1.463-.235,2.39-.346,2.77-.346.156,0,.257.011.313.045.134.067.223.212.302.436.078.246.123.48.123.715,0,.145-.078.313-.201.48-.134.179-.357.436-.67.771-.38.413-.704.849-.949,1.329-.257.48-.391.838-.391,1.083,0,.335.201.503.614.503.436,0,1.195-.447,2.267-1.329v.715c-.592.625-1.072,1.117-1.452,1.474-.391.357-.748.637-1.072.86-.335.212-.625.313-.871.313-.302,0-.547-.134-.748-.413s-.302-.67-.302-1.195c0-.313.078-.659.235-1.05.156-.391.391-.815.693-1.284.302-.469.648-.927,1.016-1.385-.201.045-.424.089-.67.134-.246.056-.514.101-.782.145-.279.056-.491.089-.637.123-.447.882-1.072,1.687-1.921,2.413"/>
  </g>
</svg>