<svg xmlns="http://www.w3.org/2000/svg" xmlns:xlink="http://www.w3.org/1999/xlink" id="Layer_2" data-name="Layer 2" viewBox="0 0 333.87 59.24"><defs><style> .cls-1 { clip-path: url(#clippath); } .cls-2, .cls-3 { fill: none; } .cls-2, .cls-4, .cls-5, .cls-6, .cls-7 { stroke-width: 0px; } .cls-3 { stroke: #000; stroke-width: 2px; } .cls-5 { fill: #2584b8; } .cls-6 { fill: #1b1337; } .cls-7 { fill: #fff; } </style><clipPath id="clippath"><rect class="cls-2" x=".36" y=".54" width="54.88" height="54.88"></rect></clipPath></defs><g id="Layer_1-2" data-name="Layer 1"><g><g><rect class="cls-4" x="68.45" y="0" width="55.61" height="55.61"></rect><g><path class="cls-7" d="M86.63,51.78h-.8c-.13,0-.2-.07-.2-.2v-2.02l-1.73-3.65c-.02-.06-.02-.11,0-.15s.07-.06.13-.06h1c.1,0,.18.07.23.2l.94,2.3h.07l.93-2.3c.04-.13.12-.2.23-.2h1c.06,0,.11.02.14.06.03.04.03.09,0,.15l-1.73,3.65v2.02c0,.13-.07.2-.2.2Z"></path><path class="cls-7" d="M92.57,51.78h-3.09c-.13,0-.2-.07-.2-.2v-5.68c0-.13.07-.2.2-.2h3.09c.13,0,.19.07.19.2v.64c0,.13-.06.2-.19.2h-1.98c-.08,0-.11.03-.11.1v1.23c0,.07.04.1.11.1h1.62c.13,0,.2.07.2.2v.64c0,.13-.07.2-.2.2h-1.62c-.08,0-.11.04-.11.1v1.31c0,.07.04.1.11.1h1.98c.13,0,.19.07.19.2v.64c0,.13-.06.2-.19.2Z"></path><path class="cls-7" d="M94.44,51.78h-.91c-.11,0-.15-.07-.11-.2l1.49-5.68c.04-.13.14-.2.28-.2h1.26c.16,0,.25.07.28.2l1.49,5.68c.04.13,0,.2-.11.2h-.91c-.07,0-.12-.01-.14-.04-.03-.03-.04-.08-.06-.16l-.26-1.04h-1.84l-.26,1.04c-.01.08-.03.13-.06.16s-.07.04-.14.04ZM95.81,46.84l-.68,2.73h1.4l-.68-2.73h-.04Z"></path><path class="cls-7" d="M100.08,51.78h-.8c-.13,0-.2-.07-.2-.2v-5.68c0-.13.07-.2.2-.2h2.25c.49,0,.88.14,1.15.41.28.27.42.65.42,1.14v.74c0,.71-.28,1.18-.84,1.42v.04l1.01,2.11c.06.15,0,.23-.16.23h-.77c-.11,0-.2-.01-.25-.04-.05-.03-.09-.08-.12-.16l-.94-2.04h-.63c-.08,0-.11.03-.11.1v1.94c0,.13-.07.2-.2.2ZM100.38,48.57h.93c.2,0,.35-.04.44-.13s.14-.22.14-.41v-.74c0-.2-.05-.34-.14-.43-.09-.09-.24-.13-.44-.13h-.93c-.07,0-.1.03-.1.1v1.63c0,.07.03.1.1.1Z"></path><path class="cls-7" d="M104.09,50.23v-.19c0-.13.07-.2.2-.2h.8c.13,0,.2.07.2.2v.08c0,.24.05.4.14.49s.27.13.52.13h.44c.25,0,.42-.05.52-.14.1-.09.15-.27.15-.53v-.11c0-.18-.07-.32-.22-.42s-.33-.16-.55-.17-.46-.06-.71-.11c-.26-.05-.49-.12-.71-.21-.22-.08-.4-.25-.55-.5-.15-.25-.22-.57-.22-.96v-.33c0-.49.14-.87.42-1.14.28-.27.66-.41,1.15-.41h.95c.5,0,.89.14,1.16.41.28.27.42.65.42,1.14v.18c0,.13-.07.2-.2.2h-.8c-.13,0-.2-.07-.2-.2v-.06c0-.25-.05-.41-.14-.5-.09-.09-.27-.13-.52-.13h-.37c-.26,0-.43.05-.52.15s-.14.29-.14.57v.18c0,.3.26.47.78.51.54.04,1.01.15,1.43.32.22.09.4.26.55.51.15.24.22.55.22.93v.32c0,.49-.14.87-.42,1.14s-.66.41-1.15.41h-1.03c-.49,0-.88-.14-1.15-.41s-.42-.65-.42-1.14Z"></path></g><g><rect class="cls-7" x="69.95" y="1.5" width="52.61" height="14.3"></rect><path class="cls-4" d="M121.06,3v11.3h-49.61V3h49.61M124.06,0h-55.61v17.3h55.61V0h0Z"></path></g><polygon class="cls-7" points="96.25 17.44 107.08 13.32 85.43 13.32 96.25 17.44"></polygon><polygon class="cls-4" points="96.25 59.24 109.36 55.12 83.15 55.12 96.25 59.24"></polygon><g><path class="cls-4" d="M75.28,11.52h-1.32c-.14,0-.22-.07-.24-.2l-1.01-5.68c-.02-.13.05-.2.2-.2h.98c.14,0,.22.07.23.2l.55,4.66h.07l.91-4.69c.02-.11.09-.17.2-.17h1.06c.12,0,.19.05.21.16l.93,4.7h.08l.54-4.65c0-.14.08-.21.23-.21h.98c.15,0,.22.07.2.21l-1.02,5.67c-.02.13-.09.2-.22.2h-1.33c-.13,0-.21-.07-.23-.2l-.85-4.43h-.04l-.86,4.43c-.02.13-.1.2-.23.2Z"></path><path class="cls-4" d="M81.2,11.52h-.91c-.11,0-.15-.07-.11-.2l1.49-5.68c.04-.13.14-.2.28-.2h1.26c.16,0,.25.07.28.2l1.49,5.68c.04.13,0,.2-.11.2h-.91c-.07,0-.12-.01-.14-.04s-.04-.08-.06-.16l-.26-1.04h-1.84l-.26,1.04c-.01.08-.03.13-.06.16-.03.03-.07.04-.14.04ZM82.57,6.59l-.68,2.73h1.4l-.68-2.73h-.04Z"></path><path class="cls-4" d="M86.6,11.52h-.8c-.13,0-.2-.07-.2-.2v-5.68c0-.13.07-.2.2-.2h2.25c.49,0,.88.14,1.15.41s.42.65.42,1.14v.74c0,.71-.28,1.19-.84,1.42v.04l1.01,2.11c.06.15,0,.23-.16.23h-.77c-.11,0-.2-.01-.25-.04-.05-.03-.09-.08-.12-.16l-.95-2.04h-.63c-.08,0-.11.03-.11.1v1.94c0,.13-.07.2-.2.2ZM86.9,8.32h.93c.2,0,.35-.04.44-.13.09-.08.14-.22.14-.41v-.74c0-.2-.05-.34-.14-.43-.09-.09-.24-.13-.44-.13h-.93c-.07,0-.1.03-.1.1v1.63c0,.07.03.1.1.1Z"></path><path class="cls-4" d="M91.54,11.52h-.8c-.13,0-.2-.07-.2-.2v-5.68c0-.13.07-.2.2-.2h2.25c.49,0,.88.14,1.15.41s.42.65.42,1.14v.74c0,.71-.28,1.19-.84,1.42v.04l1.01,2.11c.06.15,0,.23-.16.23h-.77c-.11,0-.2-.01-.25-.04-.05-.03-.09-.08-.12-.16l-.95-2.04h-.63c-.08,0-.11.03-.11.1v1.94c0,.13-.07.2-.2.2ZM91.84,8.32h.93c.2,0,.35-.04.44-.13.09-.08.14-.22.14-.41v-.74c0-.2-.05-.34-.14-.43-.09-.09-.24-.13-.44-.13h-.93c-.07,0-.1.03-.1.1v1.63c0,.07.03.1.1.1Z"></path><path class="cls-4" d="M96.1,11.52h-.91c-.11,0-.15-.07-.11-.2l1.49-5.68c.04-.13.14-.2.28-.2h1.26c.16,0,.25.07.28.2l1.49,5.68c.04.13,0,.2-.11.2h-.91c-.07,0-.12-.01-.14-.04s-.04-.08-.06-.16l-.26-1.04h-1.84l-.26,1.04c-.01.08-.03.13-.06.16-.03.03-.07.04-.14.04ZM97.47,6.59l-.68,2.73h1.4l-.68-2.73h-.04Z"></path><path class="cls-4" d="M101.48,11.52h-.78c-.13,0-.2-.07-.2-.2v-5.68c0-.13.07-.2.2-.2h.71c.13,0,.22.04.26.13l1.91,3.58h.04v-3.52c0-.13.07-.2.2-.2h.78c.13,0,.2.07.2.2v5.68c0,.13-.07.2-.2.2h-.69c-.14,0-.24-.06-.3-.19l-1.89-3.52h-.04v3.51c0,.13-.07.2-.2.2Z"></path><path class="cls-4" d="M107.67,11.52h-.79c-.14,0-.21-.07-.21-.2v-4.74c0-.07-.03-.1-.1-.1h-1.08c-.13,0-.2-.07-.2-.2v-.64c0-.13.07-.2.2-.2h3.57c.13,0,.2.07.2.2v.64c0,.13-.07.2-.2.2h-1.08c-.08,0-.11.03-.11.1v4.74c0,.13-.07.2-.2.2Z"></path><path class="cls-4" d="M110.99,5.64v5.68c0,.13-.07.2-.2.2h-.8c-.13,0-.2-.07-.2-.2v-5.68c0-.13.07-.2.2-.2h.8c.13,0,.2.07.2.2Z"></path><path class="cls-4" d="M115.32,11.52h-3.09c-.13,0-.2-.07-.2-.2v-5.68c0-.13.07-.2.2-.2h3.09c.13,0,.19.07.19.2v.64c0,.13-.06.2-.19.2h-1.98c-.08,0-.11.03-.11.1v1.23c0,.07.04.1.11.1h1.62c.13,0,.2.07.2.2v.64c0,.13-.07.2-.2.2h-1.62c-.08,0-.11.03-.11.1v1.31c0,.07.04.1.11.1h1.98c.13,0,.19.07.19.2v.64c0,.13-.06.2-.19.2Z"></path><path class="cls-4" d="M116.17,9.97v-.19c0-.13.07-.2.2-.2h.8c.13,0,.2.07.2.2v.08c0,.24.05.4.14.49.09.09.27.13.52.13h.44c.25,0,.42-.05.52-.14.1-.09.15-.27.15-.53v-.11c0-.18-.07-.32-.22-.42s-.33-.16-.55-.18c-.22-.02-.46-.05-.71-.11s-.49-.12-.71-.21-.41-.25-.55-.5-.22-.57-.22-.96v-.33c0-.49.14-.87.42-1.14s.66-.41,1.15-.41h.95c.5,0,.89.14,1.16.41s.42.65.42,1.14v.18c0,.13-.07.2-.2.2h-.8c-.13,0-.2-.07-.2-.2v-.06c0-.25-.05-.41-.14-.5-.09-.09-.27-.13-.52-.13h-.37c-.26,0-.43.05-.52.15-.09.1-.14.29-.14.57v.18c0,.3.26.47.78.51.54.04,1.01.15,1.43.32.22.09.41.26.55.51.15.24.22.55.22.93v.32c0,.49-.14.87-.42,1.14-.28.27-.66.41-1.15.41h-1.03c-.49,0-.88-.14-1.15-.41-.28-.27-.42-.65-.42-1.14Z"></path></g><g><path class="cls-7" d="M87.11,42.66c-3.99,0-8.01-2.13-8.01-7.54h5.55c0,1.69,1.08,2.54,2.47,2.54s2.47-.85,2.47-2.57c0-1.45-1.08-2.54-2.57-2.54h-.78v-4.8h.78c1.66,0,2.3-1.18,2.3-2.27,0-1.52-1.05-2.3-2.2-2.3s-2.2.81-2.2,2.27h-5.55c0-4.53,3.45-7.27,7.74-7.27s7.74,2.98,7.74,7.13c0,2.64-1.28,3.92-2.5,4.7,1.32.91,2.77,2.37,2.77,5.24,0,5.04-3.79,7.41-8.01,7.41Z"></path><path class="cls-7" d="M105.88,42.66c-3.99,0-7.74-2.54-7.74-7.51v-9.47c0-4.97,3.75-7.51,7.74-7.51s7.74,2.54,7.74,7.51v9.47c0,4.97-3.75,7.51-7.74,7.51ZM108.08,25.69c0-1.69-1.01-2.5-2.2-2.5s-2.2.81-2.2,2.5v9.5c0,1.69,1.01,2.47,2.2,2.47s2.2-.78,2.2-2.47v-9.5Z"></path></g></g><g><path class="cls-4" d="M136.89,0h55.61v43.75c0,6.55-5.32,11.86-11.86,11.86h-31.89c-6.55,0-11.86-5.32-11.86-11.86V0h0Z"></path><polygon class="cls-4" points="164.7 59.24 177.81 55.12 151.59 55.12 164.7 59.24"></polygon><g><g><g><path class="cls-7" d="M152.3,24.5v-.36h1.3s0,1.15,0,1.15c-.2.16-.41.28-.62.36-.21.08-.43.12-.65.12-.3,0-.58-.07-.82-.2-.25-.13-.43-.32-.56-.57-.13-.25-.19-.52-.19-.83s.06-.58.19-.84c.12-.26.31-.46.54-.58.23-.13.51-.19.81-.19.22,0,.42.04.6.11.18.07.32.17.42.3s.18.3.23.51l-.37.1c-.05-.16-.1-.28-.17-.37-.07-.09-.17-.16-.29-.22-.13-.05-.27-.08-.42-.08-.19,0-.35.03-.48.09s-.25.13-.33.23c-.08.09-.15.19-.19.31-.08.19-.12.4-.12.62,0,.28.05.51.14.69.09.19.23.32.41.41s.37.13.58.13c.18,0,.35-.03.52-.1.17-.07.3-.14.38-.22v-.58h-.9Z"></path><path class="cls-7" d="M154.15,25.72v-2.24h.34v.34c.09-.16.17-.26.24-.32.07-.05.15-.08.24-.08.13,0,.26.04.39.12l-.13.35c-.09-.05-.19-.08-.28-.08-.08,0-.16.03-.22.07-.07.05-.11.12-.14.21-.04.14-.06.28-.06.44v1.18h-.38Z"></path><path class="cls-7" d="M157.11,25l.39.05c-.06.23-.18.41-.34.53-.17.13-.38.19-.64.19-.33,0-.58-.1-.78-.3-.19-.2-.29-.49-.29-.85s.1-.67.29-.88c.19-.21.44-.31.75-.31s.54.1.73.31.28.49.28.86c0,.02,0,.06,0,.1h-1.66c.01.25.08.44.21.57.12.13.28.2.47.2.14,0,.26-.04.35-.11.1-.07.18-.19.23-.35ZM155.87,24.38h1.24c-.02-.19-.06-.33-.14-.42-.12-.15-.28-.22-.47-.22-.17,0-.32.06-.44.18-.12.12-.18.27-.2.47Z"></path><path class="cls-7" d="M159.5,25l.39.05c-.06.23-.18.41-.34.53-.17.13-.38.19-.64.19-.33,0-.58-.1-.78-.3-.19-.2-.29-.49-.29-.85s.1-.67.29-.88c.19-.21.44-.31.75-.31s.54.1.73.31.28.49.28.86c0,.02,0,.06,0,.1h-1.66c.01.25.08.44.21.57.12.13.28.2.47.2.14,0,.26-.04.35-.11.1-.07.18-.19.23-.35ZM158.26,24.38h1.24c-.02-.19-.06-.33-.14-.42-.12-.15-.28-.22-.47-.22-.17,0-.32.06-.44.18-.12.12-.18.27-.2.47Z"></path><path class="cls-7" d="M160.37,25.72v-2.24h.34v.32c.16-.25.4-.37.71-.37.13,0,.26.02.37.07.11.05.2.11.25.19.06.08.09.17.12.28.01.07.02.19.02.37v1.38h-.38v-1.37c0-.15-.01-.27-.04-.35-.03-.08-.08-.14-.16-.18-.07-.05-.16-.07-.26-.07-.16,0-.3.05-.42.15-.12.1-.18.3-.18.59v1.23h-.38Z"></path><path class="cls-7" d="M163.99,25.72v-3.1h1.15c.24,0,.42.03.57.09.14.06.25.16.33.29.08.13.12.27.12.41,0,.13-.04.26-.11.37-.07.12-.18.21-.32.28.19.05.33.15.43.28.1.13.15.29.15.47,0,.15-.03.28-.09.4-.06.12-.14.22-.23.29-.09.07-.2.12-.34.15-.13.03-.3.05-.5.05h-1.17ZM164.39,23.92h.67c.18,0,.31-.01.39-.04.1-.03.18-.08.23-.15.05-.07.08-.16.08-.27,0-.1-.02-.19-.07-.27s-.12-.13-.21-.16c-.09-.03-.25-.04-.47-.04h-.62v.94ZM164.39,25.35h.77c.13,0,.22,0,.28-.01.09-.02.17-.05.24-.08.06-.04.11-.1.16-.17.04-.08.06-.16.06-.26,0-.12-.03-.22-.09-.3s-.14-.15-.24-.18c-.1-.03-.25-.05-.45-.05h-.71v1.07Z"></path><path class="cls-7" d="M168.28,25.72v-.33c-.17.25-.41.38-.71.38-.13,0-.25-.03-.37-.08s-.2-.11-.25-.19c-.05-.08-.09-.17-.12-.28-.02-.07-.02-.19-.02-.36v-1.39h.38v1.24c0,.2,0,.33.02.4.02.1.07.18.15.24s.17.09.29.09.22-.03.32-.09c.1-.06.17-.14.21-.24.04-.1.06-.25.06-.44v-1.2h.38v2.24h-.34Z"></path><path class="cls-7" d="M169.21,23.06v-.44h.38v.44h-.38ZM169.21,25.72v-2.24h.38v2.24h-.38Z"></path><path class="cls-7" d="M170.16,25.72v-3.1h.38v3.1h-.38Z"></path><path class="cls-7" d="M172.57,25.72v-.28c-.14.22-.35.33-.62.33-.18,0-.34-.05-.49-.15-.15-.1-.26-.24-.35-.41s-.12-.38-.12-.61.04-.43.11-.61c.07-.18.19-.32.33-.42.15-.1.31-.15.5-.15.13,0,.25.03.36.09.11.06.19.13.26.22v-1.11h.38v3.1h-.35ZM171.38,24.6c0,.29.06.5.18.64.12.14.26.21.43.21s.31-.07.42-.2c.12-.14.17-.34.17-.62,0-.31-.06-.53-.18-.68-.12-.14-.26-.22-.43-.22s-.31.07-.42.21c-.11.14-.17.36-.17.65Z"></path><path class="cls-7" d="M173.52,23.06v-.44h.38v.44h-.38ZM173.52,25.72v-2.24h.38v2.24h-.38Z"></path><path class="cls-7" d="M174.47,25.72v-2.24h.34v.32c.16-.25.4-.37.71-.37.13,0,.26.02.37.07.11.05.2.11.25.19.06.08.09.17.12.28.01.07.02.19.02.37v1.38h-.38v-1.37c0-.15-.01-.27-.04-.35-.03-.08-.08-.14-.16-.18-.07-.05-.16-.07-.26-.07-.16,0-.3.05-.42.15-.12.1-.18.3-.18.59v1.23h-.38Z"></path><path class="cls-7" d="M176.76,25.9l.37.05c.01.11.06.2.13.25.09.07.22.11.38.11.17,0,.31-.04.41-.11.09-.07.16-.17.19-.3.02-.08.03-.24.03-.49-.17.2-.37.29-.62.29-.31,0-.54-.11-.71-.33s-.25-.49-.25-.8c0-.21.04-.41.12-.59s.19-.32.34-.42.32-.15.52-.15c.26,0,.48.11.65.32v-.27h.35v1.94c0,.35-.04.6-.11.74-.07.15-.18.26-.34.35-.15.08-.34.13-.57.13-.27,0-.48-.06-.64-.18s-.24-.3-.24-.54ZM177.07,24.56c0,.29.06.51.17.64.12.14.26.2.44.2s.32-.07.44-.2c.12-.13.18-.35.18-.63s-.06-.48-.18-.62c-.12-.14-.27-.21-.44-.21s-.31.07-.43.21c-.12.14-.18.34-.18.61Z"></path></g><g><path class="cls-7" d="M156.34,29.9v-3.1h.61l.73,2.19c.07.2.12.36.15.46.04-.11.09-.28.16-.5l.74-2.16h.55v3.1h-.39v-2.59l-.89,2.59h-.37l-.89-2.64v2.64h-.39Z"></path><path class="cls-7" d="M161.34,29.63c-.14.12-.27.2-.4.25-.13.05-.27.07-.42.07-.24,0-.43-.06-.56-.18-.13-.12-.2-.27-.2-.46,0-.11.03-.21.07-.3s.11-.16.2-.22c.08-.05.17-.1.27-.12.07-.02.19-.04.34-.06.31-.04.53-.08.67-.13,0-.05,0-.09,0-.1,0-.15-.04-.26-.11-.33-.1-.09-.24-.13-.43-.13-.18,0-.31.03-.39.09s-.15.17-.19.33l-.37-.05c.03-.16.09-.29.17-.39s.19-.17.33-.23c.15-.05.31-.08.51-.08s.34.02.46.07c.12.05.21.1.26.17s.09.15.12.26c.01.06.02.18.02.35v.51c0,.35,0,.58.02.67s.05.18.1.27h-.39c-.04-.08-.06-.17-.08-.28ZM161.31,28.78c-.14.06-.34.1-.62.14-.16.02-.27.05-.33.08-.06.03-.11.07-.15.12-.04.05-.05.11-.05.18,0,.1.04.19.11.25.08.07.19.1.33.1s.28-.03.39-.1c.11-.06.2-.15.25-.26.04-.09.06-.21.06-.38v-.14Z"></path><path class="cls-7" d="M163.11,29.56l.05.34c-.11.02-.2.03-.29.03-.14,0-.24-.02-.32-.07-.08-.04-.13-.1-.16-.17-.03-.07-.05-.22-.05-.45v-1.29h-.28v-.3h.28v-.56l.38-.23v.78h.38v.3h-.38v1.31c0,.11,0,.18.02.21.01.03.04.06.07.07.03.02.07.03.13.03.04,0,.1,0,.17-.01Z"></path><path class="cls-7" d="M165,29.18l.39.05c-.06.23-.18.41-.34.53-.17.13-.38.19-.64.19-.33,0-.58-.1-.78-.3-.19-.2-.29-.49-.29-.85s.1-.67.29-.88c.19-.21.44-.31.75-.31s.54.1.73.31.28.49.28.86c0,.02,0,.06,0,.1h-1.66c.01.25.08.44.21.57.12.13.28.2.47.2.14,0,.26-.04.35-.11.1-.07.18-.19.23-.35ZM163.76,28.57h1.24c-.02-.19-.06-.33-.14-.42-.12-.15-.28-.22-.47-.22-.17,0-.32.06-.44.18-.12.12-.18.27-.2.47Z"></path><path class="cls-7" d="M165.86,29.9v-2.24h.34v.34c.09-.16.17-.26.24-.32.07-.05.15-.08.24-.08.13,0,.26.04.39.12l-.13.35c-.09-.05-.19-.08-.28-.08-.08,0-.16.03-.22.07-.07.05-.11.12-.14.21-.04.14-.06.28-.06.44v1.18h-.38Z"></path><path class="cls-7" d="M167.3,27.24v-.44h.38v.44h-.38ZM167.3,29.9v-2.24h.38v2.24h-.38Z"></path><path class="cls-7" d="M169.71,29.63c-.14.12-.27.2-.4.25-.13.05-.27.07-.42.07-.24,0-.43-.06-.56-.18-.13-.12-.2-.27-.2-.46,0-.11.03-.21.07-.3s.11-.16.2-.22c.08-.05.17-.1.27-.12.07-.02.19-.04.34-.06.31-.04.53-.08.67-.13,0-.05,0-.09,0-.1,0-.15-.04-.26-.11-.33-.1-.09-.24-.13-.43-.13-.18,0-.31.03-.39.09s-.15.17-.19.33l-.37-.05c.03-.16.09-.29.17-.39s.19-.17.33-.23c.15-.05.31-.08.51-.08s.34.02.46.07c.12.05.21.1.26.17s.09.15.12.26c.01.06.02.18.02.35v.51c0,.35,0,.58.02.67s.05.18.1.27h-.39c-.04-.08-.06-.17-.08-.28ZM169.68,28.78c-.14.06-.34.1-.62.14-.16.02-.27.05-.33.08-.06.03-.11.07-.15.12-.04.05-.05.11-.05.18,0,.1.04.19.11.25.08.07.19.1.33.1s.28-.03.39-.1c.11-.06.2-.15.25-.26.04-.09.06-.21.06-.38v-.14Z"></path><path class="cls-7" d="M170.64,29.9v-3.1h.38v3.1h-.38Z"></path><path class="cls-7" d="M171.43,29.23l.37-.06c.02.15.08.27.18.35.1.08.23.12.4.12s.3-.04.39-.11c.08-.07.13-.15.13-.25,0-.09-.04-.15-.11-.2-.05-.03-.18-.08-.39-.13-.28-.07-.47-.13-.58-.18-.11-.05-.19-.12-.24-.21-.06-.09-.08-.19-.08-.3,0-.1.02-.19.07-.28.05-.09.11-.16.19-.21.06-.04.14-.08.24-.11.1-.03.21-.05.33-.05.17,0,.33.03.46.08.13.05.23.12.29.21.06.09.11.2.13.35l-.37.05c-.02-.12-.07-.21-.15-.27s-.19-.1-.34-.1c-.17,0-.3.03-.37.09-.07.06-.11.13-.11.2,0,.05.02.09.05.13.03.04.08.07.14.1.04.01.15.05.33.1.27.07.45.13.56.18.11.05.19.11.25.2.06.09.09.2.09.33s-.04.25-.11.36-.18.2-.32.26c-.14.06-.3.09-.47.09-.29,0-.51-.06-.66-.18-.15-.12-.25-.3-.29-.54Z"></path></g></g><path class="cls-7" d="M178.83,48.99h-28.26c-7.61,0-7.7-7.67-7.7-7.75V14.37c0-7.66,7.62-7.75,7.7-7.75h28.26c7.61,0,7.7,7.67,7.7,7.75v26.87c0,7.66-7.62,7.75-7.7,7.75M144.2,33.13v8.11c0,.26.1,6.41,6.37,6.41h28.26c.26,0,6.37-.1,6.37-6.41v-8.11h-41ZM144.2,31.79h41V14.37c0-.26-.1-6.41-6.37-6.41h-28.26c-.26,0-6.37.1-6.37,6.41v17.42Z"></path><path class="cls-7" d="M171.85,17.73c-.74,0-1.2-.47-1.2-1.17s.49-1.19,1.23-1.19c.33,0,.62.12.93.35l1.69-2.03c-.77-.54-1.76-.83-2.77-.84h-6.52v-2.22h-2.76v2.22h-3.64c-2.32,0-3.91,1.55-3.91,3.74s1.57,3.81,3.91,3.81c1.09,0,2.05-.33,2.83-.99l-1.68-2.01c-.27.24-.6.34-.97.34-.74,0-1.2-.5-1.2-1.2s.49-1.17,1.23-1.17h3.44s0,2.3,0,2.3c.11,1.75,1.16,2.72,2.89,2.72.22,0,.36,0,.78-.06.91-.12,1.56-.48,1.56-.48l-1.1-1.92s-.04.05-.06.07c-.22.21-.59.21-.67.21-.44-.04-.59-.25-.64-.63v-2.2s2.73,0,2.73,0c-.12.38-.18.8-.18,1.23,0,2.22,1.57,3.79,3.91,3.79,1.09,0,2.05-.33,2.83-.99l-1.68-2.01c-.27.23-.6.34-.97.34"></path><path class="cls-7" d="M159.45,43.78h-1l-.72-1.94h-2.93l-.68,1.94h-1.01l2.68-7.09h.97l2.68,7.09ZM157.45,41.04l-1.06-2.95c-.03-.09-.07-.26-.11-.49h-.02c-.03.21-.07.38-.11.49l-1.06,2.95h2.37Z"></path><path class="cls-7" d="M167.87,43.78h-1l-.72-1.94h-2.93l-.68,1.94h-1.01l2.68-7.09h.97l2.68,7.09ZM165.86,41.04l-1.06-2.95c-.03-.09-.07-.26-.11-.49h-.02c-.03.21-.07.38-.11.49l-1.06,2.95h2.37Z"></path><path class="cls-7" d="M176.28,43.78h-1l-.72-1.94h-2.93l-.68,1.94h-1.01l2.68-7.09h.97l2.68,7.09ZM174.28,41.04l-1.06-2.95c-.03-.09-.07-.26-.11-.49h-.02c-.03.21-.07.38-.11.49l-1.06,2.95h2.37Z"></path></g></g><g><g><path class="cls-7" d="M221.83,54.11h-7.75c-3.99,0-7.24-3.25-7.24-7.24V8.74c0-3.99,3.25-7.24,7.24-7.24h38.14c3.99,0,7.24,3.25,7.24,7.24v38.14c0,3.99-3.25,7.24-7.24,7.24h-7.75l-11.32,3.55-11.32-3.55Z"></path><path class="cls-4" d="M252.21,3c3.16,0,5.74,2.57,5.74,5.74v38.14c0,3.16-2.57,5.74-5.74,5.74h-7.98l-.44.14-10.65,3.34-10.65-3.34-.44-.14h-7.98c-3.16,0-5.74-2.57-5.74-5.74V8.74c0-3.16,2.57-5.74,5.74-5.74h38.14M252.21,0h-38.14c-4.83,0-8.74,3.91-8.74,8.74v38.14c0,4.83,3.91,8.74,8.74,8.74h7.52l11.55,3.63,11.55-3.63h7.52c4.83,0,8.74-3.91,8.74-8.74V8.74c0-4.83-3.91-8.74-8.74-8.74h0Z"></path></g><g><path class="cls-4" d="M212.61,32.42h.58c.1,0,.15.05.15.14v3.2c0,.36-.1.64-.3.84-.2.2-.48.3-.85.3h-.77c-.37,0-.65-.1-.85-.29-.2-.2-.3-.48-.3-.84v-3.2c0-.1.05-.15.15-.15h.59c.1,0,.15.05.15.15v3.15c0,.15.03.25.09.32.06.06.17.09.31.09h.48c.15,0,.25-.03.32-.09.06-.06.09-.17.09-.32v-3.15c0-.1.05-.15.15-.15Z"></path><path class="cls-4" d="M214.89,36.9h-.59c-.1,0-.15-.05-.15-.15v-3.26c0-.1.05-.15.15-.15h.59c.1,0,.15.05.15.15v.23h.03c.1-.25.33-.38.68-.38h.22c.73,0,1.09.38,1.09,1.14v2.27c0,.1-.05.15-.15.15h-.58c-.1,0-.15-.05-.15-.15v-2.23c0-.15-.03-.25-.09-.32-.06-.06-.17-.09-.32-.09h-.25c-.32,0-.48.18-.48.53v2.11c0,.1-.05.15-.15.15Z"></path><path class="cls-4" d="M219.09,36.9h-.29c-.36,0-.63-.1-.81-.29-.18-.2-.27-.48-.27-.84v-1.28c0-.37.09-.65.27-.84.18-.19.45-.29.81-.29h.29c.14,0,.28.03.41.09.13.06.22.16.27.28h.03v-1.57c0-.1.05-.15.15-.15h.59c.1,0,.15.05.15.15v4.6c0,.1-.05.15-.15.15h-.59c-.1,0-.15-.05-.15-.15v-.23h-.03c-.05.12-.14.22-.27.28-.13.06-.27.09-.41.09ZM219.8,35.6v-.96c0-.35-.16-.53-.48-.53h-.31c-.15,0-.25.03-.31.09-.06.06-.09.17-.09.32v1.2c0,.15.03.25.09.32.06.06.16.09.31.09h.31c.32,0,.48-.18.48-.53Z"></path><path class="cls-4" d="M224.07,36.9h-1.54c-.37,0-.65-.1-.85-.29-.2-.2-.3-.48-.3-.84v-1.28c0-.37.1-.65.3-.84.2-.19.48-.29.85-.29h.55c.37,0,.65.1.85.29.2.2.3.48.3.84v.88c0,.1-.05.15-.15.15h-1.75c-.06,0-.08.03-.08.08v.15c0,.14.03.25.09.31.06.06.17.09.32.09h1.41c.1,0,.15.05.15.15v.46c0,.05-.01.09-.03.11s-.06.03-.11.03ZM222.34,34.92h.95c.05,0,.08-.03.08-.08v-.33c0-.15-.03-.25-.09-.31-.06-.06-.17-.09-.31-.09h-.29c-.15,0-.25.03-.31.09s-.09.17-.09.31v.33c0,.05.03.08.08.08Z"></path><path class="cls-4" d="M225.63,36.9h-.59c-.1,0-.15-.05-.15-.15v-3.26c0-.1.05-.15.15-.15h.59c.1,0,.15.05.15.15v.24h.03c.05-.13.14-.22.27-.29.13-.06.27-.1.41-.1h.25c.09,0,.14.05.14.15v.48c0,.06-.01.09-.03.11s-.06.03-.11.02h-.48c-.32,0-.48.18-.48.54v2.1c0,.1-.05.15-.15.15Z"></path><path class="cls-4" d="M228.75,36.9h-.79c-.09,0-.14-.05-.17-.15l-.7-3.26c-.02-.1.02-.15.1-.15h.67c.1,0,.16.05.17.15l.31,2.38h.06l.49-2.38c.01-.1.07-.15.16-.15h.61c.1,0,.16.05.17.15l.48,2.38h.06l.32-2.38c.01-.1.07-.15.17-.15h.67c.09,0,.13.05.1.15l-.7,3.26c-.02.1-.07.15-.17.15h-.79c-.09,0-.15-.05-.17-.15l-.42-2.35h-.06l-.42,2.35c-.01.1-.07.15-.17.15Z"></path><path class="cls-4" d="M232.91,36.9h-.59c-.1,0-.15-.05-.15-.15v-3.26c0-.1.05-.15.15-.15h.59c.1,0,.15.05.15.15v.24h.03c.05-.13.14-.22.27-.29.13-.06.27-.1.41-.1h.25c.09,0,.14.05.14.15v.48c0,.06-.01.09-.03.11s-.06.03-.11.02h-.48c-.32,0-.48.18-.48.54v2.1c0,.1-.05.15-.15.15Z"></path><path class="cls-4" d="M234.64,32.75v-.61c0-.09.05-.14.14-.14h.61c.09,0,.14.04.14.13v.61c0,.09-.05.14-.14.14h-.61c-.09,0-.14-.05-.14-.14ZM234.64,36.75v-3.26c0-.1.05-.15.14-.15h.6c.1,0,.15.05.15.15v3.26c0,.06-.01.1-.03.12s-.06.03-.11.03h-.6c-.1,0-.15-.05-.15-.15Z"></path><path class="cls-4" d="M236.4,34.11h-.28c-.06,0-.09,0-.11-.03-.02-.02-.03-.06-.03-.11v-.48c0-.1.05-.15.15-.15h.28c.05,0,.08-.03.08-.08v-.66c0-.1.05-.15.15-.15h.58c.1,0,.15.05.15.15v.66c0,.05.03.08.08.08h.54c.1,0,.15.05.15.15v.48c0,.05-.01.09-.03.11s-.06.03-.11.03h-.54c-.06,0-.08.03-.08.08v1.54c0,.14.03.25.1.31.06.06.17.09.32.09h.28c.1,0,.15.05.15.15v.48c0,.05-.01.09-.03.11s-.06.03-.12.03h-.42c-.37,0-.65-.1-.85-.29-.2-.2-.3-.47-.3-.84v-1.58c0-.05-.03-.08-.08-.08Z"></path><path class="cls-4" d="M238.86,34.11h-.28c-.06,0-.09,0-.11-.03-.02-.02-.03-.06-.03-.11v-.48c0-.1.05-.15.15-.15h.28c.05,0,.08-.03.08-.08v-.66c0-.1.05-.15.15-.15h.58c.1,0,.15.05.15.15v.66c0,.05.03.08.08.08h.54c.1,0,.15.05.15.15v.48c0,.05-.01.09-.03.11s-.06.03-.11.03h-.54c-.06,0-.08.03-.08.08v1.54c0,.14.03.25.1.31.06.06.17.09.32.09h.28c.1,0,.15.05.15.15v.48c0,.05-.01.09-.03.11s-.06.03-.12.03h-.42c-.37,0-.65-.1-.85-.29-.2-.2-.3-.47-.3-.84v-1.58c0-.05-.03-.08-.08-.08Z"></path><path class="cls-4" d="M243.86,36.9h-1.54c-.37,0-.65-.1-.85-.29-.2-.2-.3-.48-.3-.84v-1.28c0-.37.1-.65.3-.84.2-.19.48-.29.85-.29h.55c.37,0,.65.1.85.29.2.2.3.48.3.84v.88c0,.1-.05.15-.15.15h-1.75c-.06,0-.08.03-.08.08v.15c0,.14.03.25.09.31.06.06.17.09.32.09h1.41c.1,0,.15.05.15.15v.46c0,.05-.01.09-.03.11s-.06.03-.11.03ZM242.13,34.92h.95c.05,0,.08-.03.08-.08v-.33c0-.15-.03-.25-.09-.31-.06-.06-.17-.09-.31-.09h-.29c-.15,0-.25.03-.31.09s-.09.17-.09.31v.33c0,.05.03.08.08.08Z"></path><path class="cls-4" d="M245.42,36.9h-.59c-.1,0-.15-.05-.15-.15v-3.26c0-.1.05-.15.15-.15h.59c.1,0,.15.05.15.15v.23h.03c.1-.25.33-.38.68-.38h.22c.73,0,1.09.38,1.09,1.14v2.27c0,.1-.05.15-.15.15h-.58c-.1,0-.15-.05-.15-.15v-2.23c0-.15-.03-.25-.09-.32-.06-.06-.17-.09-.32-.09h-.25c-.32,0-.48.18-.48.53v2.11c0,.1-.05.15-.15.15Z"></path><path class="cls-4" d="M249.86,36.75v-4.6c0-.1.05-.15.15-.15h.59c.1,0,.15.05.15.15v1.57h.03c.05-.13.14-.22.27-.29.13-.06.27-.1.41-.1h.22c.37,0,.65.1.85.29.2.19.3.48.3.84v1.3c0,.37-.1.65-.3.84-.2.19-.48.29-.85.29h-1.67c-.1,0-.15-.05-.15-.15ZM250.82,36.13h.71c.15,0,.25-.03.32-.09.06-.06.09-.17.09-.32v-1.21c0-.15-.03-.25-.09-.32-.06-.06-.17-.09-.32-.09h-.31c-.32,0-.48.18-.48.53v1.43c0,.05.03.08.08.08Z"></path><path class="cls-4" d="M254.1,38.08h-.45c-.09,0-.14-.05-.14-.15v-.47c0-.1.05-.15.14-.15h.15c.29,0,.49-.04.6-.12.1-.08.18-.24.24-.47h-.37c-.09,0-.15-.05-.17-.15l-.81-3.07c-.03-.1,0-.15.1-.15h.62c.09,0,.15.05.17.15l.6,2.57h.03l.59-2.57c.02-.1.08-.15.17-.15h.58c.12,0,.16.05.14.15l-.85,3.4c-.1.39-.26.68-.47.88-.21.2-.5.3-.87.3Z"></path><path class="cls-4" d="M215.63,39.25v4.19c0,.1-.05.15-.15.15h-.59c-.1,0-.15-.05-.15-.15v-4.19c0-.1.05-.15.15-.15h.59c.1,0,.15.05.15.15Z"></path><path class="cls-4" d="M217.24,43.58h-.59c-.1,0-.15-.05-.15-.15v-3.26c0-.1.05-.15.15-.15h.59c.1,0,.15.05.15.15v.23h.03c.1-.25.33-.38.68-.38h.22c.73,0,1.09.38,1.09,1.14v2.27c0,.1-.05.15-.15.15h-.58c-.1,0-.15-.05-.15-.15v-2.23c0-.15-.03-.25-.09-.32-.06-.06-.17-.09-.32-.09h-.25c-.32,0-.48.18-.48.53v2.11c0,.1-.05.15-.15.15Z"></path><path class="cls-4" d="M220.22,40.8h-.28c-.06,0-.09,0-.11-.03-.02-.02-.03-.06-.03-.11v-.48c0-.1.05-.15.15-.15h.28c.05,0,.08-.03.08-.08v-.66c0-.1.05-.15.15-.15h.58c.1,0,.15.05.15.15v.66c0,.05.03.08.08.08h.54c.1,0,.15.05.15.15v.48c0,.05-.01.09-.03.11s-.06.03-.11.03h-.54c-.06,0-.08.03-.08.08v1.54c0,.14.03.25.1.31.06.06.17.09.32.09h.28c.1,0,.15.05.15.15v.48c0,.05-.01.09-.03.11s-.06.03-.12.03h-.42c-.37,0-.65-.1-.85-.29-.2-.2-.3-.47-.3-.84v-1.58c0-.05-.03-.08-.08-.08Z"></path><path class="cls-4" d="M225.22,43.58h-1.54c-.37,0-.65-.1-.85-.29-.2-.2-.3-.48-.3-.84v-1.28c0-.37.1-.65.3-.84.2-.19.48-.29.85-.29h.55c.37,0,.65.1.85.29.2.2.3.48.3.84v.88c0,.1-.05.15-.15.15h-1.75c-.06,0-.08.03-.08.08v.15c0,.14.03.25.09.31.06.06.17.09.32.09h1.41c.1,0,.15.05.15.15v.46c0,.05-.01.09-.03.11s-.06.03-.11.03ZM223.48,41.61h.95c.05,0,.08-.03.08-.08v-.33c0-.15-.03-.25-.09-.31-.06-.06-.17-.09-.31-.09h-.29c-.15,0-.25.03-.31.09s-.09.17-.09.31v.33c0,.05.03.08.08.08Z"></path><path class="cls-4" d="M226.78,43.58h-.59c-.1,0-.15-.05-.15-.15v-3.26c0-.1.05-.15.15-.15h.59c.1,0,.15.05.15.15v.24h.03c.05-.13.14-.22.27-.29.13-.06.27-.1.41-.1h.25c.09,0,.14.05.14.15v.48c0,.06-.01.09-.03.11s-.06.03-.11.02h-.48c-.32,0-.48.18-.48.54v2.1c0,.1-.05.15-.15.15Z"></path><path class="cls-4" d="M229.21,43.58h-.59c-.1,0-.15-.05-.15-.15v-3.26c0-.1.05-.15.15-.15h.59c.1,0,.15.05.15.15v.23h.03c.1-.25.33-.38.68-.38h.22c.73,0,1.09.38,1.09,1.14v2.27c0,.1-.05.15-.15.15h-.58c-.1,0-.15-.05-.15-.15v-2.23c0-.15-.03-.25-.09-.32-.06-.06-.17-.09-.32-.09h-.25c-.32,0-.48.18-.48.53v2.11c0,.1-.05.15-.15.15Z"></path><path class="cls-4" d="M233.36,43.58h-.17c-.37,0-.65-.1-.85-.29-.2-.2-.3-.48-.3-.84v-1.28c0-.37.1-.65.3-.84.2-.19.48-.29.85-.29h1.61c.1,0,.15.05.15.15v3.26c0,.1-.05.15-.15.15h-.59c-.1,0-.15-.05-.15-.15v-.23h-.03c-.05.12-.14.22-.27.28-.13.06-.27.09-.41.09ZM234.07,42.29v-1.41c0-.05-.03-.08-.08-.08h-.65c-.15,0-.25.03-.31.09-.06.06-.09.17-.09.32v1.2c0,.15.03.25.09.32.06.06.16.09.31.09h.26c.32,0,.48-.18.48-.53Z"></path><path class="cls-4" d="M235.8,40.8h-.28c-.06,0-.09,0-.11-.03-.02-.02-.03-.06-.03-.11v-.48c0-.1.05-.15.15-.15h.28c.05,0,.08-.03.08-.08v-.66c0-.1.05-.15.15-.15h.58c.1,0,.15.05.15.15v.66c0,.05.03.08.08.08h.54c.1,0,.15.05.15.15v.48c0,.05-.01.09-.03.11s-.06.03-.11.03h-.54c-.06,0-.08.03-.08.08v1.54c0,.14.03.25.1.31.06.06.17.09.32.09h.28c.1,0,.15.05.15.15v.48c0,.05-.01.09-.03.11s-.06.03-.12.03h-.42c-.37,0-.65-.1-.85-.29-.2-.2-.3-.47-.3-.84v-1.58c0-.05-.03-.08-.08-.08Z"></path><path class="cls-4" d="M238.21,39.43v-.61c0-.09.05-.14.14-.14h.61c.09,0,.14.04.14.13v.61c0,.09-.05.14-.14.14h-.61c-.09,0-.14-.05-.14-.14ZM238.21,43.44v-3.26c0-.1.05-.15.14-.15h.6c.1,0,.15.05.15.15v3.26c0,.06-.01.1-.03.12s-.06.03-.11.03h-.6c-.1,0-.15-.05-.15-.15Z"></path><path class="cls-4" d="M241.6,43.58h-.62c-.37,0-.65-.1-.85-.29-.2-.2-.3-.48-.3-.84v-1.28c0-.37.1-.65.3-.84.2-.19.48-.29.85-.29h.62c.36,0,.64.1.85.3.2.2.3.48.3.84v1.28c0,.36-.1.64-.3.84s-.48.3-.85.3ZM241.11,42.83h.35c.15,0,.25-.03.32-.09.06-.06.09-.17.09-.31v-1.23c0-.15-.03-.25-.09-.31-.06-.06-.17-.09-.32-.09h-.35c-.15,0-.25.03-.31.09s-.09.17-.09.31v1.23c0,.15.03.25.09.31s.16.09.31.09Z"></path><path class="cls-4" d="M244.18,43.58h-.59c-.1,0-.15-.05-.15-.15v-3.26c0-.1.05-.15.15-.15h.59c.1,0,.15.05.15.15v.23h.03c.1-.25.33-.38.68-.38h.22c.73,0,1.09.38,1.09,1.14v2.27c0,.1-.05.15-.15.15h-.58c-.1,0-.15-.05-.15-.15v-2.23c0-.15-.03-.25-.09-.32-.06-.06-.17-.09-.32-.09h-.25c-.32,0-.48.18-.48.53v2.11c0,.1-.05.15-.15.15Z"></path><path class="cls-4" d="M248.33,43.58h-.17c-.37,0-.65-.1-.85-.29-.2-.2-.3-.48-.3-.84v-1.28c0-.37.1-.65.3-.84.2-.19.48-.29.85-.29h1.61c.1,0,.15.05.15.15v3.26c0,.1-.05.15-.15.15h-.59c-.1,0-.15-.05-.15-.15v-.23h-.03c-.05.12-.14.22-.27.28-.13.06-.27.09-.41.09ZM249.04,42.29v-1.41c0-.05-.03-.08-.08-.08h-.65c-.15,0-.25.03-.31.09-.06.06-.09.17-.09.32v1.2c0,.15.03.25.09.32.06.06.16.09.31.09h.26c.32,0,.48-.18.48-.53Z"></path><path class="cls-4" d="M251.47,43.58h-.59c-.1,0-.15-.05-.15-.15v-4.6c0-.1.05-.15.15-.15h.59c.1,0,.15.05.15.15v4.6c0,.1-.05.15-.15.15Z"></path><path class="cls-4" d="M224.27,45.94v4.19c0,.1-.05.15-.15.15h-.59c-.1,0-.15-.05-.15-.15v-4.19c0-.1.05-.15.15-.15h.59c.1,0,.15.05.15.15Z"></path><path class="cls-4" d="M225.88,50.27h-.59c-.1,0-.15-.05-.15-.15v-3.26c0-.1.05-.15.15-.15h.59c.1,0,.15.05.15.15v.23h.03c.1-.25.33-.38.68-.38h.22c.73,0,1.09.38,1.09,1.14v2.27c0,.1-.05.15-.15.15h-.58c-.1,0-.15-.05-.15-.15v-2.23c0-.15-.03-.25-.09-.32-.06-.06-.17-.09-.32-.09h-.25c-.32,0-.48.18-.48.53v2.11c0,.1-.05.15-.15.15Z"></path><path class="cls-4" d="M230.12,50.27h-1.32c-.09,0-.14-.05-.14-.15v-.45c0-.05,0-.09.03-.11.02-.02.06-.03.11-.03h1.16c.23,0,.34-.07.34-.21v-.03c0-.11-.1-.22-.29-.32l-.69-.38c-.24-.12-.41-.25-.52-.39-.11-.14-.17-.32-.17-.54,0-.32.09-.56.26-.72s.44-.23.81-.23h1.16c.09,0,.14.05.14.15v.45c0,.05,0,.09-.03.11s-.06.03-.11.03h-.97c-.23,0-.34.06-.34.17v.03c0,.1.1.21.3.31l.7.42c.24.13.41.26.51.4.1.14.15.32.15.54,0,.62-.36.93-1.09.93Z"></path><path class="cls-4" d="M233.11,50.27h-.23c-.36,0-.63-.1-.81-.29-.18-.2-.28-.48-.28-.84v-2.27c0-.1.05-.15.15-.15h.59c.1,0,.15.05.15.15v2.23c0,.15.03.25.09.32s.17.09.31.09h.26c.32,0,.48-.18.48-.53v-2.11c0-.1.05-.15.15-.15h.58c.1,0,.15.05.15.15v3.26c0,.1-.05.15-.15.15h-.58c-.1,0-.15-.05-.15-.15v-.23h-.03c-.05.12-.14.22-.27.28-.13.06-.27.09-.41.09Z"></path><path class="cls-4" d="M236.21,50.27h-.59c-.1,0-.15-.05-.15-.15v-3.26c0-.1.05-.15.15-.15h.59c.1,0,.15.05.15.15v.24h.03c.05-.13.14-.22.27-.29.13-.06.27-.1.41-.1h.25c.09,0,.14.05.14.15v.48c0,.06-.01.09-.03.11s-.06.03-.11.02h-.48c-.32,0-.48.18-.48.54v2.1c0,.1-.05.15-.15.15Z"></path><path class="cls-4" d="M240.52,50.27h-1.54c-.37,0-.65-.1-.85-.29-.2-.2-.3-.48-.3-.84v-1.28c0-.37.1-.65.3-.84.2-.19.48-.29.85-.29h.55c.37,0,.65.1.85.29.2.2.3.48.3.84v.88c0,.1-.05.15-.15.15h-1.75c-.06,0-.08.03-.08.08v.15c0,.14.03.25.09.31.06.06.17.09.32.09h1.41c.1,0,.15.05.15.15v.46c0,.05-.01.09-.03.11s-.06.03-.11.03ZM238.79,48.29h.95c.05,0,.08-.03.08-.08v-.33c0-.15-.03-.25-.09-.31-.06-.06-.17-.09-.31-.09h-.29c-.15,0-.25.03-.31.09s-.09.17-.09.31v.33c0,.05.03.08.08.08Z"></path><path class="cls-4" d="M242.08,50.27h-.59c-.1,0-.15-.05-.15-.15v-3.26c0-.1.05-.15.15-.15h.59c.1,0,.15.05.15.15v.24h.03c.05-.13.14-.22.27-.29.13-.06.27-.1.41-.1h.25c.09,0,.14.05.14.15v.48c0,.06-.01.09-.03.11s-.06.03-.11.02h-.48c-.32,0-.48.18-.48.54v2.1c0,.1-.05.15-.15.15Z"></path></g><path id="path3822" class="cls-3" d="M234.11,5.37c6.98,6.89,6.98,16.13,0,23.02M224.17,24.19c5.37-3.83,12.58-3.83,17.95,0M232.38,5.26c-7.03,6.93-7.03,16.24,0,23.18M233.08,5.27c-6.4.03-11.56,5.25-11.53,11.65.03,6.4,5.25,11.56,11.65,11.53,6.4-.03,11.56-5.25,11.53-11.65-.03-6.35-5.18-11.5-11.53-11.53h-.12ZM233.14,5.27v23.18M244.73,16.86h-23.18M224.17,9.89c5.37,3.83,12.58,3.83,17.95,0"></path></g><g><g><polygon class="cls-7" points="290.8 54.11 275.81 54.11 275.81 1.5 328.42 1.5 328.42 54.11 313.43 54.11 302.11 57.67 290.8 54.11"></polygon><path class="cls-4" d="M326.92,3v49.61h-13.72l-.44.14-10.65,3.34-10.65-3.34-.44-.14h-13.72V3h49.61M329.92,0h-55.61v55.61h16.26l11.55,3.63,11.55-3.63h16.26V0h0Z"></path></g><g><path class="cls-4" d="M283.94,11v-.15c0-.11.05-.16.16-.16h.65c.11,0,.16.05.16.16v.06c0,.2.04.33.12.4s.22.11.42.11h.36c.2,0,.34-.04.42-.12s.12-.22.12-.43v-.09c0-.15-.06-.26-.18-.34s-.27-.13-.45-.14c-.18-.02-.37-.04-.58-.09s-.4-.1-.58-.17-.33-.21-.45-.41c-.12-.2-.18-.46-.18-.78v-.27c0-.4.11-.71.34-.93.23-.22.54-.33.94-.33h.77c.41,0,.72.11.95.33.23.22.34.53.34.93v.15c0,.11-.05.16-.16.16h-.65c-.11,0-.16-.05-.16-.16v-.05c0-.2-.04-.34-.12-.41-.08-.07-.22-.11-.42-.11h-.3c-.21,0-.35.04-.43.12-.07.08-.11.23-.11.47v.15c0,.24.21.38.63.42.44.04.82.12,1.16.26.18.08.33.21.45.41.12.2.18.45.18.76v.26c0,.4-.11.71-.34.93s-.54.33-.94.33h-.84c-.4,0-.71-.11-.94-.33s-.34-.53-.34-.93Z"></path><path class="cls-4" d="M289.56,12.26h-.25c-.4,0-.69-.11-.9-.32-.2-.22-.3-.53-.3-.93v-2.51c0-.11.05-.16.16-.16h.65c.11,0,.16.05.16.16v2.47c0,.16.03.28.1.35s.18.1.34.1h.29c.35,0,.53-.2.53-.59v-2.33c0-.11.05-.16.16-.16h.65c.11,0,.17.05.17.16v3.61c0,.11-.06.16-.17.16h-.65c-.11,0-.16-.05-.16-.16v-.25h-.03c-.06.14-.16.24-.3.31-.14.07-.3.1-.45.1Z"></path><path class="cls-4" d="M292.99,13.31h-.65c-.11,0-.16-.05-.16-.15v-4.66c0-.11.05-.16.16-.16h.65c.11,0,.16.05.16.16v.25h.03c.06-.14.16-.24.3-.31.14-.07.29-.1.45-.1h.32c.4,0,.69.11.9.32s.3.53.3.93v1.42c0,.41-.1.72-.3.93-.2.22-.5.32-.9.32h-.32c-.16,0-.31-.03-.45-.1-.14-.07-.24-.17-.3-.31h-.03v1.31c0,.1-.05.15-.16.15ZM293.68,11.42h.34c.16,0,.28-.03.35-.1s.1-.19.1-.35v-1.33c0-.16-.03-.28-.1-.35s-.19-.1-.35-.1h-.34c-.35,0-.53.19-.53.59v1.06c0,.39.18.59.53.59Z"></path><path class="cls-4" d="M297.04,13.31h-.65c-.11,0-.16-.05-.16-.15v-4.66c0-.11.05-.16.16-.16h.65c.11,0,.16.05.16.16v.25h.03c.06-.14.16-.24.3-.31.14-.07.29-.1.45-.1h.32c.4,0,.69.11.9.32s.3.53.3.93v1.42c0,.41-.1.72-.3.93-.2.22-.5.32-.9.32h-.32c-.16,0-.31-.03-.45-.1-.14-.07-.24-.17-.3-.31h-.03v1.31c0,.1-.05.15-.16.15ZM297.73,11.42h.34c.16,0,.28-.03.35-.1s.1-.19.1-.35v-1.33c0-.16-.03-.28-.1-.35s-.19-.1-.35-.1h-.34c-.35,0-.53.19-.53.59v1.06c0,.39.18.59.53.59Z"></path><path class="cls-4" d="M301.13,12.26h-.65c-.11,0-.16-.05-.16-.16v-5.09c0-.11.05-.16.16-.16h.65c.11,0,.16.05.16.16v5.09c0,.11-.05.16-.16.16Z"></path><path class="cls-4" d="M302.21,7.67v-.67c0-.1.05-.15.15-.15h.67c.1,0,.15.05.15.15v.68c0,.1-.05.15-.15.15h-.67c-.1,0-.15-.05-.15-.15ZM302.21,12.1v-3.61c0-.11.05-.16.15-.16h.66c.11,0,.16.05.16.16v3.61c0,.07-.01.11-.03.13s-.06.03-.12.03h-.66c-.11,0-.16-.05-.16-.16Z"></path><path class="cls-4" d="M306.97,12.26h-1.7c-.41,0-.72-.11-.94-.32-.22-.22-.33-.53-.33-.93v-1.42c0-.41.11-.72.33-.93s.53-.32.94-.32h.61c.41,0,.72.11.94.32s.33.53.33.93v.98c0,.11-.05.16-.16.16h-1.93c-.06,0-.09.03-.09.08v.17c0,.16.03.27.1.34s.19.1.35.1h1.56c.11,0,.16.06.16.17v.51c0,.06-.01.1-.03.12-.02.02-.07.03-.13.03ZM305.06,10.08h1.05c.06,0,.08-.03.08-.08v-.37c0-.16-.03-.28-.1-.35s-.18-.1-.35-.1h-.32c-.16,0-.28.03-.35.1-.07.07-.1.18-.1.35v.37c0,.06.03.08.08.08Z"></path><path class="cls-4" d="M309.32,12.26h-.32c-.4,0-.69-.11-.9-.32-.2-.22-.3-.53-.3-.93v-1.42c0-.41.1-.72.3-.93.2-.22.5-.32.9-.32h.32c.16,0,.31.03.45.1.14.07.24.17.3.31h.03v-1.74c0-.11.05-.16.16-.16h.65c.11,0,.16.05.16.16v5.09c0,.11-.05.16-.16.16h-.65c-.11,0-.16-.05-.16-.16v-.25h-.03c-.06.14-.16.24-.3.31-.14.07-.3.1-.45.1ZM310.11,10.83v-1.06c0-.39-.18-.59-.53-.59h-.35c-.16,0-.28.03-.35.1-.07.07-.1.19-.1.35v1.33c0,.16.03.28.1.35.07.07.18.1.35.1h.35c.35,0,.53-.2.53-.59Z"></path><path class="cls-4" d="M313.63,12.1v-5.09c0-.11.05-.16.16-.16h.65c.11,0,.16.05.16.16v1.73h.03c.06-.14.16-.24.3-.32.14-.07.29-.11.45-.11h.25c.41,0,.72.11.94.32.22.22.33.53.33.93v1.43c0,.41-.11.72-.33.93-.22.22-.53.32-.94.32h-1.85c-.11,0-.16-.05-.16-.16ZM314.69,11.42h.79c.16,0,.28-.03.35-.1s.1-.19.1-.35v-1.34c0-.16-.03-.28-.1-.35s-.19-.1-.35-.1h-.34c-.35,0-.53.2-.53.59v1.58c0,.06.03.08.08.08Z"></path><path class="cls-4" d="M318.32,13.57h-.49c-.1,0-.15-.06-.15-.17v-.52c0-.11.05-.17.15-.17h.16c.32,0,.54-.04.66-.13.12-.09.2-.26.27-.52h-.41c-.1,0-.16-.05-.19-.16l-.9-3.4c-.03-.11,0-.16.12-.16h.69c.1,0,.17.05.19.16l.66,2.84h.03l.65-2.84c.02-.11.08-.16.19-.16h.65c.13,0,.18.06.15.17l-.94,3.76c-.11.43-.29.75-.52.97-.24.22-.56.33-.96.33Z"></path><path class="cls-4" d="M284.29,43.96h1.14c.11,0,.16.05.16.16v4.63c0,.11-.05.16-.16.16h-.63c-.11,0-.16-.05-.16-.16v-3.65h-.03l-.79,2.58c-.03.1-.09.15-.19.15h-.65c-.1,0-.16-.05-.19-.15l-.8-2.59h-.03v3.66c0,.06-.01.1-.03.13-.02.02-.06.03-.13.03h-.63c-.11,0-.16-.05-.16-.16v-4.63c0-.11.05-.16.16-.16h1.15c.07,0,.12.04.15.11l.82,2.72h.05l.82-2.72c.02-.07.06-.11.15-.11Z"></path><path class="cls-4" d="M287.89,48.91h-.19c-.41,0-.72-.11-.94-.32-.22-.22-.33-.53-.33-.93v-1.42c0-.41.11-.72.33-.93s.53-.32.94-.32h1.78c.11,0,.17.05.17.16v3.61c0,.11-.06.16-.17.16h-.65c-.11,0-.16-.05-.16-.16v-.25h-.03c-.06.14-.16.24-.3.31-.14.07-.3.1-.45.1ZM288.68,47.48v-1.56c0-.06-.03-.08-.09-.08h-.72c-.16,0-.28.03-.35.1-.07.07-.1.19-.1.35v1.33c0,.16.03.28.1.35.07.07.18.1.35.1h.28c.35,0,.53-.2.53-.59Z"></path><path class="cls-4" d="M291.32,48.91h-.65c-.11,0-.16-.05-.16-.16v-3.61c0-.11.05-.16.16-.16h.65c.11,0,.16.05.16.16v.25h.03c.11-.28.36-.42.75-.42h.25c.81,0,1.21.42,1.21,1.26v2.51c0,.11-.06.16-.17.16h-.65c-.11,0-.16-.05-.16-.16v-2.47c0-.16-.03-.28-.1-.35s-.19-.1-.35-.1h-.28c-.35,0-.53.19-.53.59v2.33c0,.11-.05.16-.16.16Z"></path><path class="cls-4" d="M295.95,48.91h-.25c-.4,0-.69-.11-.9-.32-.2-.22-.3-.53-.3-.93v-2.51c0-.11.05-.16.16-.16h.65c.11,0,.16.05.16.16v2.47c0,.16.03.28.1.35s.18.1.34.1h.29c.35,0,.53-.2.53-.59v-2.33c0-.11.05-.16.16-.16h.65c.11,0,.17.05.17.16v3.61c0,.11-.06.16-.17.16h-.65c-.11,0-.16-.05-.16-.16v-.25h-.03c-.06.14-.16.24-.3.31-.14.07-.3.1-.45.1Z"></path><path class="cls-4" d="M299.99,44.98h.62c.06,0,.1.01.13.03.02.02.03.06.03.12v.53c0,.11-.05.16-.16.16h-.62c-.06,0-.08.03-.08.08v2.83c0,.11-.06.16-.17.16h-.65c-.11,0-.16-.05-.16-.16v-2.83c0-.06-.03-.08-.09-.08h-.35c-.11,0-.16-.05-.16-.16v-.53c0-.06.01-.1.03-.12s.07-.03.13-.03h.35c.06,0,.09-.03.09-.08v-.15c0-.41.11-.72.32-.93.21-.22.52-.32.93-.32h.44c.06,0,.1.01.12.03.02.02.03.06.03.12v.53c0,.11-.05.16-.15.16h-.29c-.16,0-.28.03-.33.1s-.09.19-.09.35v.1c0,.06.03.08.08.08Z"></path><path class="cls-4" d="M302.67,48.91h-.19c-.41,0-.72-.11-.94-.32-.22-.22-.33-.53-.33-.93v-1.42c0-.41.11-.72.33-.93s.53-.32.94-.32h1.78c.11,0,.17.05.17.16v3.61c0,.11-.06.16-.17.16h-.65c-.11,0-.16-.05-.16-.16v-.25h-.03c-.06.14-.16.24-.3.31-.14.07-.3.1-.45.1ZM303.45,47.48v-1.56c0-.06-.03-.08-.09-.08h-.72c-.16,0-.28.03-.35.1-.07.07-.1.19-.1.35v1.33c0,.16.03.28.1.35.07.07.18.1.35.1h.28c.35,0,.53-.2.53-.59Z"></path><path class="cls-4" d="M307.78,48.23v.53c0,.06-.01.1-.03.12s-.07.03-.13.03h-1.15c-.41,0-.72-.11-.94-.32-.22-.22-.33-.53-.33-.93v-1.42c0-.41.11-.72.33-.93s.53-.32.94-.32h1.15c.11,0,.16.05.16.16v.53c0,.06-.01.1-.03.12-.02.02-.07.03-.13.03h-.99c-.16,0-.27.03-.34.1s-.1.19-.1.35v1.33c0,.16.03.28.1.35s.18.1.34.1h.99c.11,0,.16.05.16.16Z"></path><path class="cls-4" d="M308.53,45.83h-.31c-.06,0-.1-.01-.13-.03-.02-.02-.03-.06-.03-.12v-.53c0-.11.05-.16.16-.16h.31c.06,0,.08-.03.08-.08v-.73c0-.11.06-.16.17-.16h.65c.11,0,.16.05.16.16v.73c0,.06.03.08.09.08h.6c.11,0,.16.05.16.16v.53c0,.06-.01.1-.03.12s-.07.03-.13.03h-.6c-.06,0-.09.03-.09.08v1.7c0,.16.04.27.11.34s.19.1.35.1h.31c.11,0,.16.05.16.16v.53c0,.06-.01.1-.03.12-.02.02-.07.03-.13.03h-.47c-.41,0-.72-.11-.94-.32-.22-.22-.33-.52-.33-.92v-1.75c0-.06-.03-.08-.08-.08Z"></path><path class="cls-4" d="M312.58,48.91h-.25c-.4,0-.69-.11-.9-.32-.2-.22-.3-.53-.3-.93v-2.51c0-.11.05-.16.16-.16h.65c.11,0,.16.05.16.16v2.47c0,.16.03.28.1.35s.18.1.34.1h.29c.35,0,.53-.2.53-.59v-2.33c0-.11.05-.16.16-.16h.65c.11,0,.17.05.17.16v3.61c0,.11-.06.16-.17.16h-.65c-.11,0-.16-.05-.16-.16v-.25h-.03c-.06.14-.16.24-.3.31-.14.07-.3.1-.45.1Z"></path><path class="cls-4" d="M316.01,48.91h-.65c-.11,0-.16-.05-.16-.16v-3.61c0-.11.05-.16.16-.16h.65c.11,0,.16.05.16.16v.26h.03c.06-.14.16-.24.3-.32.14-.07.29-.11.45-.11h.28c.1,0,.15.05.15.16v.53c0,.06-.01.1-.03.13-.02.02-.06.03-.12.03h-.53c-.35,0-.53.2-.53.6v2.32c0,.11-.05.16-.16.16Z"></path><path class="cls-4" d="M320.78,48.91h-1.7c-.41,0-.72-.11-.94-.32-.22-.22-.33-.53-.33-.93v-1.42c0-.41.11-.72.33-.93s.53-.32.94-.32h.61c.41,0,.72.11.94.32s.33.53.33.93v.98c0,.11-.05.16-.16.16h-1.93c-.06,0-.09.03-.09.08v.17c0,.16.03.27.1.34s.19.1.35.1h1.56c.11,0,.16.06.16.17v.51c0,.06-.01.1-.03.12-.02.02-.07.03-.13.03ZM318.86,46.72h1.05c.06,0,.08-.03.08-.08v-.37c0-.16-.03-.28-.1-.35s-.18-.1-.35-.1h-.32c-.16,0-.28.03-.35.1-.07.07-.1.18-.1.35v.37c0,.06.03.08.08.08Z"></path><path class="cls-4" d="M322.5,48.91h-.65c-.11,0-.16-.05-.16-.16v-3.61c0-.11.05-.16.16-.16h.65c.11,0,.16.05.16.16v.26h.03c.06-.14.16-.24.3-.32.14-.07.29-.11.45-.11h.28c.1,0,.15.05.15.16v.53c0,.06-.01.1-.03.13-.02.02-.06.03-.12.03h-.53c-.35,0-.53.2-.53.6v2.32c0,.11-.05.16-.16.16Z"></path></g><polygon class="cls-4" points="333.87 39.32 269.31 39.32 271.57 28.1 269.31 16.88 333.87 16.88 331.61 28.1 333.87 39.32"></polygon><g><path class="cls-7" d="M284.99,35.23h-1.85c-.32,0-.48-.15-.48-.46v-11.01c0-.16-.08-.24-.24-.24h-2.5c-.31,0-.46-.15-.46-.46v-1.49c0-.31.15-.46.46-.46h8.3c.31,0,.46.15.46.46v1.49c0,.31-.15.46-.46.46h-2.5c-.18,0-.26.08-.26.24v11.01c0,.31-.15.46-.46.46Z"></path><path class="cls-7" d="M290.24,22.14v-1.91c0-.29.15-.44.44-.44h1.91c.29,0,.44.14.44.42v1.93c0,.29-.15.44-.44.44h-1.91c-.29,0-.44-.15-.44-.44ZM290.24,34.77v-10.28c0-.31.15-.46.44-.46h1.89c.31,0,.46.15.46.46v10.28c0,.19-.03.32-.1.37-.07.06-.18.09-.34.09h-1.89c-.31,0-.46-.15-.46-.46Z"></path><path class="cls-7" d="M303.82,35.23h-4.86c-1.16,0-2.05-.31-2.68-.92-.63-.61-.94-1.5-.94-2.66v-4.04c0-1.16.31-2.04.94-2.66s1.52-.92,2.68-.92h1.74c1.16,0,2.05.31,2.68.92.63.62.94,1.5.94,2.66v2.79c0,.31-.15.46-.46.46h-5.51c-.18,0-.26.08-.26.24v.48c0,.45.1.78.3.98.2.2.53.3,1,.3h4.44c.31,0,.46.16.46.48v1.45c0,.16-.03.27-.1.34s-.19.1-.36.1ZM298.35,28.99h2.99c.16,0,.24-.08.24-.24v-1.05c0-.47-.1-.8-.29-.99-.19-.19-.52-.29-.99-.29h-.92c-.47,0-.8.1-.99.29-.19.19-.29.52-.29.99v1.05c0,.16.08.24.24.24Z"></path><path class="cls-7" d="M308.74,35.23h-1.87c-.31,0-.46-.15-.46-.46v-10.28c0-.31.15-.46.46-.46h1.87c.31,0,.46.15.46.46v.75h.09c.16-.4.45-.7.86-.9s.84-.31,1.3-.31h.79c.29,0,.44.15.44.46v1.52c0,.18-.03.3-.1.36s-.18.09-.34.08h-1.52c-1.01,0-1.52.57-1.52,1.71v6.61c0,.31-.15.46-.46.46Z"></path><path class="cls-7" d="M318.21,25.04v-1.8c0-.25.11-.44.33-.57l2-1.25c.34-.21.62-.31.86-.31h1.76c.31,0,.46.15.46.46v13.2c0,.18-.03.3-.1.36s-.18.1-.34.1h-1.89c-.31,0-.46-.15-.46-.46v-10.7l-2.15,1.23c-.31.13-.46.04-.46-.26Z"></path></g></g><g><path class="cls-4" d="M39.36,0h-23.1C7.28,0,0,7.28,0,16.26v23.1c0,8.98,7.28,16.26,16.26,16.26h0l11.55,3.63,11.55-3.63h0c8.98,0,16.26-7.28,16.26-16.26v-23.1C55.61,7.28,48.33,0,39.36,0Z"></path><g class="cls-1"><path class="cls-7" d="M54.84,27.99c0,14.93-12.1,27.04-27.04,27.04S.77,42.92.77,27.99,12.88.95,27.81.95s27.04,12.1,27.04,27.04"></path><path class="cls-5" d="M27.81,2.99C14,2.99,2.81,14.18,2.81,27.99s11.19,24.99,25,24.99,24.99-11.19,24.99-24.99S41.61,2.99,27.81,2.99M27.93,26.45c-3.77,0-6.83-3.06-6.83-6.83s3.06-6.83,6.83-6.83,6.83,3.06,6.83,6.83-3.06,6.83-6.83,6.83"></path><path class="cls-6" d="M27.81,55.43C12.67,55.43.36,43.12.36,27.99S12.67.54,27.81.54s27.44,12.31,27.44,27.44-12.31,27.44-27.44,27.44M27.81,1.25C13.07,1.25,1.07,13.24,1.07,27.99s11.99,26.73,26.73,26.73,26.73-11.99,26.73-26.73S42.55,1.25,27.81,1.25M19.2,19.99l-1.64,1.3,1.76-.18.05.48-2.48.25-.06-.6,1.53-1.2-1.64.17-.05-.48,2.48-.25.05.51ZM19.2,19.08l-2.46-.38.24-1.54.45.07-.16,1.06.56.09.15-.96.43.07-.15.96.57.09.16-1.06.45.07-.24,1.54ZM18.42,13.61l.22-.44,1.93,1.72-.22.45-1.84-.27,1.34,1.3-.22.45-2.54-.48.23-.46,1.74.35-1.3-1.25.22-.45,1.79.26-1.35-1.16ZM21.6,13.64l-1.65-1.87,1.17-1.03.3.34-.81.71.38.43.73-.64.29.32-.73.64.38.43.81-.71.3.34-1.17,1.03ZM24.47,11.67l-1.81-1.07.8,1.58-.43.22-1.12-2.22.54-.27,1.67,1-.74-1.47.43-.22,1.13,2.22-.46.23ZM25.32,11.35l-.53-2.43,1.52-.33.1.45-1.05.23.12.56.95-.21.09.42-.95.21.12.56,1.05-.23.1.45-1.52.33ZM27.93,10.02h-.25s0,.96,0,.96h-.49s.02-2.5.02-2.5h.97c.49.01.79.35.79.78,0,.35-.21.61-.54.7l.52,1.02h-.54s-.48-.97-.48-.97ZM28.07,9.61c.25,0,.39-.14.39-.34,0-.21-.14-.35-.39-.35h-.39s0,.69,0,.69h.39ZM30.98,11.51l.05-.28c-.15.13-.44.23-.8.13-.65-.18-1.06-.81-.85-1.58.22-.77.93-1.09,1.58-.91.63.17.87.64.89,1.04l-.49.04c0-.23-.13-.53-.52-.64-.36-.1-.82.04-.98.61-.15.54.13.92.53,1.03.44.12.7-.13.77-.29l-.76-.21.11-.41,1.2.33-.35,1.25-.38-.11ZM32.57,9.46l.49.29v1.13s.97-.57.97-.57l.47.27-1.49.8-.53.9-.42-.24.53-.9-.02-1.68ZM36.18,12.85l-1.54,1.33-.32-.37,1.54-1.33-.51-.6.35-.3,1.35,1.56-.35.3-.51-.6ZM35.24,14.96l2.2-1.16.73,1.38-.4.21-.5-.95-.5.27.46.86-.38.2-.45-.86-.51.27.5.95-.4.21-.73-1.38ZM37.28,16.18c.77-.19,1.4.28,1.56.93.16.67-.17,1.11-.54,1.3l-.25-.41c.22-.11.43-.36.33-.78-.09-.36-.44-.68-.99-.55-.52.12-.71.56-.62.94.1.41.42.55.66.56l-.03.47c-.39,0-.93-.24-1.09-.92-.16-.68.19-1.36.96-1.54M36.56,20.63l1.03.05.05-1.08-1.03-.05.02-.48,2.49.12-.02.48-1-.05-.05,1.08,1,.05-.02.49-2.49-.12.02-.49ZM30.46,24.28c1.25-.65,2.18-1.76,2.61-3.11.42-1.35.3-2.79-.36-4.04-.41-.78-1.01-1.45-1.75-1.95l-.54-.32-3.43,5.96-1.82-1.17-.38.6,2.44,1.57,3.44-5.98c.59.42,1.07.98,1.41,1.62.57,1.09.68,2.33.31,3.5-.37,1.17-1.17,2.13-2.26,2.69-1.09.57-2.33.68-3.5.31-1.17-.37-2.13-1.17-2.69-2.26-.57-1.09-.68-2.33-.31-3.5.37-1.17,1.17-2.13,2.26-2.69.75-.39,1.58-.57,2.42-.51l.05-.71c-.97-.06-1.93.14-2.79.59-1.25.65-2.18,1.76-2.61,3.11-.42,1.35-.3,2.79.36,4.04s1.76,2.18,3.11,2.61c.52.16,1.06.25,1.6.25.84,0,1.68-.2,2.44-.6M11.45,33.38h-2.42l-.37,1.26h-1.29l2.17-6.44h1.37l2.2,6.44h-1.29l-.37-1.26ZM11.13,32.33l-.88-2.97-.89,2.97h1.78ZM13.79,30.08h1.09v.42c.17-.18.54-.56,1.25-.56,1.34,0,2.07,1.2,2.07,2.46,0,1.36-.85,2.37-2.07,2.37-.63,0-1.02-.3-1.25-.51v1.86h-1.09v-6.05ZM15.98,33.75c.53,0,1.1-.37,1.1-1.4,0-1.14-.79-1.36-1.12-1.36-.5,0-1.08.37-1.1,1.34-.02.94.5,1.41,1.11,1.41M19.11,30.08h1.09v.42c.17-.18.54-.56,1.25-.56,1.34,0,2.07,1.2,2.07,2.46,0,1.36-.85,2.37-2.07,2.37-.63,0-1.02-.3-1.25-.51v1.86h-1.09v-6.05ZM21.3,33.75c.53,0,1.1-.37,1.1-1.4,0-1.14-.79-1.36-1.12-1.36-.5,0-1.08.37-1.1,1.34-.02.94.5,1.41,1.11,1.41M25.48,30.08v.65c.14-.24.44-.78,1.46-.75v1.12c-.24,0-.65.02-.99.27-.47.36-.47.82-.47,1.58v1.69h-1.06v-4.56h1.06ZM29.76,34.78c-1.42,0-2.37-1.04-2.37-2.44s.97-2.4,2.33-2.4c1.27,0,2.35.88,2.36,2.4,0,1.42-.94,2.44-2.32,2.44M29.71,30.93c-.68,0-1.18.55-1.18,1.39,0,.94.57,1.46,1.23,1.46.79,0,1.19-.69,1.17-1.45-.02-.76-.46-1.4-1.22-1.4M36.66,30.08l-1.5,4.56h-1.18l-1.48-4.56h1.13l.95,3.14.93-3.14h1.14ZM41.56,33.62c-.57.76-1.3,1.16-2.23,1.16-1.2,0-2.34-.76-2.34-2.44,0-1.53.99-2.4,2.27-2.4,1.2,0,1.71.72,1.8.86.37.53.46,1.32.47,1.78h-3.38c.13.72.57,1.13,1.3,1.13s1.05-.44,1.19-.63l.93.54ZM40.32,31.78c-.1-.71-.54-.96-1.02-.96-.58,0-.99.34-1.11.96h2.13ZM46.6,28.2v6.44h-1.09v-.44c-.34.41-.79.58-1.27.58-1.09,0-2.03-.81-2.03-2.32,0-1.36.77-2.52,2.07-2.52.45,0,.88.13,1.22.51v-2.25h1.09ZM45.26,31.37c-.16-.25-.44-.42-.8-.42-.74,0-1.1.67-1.1,1.39,0,.08,0,1.45,1.08,1.45.57,0,1.08-.42,1.07-1.4,0-.29-.05-.71-.25-1.01M16.42,42.15c.16.24.64.98,2,.98.23,0,.47-.02.69-.11.47-.19.55-.52.55-.74,0-.41-.28-.56-.48-.64-.15-.06-.16-.06-.75-.2l-.78-.16c-.41-.1-.61-.15-.81-.23-.29-.12-1.09-.51-1.09-1.58,0-1.22,1.03-2.01,2.55-2.01,1.39,0,2.14.68,2.59,1.3l-.99.74c-.22-.32-.64-.96-1.67-.96-.65,0-1.21.29-1.21.78,0,.55.6.66,1.19.77l.67.15c.87.18,2.09.54,2.09,1.92,0,1.48-1.37,2.07-2.74,2.07-.36,0-.76-.04-1.15-.15-.43-.13-1.19-.44-1.67-1.22l1.01-.71ZM26.16,43.05c-.57.76-1.3,1.16-2.23,1.16-1.19,0-2.34-.76-2.34-2.44,0-1.53.99-2.4,2.27-2.4,1.2,0,1.71.72,1.8.86.37.53.46,1.32.47,1.78h-3.38c.13.72.58,1.13,1.3,1.13s1.05-.44,1.19-.63l.93.54ZM24.92,41.2c-.1-.71-.54-.96-1.02-.96-.58,0-.99.34-1.11.96h2.14ZM28.1,44.07h-1.1v-6.44h1.1v6.44ZM30.39,44.07h-1.1v-6.44h1.1v6.44ZM35.85,43.05c-.57.76-1.3,1.16-2.23,1.16-1.2,0-2.34-.76-2.34-2.44,0-1.53.99-2.4,2.27-2.4,1.2,0,1.71.72,1.8.86.37.53.46,1.32.46,1.78h-3.38c.13.72.58,1.13,1.3,1.13s1.05-.44,1.19-.63l.93.54ZM34.61,41.2c-.1-.71-.54-.96-1.02-.96-.58,0-.99.34-1.11.96h2.14ZM37.74,39.51v.65c.14-.24.44-.78,1.46-.75v1.12c-.24,0-.65.02-.99.27-.47.36-.47.82-.47,1.58v1.69h-1.06v-4.56h1.06Z"></path></g></g></g></g></svg>