<?xml version="1.0" encoding="UTF-8"?>
<svg id="Layer_2" xmlns="http://www.w3.org/2000/svg" version="1.1" viewBox="0 0 506 59.7">
  <!-- Generator: Adobe Illustrator 30.3.0, SVG Export Plug-In . SVG Version: 2.1.3 Build 182)  -->
  <g>
    <g>
      <g>
        <g>
          <path d="M336.704,21.204v8.6c0,7.2,7.4,6.9,7.4,6.9h34.1v-6.8h-32c-2.1,0-2.2-2-2.2-2v-2.5h34.1v-4.2,1.3-4.2h-34.1v-2.5s0-2,2.2-2h32v-6.7h-34.1s-7.4-.4-7.4,6.9v8.6-1.3h0v-.1Z"/>
          <path d="M387.704,36.604v-11.2h34.1v-4.2,1.3-4.2h-34.1v-2.5s0-2,2.2-2h32v-6.7h-34.1s-7.4-.4-7.4,6.9v8.6-1.3,15.4h7.3v-.1Z"/>
          <path d="M465.804,25.204v4.9c0,6.8-7.8,6.5-7.8,6.5h-33.7v-6.9h32.8c1.7,0,1.5-1.2,1.5-1.2v-2c0-1.4-1.6-1.3-1.6-1.3h-25.4s-8.5.5-8.5-6.4v-4.5c0-7.6,7.4-7.3,7.4-7.3h34.2v6.8h-32.8c-1.8,0-1.5,1.6-1.5,1.6v1.5s-.3,1.5,1.7,1.5h26.3s7.2-.2,7.3,6.7"/>
        </g>
        <path d="M305.504,57.404s.5.4,1.1.6h1.4c-.2,0-.4,0-.7-.3-.4-.2-.6-.3-.9-.5-.3,0-.5-.2-.7-.2s-.3,0-.2,0M308.504,57.804h0c.2.8,1.6.3,1.9,0,.1-.2,0-.4-.1-.5-.2,0-.4-.2-.5-.2-.6,0-1.3.3-1.2.7M300.904,55.304c0,.2.5.7,1.5,1.2,1.1.6,2.4,1,2.6,1h0s-1.5-1.3-2.8-2c-.5-.2-.8-.3-.9-.3q-.3,0-.3.2M312.204,57.704c-.8.5-.7.5-.6.5.3,0,3.6-.5,3.8-1.3,0,0-.1-.2-.3-.2-.5,0-1.6.2-2.8,1M304.904,55.704c0,.2.1.3.3.5.9,1.1,2.6,1.6,2.8.4,0-.3,0-.9-.9-1.4-.4-.2-.7-.3-1-.4-.8,0-1.3.3-1.1.9M320.404,55.904c-.6,0-1.6.5-3.5,1.3-.5.2-1.1.3-1.6.7.2,0,4.1-.8,5.3-1.8,0,0,.1-.2,0-.2h-.2M310.604,55.904c-.3,1.2,1.1,1.6,2.5.6.2,0,1.5-1,.8-1.9-.2-.2-.5-.3-.8-.3-1,0-2.3.6-2.5,1.6M295.704,52.204c.1.3.6,1,1.7,1.7,1.3,1,3,1.8,2.9,1.5,0-.2-1.8-2-3.4-3-.5-.3-.8-.4-1-.4-.3,0-.2.2-.2.2M299.604,52.304c0,.2.2.6.6,1.1,1.1,1.3,3.2,2.4,3.4,1.1,0-.5-.3-1.6-1.8-2.6-.5-.3-.9-.4-1.2-.5-.8,0-1.1.4-1,.9M317.204,55.304c-.2.2-1.1,1.2-.2,1.2s4.4-1.6,4.3-2.8c0-.2-.2-.3-.5-.3-.8,0-2.5.7-3.5,1.8M306.504,53.004c.5,1.8,3.1,2.6,4.2.7.2-.4.6-1.4-.6-2.3-.4-.3-.9-.4-1.3-.5-1.4-.2-2.6.8-2.3,2.1M290.804,48.104c0,.3.7,1.2,1.8,2.4,1.1,1.2,2.4,2.2,2.6,2.1,0-.3-2.3-2.9-3.5-4-.4-.3-.7-.5-.8-.5,0,0-.1,0,0,0M326.504,52.204c-.7.3-1.9,1-3.2,2-1.7,1.3-1.4,1.4-1.4,1.4.5,0,4.2-1.8,5.1-3.2v-.3h-.5M293.904,48.204c0,.4.4,1,.8,1.6,1.1,1.6,3.3,3,3.4,1.7,0-.6-.5-2.3-2.2-3.7-.5-.4-.9-.5-1.2-.6-.6,0-.9.4-.8,1M314.804,52.404c-.5,1.5.8,2.4,2.8,1.3,1.2-.6,2.5-2.1,1.6-3.2-.3-.2-.6-.4-1-.4-1.3-.2-3,.9-3.4,2.3M300.504,48.704s0,.3.1.5c.8,2.1,3.7,3.2,4.6,1.3,0-.2.8-1.8-1.2-3.3-.5-.3-1.1-.5-1.5-.6-1.4-.2-2.3.8-2,2.1M323.004,51.304c-.7,1.1-.8,2.1.3,1.8,1.5-.3,4.2-2.6,3.9-4-.1-.2-.3-.4-.5-.4-1,0-2.7,1.1-3.7,2.6M310.004,48.604c0,2.2,3,3.3,4.8,1.2.6-.7,1.2-2.1-.1-3.3-.4-.3-.9-.5-1.4-.5-1.7-.2-3.3,1.1-3.3,2.7M288.804,43.204c0,.6.3,1.4.8,2.2,1,1.8,2.6,3.3,2.9,2.3.1-.7-.6-3-2.1-4.6-.5-.4-.8-.6-1-.6-.5,0-.5.6-.5.7M332.404,46.904c-.5.2-1.7,1.4-2.9,2.9s-1.6,2-1.1,1.9c.6,0,3.4-2.9,4.1-4.5,0,0,.1-.3,0-.4h-.1M294.304,43.804c0,.2.1.6.2.8.8,2.2,3.4,3.7,4.3,1.9.4-.8.4-2.7-1.4-4.2-.5-.4-1-.6-1.5-.7-1.1,0-1.9.8-1.7,2.1M320.104,47.604c-.5,2,1,3,3,1.8,1.4-.9,2.8-2.9,1.8-4.2-.3-.3-.6-.5-1-.5-1.4-.2-3.2,1.2-3.7,2.9M303.404,43.904c.4,2.8,4.2,3.8,5.7,1.5.5-.8.9-2.5-.8-3.9-.6-.4-1.2-.6-1.7-.7-1.9-.2-3.4,1.2-3.1,3M285.704,37.404c-.1.4.2,1.8.6,3.1.6,1.8,1.4,3.2,1.6,2.8s-.6-3.5-1.5-5.4c-.1-.2-.4-.7-.5-.7,0,0-.1,0-.1.2M328.904,46.104c-.7,1.7-.4,2.7.7,2.2,1.4-.6,3.4-3.4,3-5-.1-.3-.3-.4-.5-.4-.9,0-2.5,1.5-3.2,3.2M314.804,43.104c-.1,2.5,2.8,3.7,4.8,1.8,1-.9,1.8-3,.3-4.4-.5-.4-1-.5-1.4-.6-1.8-.2-3.6,1.3-3.7,3.2M289.004,38.304c0,.4,0,.8.2,1.2.6,2.4,2.5,3.8,3.4,2.5.6-.9.5-3.3-1-5.1-.4-.4-.8-.7-1.2-.7-.8-.1-1.4.8-1.4,2M296.704,38.604c.4,2.8,3.5,4.1,5.1,2.2.8-.9,1.2-3-.7-4.8-.5-.4-1.1-.6-1.6-.7-1.7-.2-3,1.3-2.8,3.3M325.504,41.704c-.4,2.3,1.1,3.4,2.9,2.2,1.4-.9,2.6-3.5,1.4-5.2-.3-.3-.6-.5-1-.5-1.4-.2-3,1.5-3.3,3.5M308.004,37.804c.1,2.9,3.6,4.2,5.7,2.2,1-1,1.6-3.2-.3-4.9-.5-.4-1.1-.6-1.7-.7-2-.2-3.8,1.4-3.7,3.4M286.004,31.504c0,.3-.3,1.2-.2,2.5.2,2.3,1.1,3.9,1.8,2.9.6-.8.8-3.7,0-5.7-.3-.5-.5-.7-.7-.7-.4,0-.7.6-.9,1.1M291.204,32.604v.3c0,2.7,2.2,4.2,3.7,2.8,1.2-1.1,1.5-3.8.1-5.5-.4-.4-.9-.7-1.3-.7-1.3-.2-2.4,1.2-2.5,3.1M320.004,36.604c0,2.8,2.7,4.1,4.6,2.2,1.3-1.3,1.7-3.7.1-5.2-.4-.3-.9-.5-1.4-.6-1.7-.2-3.4,1.5-3.4,3.6M300.904,32.004c0,3.1,3.5,4.5,5.6,2.4,1-1.1,1.6-3.3-.3-5.1-.6-.4-1.2-.6-1.7-.7-1.9-.2-3.6,1.4-3.5,3.4M285.004,29.504h0v.2-.2h0ZM285.504,26.404c0,.4-.1.7-.2,1.1,0-.4.1-.8.2-1.1-.1.6-.2,1.3-.4,2,0,.3,0,.6-.1.9v.8c-.1,1.4,0,1.5,0,1.6.4-.2,1.1-4.3,1.1-6.1s0-.6-.1-.7c0,0-.2,0-.5,1.5M313.204,31.004c0,2.9,3.3,4.4,5.3,2.4,1.1-1.1,1.7-3.5-.2-5.2-.5-.4-1-.6-1.6-.6-1.9-.2-3.6,1.4-3.5,3.4M288.004,26.504c0,.2-.1.4-.1.6-.4,2.4.6,4,1.9,3.1,1.1-.8,2.1-3.7,1.3-5.6-.2-.4-.5-.7-.9-.7-.9-.1-1.8,1.2-2.2,2.7M295.404,26.204c-.4,2.6,1.9,4.2,3.9,2.7,1.5-1.1,2.2-3.6.8-5.2-.4-.4-.9-.6-1.4-.7-1.6-.2-3.1,1.4-3.3,3.2M306.204,25.404c-.1,2.7,3.2,4.2,5.3,2.4,1.4-1.2,1.7-3.4,0-4.9-.5-.4-1-.6-1.6-.6-1.9-.2-3.6,1.2-3.7,3.1M288.904,19.104c-.5.5-1.2,1.6-1.6,2.7-.7,1.8-.8,3.2-.1,3,.9-.3,2.5-3.5,2.6-5.4,0-.4-.1-.6-.3-.6s-.4.1-.6.4M292.204,20.804c-.8,2.1.2,3.6,1.9,2.8,1.6-.8,2.9-3.4,2.2-5-.2-.4-.5-.6-.9-.6-1.1-.1-2.7,1.3-3.2,2.9M300.704,20.104c-.6,2.3,1.8,3.8,3.9,2.5,1.5-1,2.3-3.2.9-4.7-.4-.3-.8-.5-1.3-.6-1.6-.2-3.2,1.2-3.6,2.8M291.504,14.504c-1.6,1.9-1.9,2.2-2.5,3.2-.4.6-.8,1.4-1.1,2h0s1.2-1.7,3.4-4.8c.2-.3.3-.4.3-.5h0M292.704,14.904c-.4.3-.7.8-1,1.2-1.1,1.5-1.2,2.8-.2,2.6,1.3-.2,3.5-3,3.7-4.6,0-.3-.1-.5-.3-.5-.5,0-1.6.8-2.1,1.3M297.804,15.404c-1,1.7-.1,3,1.6,2.5,1.9-.6,3.4-2.9,2.8-4.4-.2-.3-.5-.5-.8-.5-1.1,0-2.8,1.1-3.5,2.4M293.904,12.204c-1.4,1.2-2.1,2.2-1.7,2.2.6,0,3.7-2.8,4.6-3.8.2-.2.2-.3.2-.4h0c-.3,0-1.7.8-3,2M298.104,11.204c-.1,0-.3.3-.5.4-1.3,1.2-1.4,2.2-.6,2.2,1.4,0,4-2.4,4.4-3.6,0-.2,0-.4-.3-.4-.6,0-2.2.8-3.1,1.5M299.904,8.604c-1.5.8-2.3,1.5-1.9,1.6.7.2,5.3-2.6,5.3-2.7.133-.067.2-.133.2-.2h0c-.4,0-2.2.6-3.6,1.3h0Z"/>
      </g>
      <g>
        <path d="M356.604,44.204v3.2h-15.5c-.5,0-.8.2-.8.5v1.1c0,.3.3.5.8.5h11.7c2.8,0,4.2,1.1,4.2,3.3v1.9c0,2.3-1.4,3.4-4.2,3.4h-15.5v-3.2h15.5c.5,0,.8-.2.8-.5v-1.1c0-.3-.3-.5-.8-.5h-11.7c-2.8,0-4.2-1-4.2-3v-2.2c0-2.3,1.4-3.4,4.2-3.4h15.5Z"/>
        <path d="M368.704,58.204c-3.5,0-5.3-1.5-5.3-4.4v-5.1c0-3,1.8-4.5,5.3-4.5h10.8c3.5,0,5.3,1.5,5.3,4.5v5.1c0,3-1.8,4.4-5.3,4.4h-10.8ZM368.704,47.504c-1.2,0-1.8.4-1.8,1.2v5.1c0,.8.6,1.2,1.8,1.2h10.8c1.2,0,1.8-.4,1.8-1.2v-5.1c0-.8-.6-1.2-1.8-1.2h-10.8Z"/>
        <path d="M395.604,58.204c-2.8,0-4.2-1.1-4.2-3.4v-10.6h3.4v10.1c0,.4.3.7.8.7h15.2v3.2h-15.2,0Z"/>
        <path d="M433.004,55.504h-11.4l-1.5,2.8h-4l7.3-12.8c.1-.2.2-.4.3-.5.1-.2.2-.3.4-.4.1,0,.3-.2.5-.2h4.3c1,0,1.7.4,2.1,1.2l7.3,12.8h-3.9l-1.6-2.8h.2v-.1ZM423.304,52.404h8l-2.4-4.3c-.1-.2-.3-.4-.4-.5s-.3-.2-.5-.2h-1.4c-.4,0-.7.2-.9.7l-2.4,4.2h0v.1Z"/>
        <path d="M444.204,44.204h16.9c2.7,0,4,1.1,4,3.4v1.3c0,2.4-1.4,3.5-4,3.5h-1.2l5.8,5.8h-4.7l-5.4-5.6h-7.9v5.6h-3.4v-14h-.1ZM447.604,47.504v2.2h13.5c.5,0,.7-.2.7-.6v-1.1c0-.4-.3-.5-.8-.5h-13.4Z"/>
      </g>
    </g>
    <g>
      <line x1="210.504" y1="18.004" x2="240.204" y2="47.804" fill="none" stroke="#231f20" stroke-miterlimit="10"/>
      <line x1="240.204" y1="18.004" x2="210.504" y2="47.804" fill="none" stroke="#231f20" stroke-miterlimit="10"/>
    </g>
  </g>
  <g id="c1">
    <path d="M13.263,49.272c-.543,3.11-3.484,5.625-6.542,5.625s-5.167-2.515-4.639-5.625c.543-3.11,3.484-5.625,6.559-5.625s5.132,2.515,4.622,5.625" fill="#1ea84a"/>
    <polygon points="36.544 57.158 41.168 33.247 31.991 33.247 27.385 57.158 36.544 57.158" fill="#1ea84a"/>
    <path d="M42.697,25.923c-.441,2.583-2.872,4.656-5.404,4.656s-4.266-2.074-3.807-4.656c.459-2.567,2.872-4.639,5.404-4.639s4.266,2.074,3.823,4.639" fill="#1ea84a"/>
    <path d="M62.223,32.568c-4.044.17-7.851,2.311-8.31,2.567l.358-1.887h-9.177l-4.622,23.911h9.159l3.127-16.196c2.107-2.176,4.572-2.43,6.644-2.057,1.512.272,1.75,1.308,1.716,2.057l-3.11,16.196h9.159l3.518-18.285.033-.17c.068-.358.085-.697.085-1.019-.052-3.925-4.674-5.25-8.599-5.115" fill="#1ea84a"/>
    <polygon points="78.452 41.659 84.245 35.745 86.234 25.532 77.058 25.532 70.906 57.158 80.066 57.158 82.342 45.466 78.452 41.659" fill="#1ea84a"/>
    <polygon points="91.655 41.659 108.241 25.532 96.499 25.532 80.728 41.659 96.499 57.158 108.241 57.158 91.655 41.659" fill="#1ea84a"/>
    <path d="M20.094,25.686s-2.617,13.442-3.892,19.78c-.986,4.945-2.481,10.467-8.429,10.842-.221.033-.459.033-.714.033-1.683,0-3.297-.526-4.605-1.444,1.24,1.512,3.178,2.38,5.319,2.752,3.892.714,8.497-.154,11.147-1.785,4.792-2.872,6.186-7.596,7.189-12.677.867-4.35,3.432-17.521,3.432-17.521h-9.465l.017.017v.002Z" fill="#1ea84a"/>
    <path d="M120.306,49.476c-4.47,0-7.732-3.653-7.341-8.156s4.35-8.14,8.82-8.14,7.749,3.636,7.358,8.14c-.424,4.503-4.368,8.156-8.836,8.156M122.567,24.751c-9.092,0-17.13,7.409-17.962,16.568s5.862,16.585,14.954,16.585,17.113-7.409,17.945-16.585c.832-9.159-5.862-16.568-14.937-16.568" fill="#1ea84a"/>
    <path d="M126.135,15.761c-.272-.51-.68-.951-1.223-1.36-.543-.391-1.138-.714-1.818-.969-.663-.237-1.394-.424-2.107-.561-2.192-.323-4.231-1.036-6.101-2.141-.17-.085-.358-.272-.526-.561-.187-.289-.289-.561-.289-.815,0-.951.17-1.92.476-2.872.323-.969.73-1.716,1.223-2.261.799-.917,2.243-1.699,4.316-2.363,2.074-.68,4.435-1.019,7.018-1.019,1.564,0,2.771.119,3.603.358.849.237,1.275.612,1.275,1.105,0,.815-.102,1.444-.339,1.903-.221.424-.459.747-.697.884-.256.154-.697.339-1.342.595-.663.237-1.275.493-1.768.747-.51.256-.934.51-1.292.765-.358.237-.578.358-.663.358-.102,0-.154-.033-.154-.135,0-.187.204-.459.578-.832.374-.374.849-.714,1.41-.986.595-.306.901-.526.901-.595,0-.154-.339-.204-1.003-.204-1.989,0-3.84.17-5.54.526-1.683.358-3.041.832-4.01,1.427-.986.578-1.462,1.173-1.462,1.785,0,.374.187.645.595.815.408.154,1.292.424,2.685.782,1.377.374,2.617.799,3.705,1.275,1.564.68,2.719,1.394,3.484,2.107.765.73,1.138,1.546,1.138,2.446,0,.628-.154,1.258-.459,1.87-.289.628-.73,1.206-1.308,1.716-.578.526-1.24.951-1.972,1.292-.645.272-1.462.526-2.413.765-.969.237-2.005.424-3.127.561-1.138.135-2.209.204-3.245.204-1.887,0-3.399-.187-4.554-.543s-1.733-.901-1.733-1.631c0-.339.204-.832.578-1.529.391-.697.849-1.156,1.394-1.41.459-.187.917-.289,1.342-.323.424-.033.663.033.663.154,0,.033-.033.068-.068.102-.033.033-.068.068-.119.085-.033.017-.068.033-.119.052-.204.102-.391.154-.526.221-.135.033-.256.085-.323.135-.085.052-.119.119-.119.204,0,.221,1.121.339,3.347.339,1.955,0,3.551-.068,4.776-.221,1.24-.154,2.363-.408,3.297-.782s1.818-.884,2.6-1.529" fill="#7bba42"/>
    <path d="M137.879,11.002c-.884.543-1.666,1.036-2.294,1.479-.645.459-1.173.901-1.631,1.342-.441.459-.73.901-.884,1.36-.272,1.223-.391,1.87-.391,1.972,0,.73.493,1.088,1.496,1.088.476,0,1.24-.408,2.328-1.206-.187-.51-.272-1.003-.272-1.479,0-.68.135-1.377.424-2.09.272-.714.697-1.529,1.24-2.465M141.226,15.302v1.088c-.714.663-1.292,1.088-1.716,1.308-.441.221-1.054.306-1.87.272-1.41,1.666-2.634,2.515-3.705,2.515-.612,0-1.156-.204-1.648-.612-.51-.391-.917-.934-1.206-1.648s-.441-1.479-.441-2.345c0-.714.221-1.479.68-2.328s1.054-1.648,1.785-2.38,1.529-1.325,2.345-1.785c.832-.459,1.598-.68,2.311-.68.493,0,.917.085,1.206.237.306.17.424.374.424.663,0,.221-.119.459-.358.747.408.068.68.237.832.441.154.204.221.578.221,1.105s-.119,1.19-.374,1.972c-.237.799-.561,1.546-.986,2.243l.289.306h.237c.187,0,.374-.052.543-.154.17-.085.323-.187.476-.306.154-.102.459-.323.917-.697" fill="#7bba42"/>
    <path d="M144.08,12.209c.578-.561,1.105-1.19,1.631-1.903s1.036-1.462,1.496-2.261.832-1.529,1.105-2.176.391-1.121.391-1.462c0-.237-.085-.374-.256-.374-.068,0-.204.068-.374.187-.645.543-1.394,1.597-2.209,3.195-.815,1.581-1.41,3.178-1.75,4.792M148.924,15.15v1.206c-2.261,3.025-4.096,4.52-5.506,4.52-.765,0-1.377-.424-1.818-1.258-.441-.849-.645-1.954-.645-3.33,0-1.121.256-2.43.765-3.977.526-1.529,1.223-3.076,2.074-4.639.884-1.581,1.785-2.939,2.719-4.112.934-1.173,1.785-1.989,2.583-2.446.323-.204.578-.306.765-.306.256,0,.391.102.476.306.068.204.102.543.102,1.036,0,1.512-.612,3.382-1.835,5.591-1.223,2.192-2.923,4.435-5.098,6.746-.119.561-.154,1.003-.154,1.308,0,.697.154,1.275.441,1.699.306.441.714.645,1.24.645.272,0,.561-.102.867-.306.323-.221.645-.493.986-.799.358-.306,1.019-.951,2.022-1.887" fill="#7bba42"/>
    <path d="M158.441,10.611c-2.804,1.292-4.809,2.38-5.999,3.297-1.19.901-1.785,1.835-1.785,2.787,0,.358.052.645.187.867.135.237.272.339.476.339.119,0,.323-.068.645-.221,1.121-.68,2.159-1.546,3.093-2.634s2.074-2.567,3.382-4.418M150.674,12.413c1.666-1.496,3.245-2.617,4.792-3.347,1.546-.73,2.736-1.088,3.586-1.088.221,0,.424.102.628.289.187.187.339.408.459.663.102.256.17.441.17.561,0,.204-.068.339-.221.441-.154.085-.424.204-.799.323.068.187.17.408.306.68.119.272.204.493.272.663s.085.323.085.459c0,.256-.256.747-.782,1.462s-.884,1.24-1.105,1.581c-.221.339-.323.765-.323,1.24,0,.799.374,1.206,1.105,1.206s1.937-.73,3.551-2.141v1.003c-2.719,3.06-4.691,4.589-5.862,4.589-.424,0-.73-.135-.901-.424-.187-.272-.272-.68-.272-1.223,0-.867.306-2.107.917-3.738-1.581,1.768-2.752,3.025-3.518,3.755-.782.747-1.394,1.121-1.903,1.121-.221,0-.526-.204-.884-.628-.358-.408-.68-.951-.934-1.614-.272-.645-.408-1.325-.408-2.039,0-.51.052-.934.154-1.292.085-.339.272-.697.543-1.054.289-.358.73-.832,1.342-1.427" fill="#7bba42"/>
    <path d="M162.094,16.593v-1.071c.578-.697,1.019-1.292,1.325-1.785-.339-.119-.595-.256-.765-.441-.135-.17-.237-.441-.237-.782,0-.391.17-.884.493-1.479.306-.612.73-1.156,1.19-1.683.476-.526.917-.867,1.308-1.019.135-.068.289-.102.424-.102.221,0,.323.102.323.306,0,.187-.17.561-.51,1.138,2.226-.358,3.636-.526,4.214-.526.237,0,.391.017.476.068.204.102.339.323.459.663.119.374.187.73.187,1.088,0,.221-.119.476-.306.73-.204.272-.543.663-1.019,1.173-.578.628-1.071,1.292-1.444,2.022-.391.73-.595,1.275-.595,1.648,0,.51.306.765.934.765.663,0,1.818-.68,3.449-2.022v1.088c-.901.951-1.631,1.699-2.209,2.243-.595.543-1.138.969-1.631,1.308-.51.323-.951.476-1.325.476-.459,0-.832-.204-1.138-.628s-.459-1.019-.459-1.818c0-.476.119-1.003.358-1.597.237-.595.595-1.24,1.054-1.954.459-.714.986-1.41,1.546-2.107-.306.068-.645.135-1.019.204-.374.085-.782.154-1.19.221-.424.085-.747.135-.969.187-.68,1.342-1.631,2.567-2.923,3.671" fill="#7bba42"/>
  </g>
</svg>