<svg xmlns="http://www.w3.org/2000/svg" id="Layer_2" viewBox="0 0 209.56 59.17"><g id="Layer_1-2"><path d="M59.97,16.31v9.91c0,8.39,8.61,7.94,8.61,7.94h39.53v-7.83s-37.11,0-37.11,0c-2.48,0-2.53-2.31-2.53-2.31v-2.87h39.47v-4.84,1.54-4.84h-39.47v-2.87s.06-2.31,2.53-2.31h37.11V0h-39.53s-8.61-.45-8.61,7.94v9.91-1.54Z"></path><path d="M119.08,34.16v-13.01h39.47v-4.84,1.54-4.84h-39.47v-2.87s.06-2.31,2.53-2.31h37.11V0h-39.53s-8.61-.45-8.61,7.94v9.91-1.54,17.87l8.5-.02Z"></path><path d="M209.54,20.87l.02,5.72c0,7.92-9.08,7.57-9.08,7.57h-39.05v-7.99h38.02c1.97,0,1.78-1.38,1.78-1.38v-2.27c0-1.65-1.81-1.51-1.81-1.51h-29.38s-9.87.63-9.87-7.38v-5.18C160.16-.32,168.74,0,168.74,0h39.6v7.82s-37.92,0-37.92,0c-2.12,0-1.79,1.82-1.79,1.82v1.73s-.33,1.69,1.94,1.69h30.5s8.39-.29,8.48,7.8"></path><path d="M23.96,58.14c.09.16.52.42,1.27.65.29.09.52.14.7.18.43.07.55.09.91.14-.25-.06-.42-.14-.8-.36-.47-.27-.65-.37-1.03-.54-.34-.14-.59-.2-.76-.22-.28-.03-.35.06-.29.15"></path><path d="M27.34,58.6s0,.05.02.07c.26.87,1.88.39,2.17-.14.15-.28-.03-.46-.12-.55-.19-.14-.41-.21-.63-.24-.73-.09-1.51.35-1.43.86"></path><path d="M18.64,55.72c.06.26.61.79,1.71,1.39,1.23.66,2.74,1.16,2.96,1.13,0-.01,0-.02,0-.04-.03-.04-1.72-1.48-3.27-2.3-.53-.26-.86-.36-1.07-.39-.37-.05-.34.17-.34.2"></path><path d="M31.73,58.46c-.91.57-.81.6-.74.62.38.12,4.22-.54,4.38-1.55-.03-.13-.16-.21-.38-.23-.6-.07-1.83.26-3.26,1.16"></path><path d="M23.24,56.18c.06.19.17.38.33.59.99,1.22,3.06,1.88,3.19.41.03-.34-.07-1.02-1.05-1.67-.43-.23-.83-.36-1.18-.41-.92-.11-1.51.36-1.29,1.07"></path><path d="M41.18,56.46c-.71.09-1.82.57-4.02,1.51-.62.26-1.3.37-1.85.79.18.18,4.8-.88,6.12-2.07.05-.06.17-.21-.03-.23-.05,0-.12,0-.22,0"></path><path d="M29.87,56.39c-.32,1.42,1.23,1.81,2.95.74.19-.12,1.8-1.16.94-2.18-.26-.22-.59-.35-.94-.39-1.19-.15-2.68.65-2.94,1.83"></path><path d="M12.52,52.19c.11.36.76,1.12,1.93,2,1.52,1.14,3.46,2.09,3.38,1.75-.06-.23-2.13-2.33-3.94-3.52-.59-.36-.93-.49-1.13-.52-.32-.04-.27.21-.24.29"></path><path d="M17.11,52.36c.06.26.22.69.69,1.25,1.27,1.52,3.77,2.78,3.89,1.29.05-.55-.32-1.91-2.03-3.06-.57-.33-1.05-.5-1.43-.55-.88-.11-1.26.42-1.12,1.08"></path><path d="M37.44,55.73c-.23.24-1.3,1.44-.27,1.45,1.35.02,5.1-1.86,4.94-3.2-.09-.21-.29-.32-.56-.35-.96-.12-2.86.78-4.11,2.11"></path><path d="M25.02,53.1c.52,2.11,3.63,2.95,4.81.78.24-.44.66-1.59-.67-2.65-.49-.32-1-.49-1.48-.55-1.66-.2-3.02.98-2.66,2.43"></path><path d="M6.87,47.5c.05.36.78,1.45,2.05,2.75,1.33,1.37,2.82,2.5,3,2.38.03-.31-2.65-3.4-4.03-4.66-.45-.39-.76-.6-.91-.62-.09-.01-.12.04-.11.15"></path><path d="M48.26,52.22c-.8.32-2.17,1.21-3.66,2.38-1.94,1.52-1.67,1.56-1.57,1.57.57.08,4.84-2.13,5.86-3.75.09-.2.07-.32-.08-.33-.11-.01-.3.03-.55.13"></path><path d="M10.45,47.58c.09.51.4,1.17.87,1.81,1.31,1.79,3.81,3.49,3.98,2,.08-.71-.58-2.69-2.54-4.24-.61-.42-1.08-.62-1.44-.67-.73-.09-.98.47-.87,1.1"></path><path d="M34.65,52.4c-.52,1.72.94,2.78,3.2,1.55,1.34-.73,2.85-2.41,1.86-3.7-.32-.29-.71-.46-1.13-.51-1.53-.19-3.47,1.1-3.94,2.65"></path><path d="M18.07,48.16c.03.17.1.39.16.55.95,2.43,4.32,3.74,5.36,1.51.1-.21.87-2.05-1.43-3.78-.63-.4-1.23-.61-1.77-.68-1.58-.19-2.64.88-2.33,2.4"></path><path d="M44.22,51.23c-.8,1.23-.94,2.38.39,2.08,1.77-.39,4.84-3.02,4.51-4.61-.12-.27-.35-.42-.64-.45-1.11-.14-3.18,1.31-4.27,2.98"></path><path d="M29.05,47.99c.07,2.53,3.45,3.82,5.54,1.42.68-.78,1.43-2.48-.13-3.88-.51-.36-1.05-.56-1.6-.63-1.96-.24-3.87,1.27-3.82,3.09"></path><path d="M4.61,41.72c.01.65.35,1.63.89,2.61,1.15,2.07,3.05,3.79,3.3,2.66.16-.76-.66-3.41-2.45-5.32-.53-.51-.9-.71-1.16-.74-.59-.07-.58.75-.58.8"></path><path d="M55.01,46.05c-.57.26-1.96,1.67-3.31,3.36-.44.54-1.81,2.31-1.29,2.19.67-.15,3.89-3.31,4.78-5.19.05-.13.14-.38,0-.4-.04,0-.1,0-.17.04"></path><path d="M10.85,42.46c.04.27.14.66.25.95.96,2.57,3.95,4.27,4.98,2.26.48-.94.49-3.1-1.57-4.9-.62-.46-1.2-.7-1.7-.76-1.33-.16-2.17.9-1.96,2.45"></path><path d="M40.77,46.88c-.61,2.32,1.21,3.43,3.43,2.1,1.63-.98,3.19-3.32,2.03-4.9-.34-.34-.76-.52-1.2-.58-1.66-.2-3.74,1.43-4.26,3.38"></path><path d="M21.41,42.6c.51,3.2,4.87,4.38,6.58,1.78.59-.9,1.04-2.85-.97-4.49-.68-.45-1.37-.7-2.01-.78-2.18-.27-3.93,1.38-3.59,3.49"></path><path d="M.92,35.05c-.12.52.19,2.04.73,3.62.73,2.12,1.66,3.74,1.87,3.26.23-.51-.66-4.1-1.8-6.29-.12-.22-.43-.76-.63-.78-.07,0-.13.05-.17.2"></path><path d="M50.92,45.14c-.83,1.95-.45,3.11.83,2.53,1.57-.71,3.93-3.89,3.49-5.75-.14-.32-.35-.47-.62-.51-1.04-.13-2.83,1.69-3.7,3.74"></path><path d="M34.65,41.6c-.12,2.95,3.24,4.24,5.54,2.13,1.2-1.11,2.11-3.43.36-5.14-.53-.41-1.1-.63-1.66-.7-2.08-.26-4.15,1.53-4.24,3.71"></path><path d="M4.75,36.05c0,.45.07.92.2,1.4.72,2.8,2.9,4.44,3.88,2.92.7-1.08.62-3.84-1.1-5.88-.5-.51-.98-.76-1.39-.81-.97-.12-1.62.89-1.59,2.37"></path><path d="M13.67,36.47c.46,3.24,4.02,4.8,5.85,2.57.87-1.06,1.43-3.5-.78-5.55-.63-.49-1.27-.75-1.87-.82-1.97-.24-3.53,1.54-3.21,3.79"></path><path d="M47.06,40.01c-.43,2.64,1.31,4,3.33,2.59,1.58-1.1,3.04-4.04,1.66-5.99-.35-.37-.75-.57-1.17-.62-1.61-.2-3.45,1.76-3.83,4.02"></path><path d="M26.72,35.5c.15,3.34,4.19,4.89,6.55,2.51,1.18-1.19,1.86-3.73-.3-5.66-.64-.46-1.31-.72-1.96-.8-2.31-.28-4.39,1.6-4.29,3.95"></path><path d="M1.22,28.25c-.1.36-.32,1.36-.21,2.84.21,2.69,1.32,4.47,2.12,3.41.71-.94.96-4.29-.09-6.64-.31-.57-.59-.81-.83-.84-.48-.06-.83.65-.99,1.22"></path><path d="M7.31,29.48c0,.11,0,.27,0,.38.08,3.08,2.54,4.91,4.32,3.22,1.36-1.3,1.72-4.37.13-6.37-.5-.52-1.03-.79-1.54-.85-1.5-.18-2.83,1.45-2.92,3.63"></path><path d="M40.68,34.09c-.04,3.24,3.1,4.75,5.33,2.56,1.51-1.48,1.95-4.26.18-6.05-.51-.41-1.04-.63-1.56-.69-2.01-.25-3.92,1.79-3.95,4.18"></path><path d="M18.53,28.78c0,3.54,4.05,5.27,6.45,2.76,1.19-1.24,1.86-3.88-.34-5.88-.66-.49-1.34-.75-1.99-.83-2.21-.27-4.12,1.57-4.11,3.95"></path><path d="M.09,25.95s0-.04,0-.06c0,.1-.02.2-.03.3l.02-.23Z"></path><path d="M.66,22.3c-.07.4-.15.85-.23,1.32.07-.47.15-.92.23-1.32-.15.71-.29,1.48-.4,2.29-.05.34-.09.66-.12.99-.02.13-.03.25-.04.38l-.02.23c-.01.12-.02.23-.03.34-.11,1.63.02,1.78.07,1.84.49-.2,1.23-4.98,1.28-7.05,0-.48-.02-.66-.11-.76-.1.04-.26.1-.62,1.74"></path><path d="M32.78,27.61c.1,3.34,3.85,5.04,6.16,2.8,1.33-1.28,1.96-4.1-.29-6.05-.6-.42-1.22-.65-1.81-.73-2.2-.27-4.13,1.63-4.06,3.97"></path><path d="M3.61,22.42c-.06.22-.12.51-.16.74-.45,2.75.74,4.63,2.22,3.53,1.29-.96,2.48-4.27,1.51-6.54-.29-.51-.63-.76-.98-.8-1.01-.12-2.13,1.38-2.59,3.07"></path><path d="M12.14,22.1c-.43,3.06,2.21,4.89,4.55,3.16,1.74-1.28,2.5-4.14.91-6.05-.51-.49-1.06-.74-1.6-.81-1.82-.22-3.57,1.67-3.86,3.69"></path><path d="M24.68,21.14c-.13,3.14,3.74,4.91,6.18,2.82,1.58-1.35,1.92-3.97-.09-5.71-.59-.41-1.2-.64-1.8-.71-2.17-.27-4.2,1.45-4.29,3.6"></path><path d="M4.64,13.9c-.61.61-1.34,1.82-1.86,3.08-.85,2.09-.93,3.74-.16,3.48.99-.34,2.92-4.03,3.05-6.27-.01-.49-.14-.68-.31-.7-.2-.02-.47.18-.72.42"></path><path d="M8.45,15.9c-.93,2.46.28,4.21,2.24,3.23,1.81-.91,3.36-3.9,2.53-5.83-.27-.44-.62-.66-1.02-.71-1.31-.16-3.08,1.54-3.75,3.32"></path><path d="M18.37,15.06c-.67,2.71,2.05,4.42,4.54,2.85,1.79-1.13,2.64-3.68,1.08-5.39-.45-.4-.95-.61-1.46-.67-1.81-.22-3.73,1.45-4.16,3.21"></path><path d="M7.67,8.53c-1.86,2.25-2.14,2.6-2.85,3.75-.4.68-.96,1.58-1.33,2.28,0,.02-.02.04-.03.05q.11-.09,3.91-5.58c.23-.34.3-.43.36-.54-.02.01-.04.02-.06.03"></path><path d="M9.07,9.07c-.41.4-.84.91-1.16,1.37-1.26,1.78-1.39,3.25-.28,3.04,1.5-.28,4.08-3.47,4.32-5.32,0-.4-.15-.57-.39-.6-.62-.08-1.84.87-2.49,1.51"></path><path d="M14.97,9.65c-1.13,1.96-.16,3.5,1.82,2.89,2.17-.67,3.91-3.4,3.21-5.04-.22-.35-.54-.53-.92-.58-1.3-.16-3.26,1.26-4.11,2.73"></path><path d="M10.46,5.87c-1.59,1.4-2.43,2.56-2.01,2.52.69-.05,4.27-3.28,5.31-4.42.21-.25.27-.34.26-.42-.01,0-.03-.01-.05-.02-.35-.04-1.97.98-3.51,2.34"></path><path d="M15.25,4.69c-.16.13-.37.3-.52.44-1.52,1.41-1.6,2.49-.65,2.49,1.6,0,4.68-2.72,5.11-4.2.04-.29-.09-.43-.33-.46-.75-.09-2.55.88-3.62,1.73"></path><path d="M17.43,1.68c-1.68.88-2.62,1.76-2.21,1.85.83.19,6.13-3.04,6.18-3.07.21-.15.24-.17.28-.24-.02-.02-.04-.03-.08-.03-.47-.06-2.53.63-4.16,1.49"></path><path d="M83.01,42.97v3.77h-17.88c-.62,0-.93.2-.93.59v1.26c0,.39.31.59.93.59h13.53c3.24,0,4.86,1.29,4.86,3.87v2.21c0,2.62-1.63,3.93-4.88,3.93h-17.88v-3.77h17.88c.61,0,.91-.19.91-.57v-1.32c0-.39-.3-.59-.91-.59h-13.53c-3.25,0-4.88-1.15-4.88-3.46v-2.55c0-2.63,1.63-3.95,4.9-3.95h17.88Z"></path><path d="M97.13,59.17c-4.06,0-6.1-1.71-6.1-5.14v-5.89c0-3.44,2.03-5.16,6.1-5.16h12.52c4.06,0,6.1,1.72,6.1,5.16v5.89c0,3.43-2.03,5.14-6.1,5.14h-12.52ZM97.13,46.74c-1.42,0-2.13.47-2.13,1.4v5.89c0,.92.71,1.38,2.13,1.38h12.52c1.42,0,2.13-.46,2.13-1.38v-5.89c0-.93-.71-1.4-2.13-1.4h-12.52Z"></path><path d="M128.2,59.17c-3.25,0-4.88-1.31-4.88-3.93v-12.27h3.97v11.67c0,.51.3.77.91.77h17.66v3.77h-17.66Z"></path><path d="M171.52,55.99h-13.14l-1.78,3.18h-4.58l8.49-14.83c.12-.23.25-.43.37-.6.13-.17.28-.31.46-.43.18-.11.38-.2.63-.26s.55-.09.91-.09h4.09c1.12,0,1.94.45,2.47,1.36l8.47,14.85h-4.56l-1.82-3.18ZM160.3,52.43h9.28l-2.82-4.94c-.15-.27-.31-.46-.5-.58-.18-.11-.37-.17-.56-.17h-1.56c-.43,0-.79.26-1.07.77l-2.77,4.92Z"></path><path d="M184.46,42.97h19.5c3.12,0,4.68,1.32,4.68,3.95v1.46c0,2.74-1.56,4.11-4.68,4.11h-1.36l6.7,6.68h-5.47l-6.29-6.48h-9.12v6.48h-3.97v-16.2ZM188.43,46.74v2.59h15.66c.53,0,.79-.22.79-.65v-1.31c0-.42-.3-.63-.91-.63h-15.54Z"></path></g></svg>