<?xml version="1.0" encoding="UTF-8"?>
<svg id="Layer_2" xmlns="http://www.w3.org/2000/svg" version="1.1" viewBox="0 0 506 59.7">
  <!-- Generator: Adobe Illustrator 30.3.0, SVG Export Plug-In . SVG Version: 2.1.3 Build 182)  -->
  <g>
    <g>
      <g>
        <g>
          <path d="M321.9,19.002v8.6c0,7.2,7.4,6.9,7.4,6.9h34.1v-6.8h-32c-2.1,0-2.2-2-2.2-2v-2.5h34.1v-4.2,1.3-4.2h-34.1v-2.5s0-2,2.2-2h32v-6.7h-34.1s-7.4-.4-7.4,6.9v8.6-1.3h0v-.1Z"/>
          <path d="M372.9,34.402v-11.2h34.1v-4.2,1.3-4.2h-34.1v-2.5s0-2,2.2-2h32v-6.7h-34.1s-7.4-.4-7.4,6.9v8.6-1.3,15.4h7.3v-.1Z"/>
          <path d="M451,23.002v4.9c0,6.8-7.8,6.5-7.8,6.5h-33.7v-6.9h32.8c1.7,0,1.5-1.2,1.5-1.2v-2c0-1.4-1.6-1.3-1.6-1.3h-25.4s-8.5.5-8.5-6.4v-4.5c0-7.6,7.4-7.3,7.4-7.3h34.2v6.8h-32.8c-1.8,0-1.5,1.6-1.5,1.6v1.5s-.3,1.5,1.7,1.5h26.3s7.2-.2,7.3,6.7"/>
        </g>
        <path d="M290.7,55.202s.5.4,1.1.6h1.4c-.2,0-.4,0-.7-.3-.4-.2-.6-.3-.9-.5-.3,0-.5-.2-.7-.2s-.3,0-.2,0M293.7,55.602h0c.2.8,1.6.3,1.9,0,.1-.2,0-.4-.1-.5-.2,0-.4-.2-.5-.2-.6,0-1.3.3-1.2.7M286.1,53.102c0,.2.5.7,1.5,1.2,1.1.6,2.4,1,2.6,1h0s-1.5-1.3-2.8-2c-.5-.2-.8-.3-.9-.3q-.3,0-.3.2M297.4,55.502c-.8.5-.7.5-.6.5.3,0,3.6-.5,3.8-1.3,0,0-.1-.2-.3-.2-.5,0-1.6.2-2.8,1M290.1,53.502c0,.2.1.3.3.5.9,1.1,2.6,1.6,2.8.4,0-.3,0-.9-.9-1.4-.4-.2-.7-.3-1-.4-.8,0-1.3.3-1.1.9M305.6,53.702c-.6,0-1.6.5-3.5,1.3-.5.2-1.1.3-1.6.7.2,0,4.1-.8,5.3-1.8,0,0,.1-.2,0-.2h-.2M295.8,53.702c-.3,1.2,1.1,1.6,2.5.6.2,0,1.5-1,.8-1.9-.2-.2-.5-.3-.8-.3-1,0-2.3.6-2.5,1.6M280.9,50.002c.1.3.6,1,1.7,1.7,1.3,1,3,1.8,2.9,1.5,0-.2-1.8-2-3.4-3-.5-.3-.8-.4-1-.4-.3,0-.2.2-.2.2M284.8,50.102c0,.2.2.6.6,1.1,1.1,1.3,3.2,2.4,3.4,1.1,0-.5-.3-1.6-1.8-2.6-.5-.3-.9-.4-1.2-.5-.8,0-1.1.4-1,.9M302.4,53.102c-.2.2-1.1,1.2-.2,1.2s4.4-1.6,4.3-2.8c0-.2-.2-.3-.5-.3-.8,0-2.5.7-3.5,1.8M291.7,50.802c.5,1.8,3.1,2.6,4.2.7.2-.4.6-1.4-.6-2.3-.4-.3-.9-.4-1.3-.5-1.4-.2-2.6.8-2.3,2.1M276,45.902c0,.3.7,1.2,1.8,2.4,1.1,1.2,2.4,2.2,2.6,2.1,0-.3-2.3-2.9-3.5-4-.4-.3-.7-.5-.8-.5,0,0-.1,0,0,0M311.7,50.002c-.7.3-1.9,1-3.2,2-1.7,1.3-1.4,1.4-1.4,1.4.5,0,4.2-1.8,5.1-3.2v-.3h-.5M279.1,46.002c0,.4.4,1,.8,1.6,1.1,1.6,3.3,3,3.4,1.7,0-.6-.5-2.3-2.2-3.7-.5-.4-.9-.5-1.2-.6-.6,0-.9.4-.8,1M300,50.202c-.5,1.5.8,2.4,2.8,1.3,1.2-.6,2.5-2.1,1.6-3.2-.3-.2-.6-.4-1-.4-1.3-.2-3,.9-3.4,2.3M285.7,46.502s0,.3.1.5c.8,2.1,3.7,3.2,4.6,1.3,0-.2.8-1.8-1.2-3.3-.5-.3-1.1-.5-1.5-.6-1.4-.2-2.3.8-2,2.1M308.2,49.102c-.7,1.1-.8,2.1.3,1.8,1.5-.3,4.2-2.6,3.9-4-.1-.2-.3-.4-.5-.4-1,0-2.7,1.1-3.7,2.6M295.2,46.402c0,2.2,3,3.3,4.8,1.2.6-.7,1.2-2.1-.1-3.3-.4-.3-.9-.5-1.4-.5-1.7-.2-3.3,1.1-3.3,2.7M274,41.002c0,.6.3,1.4.8,2.2,1,1.8,2.6,3.3,2.9,2.3.1-.7-.6-3-2.1-4.6-.5-.4-.8-.6-1-.6-.5,0-.5.6-.5.7M317.6,44.702c-.5.2-1.7,1.4-2.9,2.9s-1.6,2-1.1,1.9c.6,0,3.4-2.9,4.1-4.5,0,0,.1-.3,0-.4h-.1M279.5,41.602c0,.2.1.6.2.8.8,2.2,3.4,3.7,4.3,1.9.4-.8.4-2.7-1.4-4.2-.5-.4-1-.6-1.5-.7-1.1,0-1.9.8-1.7,2.1M305.3,45.402c-.5,2,1,3,3,1.8,1.4-.9,2.8-2.9,1.8-4.2-.3-.3-.6-.5-1-.5-1.4-.2-3.2,1.2-3.7,2.9M288.6,41.702c.4,2.8,4.2,3.8,5.7,1.5.5-.8.9-2.5-.8-3.9-.6-.4-1.2-.6-1.7-.7-1.9-.2-3.4,1.2-3.1,3M270.9,35.202c-.1.4.2,1.8.6,3.1.6,1.8,1.4,3.2,1.6,2.8s-.6-3.5-1.5-5.4c-.1-.2-.4-.7-.5-.7,0,0-.1,0-.1.2M314.1,43.902c-.7,1.7-.4,2.7.7,2.2,1.4-.6,3.4-3.4,3-5-.1-.3-.3-.4-.5-.4-.9,0-2.5,1.5-3.2,3.2M300,40.902c-.1,2.5,2.8,3.7,4.8,1.8,1-.9,1.8-3,.3-4.4-.5-.4-1-.5-1.4-.6-1.8-.2-3.6,1.3-3.7,3.2M274.2,36.102c0,.4,0,.8.2,1.2.6,2.4,2.5,3.8,3.4,2.5.6-.9.5-3.3-1-5.1-.4-.4-.8-.7-1.2-.7-.8-.1-1.4.8-1.4,2M281.9,36.402c.4,2.8,3.5,4.1,5.1,2.2.8-.9,1.2-3-.7-4.8-.5-.4-1.1-.6-1.6-.7-1.7-.2-3,1.3-2.8,3.3M310.7,39.502c-.4,2.3,1.1,3.4,2.9,2.2,1.4-.9,2.6-3.5,1.4-5.2-.3-.3-.6-.5-1-.5-1.4-.2-3,1.5-3.3,3.5M293.2,35.602c.1,2.9,3.6,4.2,5.7,2.2,1-1,1.6-3.2-.3-4.9-.5-.4-1.1-.6-1.7-.7-2-.2-3.8,1.4-3.7,3.4M271.2,29.302c0,.3-.3,1.2-.2,2.5.2,2.3,1.1,3.9,1.8,2.9.6-.8.8-3.7,0-5.7-.3-.5-.5-.7-.7-.7-.4,0-.7.6-.9,1.1M276.4,30.402v.3c0,2.7,2.2,4.2,3.7,2.8,1.2-1.1,1.5-3.8.1-5.5-.4-.4-.9-.7-1.3-.7-1.3-.2-2.4,1.2-2.5,3.1M305.2,34.402c0,2.8,2.7,4.1,4.6,2.2,1.3-1.3,1.7-3.7.1-5.2-.4-.3-.9-.5-1.4-.6-1.7-.2-3.4,1.5-3.4,3.6M286.1,29.802c0,3.1,3.5,4.5,5.6,2.4,1-1.1,1.6-3.3-.3-5.1-.6-.4-1.2-.6-1.7-.7-1.9-.2-3.6,1.4-3.5,3.4M270.2,27.302h0v.2-.2h0ZM270.7,24.202c0,.4-.1.7-.2,1.1,0-.4.1-.8.2-1.1-.1.6-.2,1.3-.4,2,0,.3,0,.6-.1.9v.8c-.1,1.4,0,1.5,0,1.6.4-.2,1.1-4.3,1.1-6.1s0-.6-.1-.7c0,0-.2,0-.5,1.5M298.4,28.802c0,2.9,3.3,4.4,5.3,2.4,1.1-1.1,1.7-3.5-.2-5.2-.5-.4-1-.6-1.6-.6-1.9-.2-3.6,1.4-3.5,3.4M273.2,24.302c0,.2-.1.4-.1.6-.4,2.4.6,4,1.9,3.1,1.1-.8,2.1-3.7,1.3-5.6-.2-.4-.5-.7-.9-.7-.9-.1-1.8,1.2-2.2,2.7M280.6,24.002c-.4,2.6,1.9,4.2,3.9,2.7,1.5-1.1,2.2-3.6.8-5.2-.4-.4-.9-.6-1.4-.7-1.6-.2-3.1,1.4-3.3,3.2M291.4,23.202c-.1,2.7,3.2,4.2,5.3,2.4,1.4-1.2,1.7-3.4,0-4.9-.5-.4-1-.6-1.6-.6-1.9-.2-3.6,1.2-3.7,3.1M274.1,16.902c-.5.5-1.2,1.6-1.6,2.7-.7,1.8-.8,3.2-.1,3,.9-.3,2.5-3.5,2.6-5.4,0-.4-.1-.6-.3-.6s-.4.1-.6.4M277.4,18.602c-.8,2.1.2,3.6,1.9,2.8,1.6-.8,2.9-3.4,2.2-5-.2-.4-.5-.6-.9-.6-1.1-.1-2.7,1.3-3.2,2.9M285.9,17.902c-.6,2.3,1.8,3.8,3.9,2.5,1.5-1,2.3-3.2.9-4.7-.4-.3-.8-.5-1.3-.6-1.6-.2-3.2,1.2-3.6,2.8M276.7,12.302c-1.6,1.9-1.9,2.2-2.5,3.2-.4.6-.8,1.4-1.1,2h0s1.2-1.7,3.4-4.8c.2-.3.3-.4.3-.5h0M277.9,12.702c-.4.3-.7.8-1,1.2-1.1,1.5-1.2,2.8-.2,2.6,1.3-.2,3.5-3,3.7-4.6,0-.3-.1-.5-.3-.5-.5,0-1.6.8-2.1,1.3M283,13.202c-1,1.7-.1,3,1.6,2.5,1.9-.6,3.4-2.9,2.8-4.4-.2-.3-.5-.5-.8-.5-1.1,0-2.8,1.1-3.5,2.4M279.1,10.002c-1.4,1.2-2.1,2.2-1.7,2.2.6,0,3.7-2.8,4.6-3.8.2-.2.2-.3.2-.4h0c-.3,0-1.7.8-3,2M283.3,9.002c-.1,0-.3.3-.5.4-1.3,1.2-1.4,2.2-.6,2.2,1.4,0,4-2.4,4.4-3.6,0-.2,0-.4-.3-.4-.6,0-2.2.8-3.1,1.5M285.1,6.402c-1.5.8-2.3,1.5-1.9,1.6.7.2,5.3-2.6,5.3-2.7.133-.067.2-.133.2-.2h0c-.4,0-2.2.6-3.6,1.3h0Z"/>
      </g>
      <g>
        <path d="M341.8,42.002v3.2h-15.5c-.5,0-.8.2-.8.5v1.1c0,.3.3.5.8.5h11.7c2.8,0,4.2,1.1,4.2,3.3v1.9c0,2.3-1.4,3.4-4.2,3.4h-15.5v-3.2h15.5c.5,0,.8-.2.8-.5v-1.1c0-.3-.3-.5-.8-.5h-11.7c-2.8,0-4.2-1-4.2-3v-2.2c0-2.3,1.4-3.4,4.2-3.4h15.5Z"/>
        <path d="M353.9,56.002c-3.5,0-5.3-1.5-5.3-4.4v-5.1c0-3,1.8-4.5,5.3-4.5h10.8c3.5,0,5.3,1.5,5.3,4.5v5.1c0,3-1.8,4.4-5.3,4.4h-10.8ZM353.9,45.302c-1.2,0-1.8.4-1.8,1.2v5.1c0,.8.6,1.2,1.8,1.2h10.8c1.2,0,1.8-.4,1.8-1.2v-5.1c0-.8-.6-1.2-1.8-1.2h-10.8Z"/>
        <path d="M380.8,56.002c-2.8,0-4.2-1.1-4.2-3.4v-10.6h3.4v10.1c0,.4.3.7.8.7h15.2v3.2h-15.2,0Z"/>
        <path d="M418.2,53.302h-11.4l-1.5,2.8h-4l7.3-12.8c.1-.2.2-.4.3-.5.1-.2.2-.3.4-.4.1,0,.3-.2.5-.2h4.3c1,0,1.7.4,2.1,1.2l7.3,12.8h-3.9l-1.6-2.8h.2v-.1ZM408.5,50.202h8l-2.4-4.3c-.1-.2-.3-.4-.4-.5s-.3-.2-.5-.2h-1.4c-.4,0-.7.2-.9.7l-2.4,4.2h0v.1Z"/>
        <path d="M429.4,42.002h16.9c2.7,0,4,1.1,4,3.4v1.3c0,2.4-1.4,3.5-4,3.5h-1.2l5.8,5.8h-4.7l-5.4-5.6h-7.9v5.6h-3.4v-14h-.1ZM432.8,45.302v2.2h13.5c.5,0,.7-.2.7-.6v-1.1c0-.4-.3-.5-.8-.5h-13.4Z"/>
      </g>
    </g>
    <g>
      <line x1="195.7" y1="15.802" x2="225.4" y2="45.602" fill="none" stroke="#231f20" stroke-miterlimit="10"/>
      <line x1="225.4" y1="15.802" x2="195.7" y2="45.602" fill="none" stroke="#231f20" stroke-miterlimit="10"/>
    </g>
  </g>
  <g id="c1">
    <path d="M75.558,44.901c-4.766,0-8.294-1.303-11.082-4.123l1.996-2.094c2.161,2.392,5.062,3.53,8.972,3.53,5.344,0,8.229-1.979,8.229-5.855,0-3.001-1.649-4.486-5.228-4.848l-4.535-.429c-5.508-.478-8.229-3.05-8.229-7.536,0-4.964,3.859-8.196,9.828-8.196,3.759,0,7.223,1.138,9.598,3.05l-1.929,2.028c-2.111-1.616-4.666-2.457-7.669-2.457-4.486,0-6.976,2.028-6.976,5.557,0,2.985,1.698,4.486,5.573,4.848l4.437.412c4.535.412,8.014,1.914,8.014,7.536,0,5.26-4.255,8.543-10.966,8.543" fill="#f58025"/>
    <path d="M122.707,44.538c-4.437,0-6.58-2.985-6.58-7.471V6.295h2.903v30.723c0,3.232.956,4.832,4.206,4.832h1.979v2.688s-2.507,0-2.507,0Z" fill="#f58025"/>
    <path d="M129.138,15.728h2.903v28.81h-2.903V15.728ZM130.623,10.418c-1.187,0-2.161-1.007-2.161-2.21s.973-2.276,2.111-2.276,2.161,1.023,2.161,2.21c0,1.254-.973,2.276-2.094,2.276" fill="#f58025"/>
    <path d="M146.14,44.901c-4.782,0-8.312-1.303-11.099-4.123l1.996-2.094c2.161,2.392,5.062,3.53,8.988,3.53,5.344,0,8.245-1.979,8.245-5.855,0-3.001-1.649-4.486-5.228-4.848l-4.551-.429c-5.524-.478-8.245-3.05-8.245-7.536,0-4.964,3.859-8.196,9.845-8.196,3.759,0,7.223,1.138,9.614,3.05l-1.93,2.028c-2.111-1.616-4.666-2.457-7.685-2.457-4.502,0-6.992,2.028-6.992,5.557,0,2.985,1.698,4.486,5.573,4.848l4.437.412c4.551.412,8.014,1.914,8.014,7.536,0,5.26-4.255,8.543-10.966,8.543" fill="#f58025"/>
    <path d="M106.644,20.494c-1.55-1.567-3.644-2.457-5.986-2.457s-4.419.891-5.986,2.457c-2.392,2.392-2.572,6.283-2.572,9.63s.182,7.24,2.572,9.63c1.567,1.55,3.644,2.457,5.986,2.457s4.437-.891,5.986-2.457c2.392-2.392,2.572-6.283,2.572-9.63s-.182-7.24-2.572-9.63M108.689,41.735c-2.028,2.028-4.782,3.166-8.014,3.166s-5.986-1.138-8.014-3.166c-3.05-3.05-3.595-7.471-3.595-11.61s.544-8.559,3.595-11.61c2.028-2.028,4.782-3.166,8.014-3.166s5.986,1.138,8.014,3.166c3.05,3.05,3.579,7.471,3.579,11.61s-.544,8.559-3.579,11.61" fill="#f58025"/>
    <path d="M21.666,16.289c-2.903,0-5.953-2.523-8.262-4.437-.841-.693-1.979-1.632-2.474-1.847-.429.149-.923.033-1.22-.329-.396-.462-.329-1.171.132-1.567,1.254-1.038,2.721.182,4.964,2.028,2.325,1.914,5.491,4.551,7.618,3.81.578-.198,1.204.1,1.402.676.198.578-.1,1.204-.676,1.402-.495.165-.989.247-1.501.247" fill="#5f6062"/>
    <path d="M1.119,26.431s-.132,0-.198-.016c-.594-.116-1.007-.676-.891-1.287.28-1.6,2.21-1.616,5.113-1.632,3.018-.016,7.14-.049,8.294-1.979.313-.527.989-.693,1.517-.38s.693.989.38,1.517c-1.798,3.001-6.646,3.034-10.175,3.068-1.089,0-2.556.016-3.084.165-.198.329-.56.544-.956.544" fill="#5f6062"/>
    <path d="M4.4,45.016c-.38,0-.758-.198-.956-.544-.809-1.402.643-2.655,2.87-4.535,2.292-1.945,5.426-4.617,5.079-6.844-.1-.594.313-1.171.923-1.27.61-.1,1.171.313,1.27.923.544,3.463-3.134,6.596-5.822,8.889-.825.709-1.945,1.665-2.243,2.111.082.445-.116.907-.527,1.154-.182.1-.363.149-.56.149" fill="#5f6062"/>
    <path d="M18.863,57.171c-.131,0-.247-.016-.38-.066-1.534-.56-1.204-2.457-.725-5.31.495-2.968,1.187-7.025-.527-8.509-.462-.396-.511-1.105-.116-1.567.396-.462,1.089-.511,1.55-.116,2.639,2.292,1.83,7.075,1.254,10.554-.182,1.072-.429,2.523-.363,3.068.347.297.495.775.329,1.22s-.594.725-1.038.725" fill="#5f6062"/>
    <path d="M37.563,57.203c-1.22,0-2.127-1.534-3.397-3.727-1.517-2.589-3.612-6.151-5.871-6.184-.61,0-1.089-.511-1.089-1.121s.495-1.089,1.121-1.089c3.496.049,5.953,4.239,7.734,7.273.56.94,1.303,2.21,1.698,2.589.445,0,.874.28,1.038.725.214.578-.082,1.204-.66,1.418-.198.082-.38.116-.578.116" fill="#5f6062"/>
    <path d="M51.647,45.28c-.956,0-2.243-.462-3.842-1.023-2.836-1.007-6.711-2.392-8.476-.973-.478.38-1.171.313-1.55-.165-.38-.478-.313-1.171.165-1.55,2.721-2.21,7.273-.578,10.604.61,1.038.363,2.408.858,2.952.891.347-.297.858-.347,1.254-.116.527.297.709.973.412,1.517-.347.578-.841.809-1.517.809" fill="#5f6062"/>
    <path d="M44.143,34.017s-.149,0-.214-.016c-.594-.116-.989-.693-.874-1.303.66-3.43,5.195-5.129,8.509-6.366,1.023-.38,2.392-.891,2.836-1.22.082-.445.429-.809.891-.891.594-.1,1.171.297,1.287.891.28,1.6-1.517,2.276-4.239,3.281-2.821,1.056-6.678,2.49-7.107,4.7-.1.527-.56.891-1.089.891" fill="#5f6062"/>
    <path d="M42.231,23.182c-.38,0-.758-.198-.973-.578-1.698-3.05.693-7.273,2.441-10.339.544-.956,1.27-2.226,1.385-2.754-.231-.396-.198-.891.116-1.254.396-.462,1.089-.527,1.55-.132,1.254,1.038.297,2.721-1.138,5.244-1.485,2.623-3.512,6.2-2.425,8.18.297.544.1,1.204-.429,1.501-.165.1-.347.131-.527.131" fill="#5f6062"/>
    <path d="M33.804,16.108c-.131,0-.264-.016-.396-.082-3.265-1.254-4.139-6.002-4.782-9.483-.198-1.072-.462-2.507-.709-3.001-.429-.165-.725-.56-.725-1.038,0-.61.495-1.105,1.105-1.105,1.632,0,1.979,1.896,2.507,4.75.544,2.952,1.287,7.009,3.397,7.816.56.214.858.858.643,1.418-.165.445-.594.709-1.038.709" fill="#5f6062"/>
    <path d="M14.377,23.182c-.182,0-.363-.049-.544-.131-.527-.297-.725-.973-.429-1.501,1.105-1.979-.94-5.557-2.425-8.18-1.434-2.523-2.392-4.206-1.138-5.244.462-.396,1.171-.329,1.55.132.313.363.329.874.116,1.254.131.527.858,1.814,1.385,2.754,1.748,3.068,4.139,7.289,2.441,10.339-.198.363-.578.578-.973.578" fill="#f58025"/>
    <path d="M12.464,34.017c-.511,0-.973-.363-1.089-.891-.429-2.226-4.288-3.661-7.107-4.7C1.546,27.404-.252,26.728.029,25.128c.116-.594.676-1.007,1.287-.891.462.082.809.445.891.891.445.329,1.814.841,2.836,1.22,3.315,1.236,7.849,2.919,8.509,6.366.116.594-.28,1.171-.874,1.303-.066,0-.131.016-.214.016" fill="#f58025"/>
    <path d="M4.961,45.28c-.676,0-1.187-.231-1.517-.809-.297-.527-.132-1.204.412-1.501.412-.247.907-.182,1.27.116.544-.033,1.929-.527,2.952-.891,3.332-1.187,7.899-2.803,10.604-.61.478.38.544,1.072.165,1.55s-1.089.544-1.55.165c-1.748-1.418-5.64-.033-8.476.973-1.6.56-2.886,1.023-3.842,1.023" fill="#f58025"/>
    <path d="M19.061,57.203c-.182,0-.38-.033-.578-.116-.578-.214-.874-.841-.66-1.418.165-.445.578-.725,1.038-.725.396-.38,1.138-1.649,1.698-2.589,1.781-3.05,4.239-7.223,7.734-7.273.594,0,1.121.478,1.121,1.089s-.478,1.105-1.089,1.121c-2.259.033-4.353,3.595-5.871,6.184-1.287,2.177-2.177,3.71-3.397,3.71" fill="#f58025"/>
    <path d="M37.745,57.171c-.445,0-.874-.28-1.038-.725-.165-.445-.016-.94.329-1.22.066-.544-.182-1.979-.363-3.068-.578-3.479-1.402-8.262,1.254-10.554.462-.396,1.154-.347,1.55.116.396.462.347,1.154-.116,1.567-1.698,1.485-1.023,5.541-.527,8.509.478,2.87.809,4.766-.725,5.31-.131.049-.247.066-.38.066" fill="#f58025"/>
    <path d="M52.223,45.016c-.182,0-.38-.049-.56-.149-.412-.247-.61-.709-.527-1.154-.297-.445-1.418-1.402-2.243-2.111-2.688-2.292-6.382-5.426-5.822-8.889.1-.61.66-1.023,1.27-.923.594.1,1.007.66.923,1.27-.347,2.226,2.787,4.897,5.079,6.844,2.21,1.88,3.677,3.134,2.87,4.535-.214.347-.578.544-.956.544" fill="#f58025"/>
    <path d="M55.506,26.431c-.396,0-.758-.214-.956-.544-.527-.149-1.979-.165-3.084-.165-3.53-.016-8.378-.066-10.175-3.068-.313-.527-.149-1.204.38-1.517s1.204-.149,1.517.38c1.154,1.929,5.277,1.963,8.294,1.979,2.919.016,4.832.033,5.113,1.632.116.594-.297,1.171-.891,1.287-.066,0-.132.016-.198.016" fill="#f58025"/>
    <path d="M34.942,16.289c-.511,0-1.007-.082-1.501-.247-.578-.198-.891-.825-.676-1.402.198-.578.825-.874,1.402-.676,2.127.742,5.31-1.896,7.636-3.81,2.243-1.847,3.727-3.084,4.964-2.028.462.396.527,1.089.131,1.55-.313.363-.791.478-1.22.329-.495.214-1.632,1.154-2.474,1.847-2.325,1.914-5.376,4.437-8.262,4.437" fill="#f58025"/>
    <path d="M22.804,16.108c-.445,0-.858-.264-1.038-.709-.214-.578.066-1.204.643-1.418,2.111-.809,2.852-4.864,3.397-7.816.527-2.852.874-4.75,2.507-4.75.61,0,1.105.495,1.105,1.105,0,.478-.297.891-.725,1.038-.247.495-.511,1.929-.709,3.001-.643,3.479-1.517,8.245-4.782,9.483-.131.049-.264.082-.396.082" fill="#f58025"/>
    <path d="M21.666,44.489c.462,0,.907.066,1.336.214,3.001,1.138,3.842,5.722,4.453,9.07.231,1.27.544,2.985.874,3.348.329-.38.643-2.094.874-3.348.61-3.348,1.467-7.932,4.437-9.07.429-.149.874-.231,1.352-.231,2.688,0,5.573,2.392,7.899,4.321,1.038.858,2.309,1.914,2.821,2.012,0-.495-.858-2.012-1.485-3.117-1.682-2.952-3.99-7.009-2.441-9.796,1.649-2.754,6.316-2.787,9.713-2.803,1.287,0,3.034-.016,3.463-.28-.313-.38-1.945-.989-3.15-1.434-3.183-1.187-7.553-2.821-8.163-5.937-.511-3.166,3.034-6.184,5.624-8.394.973-.841,2.292-1.945,2.474-2.425h-.1c-.627,0-1.896.445-3.232.923-2.094.742-4.684,1.665-6.893,1.665-1.303,0-2.374-.329-3.166-.973-2.425-2.094-1.649-6.695-1.072-10.043.214-1.27.511-2.985.329-3.446-.429.247-1.303,1.748-1.963,2.852-1.716,2.935-4.073,6.96-7.273,7.009-3.216-.049-5.573-4.073-7.289-7.009-.66-1.105-1.534-2.605-1.963-2.852-.182.462.116,2.177.329,3.446.56,3.348,1.352,7.949-1.072,10.043-.809.66-1.88.989-3.183.989-2.21,0-4.815-.923-6.909-1.665-1.336-.478-2.605-.923-3.232-.923h-.116c.182.462,1.485,1.583,2.474,2.425,2.589,2.21,6.135,5.228,5.64,8.378-.61,3.15-4.98,4.766-8.163,5.953-1.204.445-2.836,1.056-3.15,1.434.429.247,2.161.264,3.446.264,3.414.016,8.065.049,9.713,2.787,1.567,2.803-.742,6.86-2.425,9.812-.627,1.121-1.485,2.623-1.485,3.117.511-.1,1.798-1.154,2.821-2.012,2.325-1.929,5.211-4.321,7.899-4.321M28.312,58.276h0c-1.171,0-1.485-1.716-1.945-4.288-.56-3.084-1.352-7.322-3.743-8.245-.28-.1-.61-.149-.94-.149-2.292,0-5.013,2.259-7.19,4.057-1.748,1.451-2.787,2.276-3.595,2.276-.247,0-.478-.082-.66-.231-.891-.742-.033-2.259,1.27-4.551,1.55-2.721,3.677-6.464,2.425-8.723-1.303-2.194-5.607-2.226-8.756-2.243-2.623-.016-4.37-.033-4.568-1.171-.198-1.154,1.418-1.748,3.892-2.672,2.935-1.089,6.976-2.589,7.454-5.113.396-2.523-2.87-5.31-5.26-7.338-1.996-1.716-3.332-2.836-2.737-3.842.132-.247.445-.527,1.105-.527.825,0,2.045.429,3.595.989,2.012.709,4.519,1.6,6.531,1.6,1.056,0,1.863-.231,2.474-.725,1.929-1.665,1.204-5.92.676-9.004-.429-2.589-.725-4.304.363-4.7.116-.033.214-.066.329-.066.956,0,1.765,1.369,2.968,3.43,1.583,2.705,3.777,6.415,6.333,6.464,2.556-.033,4.733-3.743,6.316-6.464,1.204-2.061,2.012-3.43,2.968-3.43.116,0,.231.016.329.066,1.089.396.809,2.111.363,4.717-.527,3.101-1.236,7.338.709,9.021.594.478,1.402.709,2.457.709,2.012,0,4.519-.891,6.531-1.6,1.55-.544,2.77-.989,3.595-.989.66,0,.956.297,1.105.527.578,1.007-.742,2.143-2.737,3.842-2.392,2.045-5.673,4.815-5.26,7.355.478,2.507,4.519,4.008,7.454,5.095,2.474.923,4.106,1.517,3.892,2.672-.198,1.154-1.945,1.154-4.568,1.171-3.15.016-7.438.066-8.756,2.259-1.236,2.226.891,5.969,2.441,8.691,1.303,2.292,2.161,3.793,1.27,4.551-.182.149-.412.231-.66.231-.809,0-1.847-.825-3.595-2.276-2.194-1.814-4.915-4.057-7.19-4.057-.347,0-.66.049-.973.149-2.374.907-3.166,5.146-3.727,8.229-.478,2.589-.791,4.288-1.963,4.288" fill="#f58025"/>
  </g>
</svg>